<svg width="3005" height="615" viewBox="0 0 3005 615" fill="none" xmlns="http://www.w3.org/2000/svg">
<g clip-path="url(#clip0_317_4124)">
<g clip-path="url(#clip1_317_4124)">
<g clip-path="url(#clip2_317_4124)">
<path d="M239.189 384.407L215.021 380.872L210.087 381.617L208.338 388.281L212.109 400.292L217.445 411.624L226.922 418.106L244.467 415.559L250.309 403.046L245.125 391.491L239.189 384.407Z" fill="#FFF9E1"/>
<path d="M269.165 187.297L261.155 186.126L259.519 186.373L258.94 188.581L260.19 192.563L261.958 196.319L265.099 198.467L270.915 197.623L272.851 193.475L271.133 189.645L269.165 187.297Z" fill="#FFF9E1"/>
<path d="M269.669 181.704L269.597 177.623L269.34 176.829L268.193 176.721L266.315 177.669L264.591 178.856L263.779 180.595L264.674 183.419L266.896 184.043L268.661 182.875L269.669 181.704Z" fill="#FFF9E1"/>
<path d="M207.629 238.573L207.557 234.492L207.3 233.698L206.154 233.591L204.275 234.538L202.551 235.725L201.739 237.464L202.635 240.288L204.857 240.912L206.622 239.744L207.629 238.573Z" fill="#FFF9E1"/>
<path d="M182.165 314.121L173.048 312.787L171.187 313.068L170.527 315.582L171.95 320.113L173.963 324.387L177.537 326.832L184.156 325.872L186.359 321.152L184.404 316.793L182.165 314.121Z" fill="#FFF9E1"/>
<path d="M196.496 274.766L190.815 273.935L189.655 274.11L189.244 275.677L190.131 278.5L191.385 281.164L193.613 282.688L197.737 282.089L199.11 279.148L197.892 276.431L196.496 274.766Z" fill="#FFF9E1"/>
<path d="M182.915 290.088L197.095 288.014L199.99 288.451L201.016 292.361L198.803 299.408L195.672 306.057L190.112 309.86L179.818 308.366L176.39 301.024L179.432 294.244L182.915 290.088Z" fill="#FFF9E1"/>
<path d="M224.605 199.763L238.784 197.689L241.68 198.126L242.706 202.037L240.493 209.084L237.362 215.733L231.802 219.536L221.508 218.041L218.08 210.7L221.121 203.92L224.605 199.763Z" fill="#FFF9E1"/>
<path d="M217.937 220.59L220.574 225.072L220.823 226.104L219.65 226.984L216.978 227.205L214.315 227.063L212.276 225.714L211.37 222.05L213.368 219.893L216.063 219.988L217.937 220.59Z" fill="#FFF9E1"/>
<path d="M215.164 360.816L210.261 365.768L215.059 373.588L224.375 375.645L230.547 377.842L235.592 373.12L235.51 368.057L215.164 360.816Z" fill="#FFF9E1"/>
<path d="M205.077 362.791L198.952 359.47L192.786 366.264L193.417 375.784L193.035 382.323L198.979 385.846L203.817 384.35L205.077 362.791Z" fill="#FFF9E1"/>
<path d="M199.338 261.311L198.291 256.605L191.945 256.471L187.261 261.122L183.673 263.892L184.533 268.594L187.51 270.441L199.338 261.311Z" fill="#FFF9E1"/>
<path d="M258.098 192.139L257.4 189.001L253.168 188.911L250.045 192.013L247.653 193.859L248.226 196.995L250.211 198.226L258.098 192.139Z" fill="#FFF9E1"/>
<path d="M213.897 235.904L215.526 235.369L215.352 233.118L213.542 231.622L212.437 230.449L210.802 230.917L210.252 232.035L213.897 235.904Z" fill="#FFF9E1"/>
<path d="M202.172 233.326L201.687 231.143L198.743 231.081L196.571 233.238L194.907 234.523L195.305 236.704L196.686 237.561L202.172 233.326Z" fill="#FFF9E1"/>
<path d="M252.999 202.851L251.12 200.242L247.196 201.828L245.549 205.909L244.078 208.55L245.841 211.205L248.151 211.554L252.999 202.851Z" fill="#FFF9E1"/>
<path d="M182.165 314.121L173.048 312.787L171.187 313.068L170.527 315.582L171.95 320.113L173.963 324.387L177.537 326.832L184.156 325.872L186.359 321.152L184.404 316.793L182.165 314.121Z" fill="#FFF9E1"/>
<path d="M190.925 329.1H185.608L182.467 332.822L175.778 345L188.272 358.721L206.349 349.627L207.289 345L190.925 329.1Z" fill="#FFF9E1"/>
<path d="M181.182 271.119H178.842L177.46 272.941L174.517 278.9L180.014 285.615L187.968 281.164L188.382 278.9L181.182 271.119Z" fill="#FFF9E1"/>
<path d="M346.103 189.175L348.553 180.294L349.56 178.703L352.126 179.111L355.701 182.238L358.803 185.802L359.602 190.058L356.057 195.729L350.849 195.846L347.647 192.301L346.103 189.175Z" fill="#FFF9E1"/>
<path d="M304.314 186.437L305.841 180.902L306.468 179.911L308.068 180.166L310.295 182.114L312.228 184.335L312.726 186.988L310.517 190.522L307.272 190.594L305.276 188.385L304.314 186.437Z" fill="#FFF9E1"/>
<path d="M323.808 180.179L316.2 192.323L315.434 195.149L318.6 197.663L325.942 198.475L333.288 198.286L339.008 194.728L341.785 184.703L336.445 178.61L329.015 178.664L323.808 180.179Z" fill="#FFF9E1"/>
<path d="M346.103 189.175L348.553 180.294L349.56 178.703L352.126 179.111L355.701 182.238L358.803 185.802L359.602 190.058L356.057 195.729L350.849 195.846L347.647 192.301L346.103 189.175Z" fill="#FFF9E1"/>
<path d="M356.679 203.367L358.741 198.678L363.367 197.408L377.108 196.414L384.821 212.954L369.486 225.231L364.887 224.197L356.679 203.367Z" fill="#FFF9E1"/>
<path d="M307.458 170.865L308.427 168.662L310.598 168.064L317.046 167.593L320.661 175.361L313.462 181.133L311.304 180.648L307.458 170.865Z" fill="#FFF9E1"/>
<path d="M197.242 240.867H194.796L193.351 242.689L190.274 248.648L196.021 255.363L204.337 250.912L204.769 248.648L197.242 240.867Z" fill="#FFF9E1"/>
<path d="M419.48 332.921L419.552 328.839L419.809 328.046L420.955 327.938L422.834 328.886L424.558 330.073L425.37 331.812L424.474 334.636L422.252 335.26L420.487 334.092L419.48 332.921Z" fill="#FFF9E1"/>
<path d="M367.224 408.434L373.476 415.201L374.297 416.895L372.596 418.86L368.054 420.248L363.39 421.004L359.353 419.437L356.404 413.434L359.052 408.948L363.753 408.098L367.224 408.434Z" fill="#FFF9E1"/>
<path d="M391.596 374.374L395.493 378.591L396.004 379.647L394.944 380.871L392.114 381.736L389.208 382.207L386.691 381.23L384.854 377.489L386.504 374.694L389.434 374.164L391.596 374.374Z" fill="#FFF9E1"/>
<path d="M386.627 394.235L380.323 381.365L378.326 379.224L374.521 380.588L369.958 386.396L366.243 392.737L366.248 399.474L373.3 407.121L381.294 405.799L385.167 399.458L386.627 394.235Z" fill="#FFF9E1"/>
<path d="M401.09 364.428L405.564 362.632L409.263 367.791L408.073 374.284L407.816 378.809L403.451 380.758L400.244 379.346L401.09 364.428Z" fill="#FFF9E1"/>
<path d="M367.224 408.434L373.476 415.201L374.297 416.895L372.596 418.86L368.054 420.248L363.39 421.004L359.353 419.437L356.404 413.434L359.052 408.948L363.753 408.098L367.224 408.434Z" fill="#FFF9E1"/>
<path d="M403.168 385.259L404.528 387.244L403.891 389.404L400.889 395.13L392.383 394.104L391.278 384.943L392.828 383.365L403.168 385.259Z" fill="#FFF9E1"/>
<path d="M418.094 354.638L419.455 356.623L418.818 358.783L415.816 364.509L407.31 363.483L406.205 354.322L407.755 352.744L418.094 354.638Z" fill="#FFF9E1"/>
<path d="M279.304 201.856L280.481 201.176L280.683 199.919L280.548 196.266L275.962 194.71L273.167 199.11L273.573 200.293L279.304 201.856Z" fill="#FFF9E1"/>
<path d="M208.365 230.014L209.542 229.334L209.743 228.078L209.608 224.424L205.023 222.868L202.228 227.268L202.634 228.451L208.365 230.014Z" fill="#FFF9E1"/>
<path d="M423.105 246.272L401.59 238.526L392.741 241.569L390.8 244.02L396.802 251.494L405.356 259.889L415.286 263.445L420.001 265.592L424.957 264.312L423.105 246.272Z" fill="#FFF9E1"/>
<path d="M298.406 417.047L276.892 409.302L268.042 412.345L266.101 414.796L272.103 422.27L280.657 430.664L290.587 434.221L295.302 436.367L300.258 435.087L298.406 417.047Z" fill="#FFF9E1"/>
<path d="M419.161 346.629L415.191 334.009L410.69 331L408.881 330.965L407.542 336.347L406.673 343.226L408.514 349.045L409.177 351.968L411.503 353.801L419.161 346.629Z" fill="#FFF9E1"/>
<path d="M264.115 421.594L260.145 408.974L255.644 405.965L253.835 405.93L252.496 411.312L251.627 418.191L253.468 424.01L254.132 426.933L256.457 428.766L264.115 421.594Z" fill="#FFF9E1"/>
<path d="M288.685 170.912H284.006L281.242 174.318L275.355 185.46L286.35 198.012L302.259 189.692L303.086 185.46L288.685 170.912Z" fill="#FFF9E1"/>
<path d="M326.585 420.971L318.575 419.799L316.939 420.046L316.36 422.255L317.61 426.236L319.378 429.992L322.519 432.141L328.335 431.296L330.271 427.149L328.553 423.319L326.585 420.971Z" fill="#FFF9E1"/>
<path d="M327.084 415.376L327.011 411.295L326.755 410.501L325.608 410.393L323.73 411.341L322.006 412.528L321.194 414.267L322.089 417.091L324.311 417.715L326.076 416.547L327.084 415.376Z" fill="#FFF9E1"/>
<path d="M315.507 425.812L314.809 422.674L310.578 422.585L307.455 425.686L305.062 427.533L305.636 430.669L307.621 431.9L315.507 425.812Z" fill="#FFF9E1"/>
<path d="M336.722 435.529L337.899 434.85L338.101 433.593L337.966 429.94L333.38 428.384L330.585 432.784L330.991 433.967L336.722 435.529Z" fill="#FFF9E1"/>
<path d="M346.667 404.729H341.987L339.223 408.213L333.337 419.614L344.331 432.459L360.24 423.946L361.067 419.614L346.667 404.729Z" fill="#FFF9E1"/>
<path d="M426.206 291.414L427.778 283.472L427.613 281.826L425.436 281.137L421.397 282.186L417.557 283.764L415.254 286.793L415.806 292.643L419.851 294.785L423.762 293.261L426.206 291.414Z" fill="#FFF9E1"/>
<path d="M431.763 292.191L435.843 292.324L436.649 292.107L436.814 290.967L435.961 289.044L434.862 287.262L433.166 286.364L430.301 287.117L429.566 289.305L430.644 291.126L431.763 292.191Z" fill="#FFF9E1"/>
<path d="M421.928 280.11L425.097 279.57L425.398 275.348L422.457 272.073L420.733 269.592L417.573 270.007L416.243 271.928L421.928 280.11Z" fill="#FFF9E1"/>
<path d="M411.162 300.808L411.782 302.018L413.027 302.282L416.682 302.33L418.466 297.828L414.212 294.816L413.01 295.162L411.162 300.808Z" fill="#FFF9E1"/>
<path d="M441.696 311.803L441.938 306.996L438.592 303.982L427.484 297.361L414.06 308.011L421.761 324.782L426.053 325.849L441.696 311.803Z" fill="#FFF9E1"/>
<path d="M393.874 220.07H391.428L389.983 222.13L386.906 228.866L392.653 236.456L400.969 231.426L401.401 228.866L393.874 220.07Z" fill="#FFF9E1"/>
<path d="M393.207 207.538L391.444 205.555L388.96 205.666L382.023 207.366L380.847 216.752L390.365 220.362L392.469 219.119L393.207 207.538Z" fill="#FFF9E1"/>
<path d="M209.849 422.674L175.517 417.652L168.507 418.71L166.024 428.177L171.381 445.24L178.961 461.338L192.423 470.545L217.347 466.927L225.646 449.152L218.282 432.737L209.849 422.674Z" fill="#FFF9E1"/>
<path d="M252.433 142.665L241.054 141.001L238.73 141.351L237.907 144.489L239.682 150.145L242.195 155.48L246.657 158.532L254.918 157.333L257.669 151.441L255.228 146.001L252.433 142.665Z" fill="#FFF9E1"/>
<path d="M253.147 134.719L253.044 128.921L252.68 127.794L251.051 127.641L248.382 128.987L245.933 130.673L244.78 133.143L246.052 137.155L249.209 138.042L251.716 136.383L253.147 134.719Z" fill="#FFF9E1"/>
<path d="M165.016 215.506L164.913 209.708L164.549 208.581L162.92 208.428L160.252 209.774L157.802 211.46L156.649 213.93L157.921 217.942L161.078 218.829L163.585 217.17L165.016 215.506Z" fill="#FFF9E1"/>
<path d="M128.844 322.825L115.893 320.931L113.249 321.33L112.312 324.901L114.333 331.338L117.192 337.41L122.27 340.883L131.672 339.518L134.803 332.813L132.025 326.621L128.844 322.825Z" fill="#FFF9E1"/>
<path d="M149.2 266.921L141.13 265.741L139.482 265.989L138.898 268.215L140.157 272.226L141.939 276.01L145.104 278.175L150.963 277.324L152.914 273.145L151.183 269.287L149.2 266.921Z" fill="#FFF9E1"/>
<path d="M129.901 288.685L150.044 285.738L154.157 286.359L155.615 291.914L152.471 301.925L148.024 311.37L140.125 316.773L125.501 314.65L120.632 304.22L124.953 294.589L129.901 288.685Z" fill="#FFF9E1"/>
<path d="M189.128 160.372L209.271 157.426L213.384 158.047L214.841 163.601L211.698 173.613L207.251 183.058L199.352 188.46L184.728 186.337L179.859 175.908L184.179 166.277L189.128 160.372Z" fill="#FFF9E1"/>
<path d="M179.653 189.958L183.399 196.325L183.753 197.792L182.086 199.042L178.291 199.356L174.508 199.154L171.612 197.238L170.324 192.033L173.163 188.969L176.991 189.103L179.653 189.958Z" fill="#FFF9E1"/>
<path d="M175.714 389.159L168.75 396.194L175.566 407.303L188.8 410.225L197.567 413.345L204.734 406.638L204.617 399.445L175.714 389.159Z" fill="#FFF9E1"/>
<path d="M161.394 391.967L152.692 387.249L143.933 396.9L144.83 410.424L144.287 419.713L152.731 424.717L159.604 422.593L161.394 391.967Z" fill="#FFF9E1"/>
<path d="M153.245 247.806L151.758 241.121L142.743 240.929L136.089 247.537L130.992 251.471L132.213 258.152L136.443 260.776L153.245 247.806Z" fill="#FFF9E1"/>
<path d="M236.708 149.54L235.717 145.082L229.705 144.955L225.269 149.361L221.87 151.984L222.685 156.439L225.505 158.188L236.708 149.54Z" fill="#FFF9E1"/>
<path d="M173.92 211.716L176.235 210.956L175.988 207.758L173.416 205.633L171.846 203.967L169.524 204.632L168.742 206.221L173.92 211.716Z" fill="#FFF9E1"/>
<path d="M157.265 208.053L156.575 204.952L152.394 204.863L149.308 207.928L146.944 209.753L147.51 212.851L149.472 214.068L157.265 208.053Z" fill="#FFF9E1"/>
<path d="M229.463 164.758L226.795 161.053L221.22 163.305L218.88 169.104L216.791 172.854L219.295 176.627L222.577 177.123L229.463 164.758Z" fill="#FFF9E1"/>
<path d="M128.844 322.825L115.893 320.931L113.249 321.33L112.312 324.901L114.333 331.338L117.192 337.41L122.27 340.883L131.672 339.518L134.803 332.813L132.025 326.621L128.844 322.825Z" fill="#FFF9E1"/>
<path d="M141.22 344.227H133.882L129.548 349.533L120.316 366.894L137.558 386.452L162.506 373.489L163.803 366.894L141.22 344.227Z" fill="#FFF9E1"/>
<path d="M127.188 262.295H123.891L121.944 264.829L117.796 273.121L125.543 282.462L136.751 276.271L137.334 273.121L127.188 262.295Z" fill="#FFF9E1"/>
<path d="M361.722 145.332L365.203 132.716L366.633 130.456L370.279 131.036L375.357 135.477L379.764 140.54L380.898 146.587L375.863 154.643L368.465 154.809L363.916 149.773L361.722 145.332Z" fill="#FFF9E1"/>
<path d="M302.366 141.444L304.535 133.581L305.426 132.173L307.698 132.535L310.863 135.303L313.609 138.457L314.316 142.226L311.178 147.246L306.568 147.349L303.733 144.211L302.366 141.444Z" fill="#FFF9E1"/>
<path d="M330.05 132.553L319.243 149.805L318.155 153.82L322.652 157.39L333.082 158.545L343.518 158.277L351.644 153.222L355.589 138.981L348.003 130.324L337.448 130.401L330.05 132.553Z" fill="#FFF9E1"/>
<path d="M361.722 145.332L365.203 132.716L366.633 130.456L370.279 131.036L375.357 135.477L379.764 140.54L380.898 146.587L375.863 154.643L368.465 154.809L363.916 149.773L361.722 145.332Z" fill="#FFF9E1"/>
<path d="M376.749 165.491L379.679 158.831L386.25 157.027L405.771 155.615L416.728 179.111L394.943 196.551L388.409 195.082L376.749 165.491Z" fill="#FFF9E1"/>
<path d="M306.824 119.321L308.201 116.191L311.285 115.342L320.446 114.673L325.581 125.708L315.353 133.906L312.288 133.218L306.824 119.321Z" fill="#FFF9E1"/>
<path d="M150.155 218.811H146.539L144.403 221.345L139.854 229.637L148.35 238.978L160.643 232.787L161.282 229.637L150.155 218.811Z" fill="#FFF9E1"/>
<path d="M465.964 349.533L466.067 343.735L466.431 342.608L468.06 342.455L470.728 343.801L473.178 345.488L474.331 347.958L473.059 351.97L469.902 352.856L467.395 351.197L465.964 349.533Z" fill="#FFF9E1"/>
<path d="M391.727 456.805L400.61 466.417L401.775 468.824L399.359 471.616L392.907 473.587L386.282 474.66L380.546 472.434L376.358 463.907L380.12 457.535L386.798 456.327L391.727 456.805Z" fill="#FFF9E1"/>
<path d="M426.353 408.421L431.889 414.411L432.615 415.911L431.109 417.651L427.089 418.879L422.96 419.548L419.385 418.161L416.775 412.847L419.12 408.876L423.281 408.123L426.353 408.421Z" fill="#FFF9E1"/>
<path d="M419.299 436.633L410.344 418.351L407.507 415.309L402.101 417.246L395.619 425.498L390.341 434.506L390.349 444.075L400.366 454.939L411.722 453.061L417.225 444.053L419.299 436.633Z" fill="#FFF9E1"/>
<path d="M439.837 394.29L446.193 391.738L451.446 399.067L449.756 408.291L449.392 414.719L443.19 417.488L438.635 415.482L439.837 394.29Z" fill="#FFF9E1"/>
<path d="M391.727 456.805L400.61 466.417L401.775 468.824L399.359 471.616L392.907 473.587L386.282 474.66L380.546 472.434L376.358 463.907L380.12 457.535L386.798 456.327L391.727 456.805Z" fill="#FFF9E1"/>
<path d="M442.796 423.88L444.728 426.701L443.823 429.768L439.559 437.904L427.476 436.445L425.905 423.432L428.107 421.191L442.796 423.88Z" fill="#FFF9E1"/>
<path d="M463.995 380.384L465.927 383.204L465.022 386.272L460.758 394.408L448.675 392.949L447.104 379.936L449.306 377.695L463.995 380.384Z" fill="#FFF9E1"/>
<path d="M266.834 163.344L268.506 162.378L268.792 160.593L268.6 155.403L262.085 153.193L258.115 159.443L258.692 161.124L266.834 163.344Z" fill="#FFF9E1"/>
<path d="M166.06 203.346L167.732 202.38L168.018 200.595L167.826 195.405L161.311 193.194L157.341 199.445L157.918 201.126L166.06 203.346Z" fill="#FFF9E1"/>
<path d="M471.108 226.445L440.546 215.442L427.975 219.764L425.217 223.246L433.744 233.864L445.895 245.788L460.002 250.841L466.7 253.89L473.739 252.072L471.108 226.445Z" fill="#FFF9E1"/>
<path d="M293.964 469.042L263.401 458.039L250.83 462.362L248.073 465.844L256.599 476.461L268.75 488.386L282.857 493.438L289.555 496.488L296.594 494.67L293.964 469.042Z" fill="#FFF9E1"/>
<path d="M465.508 369.005L459.868 351.077L453.474 346.803L450.904 346.753L449.003 354.399L447.768 364.171L450.384 372.437L451.326 376.589L454.629 379.194L465.508 369.005Z" fill="#FFF9E1"/>
<path d="M245.257 475.501L239.617 457.573L233.223 453.299L230.654 453.249L228.752 460.895L227.518 470.667L230.133 478.933L231.075 483.086L234.378 485.69L245.257 475.501Z" fill="#FFF9E1"/>
<path d="M279.617 119.232H272.81L268.79 124.143L260.228 140.208L276.22 158.307L299.36 146.311L300.563 140.208L279.617 119.232Z" fill="#FFF9E1"/>
<path d="M334 474.616L322.621 472.952L320.298 473.303L319.474 476.44L321.25 482.096L323.763 487.432L328.225 490.484L336.486 489.284L339.237 483.392L336.796 477.952L334 474.616Z" fill="#FFF9E1"/>
<path d="M334.713 466.668L334.61 460.87L334.246 459.743L332.617 459.59L329.948 460.936L327.499 462.623L326.346 465.092L327.618 469.104L330.775 469.991L333.282 468.332L334.713 466.668Z" fill="#FFF9E1"/>
<path d="M318.26 481.489L317.269 477.032L311.257 476.904L306.821 481.31L303.423 483.933L304.237 488.388L307.057 490.137L318.26 481.489Z" fill="#FFF9E1"/>
<path d="M348.403 495.295L350.075 494.329L350.361 492.544L350.169 487.354L343.655 485.144L339.684 491.394L340.261 493.075L348.403 495.295Z" fill="#FFF9E1"/>
<path d="M361.852 451.367H354.939L350.856 456.436L342.16 473.019L358.402 491.702L381.903 479.319L383.125 473.019L361.852 451.367Z" fill="#FFF9E1"/>
<path d="M475.519 290.567L477.752 279.285L477.518 276.947L474.426 275.968L468.688 277.457L463.233 279.699L459.961 284.002L460.745 292.313L466.491 295.356L472.047 293.191L475.519 290.567Z" fill="#FFF9E1"/>
<path d="M483.412 291.673L489.208 291.861L490.352 291.554L490.586 289.935L489.376 287.202L487.814 284.671L485.406 283.395L481.335 284.465L480.291 287.573L481.822 290.16L483.412 291.673Z" fill="#FFF9E1"/>
<path d="M469.438 274.509L473.94 273.742L474.368 267.745L470.191 263.093L467.741 259.568L463.251 260.157L461.363 262.886L469.438 274.509Z" fill="#FFF9E1"/>
<path d="M454.146 303.916L455.027 305.634L456.795 306.009L461.988 306.078L464.523 299.683L458.479 295.404L456.772 295.895L454.146 303.916Z" fill="#FFF9E1"/>
<path d="M497.52 319.535L497.863 312.706L493.11 308.424L477.33 299.019L458.26 314.148L469.2 337.972L475.298 339.488L497.52 319.535Z" fill="#FFF9E1"/>
<path d="M429.372 191.08H425.969L423.959 193.694L419.677 202.244L427.674 211.878L439.244 205.493L439.845 202.244L429.372 191.08Z" fill="#FFF9E1"/>
<path d="M428.638 171.42L426.134 168.603L422.606 168.76L412.751 171.175L411.081 184.509L424.601 189.637L427.591 187.871L428.638 171.42Z" fill="#FFF9E1"/>
<path d="M168.24 475.064L119.419 467.923L109.45 469.428L105.918 482.89L113.536 507.155L124.316 530.047L143.46 543.141L178.904 537.995L190.705 512.717L180.233 489.375L168.24 475.064Z" fill="#FFF9E1"/>
<path d="M228.801 76.8727L212.619 74.5058L209.315 75.0045L208.144 79.4667L210.669 87.5093L214.242 95.0969L220.588 99.4369L232.335 97.7313L236.247 89.353L232.776 81.6162L228.801 76.8727Z" fill="#FFF9E1"/>
<path d="M229.811 65.5721L229.665 57.3272L229.147 55.7239L226.831 55.5064L223.036 57.4206L219.553 59.819L217.912 63.3311L219.722 69.0368L224.211 70.2978L227.776 67.9379L229.811 65.5721Z" fill="#FFF9E1"/>
<path d="M104.491 180.459L104.345 172.214L103.827 170.611L101.511 170.393L97.7159 172.307L94.2329 174.706L92.5926 178.218L94.4021 183.923L98.8907 185.184L102.456 182.825L104.491 180.459Z" fill="#FFF9E1"/>
<path d="M53.0444 333.072L34.6284 330.378L30.868 330.946L29.5356 336.024L32.4093 345.177L36.4756 353.812L43.697 358.751L57.0668 356.81L61.5186 347.275L57.5684 338.47L53.0444 333.072Z" fill="#FFF9E1"/>
<path d="M82.0009 253.571L70.5243 251.892L68.1809 252.246L67.3506 255.411L69.1414 261.115L71.6754 266.496L76.1758 269.574L84.5076 268.365L87.2819 262.422L84.8202 256.935L82.0009 253.571Z" fill="#FFF9E1"/>
<path d="M54.5531 284.524L83.1982 280.334L89.0472 281.217L91.1196 289.116L86.6498 303.353L80.325 316.784L69.0924 324.467L48.2966 321.448L41.372 306.616L47.5164 292.921L54.5531 284.524Z" fill="#FFF9E1"/>
<path d="M138.777 102.055L167.422 97.8652L173.271 98.7481L175.344 106.647L170.874 120.884L164.549 134.316L153.316 141.998L132.52 138.979L125.596 124.148L131.74 110.452L138.777 102.055Z" fill="#FFF9E1"/>
<path d="M125.306 144.127L130.634 153.181L131.138 155.267L128.767 157.045L123.37 157.491L117.991 157.203L113.872 154.479L112.041 147.077L116.078 142.72L121.521 142.911L125.306 144.127Z" fill="#FFF9E1"/>
<path d="M119.704 427.404L109.8 437.408L119.493 453.205L138.313 457.361L150.78 461.798L160.971 452.26L160.805 442.032L119.704 427.404Z" fill="#FFF9E1"/>
<path d="M99.3473 431.396L86.9726 424.686L74.5173 438.411L75.7924 457.642L75.0202 470.853L87.0284 477.969L96.8016 474.948L99.3473 431.396Z" fill="#FFF9E1"/>
<path d="M87.7531 226.392L85.6382 216.885L72.8175 216.613L63.3557 226.01L56.1078 231.604L57.8443 241.105L63.8584 244.836L87.7531 226.392Z" fill="#FFF9E1"/>
<path d="M206.442 86.6495L205.032 80.3104L196.483 80.1293L190.174 86.3948L185.342 90.1251L186.499 96.4595L190.509 98.9474L206.442 86.6495Z" fill="#FFF9E1"/>
<path d="M117.16 175.066L120.452 173.986L120.101 169.438L116.444 166.417L114.211 164.046L110.908 164.992L109.798 167.252L117.16 175.066Z" fill="#FFF9E1"/>
<path d="M93.4713 169.859L92.4904 165.45L86.544 165.324L82.1554 169.682L78.7938 172.277L79.5992 176.683L82.3886 178.414L93.4713 169.859Z" fill="#FFF9E1"/>
<path d="M196.132 108.291L192.337 103.022L184.409 106.226L181.082 114.471L178.111 119.804L181.672 125.169L186.339 125.875L196.132 108.291Z" fill="#FFF9E1"/>
<path d="M53.0444 333.072L34.6284 330.378L30.868 330.946L29.5356 336.024L32.4093 345.177L36.4756 353.812L43.697 358.751L57.0668 356.81L61.5186 347.275L57.5684 338.47L53.0444 333.072Z" fill="#FFF9E1"/>
<path d="M70.899 363.764H60.3699L54.1514 371.367L40.9065 396.242L65.6449 424.266L101.439 405.692L103.3 396.242L70.899 363.764Z" fill="#FFF9E1"/>
<path d="M51.3898 246.539H46.6038L43.7772 250.262L37.7568 262.44L49.0015 276.16L65.2715 267.066L66.1174 262.44L51.3898 246.539Z" fill="#FFF9E1"/>
<path d="M384.223 80.6664L389.173 62.7247L391.207 59.5112L396.392 60.3364L403.613 66.6523L409.88 73.8515L411.493 82.4504L404.333 93.9068L393.812 94.1424L387.343 86.9812L384.223 80.6664Z" fill="#FFF9E1"/>
<path d="M299.812 75.1381L302.896 63.957L304.164 61.9544L307.395 62.4687L311.895 66.4047L315.8 70.8911L316.806 76.2499L312.344 83.3893L305.787 83.5362L301.756 79.0734L299.812 75.1381Z" fill="#FFF9E1"/>
<path d="M339.183 62.4942L323.814 87.0274L322.267 92.7368L328.663 97.8143L343.494 99.4556L358.336 99.0744L369.891 91.8862L375.501 71.6351L364.713 59.3247L349.703 59.4342L339.183 62.4942Z" fill="#FFF9E1"/>
<path d="M384.223 80.6664L389.173 62.7247L391.207 59.5112L396.392 60.3364L403.613 66.6523L409.88 73.8515L411.493 82.4504L404.333 93.9068L393.812 94.1424L387.343 86.9812L384.223 80.6664Z" fill="#FFF9E1"/>
<path d="M405.585 109.333L409.752 99.8615L419.096 97.2957L446.855 95.2874L462.437 128.701L431.458 153.502L422.166 151.412L405.585 109.333Z" fill="#FFF9E1"/>
<path d="M306.151 43.677L308.109 39.2266L312.494 38.0188L325.521 37.0678L332.824 52.7597L318.28 64.4187L313.92 63.4397L306.151 43.677Z" fill="#FFF9E1"/>
<path d="M82.8751 184.146H77.8764L74.9242 188.107L68.6362 201.062L80.3807 215.658L97.3738 205.984L98.2572 201.062L82.8751 184.146Z" fill="#FFF9E1"/>
<path d="M532.455 371.055L532.601 362.81L533.119 361.206L535.435 360.989L539.23 362.903L542.713 365.301L544.353 368.814L542.544 374.519L538.055 375.78L534.49 373.42L532.455 371.055Z" fill="#FFF9E1"/>
<path d="M426.894 523.601L439.526 537.271L441.183 540.694L437.747 544.663L428.572 547.466L419.15 548.993L410.994 545.827L405.038 533.701L410.387 524.639L419.884 522.921L426.894 523.601Z" fill="#FFF9E1"/>
<path d="M476.134 454.798L484.005 463.316L485.038 465.449L482.897 467.923L477.179 469.67L471.308 470.621L466.225 468.648L462.513 461.092L465.847 455.444L471.765 454.373L476.134 454.798Z" fill="#FFF9E1"/>
<path d="M466.093 494.915L453.358 468.916L449.324 464.59L441.636 467.345L432.418 479.08L424.913 491.889L424.925 505.498L439.17 520.947L455.319 518.276L463.143 505.466L466.093 494.915Z" fill="#FFF9E1"/>
<path d="M495.305 434.701L504.344 431.071L511.814 441.494L509.411 454.611L508.893 463.752L500.074 467.689L493.597 464.837L495.305 434.701Z" fill="#FFF9E1"/>
<path d="M426.894 523.601L439.526 537.271L441.183 540.694L437.747 544.663L428.572 547.466L419.15 548.993L410.994 545.827L405.038 533.701L410.387 524.639L419.884 522.921L426.894 523.601Z" fill="#FFF9E1"/>
<path d="M499.512 476.78L502.26 480.791L500.973 485.154L494.909 496.723L477.726 494.649L475.493 476.143L478.624 472.956L499.512 476.78Z" fill="#FFF9E1"/>
<path d="M529.662 414.925L532.41 418.936L531.123 423.298L525.059 434.867L507.875 432.794L505.643 414.288L508.774 411.1L529.662 414.925Z" fill="#FFF9E1"/>
<path d="M249.284 106.282L251.662 104.909L252.068 102.37L251.796 94.9898L242.532 91.8461L236.886 100.734L237.706 103.125L249.284 106.282Z" fill="#FFF9E1"/>
<path d="M105.973 163.166L108.351 161.793L108.757 159.255L108.484 151.875L99.2205 148.731L93.5746 157.619L94.3944 160.009L105.973 163.166Z" fill="#FFF9E1"/>
<path d="M539.772 196.012L496.31 180.365L478.433 186.512L474.512 191.464L486.637 206.562L503.916 223.519L523.977 230.705L533.502 235.041L543.512 232.455L539.772 196.012Z" fill="#FFF9E1"/>
<path d="M287.861 541.002L244.399 525.355L226.522 531.502L222.601 536.454L234.726 551.552L252.005 568.51L272.066 575.695L281.591 580.031L291.602 577.446L287.861 541.002Z" fill="#FFF9E1"/>
<path d="M531.811 398.745L523.791 373.251L514.698 367.173L511.044 367.102L508.339 377.975L506.584 391.871L510.303 403.626L511.643 409.531L516.341 413.234L531.811 398.745Z" fill="#FFF9E1"/>
<path d="M218.594 550.187L210.573 524.693L201.48 518.614L197.826 518.543L195.122 529.416L193.367 543.313L197.086 555.067L198.426 560.972L203.123 564.676L218.594 550.187Z" fill="#FFF9E1"/>
<path d="M267.629 44.2344H257.951L252.235 51.1251L240.06 73.6676L262.799 99.0648L295.701 82.2317L297.411 73.6676L267.629 44.2344Z" fill="#FFF9E1"/>
<path d="M344.794 548.929L328.613 546.562L325.308 547.061L324.138 551.523L326.663 559.566L330.236 567.154L336.581 571.494L348.329 569.788L352.241 561.41L348.77 553.673L344.794 548.929Z" fill="#FFF9E1"/>
<path d="M345.813 537.625L345.667 529.38L345.149 527.777L342.833 527.559L339.038 529.473L335.555 531.872L333.914 535.384L335.724 541.089L340.213 542.35L343.778 539.991L345.813 537.625Z" fill="#FFF9E1"/>
<path d="M322.415 558.704L321.004 552.365L312.456 552.184L306.147 558.449L301.314 562.18L302.472 568.514L306.482 571.002L322.415 558.704Z" fill="#FFF9E1"/>
<path d="M365.279 578.334L367.657 576.961L368.064 574.423L367.791 567.043L358.527 563.899L352.881 572.787L353.701 575.177L365.279 578.334Z" fill="#FFF9E1"/>
<path d="M385.157 516.279H375.373L369.594 523.328L357.285 546.389L380.275 572.37L413.538 555.15L415.267 546.389L385.157 516.279Z" fill="#FFF9E1"/>
<path d="M546.049 287.2L549.225 271.157L548.892 267.832L544.495 266.439L536.336 268.558L528.578 271.746L523.926 277.865L525.04 289.684L533.211 294.011L541.113 290.932L546.049 287.2Z" fill="#FFF9E1"/>
<path d="M557.273 288.771L565.515 289.039L567.142 288.602L567.476 286.3L565.754 282.413L563.534 278.814L560.108 277L554.319 278.521L552.834 282.941L555.012 286.62L557.273 288.771Z" fill="#FFF9E1"/>
<path d="M537.399 264.367L543.801 263.276L544.41 254.747L538.469 248.132L534.986 243.119L528.601 243.957L525.915 247.838L537.399 264.367Z" fill="#FFF9E1"/>
<path d="M515.65 306.182L516.902 308.626L519.417 309.159L526.802 309.257L530.406 300.162L521.812 294.078L519.384 294.776L515.65 306.182Z" fill="#FFF9E1"/>
<path d="M577.33 328.394L577.817 318.683L571.058 312.593L548.618 299.219L521.5 320.733L537.057 354.612L545.729 356.768L577.33 328.394Z" fill="#FFF9E1"/>
<path d="M479.294 145.703H474.295L471.343 149.505L465.055 161.942L476.799 175.954L493.793 166.667L494.676 161.942L479.294 145.703Z" fill="#FFF9E1"/>
<path d="M479.387 117.763L475.826 113.756L470.808 113.98L456.794 117.414L454.419 136.376L473.645 143.669L477.897 141.157L479.387 117.763Z" fill="#FFF9E1"/>
</g>
</g>
<path d="M769.24 475.064L720.419 467.923L710.45 469.428L706.918 482.89L714.536 507.155L725.316 530.047L744.46 543.141L779.904 537.995L791.705 512.717L781.233 489.375L769.24 475.064Z" fill="#FFF9E1"/>
<path d="M829.801 76.8727L813.619 74.5058L810.315 75.0045L809.144 79.4667L811.669 87.5093L815.242 95.0969L821.588 99.4369L833.335 97.7313L837.247 89.353L833.776 81.6162L829.801 76.8727Z" fill="#FFF9E1"/>
<path d="M830.811 65.5721L830.665 57.3272L830.147 55.7239L827.831 55.5064L824.036 57.4206L820.553 59.819L818.912 63.3311L820.722 69.0368L825.211 70.2978L828.776 67.9379L830.811 65.5721Z" fill="#FFF9E1"/>
<path d="M705.491 180.459L705.345 172.214L704.827 170.611L702.511 170.393L698.716 172.307L695.233 174.706L693.593 178.218L695.402 183.923L699.891 185.184L703.456 182.825L705.491 180.459Z" fill="#FFF9E1"/>
<path d="M654.044 333.072L635.628 330.378L631.868 330.946L630.536 336.024L633.409 345.177L637.476 353.812L644.697 358.751L658.067 356.81L662.519 347.275L658.568 338.47L654.044 333.072Z" fill="#FFF9E1"/>
<path d="M683.001 253.571L671.524 251.892L669.181 252.246L668.351 255.411L670.141 261.115L672.675 266.496L677.176 269.574L685.508 268.365L688.282 262.422L685.82 256.935L683.001 253.571Z" fill="#FFF9E1"/>
<path d="M655.553 284.524L684.198 280.334L690.047 281.217L692.12 289.116L687.65 303.353L681.325 316.784L670.092 324.467L649.297 321.448L642.372 306.616L648.516 292.921L655.553 284.524Z" fill="#FFF9E1"/>
<path d="M739.777 102.055L768.422 97.8652L774.271 98.7481L776.344 106.647L771.874 120.884L765.549 134.316L754.316 141.998L733.52 138.979L726.596 124.148L732.74 110.452L739.777 102.055Z" fill="#FFF9E1"/>
<path d="M726.306 144.127L731.634 153.181L732.138 155.267L729.767 157.045L724.37 157.491L718.991 157.203L714.872 154.479L713.041 147.077L717.078 142.72L722.521 142.911L726.306 144.127Z" fill="#FFF9E1"/>
<path d="M720.704 427.404L710.8 437.408L720.493 453.205L739.313 457.361L751.78 461.798L761.971 452.26L761.805 442.032L720.704 427.404Z" fill="#FFF9E1"/>
<path d="M700.347 431.396L687.973 424.686L675.517 438.411L676.792 457.642L676.02 470.853L688.028 477.969L697.802 474.948L700.347 431.396Z" fill="#FFF9E1"/>
<path d="M688.753 226.392L686.638 216.885L673.818 216.613L664.356 226.01L657.108 231.604L658.844 241.105L664.858 244.836L688.753 226.392Z" fill="#FFF9E1"/>
<path d="M807.442 86.6495L806.032 80.3104L797.483 80.1293L791.174 86.3948L786.342 90.1251L787.499 96.4595L791.509 98.9474L807.442 86.6495Z" fill="#FFF9E1"/>
<path d="M718.16 175.066L721.452 173.986L721.101 169.438L717.444 166.417L715.211 164.046L711.908 164.992L710.798 167.252L718.16 175.066Z" fill="#FFF9E1"/>
<path d="M694.471 169.859L693.49 165.45L687.544 165.324L683.155 169.682L679.794 172.277L680.599 176.683L683.389 178.414L694.471 169.859Z" fill="#FFF9E1"/>
<path d="M797.132 108.291L793.337 103.022L785.409 106.226L782.082 114.471L779.111 119.804L782.672 125.169L787.339 125.875L797.132 108.291Z" fill="#FFF9E1"/>
<path d="M654.044 333.072L635.628 330.378L631.868 330.946L630.536 336.024L633.409 345.177L637.476 353.812L644.697 358.751L658.067 356.81L662.519 347.275L658.568 338.47L654.044 333.072Z" fill="#FFF9E1"/>
<path d="M671.899 363.764H661.37L655.151 371.367L641.906 396.242L666.645 424.266L702.439 405.692L704.3 396.242L671.899 363.764Z" fill="#FFF9E1"/>
<path d="M652.39 246.539H647.604L644.777 250.262L638.757 262.44L650.002 276.16L666.272 267.066L667.117 262.44L652.39 246.539Z" fill="#FFF9E1"/>
<path d="M985.223 80.6664L990.173 62.7247L992.207 59.5112L997.392 60.3364L1004.61 66.6523L1010.88 73.8515L1012.49 82.4504L1005.33 93.9068L994.812 94.1424L988.343 86.9812L985.223 80.6664Z" fill="#FFF9E1"/>
<path d="M900.812 75.1381L903.896 63.957L905.164 61.9544L908.395 62.4687L912.895 66.4047L916.8 70.8911L917.806 76.2499L913.344 83.3893L906.787 83.5362L902.756 79.0734L900.812 75.1381Z" fill="#FFF9E1"/>
<path d="M940.183 62.4942L924.814 87.0274L923.267 92.7368L929.663 97.8143L944.494 99.4556L959.336 99.0744L970.891 91.8862L976.501 71.6351L965.713 59.3247L950.703 59.4342L940.183 62.4942Z" fill="#FFF9E1"/>
<path d="M985.223 80.6664L990.173 62.7247L992.207 59.5112L997.392 60.3364L1004.61 66.6523L1010.88 73.8515L1012.49 82.4504L1005.33 93.9068L994.812 94.1424L988.343 86.9812L985.223 80.6664Z" fill="#FFF9E1"/>
<path d="M1006.59 109.333L1010.75 99.8615L1020.1 97.2957L1047.86 95.2874L1063.44 128.701L1032.46 153.502L1023.17 151.412L1006.59 109.333Z" fill="#FFF9E1"/>
<path d="M907.151 43.677L909.109 39.2266L913.494 38.0188L926.521 37.0678L933.824 52.7597L919.28 64.4187L914.92 63.4397L907.151 43.677Z" fill="#FFF9E1"/>
<path d="M683.875 184.146H678.876L675.924 188.107L669.636 201.062L681.381 215.658L698.374 205.984L699.257 201.062L683.875 184.146Z" fill="#FFF9E1"/>
<path d="M1133.45 371.055L1133.6 362.81L1134.12 361.206L1136.44 360.989L1140.23 362.903L1143.71 365.301L1145.35 368.814L1143.54 374.519L1139.06 375.78L1135.49 373.42L1133.45 371.055Z" fill="#FFF9E1"/>
<path d="M1027.89 523.601L1040.53 537.271L1042.18 540.694L1038.75 544.663L1029.57 547.466L1020.15 548.993L1011.99 545.827L1006.04 533.701L1011.39 524.639L1020.88 522.921L1027.89 523.601Z" fill="#FFF9E1"/>
<path d="M1077.13 454.798L1085.01 463.316L1086.04 465.449L1083.9 467.923L1078.18 469.67L1072.31 470.621L1067.22 468.648L1063.51 461.092L1066.85 455.444L1072.76 454.373L1077.13 454.798Z" fill="#FFF9E1"/>
<path d="M1067.09 494.915L1054.36 468.916L1050.32 464.59L1042.64 467.345L1033.42 479.08L1025.91 491.889L1025.92 505.498L1040.17 520.947L1056.32 518.276L1064.14 505.466L1067.09 494.915Z" fill="#FFF9E1"/>
<path d="M1096.31 434.701L1105.34 431.071L1112.81 441.494L1110.41 454.611L1109.89 463.752L1101.07 467.689L1094.6 464.837L1096.31 434.701Z" fill="#FFF9E1"/>
<path d="M1027.89 523.601L1040.53 537.271L1042.18 540.694L1038.75 544.663L1029.57 547.466L1020.15 548.993L1011.99 545.827L1006.04 533.701L1011.39 524.639L1020.88 522.921L1027.89 523.601Z" fill="#FFF9E1"/>
<path d="M1100.51 476.78L1103.26 480.791L1101.97 485.154L1095.91 496.723L1078.73 494.649L1076.49 476.143L1079.62 472.956L1100.51 476.78Z" fill="#FFF9E1"/>
<path d="M1130.66 414.925L1133.41 418.936L1132.12 423.298L1126.06 434.867L1108.88 432.794L1106.64 414.288L1109.77 411.1L1130.66 414.925Z" fill="#FFF9E1"/>
<path d="M850.284 106.282L852.662 104.909L853.068 102.37L852.796 94.9898L843.532 91.8461L837.886 100.734L838.706 103.125L850.284 106.282Z" fill="#FFF9E1"/>
<path d="M706.973 163.166L709.351 161.793L709.757 159.255L709.484 151.875L700.221 148.731L694.575 157.619L695.394 160.009L706.973 163.166Z" fill="#FFF9E1"/>
<path d="M1140.77 196.012L1097.31 180.365L1079.43 186.512L1075.51 191.464L1087.64 206.562L1104.92 223.519L1124.98 230.705L1134.5 235.041L1144.51 232.455L1140.77 196.012Z" fill="#FFF9E1"/>
<path d="M888.861 541.002L845.399 525.355L827.522 531.502L823.601 536.454L835.726 551.552L853.005 568.51L873.066 575.695L882.591 580.031L892.602 577.446L888.861 541.002Z" fill="#FFF9E1"/>
<path d="M1132.81 398.745L1124.79 373.251L1115.7 367.173L1112.04 367.102L1109.34 377.975L1107.58 391.871L1111.3 403.626L1112.64 409.531L1117.34 413.234L1132.81 398.745Z" fill="#FFF9E1"/>
<path d="M819.594 550.187L811.573 524.693L802.48 518.614L798.826 518.543L796.122 529.416L794.367 543.313L798.086 555.067L799.426 560.972L804.123 564.676L819.594 550.187Z" fill="#FFF9E1"/>
<path d="M868.629 44.2344H858.951L853.235 51.1251L841.06 73.6676L863.799 99.0648L896.701 82.2317L898.411 73.6676L868.629 44.2344Z" fill="#FFF9E1"/>
<path d="M945.794 548.929L929.613 546.562L926.308 547.061L925.138 551.523L927.663 559.566L931.236 567.154L937.581 571.494L949.329 569.788L953.241 561.41L949.77 553.673L945.794 548.929Z" fill="#FFF9E1"/>
<path d="M946.813 537.625L946.667 529.38L946.149 527.777L943.833 527.559L940.038 529.473L936.555 531.872L934.914 535.384L936.724 541.089L941.213 542.35L944.778 539.991L946.813 537.625Z" fill="#FFF9E1"/>
<path d="M923.415 558.704L922.004 552.365L913.456 552.184L907.147 558.449L902.314 562.18L903.472 568.514L907.482 571.002L923.415 558.704Z" fill="#FFF9E1"/>
<path d="M966.279 578.334L968.657 576.961L969.064 574.423L968.791 567.043L959.527 563.899L953.881 572.787L954.701 575.177L966.279 578.334Z" fill="#FFF9E1"/>
<path d="M986.157 516.281H976.373L970.594 523.33L958.285 546.391L981.275 572.372L1014.54 555.152L1016.27 546.391L986.157 516.281Z" fill="#FFF9E1"/>
<path d="M1147.05 287.2L1150.22 271.157L1149.89 267.832L1145.49 266.439L1137.34 268.558L1129.58 271.746L1124.93 277.865L1126.04 289.684L1134.21 294.011L1142.11 290.932L1147.05 287.2Z" fill="#FFF9E1"/>
<path d="M1158.27 288.771L1166.52 289.039L1168.14 288.602L1168.48 286.3L1166.75 282.413L1164.53 278.814L1161.11 277L1155.32 278.521L1153.83 282.941L1156.01 286.62L1158.27 288.771Z" fill="#FFF9E1"/>
<path d="M1138.4 264.367L1144.8 263.276L1145.41 254.747L1139.47 248.132L1135.99 243.119L1129.6 243.957L1126.92 247.838L1138.4 264.367Z" fill="#FFF9E1"/>
<path d="M1116.65 306.182L1117.9 308.626L1120.42 309.159L1127.8 309.257L1131.41 300.162L1122.81 294.078L1120.38 294.776L1116.65 306.182Z" fill="#FFF9E1"/>
<path d="M1178.33 328.394L1178.82 318.683L1172.06 312.593L1149.62 299.219L1122.5 320.733L1138.06 354.612L1146.73 356.768L1178.33 328.394Z" fill="#FFF9E1"/>
<path d="M1080.29 145.703H1075.3L1072.34 149.505L1066.05 161.942L1077.8 175.954L1094.79 166.667L1095.68 161.942L1080.29 145.703Z" fill="#FFF9E1"/>
<path d="M1080.39 117.763L1076.83 113.756L1071.81 113.98L1057.79 117.414L1055.42 136.376L1074.65 143.669L1078.9 141.157L1080.39 117.763Z" fill="#FFF9E1"/>
<path d="M1411.13 423.093L1377.37 418.155L1370.48 419.196L1368.03 428.505L1373.3 445.286L1380.76 461.117L1394 470.172L1418.51 466.613L1426.67 449.132L1419.43 432.99L1411.13 423.093Z" fill="#FFF9E1"/>
<path d="M1453.01 147.724L1441.82 146.087L1439.54 146.432L1438.73 149.518L1440.47 155.08L1442.95 160.327L1447.33 163.329L1455.46 162.149L1458.16 156.355L1455.76 151.005L1453.01 147.724Z" fill="#FFF9E1"/>
<path d="M1453.71 139.909L1453.61 134.207L1453.25 133.098L1451.65 132.948L1449.03 134.272L1446.62 135.93L1445.48 138.359L1446.73 142.305L1449.84 143.177L1452.3 141.545L1453.71 139.909Z" fill="#FFF9E1"/>
<path d="M1367.05 219.358L1366.95 213.656L1366.59 212.548L1364.99 212.397L1362.36 213.721L1359.95 215.38L1358.82 217.808L1360.07 221.754L1363.17 222.626L1365.64 220.994L1367.05 219.358Z" fill="#FFF9E1"/>
<path d="M1331.47 324.898L1318.73 323.035L1316.13 323.428L1315.21 326.94L1317.2 333.269L1320.01 339.241L1325 342.657L1334.25 341.314L1337.33 334.72L1334.6 328.631L1331.47 324.898Z" fill="#FFF9E1"/>
<path d="M1351.49 269.919L1343.56 268.758L1341.94 269.003L1341.36 271.192L1342.6 275.136L1344.35 278.858L1347.47 280.986L1353.23 280.15L1355.15 276.04L1353.44 272.246L1351.49 269.919Z" fill="#FFF9E1"/>
<path d="M1332.51 291.325L1352.32 288.427L1356.37 289.038L1357.8 294.5L1354.71 304.346L1350.33 313.635L1342.57 318.948L1328.19 316.86L1323.4 306.603L1327.65 297.132L1332.51 291.325Z" fill="#FFF9E1"/>
<path d="M1390.76 165.139L1410.57 162.242L1414.61 162.852L1416.05 168.315L1412.95 178.161L1408.58 187.449L1400.81 192.762L1386.43 190.674L1381.64 180.417L1385.89 170.946L1390.76 165.139Z" fill="#FFF9E1"/>
<path d="M1381.44 194.234L1385.13 200.495L1385.47 201.938L1383.83 203.168L1380.1 203.476L1376.38 203.277L1373.53 201.393L1372.27 196.274L1375.06 193.261L1378.82 193.393L1381.44 194.234Z" fill="#FFF9E1"/>
<path d="M1377.57 390.134L1370.72 397.052L1377.42 407.977L1390.44 410.851L1399.06 413.919L1406.11 407.323L1405.99 400.25L1377.57 390.134Z" fill="#FFF9E1"/>
<path d="M1363.49 392.893L1354.93 388.253L1346.32 397.745L1347.2 411.044L1346.67 420.18L1354.97 425.101L1361.73 423.012L1363.49 392.893Z" fill="#FFF9E1"/>
<path d="M1355.47 251.124L1354.01 244.55L1345.14 244.362L1338.6 250.86L1333.59 254.729L1334.79 261.299L1338.95 263.879L1355.47 251.124Z" fill="#FFF9E1"/>
<path d="M1437.55 154.483L1436.58 150.1L1430.66 149.974L1426.3 154.307L1422.96 156.887L1423.76 161.268L1426.53 162.988L1437.55 154.483Z" fill="#FFF9E1"/>
<path d="M1375.81 215.629L1378.08 214.882L1377.84 211.737L1375.31 209.647L1373.77 208.008L1371.48 208.662L1370.72 210.225L1375.81 215.629Z" fill="#FFF9E1"/>
<path d="M1359.43 212.029L1358.75 208.98L1354.64 208.893L1351.6 211.907L1349.28 213.701L1349.83 216.748L1351.76 217.945L1359.43 212.029Z" fill="#FFF9E1"/>
<path d="M1430.42 169.453L1427.8 165.809L1422.31 168.024L1420.01 173.726L1417.96 177.415L1420.42 181.125L1423.65 181.612L1430.42 169.453Z" fill="#FFF9E1"/>
<path d="M1331.47 324.898L1318.73 323.035L1316.13 323.428L1315.21 326.94L1317.2 333.269L1320.01 339.241L1325 342.657L1334.25 341.314L1337.33 334.72L1334.6 328.631L1331.47 324.898Z" fill="#FFF9E1"/>
<path d="M1343.82 346.123H1336.53L1332.23 351.381L1323.07 368.583L1340.18 387.964L1364.94 375.119L1366.22 368.583L1343.82 346.123Z" fill="#FFF9E1"/>
<path d="M1330.32 265.057H1327.01L1325.06 267.631L1320.9 276.053L1328.67 285.541L1339.92 279.252L1340.51 276.053L1330.32 265.057Z" fill="#FFF9E1"/>
<path d="M1560.5 150.345L1563.92 137.938L1565.33 135.715L1568.91 136.286L1573.91 140.654L1578.24 145.632L1579.35 151.579L1574.4 159.502L1567.13 159.665L1562.65 154.712L1560.5 150.345Z" fill="#FFF9E1"/>
<path d="M1502.12 146.525L1504.25 138.793L1505.13 137.408L1507.37 137.764L1510.48 140.486L1513.18 143.588L1513.87 147.294L1510.79 152.232L1506.25 152.333L1503.47 149.247L1502.12 146.525Z" fill="#FFF9E1"/>
<path d="M1529.35 137.781L1518.72 154.747L1517.65 158.695L1522.07 162.207L1532.33 163.342L1542.59 163.078L1550.58 158.107L1554.46 144.102L1547 135.589L1536.62 135.665L1529.35 137.781Z" fill="#FFF9E1"/>
<path d="M1560.5 150.345L1563.92 137.938L1565.33 135.715L1568.91 136.286L1573.91 140.654L1578.24 145.632L1579.35 151.579L1574.4 159.502L1567.13 159.665L1562.65 154.712L1560.5 150.345Z" fill="#FFF9E1"/>
<path d="M1575.27 170.173L1578.15 163.623L1584.61 161.849L1603.81 160.46L1614.58 183.567L1593.16 200.718L1586.74 199.273L1575.27 170.173Z" fill="#FFF9E1"/>
<path d="M1506.51 124.767L1507.86 121.689L1510.89 120.854L1519.9 120.196L1524.95 131.048L1514.89 139.111L1511.88 138.434L1506.51 124.767Z" fill="#FFF9E1"/>
<path d="M1352.1 221.908H1348.64L1346.6 224.647L1342.25 233.606L1350.37 243.7L1362.12 237.01L1362.74 233.606L1352.1 221.908Z" fill="#FFF9E1"/>
<path d="M1663.01 351.167L1663.11 345.465L1663.47 344.356L1665.07 344.206L1667.69 345.53L1670.1 347.188L1671.23 349.617L1669.98 353.563L1666.88 354.435L1664.41 352.803L1663.01 351.167Z" fill="#FFF9E1"/>
<path d="M1590.01 456.659L1598.74 466.112L1599.89 468.479L1597.51 471.224L1591.17 473.163L1584.65 474.218L1579.01 472.029L1574.89 463.643L1578.59 457.376L1585.16 456.188L1590.01 456.659Z" fill="#FFF9E1"/>
<path d="M1624.06 409.078L1629.5 414.969L1630.22 416.444L1628.73 418.155L1624.78 419.363L1620.72 420.021L1617.2 418.656L1614.64 413.43L1616.94 409.525L1621.04 408.785L1624.06 409.078Z" fill="#FFF9E1"/>
<path d="M1617.11 436.821L1608.31 418.841L1605.52 415.85L1600.2 417.755L1593.83 425.87L1588.64 434.728L1588.64 444.139L1598.49 454.823L1609.66 452.976L1615.07 444.117L1617.11 436.821Z" fill="#FFF9E1"/>
<path d="M1637.32 395.179L1643.57 392.669L1648.73 399.877L1647.07 408.948L1646.71 415.27L1640.61 417.993L1636.13 416.02L1637.32 395.179Z" fill="#FFF9E1"/>
<path d="M1590.01 456.659L1598.74 466.112L1599.89 468.479L1597.51 471.224L1591.17 473.163L1584.65 474.218L1579.01 472.029L1574.89 463.643L1578.59 457.376L1585.16 456.188L1590.01 456.659Z" fill="#FFF9E1"/>
<path d="M1640.22 424.281L1642.12 427.054L1641.23 430.072L1637.04 438.072L1625.16 436.638L1623.61 423.84L1625.78 421.636L1640.22 424.281Z" fill="#FFF9E1"/>
<path d="M1661.07 381.505L1662.97 384.279L1662.08 387.296L1657.89 395.297L1646.01 393.863L1644.46 381.065L1646.63 378.861L1661.07 381.505Z" fill="#FFF9E1"/>
<path d="M1467.18 168.06L1468.82 167.11L1469.1 165.355L1468.92 160.251L1462.51 158.077L1458.6 164.224L1459.17 165.877L1467.18 168.06Z" fill="#FFF9E1"/>
<path d="M1368.07 207.4L1369.72 206.45L1370 204.694L1369.81 199.591L1363.4 197.417L1359.5 203.563L1360.06 205.216L1368.07 207.4Z" fill="#FFF9E1"/>
<path d="M1668.07 230.114L1638.01 219.293L1625.65 223.544L1622.94 226.968L1631.32 237.41L1643.27 249.137L1657.14 254.105L1663.73 257.104L1670.65 255.316L1668.07 230.114Z" fill="#FFF9E1"/>
<path d="M1493.86 468.692L1463.8 457.871L1451.44 462.122L1448.73 465.546L1457.11 475.988L1469.06 487.715L1482.93 492.684L1489.52 495.683L1496.44 493.894L1493.86 468.692Z" fill="#FFF9E1"/>
<path d="M1662.56 370.315L1657.01 352.684L1650.73 348.481L1648.2 348.432L1646.33 355.951L1645.11 365.561L1647.69 373.69L1648.61 377.774L1651.86 380.335L1662.56 370.315Z" fill="#FFF9E1"/>
<path d="M1445.95 475.043L1440.41 457.413L1434.12 453.209L1431.59 453.161L1429.72 460.679L1428.51 470.29L1431.08 478.419L1432.01 482.502L1435.26 485.063L1445.95 475.043Z" fill="#FFF9E1"/>
<path d="M1479.87 125.152H1473.17L1469.22 129.918L1460.8 145.507L1476.53 163.07L1499.28 151.429L1500.46 145.507L1479.87 125.152Z" fill="#FFF9E1"/>
<path d="M1533.23 474.175L1522.04 472.539L1519.75 472.884L1518.94 475.969L1520.69 481.531L1523.16 486.778L1527.55 489.78L1535.67 488.6L1538.38 482.806L1535.98 477.456L1533.23 474.175Z" fill="#FFF9E1"/>
<path d="M1533.93 466.358L1533.83 460.656L1533.47 459.548L1531.87 459.397L1529.25 460.721L1526.84 462.38L1525.7 464.808L1526.96 468.754L1530.06 469.626L1532.53 467.994L1533.93 466.358Z" fill="#FFF9E1"/>
<path d="M1517.75 480.935L1516.78 476.551L1510.87 476.425L1506.5 480.758L1503.16 483.338L1503.96 487.719L1506.73 489.439L1517.75 480.935Z" fill="#FFF9E1"/>
<path d="M1547.4 494.509L1549.04 493.56L1549.32 491.804L1549.13 486.7L1542.73 484.526L1538.82 490.673L1539.39 492.326L1547.4 494.509Z" fill="#FFF9E1"/>
<path d="M1561.14 451.596H1554.38L1550.38 456.471L1541.87 472.418L1557.77 490.385L1580.77 478.477L1581.96 472.418L1561.14 451.596Z" fill="#FFF9E1"/>
<path d="M1672.41 293.175L1674.6 282.081L1674.37 279.781L1671.33 278.818L1665.69 280.283L1660.33 282.488L1657.11 286.72L1657.88 294.893L1663.53 297.885L1668.99 295.756L1672.41 293.175Z" fill="#FFF9E1"/>
<path d="M1680.17 294.263L1685.87 294.448L1686.99 294.146L1687.22 292.554L1686.03 289.866L1684.5 287.377L1682.13 286.123L1678.13 287.175L1677.1 290.231L1678.61 292.776L1680.17 294.263Z" fill="#FFF9E1"/>
<path d="M1666.43 277.385L1670.85 276.631L1671.27 270.733L1667.17 266.158L1664.76 262.691L1660.34 263.271L1658.48 265.955L1666.43 277.385Z" fill="#FFF9E1"/>
<path d="M1651.38 306.304L1652.25 307.993L1653.99 308.362L1659.1 308.43L1661.59 302.141L1655.65 297.933L1653.97 298.416L1651.38 306.304Z" fill="#FFF9E1"/>
<path d="M1694.04 321.664L1694.38 314.948L1689.7 310.737L1674.18 301.488L1655.43 316.366L1666.19 339.795L1672.19 341.286L1694.04 321.664Z" fill="#FFF9E1"/>
<path d="M1626.24 195.322H1622.79L1620.74 197.951L1616.4 206.552L1624.52 216.243L1636.27 209.82L1636.88 206.552L1626.24 195.322Z" fill="#FFF9E1"/>
<path d="M1626.31 176L1623.84 173.229L1620.37 173.384L1610.68 175.759L1609.04 188.872L1622.34 193.915L1625.28 192.179L1626.31 176Z" fill="#FFF9E1"/>
<path d="M2039.01 388.63L2015.31 385.162L2010.46 385.893L2008.75 392.43L2012.45 404.212L2017.68 415.328L2026.98 421.686L2044.19 419.188L2049.92 406.913L2044.84 395.579L2039.01 388.63Z" fill="#FFF9E1"/>
<path d="M2068.42 195.274L2060.56 194.125L2058.96 194.367L2058.39 196.534L2059.61 200.439L2061.35 204.124L2064.43 206.231L2070.14 205.403L2072.03 201.335L2070.35 197.578L2068.42 195.274Z" fill="#FFF9E1"/>
<path d="M2068.91 189.788L2068.84 185.785L2068.59 185.006L2067.46 184.901L2065.62 185.83L2063.93 186.995L2063.13 188.7L2064.01 191.471L2066.19 192.083L2067.92 190.937L2068.91 189.788Z" fill="#FFF9E1"/>
<path d="M2008.06 245.575L2007.99 241.572L2007.73 240.793L2006.61 240.688L2004.77 241.617L2003.08 242.782L2002.28 244.487L2003.16 247.258L2005.34 247.87L2007.07 246.724L2008.06 245.575Z" fill="#FFF9E1"/>
<path d="M1983.07 319.681L1974.13 318.373L1972.31 318.648L1971.66 321.114L1973.05 325.559L1975.03 329.752L1978.54 332.15L1985.03 331.208L1987.19 326.578L1985.27 322.302L1983.07 319.681Z" fill="#FFF9E1"/>
<path d="M1997.14 281.076L1991.56 280.261L1990.42 280.433L1990.02 281.97L1990.89 284.739L1992.12 287.352L1994.31 288.847L1998.35 288.26L1999.7 285.374L1998.5 282.71L1997.14 281.076Z" fill="#FFF9E1"/>
<path d="M1983.81 296.108L1997.72 294.073L2000.56 294.502L2001.56 298.337L1999.39 305.251L1996.32 311.773L1990.87 315.503L1980.77 314.037L1977.41 306.835L1980.39 300.185L1983.81 296.108Z" fill="#FFF9E1"/>
<path d="M2024.71 207.502L2038.61 205.468L2041.45 205.896L2042.46 209.732L2040.29 216.645L2037.22 223.167L2031.77 226.898L2021.67 225.432L2018.3 218.23L2021.29 211.58L2024.71 207.502Z" fill="#FFF9E1"/>
<path d="M2018.16 227.934L2020.75 232.331L2021 233.344L2019.84 234.207L2017.22 234.423L2014.61 234.284L2012.61 232.961L2011.72 229.367L2013.68 227.251L2016.33 227.344L2018.16 227.934Z" fill="#FFF9E1"/>
<path d="M2015.44 365.487L2010.63 370.344L2015.34 378.015L2024.48 380.033L2030.53 382.188L2035.48 377.556L2035.4 372.59L2015.44 365.487Z" fill="#FFF9E1"/>
<path d="M2005.56 367.424L1999.55 364.166L1993.5 370.831L1994.12 380.169L1993.75 386.584L1999.58 390.04L2004.32 388.573L2005.56 367.424Z" fill="#FFF9E1"/>
<path d="M1999.93 267.879L1998.9 263.263L1992.68 263.131L1988.08 267.694L1984.56 270.41L1985.41 275.023L1988.33 276.835L1999.93 267.879Z" fill="#FFF9E1"/>
<path d="M2057.56 200.021L2056.88 196.943L2052.73 196.855L2049.66 199.897L2047.32 201.709L2047.88 204.785L2049.83 205.993L2057.56 200.021Z" fill="#FFF9E1"/>
<path d="M2014.21 242.955L2015.81 242.43L2015.64 240.222L2013.86 238.755L2012.78 237.604L2011.17 238.063L2010.63 239.16L2014.21 242.955Z" fill="#FFF9E1"/>
<path d="M2002.71 240.428L2002.23 238.287L1999.34 238.226L1997.21 240.342L1995.58 241.602L1995.97 243.742L1997.32 244.582L2002.71 240.428Z" fill="#FFF9E1"/>
<path d="M2052.56 210.533L2050.71 207.974L2046.86 209.53L2045.25 213.533L2043.8 216.123L2045.53 218.728L2047.8 219.071L2052.56 210.533Z" fill="#FFF9E1"/>
<path d="M1983.07 319.681L1974.13 318.373L1972.31 318.648L1971.66 321.114L1973.05 325.559L1975.03 329.752L1978.54 332.15L1985.03 331.208L1987.19 326.578L1985.27 322.302L1983.07 319.681Z" fill="#FFF9E1"/>
<path d="M1991.74 334.584H1986.63L1983.61 338.276L1977.18 350.355L1989.19 363.963L2006.57 354.944L2007.48 350.355L1991.74 334.584Z" fill="#FFF9E1"/>
<path d="M1982.27 277.662H1979.95L1978.57 279.47L1975.65 285.383L1981.11 292.046L1989.01 287.63L1989.42 285.383L1982.27 277.662Z" fill="#FFF9E1"/>
<path d="M2143.89 197.115L2146.29 188.403L2147.28 186.843L2149.8 187.244L2153.3 190.31L2156.35 193.806L2157.13 197.982L2153.65 203.545L2148.55 203.659L2145.4 200.182L2143.89 197.115Z" fill="#FFF9E1"/>
<path d="M2102.9 194.434L2104.4 189.005L2105.01 188.032L2106.58 188.282L2108.77 190.193L2110.66 192.372L2111.15 194.974L2108.99 198.441L2105.8 198.512L2103.84 196.345L2102.9 194.434Z" fill="#FFF9E1"/>
<path d="M2122.02 188.293L2114.56 200.205L2113.8 202.978L2116.91 205.443L2124.11 206.24L2131.32 206.055L2136.93 202.565L2139.65 192.731L2134.42 186.754L2127.13 186.807L2122.02 188.293Z" fill="#FFF9E1"/>
<path d="M2143.89 197.115L2146.29 188.403L2147.28 186.843L2149.8 187.244L2153.3 190.31L2156.35 193.806L2157.13 197.982L2153.65 203.545L2148.55 203.659L2145.4 200.182L2143.89 197.115Z" fill="#FFF9E1"/>
<path d="M2154.26 211.038L2156.29 206.439L2160.82 205.193L2174.3 204.218L2181.87 220.443L2166.83 232.486L2162.31 231.471L2154.26 211.038Z" fill="#FFF9E1"/>
<path d="M2105.98 179.156L2106.93 176.995L2109.06 176.408L2115.38 175.946L2118.93 183.566L2111.87 189.228L2109.75 188.752L2105.98 179.156Z" fill="#FFF9E1"/>
<path d="M1997.56 247.365H1995.13L1993.7 249.288L1990.65 255.579L1996.35 262.667L2004.6 257.969L2005.03 255.579L1997.56 247.365Z" fill="#FFF9E1"/>
<path d="M2215.87 338.124L2215.94 334.121L2216.19 333.342L2217.32 333.237L2219.16 334.166L2220.85 335.331L2221.65 337.036L2220.77 339.807L2218.59 340.419L2216.86 339.273L2215.87 338.124Z" fill="#FFF9E1"/>
<path d="M2164.61 412.196L2170.74 418.834L2171.55 420.496L2169.88 422.424L2165.42 423.785L2160.85 424.526L2156.89 422.989L2154 417.101L2156.59 412.7L2161.21 411.866L2164.61 412.196Z" fill="#FFF9E1"/>
<path d="M2188.52 378.788L2192.34 382.925L2192.84 383.961L2191.8 385.162L2189.03 386.01L2186.18 386.472L2183.71 385.514L2181.91 381.845L2183.52 379.102L2186.4 378.582L2188.52 378.788Z" fill="#FFF9E1"/>
<path d="M2183.64 398.267L2177.46 385.643L2175.5 383.542L2171.77 384.88L2167.29 390.578L2163.65 396.798L2163.65 403.406L2170.57 410.908L2178.41 409.611L2182.21 403.39L2183.64 398.267Z" fill="#FFF9E1"/>
<path d="M2197.83 369.03L2202.22 367.268L2205.85 372.329L2204.68 378.698L2204.43 383.137L2200.14 385.049L2197 383.664L2197.83 369.03Z" fill="#FFF9E1"/>
<path d="M2164.61 412.196L2170.74 418.834L2171.55 420.496L2169.88 422.424L2165.42 423.785L2160.85 424.526L2156.89 422.989L2154 417.101L2156.59 412.7L2161.21 411.866L2164.61 412.196Z" fill="#FFF9E1"/>
<path d="M2199.87 389.464L2201.21 391.412L2200.58 393.53L2197.64 399.148L2189.29 398.141L2188.21 389.155L2189.73 387.607L2199.87 389.464Z" fill="#FFF9E1"/>
<path d="M2214.51 359.427L2215.85 361.375L2215.22 363.493L2212.28 369.111L2203.93 368.104L2202.85 359.117L2204.37 357.57L2214.51 359.427Z" fill="#FFF9E1"/>
<path d="M2078.37 209.555L2079.52 208.888L2079.72 207.656L2079.58 204.072L2075.09 202.545L2072.34 206.861L2072.74 208.022L2078.37 209.555Z" fill="#FFF9E1"/>
<path d="M2008.78 237.178L2009.93 236.512L2010.13 235.279L2010 231.695L2005.5 230.169L2002.76 234.484L2003.15 235.645L2008.78 237.178Z" fill="#FFF9E1"/>
<path d="M2219.42 253.126L2198.32 245.528L2189.64 248.513L2187.73 250.918L2193.62 258.249L2202.01 266.483L2211.75 269.972L2216.38 272.078L2221.24 270.823L2219.42 253.126Z" fill="#FFF9E1"/>
<path d="M2097.1 420.648L2075.99 413.05L2067.31 416.035L2065.41 418.439L2071.3 425.771L2079.69 434.005L2089.43 437.494L2094.05 439.6L2098.91 438.344L2097.1 420.648Z" fill="#FFF9E1"/>
<path d="M2215.56 351.57L2211.66 339.191L2207.25 336.239L2205.47 336.205L2204.16 341.485L2203.31 348.232L2205.11 353.94L2205.76 356.808L2208.04 358.606L2215.56 351.57Z" fill="#FFF9E1"/>
<path d="M2063.46 425.108L2059.57 412.728L2055.15 409.777L2053.38 409.742L2052.07 415.022L2051.21 421.77L2053.02 427.477L2053.67 430.345L2055.95 432.143L2063.46 425.108Z" fill="#FFF9E1"/>
<path d="M2087.27 179.428H2082.57L2079.8 182.774L2073.89 193.72L2084.93 206.052L2100.9 197.879L2101.74 193.72L2087.27 179.428Z" fill="#FFF9E1"/>
<path d="M2124.74 424.497L2116.89 423.348L2115.28 423.59L2114.71 425.757L2115.94 429.662L2117.67 433.346L2120.76 435.454L2126.46 434.626L2128.36 430.557L2126.67 426.8L2124.74 424.497Z" fill="#FFF9E1"/>
<path d="M2125.24 419.007L2125.17 415.004L2124.92 414.225L2123.79 414.119L2121.95 415.049L2120.26 416.214L2119.46 417.919L2120.34 420.69L2122.52 421.302L2124.25 420.156L2125.24 419.007Z" fill="#FFF9E1"/>
<path d="M2113.88 429.244L2113.19 426.166L2109.04 426.078L2105.98 429.12L2103.63 430.931L2104.19 434.007L2106.14 435.215L2113.88 429.244Z" fill="#FFF9E1"/>
<path d="M2134.69 438.776L2135.85 438.109L2136.04 436.876L2135.91 433.293L2131.41 431.766L2128.67 436.082L2129.07 437.243L2134.69 438.776Z" fill="#FFF9E1"/>
<path d="M2144.34 408.643H2139.59L2136.79 412.066L2130.81 423.263L2141.97 435.879L2158.12 427.518L2158.96 423.263L2144.34 408.643Z" fill="#FFF9E1"/>
<path d="M2222.47 297.406L2224.01 289.616L2223.85 288.001L2221.71 287.325L2217.75 288.354L2213.99 289.902L2211.73 292.873L2212.27 298.612L2216.24 300.713L2220.07 299.218L2222.47 297.406Z" fill="#FFF9E1"/>
<path d="M2227.92 298.169L2231.92 298.299L2232.71 298.086L2232.87 296.968L2232.04 295.081L2230.96 293.334L2229.3 292.453L2226.48 293.191L2225.76 295.337L2226.82 297.124L2227.92 298.169Z" fill="#FFF9E1"/>
<path d="M2218.27 286.318L2221.38 285.789L2221.67 281.648L2218.79 278.435L2217.1 276.001L2214 276.408L2212.69 278.292L2218.27 286.318Z" fill="#FFF9E1"/>
<path d="M2207.71 306.624L2208.32 307.811L2209.54 308.07L2213.12 308.117L2214.87 303.701L2210.7 300.746L2209.52 301.086L2207.71 306.624Z" fill="#FFF9E1"/>
<path d="M2237.66 317.41L2237.9 312.694L2234.61 309.737L2223.72 303.243L2210.55 313.689L2218.1 330.14L2222.31 331.187L2237.66 317.41Z" fill="#FFF9E1"/>
<path d="M2190.05 228.697H2187.63L2186.19 230.543L2183.14 236.583L2188.84 243.387L2197.09 238.877L2197.52 236.583L2190.05 228.697Z" fill="#FFF9E1"/>
<path d="M2190.1 215.13L2188.37 213.184L2185.93 213.293L2179.13 214.961L2177.98 224.168L2187.31 227.709L2189.38 226.49L2190.1 215.13Z" fill="#FFF9E1"/>
<path d="M2662.46 360.081L2646.95 357.812L2643.78 358.29L2642.66 362.567L2645.08 370.276L2648.51 377.549L2654.59 381.709L2665.85 380.074L2669.6 372.043L2666.27 364.627L2662.46 360.081Z" fill="#FFF9E1"/>
<path d="M2681.7 233.574L2676.56 232.822L2675.51 232.98L2675.14 234.398L2675.94 236.953L2677.08 239.364L2679.09 240.743L2682.82 240.201L2684.07 237.539L2682.96 235.081L2681.7 233.574Z" fill="#FFF9E1"/>
<path d="M2682.02 229.984L2681.98 227.364L2681.81 226.855L2681.08 226.786L2679.87 227.394L2678.76 228.156L2678.24 229.272L2678.82 231.084L2680.24 231.485L2681.38 230.735L2682.02 229.984Z" fill="#FFF9E1"/>
<path d="M2642.21 266.484L2642.16 263.864L2642 263.355L2641.26 263.286L2640.06 263.894L2638.95 264.656L2638.43 265.772L2639 267.584L2640.43 267.985L2641.56 267.235L2642.21 266.484Z" fill="#FFF9E1"/>
<path d="M2625.86 314.969L2620.01 314.113L2618.82 314.294L2618.39 315.907L2619.31 318.815L2620.6 321.558L2622.89 323.128L2627.14 322.511L2628.56 319.481L2627.3 316.684L2625.86 314.969Z" fill="#FFF9E1"/>
<path d="M2635.06 289.711L2631.42 289.178L2630.67 289.29L2630.41 290.296L2630.98 292.108L2631.78 293.818L2633.21 294.796L2635.86 294.411L2636.74 292.523L2635.96 290.78L2635.06 289.711Z" fill="#FFF9E1"/>
<path d="M2626.34 299.547L2635.44 298.216L2637.3 298.496L2637.96 301.006L2636.54 305.529L2634.53 309.796L2630.96 312.237L2624.35 311.278L2622.15 306.566L2624.11 302.215L2626.34 299.547Z" fill="#FFF9E1"/>
<path d="M2653.1 241.574L2662.2 240.243L2664.06 240.524L2664.72 243.033L2663.3 247.556L2661.29 251.823L2657.72 254.264L2651.11 253.305L2648.91 248.593L2650.87 244.242L2653.1 241.574Z" fill="#FFF9E1"/>
<path d="M2648.82 254.942L2650.51 257.818L2650.67 258.481L2649.92 259.046L2648.21 259.188L2646.5 259.096L2645.19 258.231L2644.61 255.879L2645.89 254.495L2647.62 254.556L2648.82 254.942Z" fill="#FFF9E1"/>
<path d="M2647.04 344.939L2643.89 348.118L2646.97 353.136L2652.95 354.457L2656.91 355.866L2660.15 352.836L2660.1 349.587L2647.04 344.939Z" fill="#FFF9E1"/>
<path d="M2640.57 346.206L2636.64 344.074L2632.69 348.435L2633.09 354.545L2632.84 358.742L2636.66 361.003L2639.76 360.043L2640.57 346.206Z" fill="#FFF9E1"/>
<path d="M2636.89 281.076L2636.22 278.056L2632.15 277.969L2629.14 280.955L2626.84 282.732L2627.39 285.75L2629.3 286.936L2636.89 281.076Z" fill="#FFF9E1"/>
<path d="M2674.6 236.68L2674.15 234.666L2671.43 234.608L2669.43 236.599L2667.89 237.784L2668.26 239.796L2669.54 240.587L2674.6 236.68Z" fill="#FFF9E1"/>
<path d="M2646.23 264.769L2647.28 264.426L2647.17 262.981L2646.01 262.021L2645.3 261.268L2644.25 261.569L2643.89 262.287L2646.23 264.769Z" fill="#FFF9E1"/>
<path d="M2638.71 263.116L2638.4 261.716L2636.51 261.675L2635.11 263.06L2634.04 263.885L2634.3 265.284L2635.19 265.834L2638.71 263.116Z" fill="#FFF9E1"/>
<path d="M2671.32 243.556L2670.12 241.882L2667.6 242.9L2666.54 245.519L2665.6 247.214L2666.73 248.918L2668.21 249.142L2671.32 243.556Z" fill="#FFF9E1"/>
<path d="M2625.86 314.969L2620.01 314.113L2618.82 314.294L2618.39 315.907L2619.31 318.815L2620.6 321.558L2622.89 323.128L2627.14 322.511L2628.56 319.481L2627.3 316.684L2625.86 314.969Z" fill="#FFF9E1"/>
<path d="M2631.54 324.721H2628.19L2626.21 327.136L2622.01 335.039L2629.87 343.943L2641.24 338.041L2641.83 335.039L2631.54 324.721Z" fill="#FFF9E1"/>
<path d="M2625.34 287.479H2623.82L2622.92 288.661L2621.01 292.53L2624.58 296.889L2629.75 294L2630.02 292.53L2625.34 287.479Z" fill="#FFF9E1"/>
<path d="M2731.08 234.778L2732.65 229.078L2733.3 228.057L2734.95 228.319L2737.24 230.326L2739.23 232.613L2739.74 235.345L2737.47 238.985L2734.13 239.059L2732.07 236.784L2731.08 234.778Z" fill="#FFF9E1"/>
<path d="M2704.26 233.024L2705.24 229.472L2705.64 228.836L2706.67 228.999L2708.1 230.249L2709.34 231.675L2709.66 233.377L2708.24 235.645L2706.16 235.692L2704.88 234.274L2704.26 233.024Z" fill="#FFF9E1"/>
<path d="M2716.77 229.006L2711.89 236.801L2711.4 238.615L2713.43 240.228L2718.14 240.749L2722.86 240.628L2726.53 238.344L2728.31 231.91L2724.88 227.999L2720.11 228.034L2716.77 229.006Z" fill="#FFF9E1"/>
<path d="M2731.08 234.778L2732.65 229.078L2733.3 228.057L2734.95 228.319L2737.24 230.326L2739.23 232.613L2739.74 235.345L2737.47 238.985L2734.13 239.059L2732.07 236.784L2731.08 234.778Z" fill="#FFF9E1"/>
<path d="M2737.87 243.888L2739.19 240.879L2742.16 240.064L2750.98 239.426L2755.93 250.041L2746.09 257.92L2743.13 257.257L2737.87 243.888Z" fill="#FFF9E1"/>
<path d="M2706.28 223.028L2706.9 221.614L2708.29 221.23L2712.43 220.928L2714.75 225.913L2710.13 229.617L2708.74 229.306L2706.28 223.028Z" fill="#FFF9E1"/>
<path d="M2635.34 267.654H2633.75L2632.81 268.912L2630.82 273.028L2634.55 277.666L2639.95 274.592L2640.23 273.028L2635.34 267.654Z" fill="#FFF9E1"/>
<path d="M2778.17 327.036L2778.22 324.417L2778.38 323.908L2779.12 323.839L2780.33 324.447L2781.43 325.209L2781.95 326.324L2781.38 328.137L2779.95 328.538L2778.82 327.788L2778.17 327.036Z" fill="#FFF9E1"/>
<path d="M2744.64 375.5L2748.65 379.843L2749.18 380.93L2748.08 382.192L2745.17 383.082L2742.18 383.567L2739.58 382.561L2737.69 378.709L2739.39 375.83L2742.41 375.284L2744.64 375.5Z" fill="#FFF9E1"/>
<path d="M2760.28 353.642L2762.78 356.348L2763.11 357.026L2762.43 357.812L2760.61 358.367L2758.75 358.669L2757.13 358.042L2755.95 355.641L2757.01 353.847L2758.89 353.507L2760.28 353.642Z" fill="#FFF9E1"/>
<path d="M2757.09 366.387L2753.04 358.127L2751.76 356.753L2749.32 357.628L2746.39 361.356L2744.01 365.426L2744.01 369.749L2748.54 374.657L2753.67 373.809L2756.15 369.739L2757.09 366.387Z" fill="#FFF9E1"/>
<path d="M2766.37 347.257L2769.24 346.104L2771.62 349.415L2770.85 353.582L2770.69 356.487L2767.89 357.738L2765.83 356.831L2766.37 347.257Z" fill="#FFF9E1"/>
<path d="M2744.64 375.5L2748.65 379.843L2749.18 380.93L2748.08 382.192L2745.17 383.082L2742.18 383.567L2739.58 382.561L2737.69 378.709L2739.39 375.83L2742.41 375.284L2744.64 375.5Z" fill="#FFF9E1"/>
<path d="M2767.71 360.626L2768.58 361.9L2768.17 363.286L2766.25 366.962L2760.79 366.303L2760.08 360.424L2761.07 359.411L2767.71 360.626Z" fill="#FFF9E1"/>
<path d="M2777.29 340.974L2778.16 342.248L2777.75 343.634L2775.82 347.31L2770.36 346.651L2769.66 340.771L2770.65 339.759L2777.29 340.974Z" fill="#FFF9E1"/>
<path d="M2688.21 242.916L2688.96 242.48L2689.09 241.673L2689.01 239.329L2686.06 238.33L2684.27 241.154L2684.53 241.913L2688.21 242.916Z" fill="#FFF9E1"/>
<path d="M2642.68 260.99L2643.43 260.554L2643.56 259.748L2643.48 257.403L2640.53 256.404L2638.74 259.228L2639 259.987L2642.68 260.99Z" fill="#FFF9E1"/>
<path d="M2780.5 271.424L2766.69 266.453L2761.01 268.406L2759.76 269.979L2763.62 274.776L2769.11 280.163L2775.48 282.446L2778.51 283.824L2781.69 283.002L2780.5 271.424Z" fill="#FFF9E1"/>
<path d="M2700.47 381.03L2686.66 376.058L2680.98 378.011L2679.73 379.585L2683.58 384.381L2689.07 389.769L2695.45 392.052L2698.47 393.429L2701.65 392.608L2700.47 381.03Z" fill="#FFF9E1"/>
<path d="M2777.97 335.834L2775.42 327.735L2772.53 325.804L2771.37 325.781L2770.51 329.235L2769.95 333.65L2771.14 337.385L2771.56 339.261L2773.05 340.438L2777.97 335.834Z" fill="#FFF9E1"/>
<path d="M2678.46 383.948L2675.91 375.848L2673.02 373.917L2671.86 373.894L2671 377.349L2670.44 381.764L2671.63 385.498L2672.05 387.374L2673.54 388.551L2678.46 383.948Z" fill="#FFF9E1"/>
<path d="M2694.04 223.205H2690.96L2689.15 225.394L2685.28 232.556L2692.5 240.625L2702.96 235.277L2703.5 232.556L2694.04 223.205Z" fill="#FFF9E1"/>
<path d="M2718.55 383.549L2713.41 382.797L2712.36 382.955L2711.99 384.373L2712.79 386.928L2713.93 389.338L2715.94 390.717L2719.68 390.175L2720.92 387.514L2719.82 385.056L2718.55 383.549Z" fill="#FFF9E1"/>
<path d="M2718.88 379.956L2718.83 377.337L2718.67 376.828L2717.93 376.758L2716.72 377.367L2715.62 378.129L2715.1 379.244L2715.67 381.057L2717.1 381.458L2718.23 380.708L2718.88 379.956Z" fill="#FFF9E1"/>
<path d="M2711.44 386.654L2711 384.64L2708.28 384.583L2706.27 386.573L2704.74 387.759L2705.11 389.771L2706.38 390.561L2711.44 386.654Z" fill="#FFF9E1"/>
<path d="M2725.06 392.891L2725.82 392.455L2725.95 391.648L2725.86 389.303L2722.92 388.305L2721.12 391.128L2721.38 391.888L2725.06 392.891Z" fill="#FFF9E1"/>
<path d="M2731.38 373.176H2728.27L2726.43 375.415L2722.52 382.742L2729.83 390.996L2740.39 385.525L2740.94 382.742L2731.38 373.176Z" fill="#FFF9E1"/>
<path d="M2782.49 300.395L2783.5 295.298L2783.4 294.242L2782 293.799L2779.41 294.472L2776.94 295.485L2775.46 297.429L2775.82 301.184L2778.41 302.559L2780.92 301.581L2782.49 300.395Z" fill="#FFF9E1"/>
<path d="M2786.06 300.895L2788.68 300.98L2789.19 300.841L2789.3 300.109L2788.75 298.875L2788.05 297.731L2786.96 297.155L2785.12 297.638L2784.65 299.042L2785.34 300.211L2786.06 300.895Z" fill="#FFF9E1"/>
<path d="M2779.74 293.142L2781.78 292.796L2781.97 290.086L2780.08 287.984L2778.98 286.391L2776.95 286.658L2776.1 287.891L2779.74 293.142Z" fill="#FFF9E1"/>
<path d="M2772.83 306.427L2773.23 307.204L2774.03 307.373L2776.38 307.404L2777.52 304.515L2774.79 302.582L2774.02 302.804L2772.83 306.427Z" fill="#FFF9E1"/>
<path d="M2792.43 313.484L2792.59 310.399L2790.44 308.464L2783.31 304.215L2774.69 311.05L2779.64 321.814L2782.39 322.499L2792.43 313.484Z" fill="#FFF9E1"/>
<path d="M2761.28 255.441H2759.7L2758.76 256.649L2756.76 260.601L2760.49 265.052L2765.89 262.102L2766.17 260.601L2761.28 255.441Z" fill="#FFF9E1"/>
<path d="M2761.31 246.565L2760.18 245.293L2758.59 245.364L2754.14 246.455L2753.38 252.479L2759.49 254.796L2760.84 253.998L2761.31 246.565Z" fill="#FFF9E1"/>
</g>
<defs>
<clipPath id="clip0_317_4124">
<rect width="3005" height="615" fill="white"/>
</clipPath>
<clipPath id="clip1_317_4124">
<rect width="601" height="615" fill="white"/>
</clipPath>
<clipPath id="clip2_317_4124">
<rect width="3006" height="616" fill="white"/>
</clipPath>
</defs>
</svg>
