<svg width="1494" height="1740" viewBox="0 0 1494 1740" fill="none" xmlns="http://www.w3.org/2000/svg">
<g clip-path="url(#clip0_282_106)">
<path d="M772.253 1690L666.56 1626.59L502 1608.99L515.713 1496.78L633.782 1435.69L738.137 1344.73L716.73 1230.19L772.253 1194L885.304 1230.19L992 1479.52L916.41 1608.99L772.253 1690Z" fill="#212121"/>
<path d="M262.029 1544.65L260.689 1569.66L271.851 1554.92L287.923 1558.05L303.995 1554.92L308.459 1545.99L316.942 1511.17L294.619 1520.55V1499.12L268.726 1524.56L262.029 1544.65Z" fill="#212121" stroke="#212121"/>
<path d="M408.017 1375.9L396.409 1384.38L384.355 1379.47L382.123 1411.62L392.838 1443.76L410.696 1402.24L408.017 1375.9Z" fill="#212121" stroke="#212121"/>
<path d="M224.974 1580.82V1537.96L243.724 1535.28L259.35 1514.3L265.154 1527.25L258.011 1549.12L224.974 1580.82Z" fill="#212121" stroke="#212121"/>
<path d="M358.014 1641.09L283.457 1683.5L276.761 1649.13L291.94 1616.98L359.8 1590.2L358.014 1641.09Z" fill="#212121" stroke="#212121"/>
<path d="M8.63205 1591.82L20.5563 1493.87L32.9064 1574.79L8.63205 1591.82Z" fill="#212121" stroke="#212121"/>
<path d="M91.5972 1478.99L91.4933 1478.96L91.3885 1478.98L43.6961 1488.35L23.062 1485.87L103.083 1444.33L127.951 1458.29L120.154 1485.58L91.5972 1478.99Z" fill="#212121" stroke="#212121"/>
<path d="M41.4841 1578.14L28.5371 1493.32L50.8595 1496L76.7534 1491.09L81.6643 1507.16L62.9135 1556.71L41.4841 1578.14Z" fill="#212121" stroke="#212121"/>
<path d="M52.1974 1582.16L21.3926 1604.93L122.29 1616.09L101.753 1596.45L73.6269 1592.87L52.1974 1582.16Z" fill="#212121" stroke="#212121"/>
<path d="M66.4831 1557.16L50.8574 1573.68L72.2869 1584.84L100.413 1587.96L105.77 1592.87L115.592 1583.5L114.253 1558.05L107.556 1542.87L78.5371 1525.01L66.4831 1557.16Z" fill="#212121" stroke="#212121"/>
<path d="M85.6819 1506.26L80.771 1489.3L143.274 1552.25L115.594 1556.26L108.897 1541.08L79.4316 1522.78L85.6819 1506.26Z" fill="#212121" stroke="#212121"/>
<path d="M245.957 1281.25L216.938 1236.16L228.992 1227.68L286.137 1218.75L278.101 1238.84L245.957 1281.25Z" fill="#212121" stroke="#212121"/>
<path d="M493.287 1476.8L470.518 1422.33L466.5 1467.42L429.445 1487.07L464.268 1525.91L493.287 1476.8Z" fill="#212121" stroke="#212121"/>
<path d="M235.688 1346.43L166.936 1407.15L174.079 1428.13L219.17 1440.63L293.28 1346.43L277.654 1330.36L235.688 1346.43Z" fill="#212121" stroke="#212121"/>
<path d="M105.773 1483.94L85.6826 1487.96L146.846 1550.46L159.346 1547.78L146.846 1493.76L105.773 1483.94Z" fill="#212121" stroke="#212121"/>
<path d="M158.898 1558.95L118.718 1565.64L120.504 1591.09L109.789 1600.02L124.968 1614.75L174.524 1620.56L158.898 1558.95Z" fill="#212121" stroke="#212121"/>
<path d="M416.945 1600.46L361.586 1582.16L359.8 1633.5L416.945 1600.46Z" fill="#212121" stroke="#212121"/>
<path d="M389.712 1467.87L467.394 1422.33L464.715 1467.87L396.409 1496L369.622 1489.75L389.712 1467.87Z" fill="#212121" stroke="#212121"/>
<path d="M236.581 1343.76L216.938 1240.18L245.51 1285.27L268.279 1255.36L278.101 1328.58L236.581 1343.76Z" fill="#212121" stroke="#212121"/>
<path d="M351.764 1230.36L386.14 1240.63L369.621 1263.84L336.138 1294.2L313.369 1270.98L325.87 1240.63L351.764 1230.36Z" fill="#212121" stroke="#212121"/>
<path d="M136.576 1428.58L109.789 1442.87L134.344 1456.71L127.201 1484.83L155.773 1474.56L178.988 1455.81L186.132 1432.15L170.059 1427.69L162.916 1406.26L136.576 1428.58Z" fill="#212121" stroke="#212121"/>
<path d="M232.117 1655.37L177.65 1622.78L167.828 1581.26H185.24L232.117 1605.82L249.974 1650.02L232.117 1655.37Z" fill="#212121" stroke="#212121"/>
<path d="M278.993 1200L241.045 1224.11L297.744 1215.63L315.155 1252.23L321.852 1232.59L347.746 1222.32L278.993 1200Z" fill="#212121" stroke="#212121"/>
<path d="M420.517 1556.71L364.265 1578.14L420.517 1596.45L459.358 1528.14L436.589 1503.58H431.678L420.517 1556.71Z" fill="#212121" stroke="#212121"/>
<path d="M193.722 1436.62L187.025 1460.28L162.917 1479.92L134.791 1489.74L146.399 1493.31L151.31 1513.85H188.365L222.741 1445.54L193.722 1436.62Z" fill="#212121" stroke="#212121"/>
<path d="M411.588 1294.2L391.944 1245.54L374.979 1268.75L387.034 1277.68L400.427 1294.2H411.588Z" fill="#212121" stroke="#212121"/>
<path d="M191.49 1525.01H154.435L167.828 1579.03H185.239L204.437 1588.86L222.295 1584.39V1511.62L191.49 1525.01Z" fill="#212121" stroke="#212121"/>
<path d="M261.136 1400.9L224.973 1446.88L208.901 1479.03L214.259 1489.3L252.653 1473.22L261.136 1400.9Z" fill="#212121" stroke="#212121"/>
<path d="M284.797 1243.3L275.868 1256.7L284.797 1329.91L299.976 1345.99L328.549 1295.09L305.78 1270.54L309.352 1259.82L293.28 1223.21L284.797 1243.3Z" fill="#212121" stroke="#212121"/>
<path d="M277.207 1681.27L235.688 1657.16L253.992 1651.36L235.688 1606.27L270.064 1564.3L286.136 1566.98V1615.64L270.064 1646.9L277.207 1681.27Z" fill="#212121" stroke="#212121"/>
<path d="M437.482 1336.17L418.731 1291.07L416.052 1327.68L398.194 1380.36L422.749 1362.51L437.482 1336.17Z" fill="#212121" stroke="#212121"/>
<path d="M403.106 1533.94L364.265 1493.76L390.605 1500.01L453.108 1474.12L421.856 1490.64L433.464 1504.92H428.553L416.499 1558.94L403.106 1533.94Z" fill="#212121" stroke="#212121"/>
<path d="M364.71 1539.3L336.584 1589.3L417.391 1558.94L403.551 1550.01L364.71 1539.3Z" fill="#212121" stroke="#212121"/>
<path d="M289.708 1365.18L265.153 1395.54L280.333 1397.33L327.209 1367.86L289.708 1365.18Z" fill="#212121" stroke="#212121"/>
<path d="M337.925 1294.65L372.302 1265.18L381.677 1271.88L397.303 1289.74V1316.52L364.266 1362.51L324.979 1355.36L337.925 1294.65Z" fill="#212121" stroke="#212121"/>
<path d="M211.134 1483.94L192.83 1519.66L223.635 1506.26V1534.39L241.939 1532.16L265.155 1500.46L254.886 1477.69L216.045 1494.21L211.134 1483.94Z" fill="#212121" stroke="#212121"/>
<path d="M226.313 1583.5L208.901 1587.97L235.242 1601.81L257.564 1574.57L259.35 1550.91L226.313 1583.5Z" fill="#212121" stroke="#212121"/>
<path d="M464.716 1391.53L441.054 1337.06L427.214 1363.4L413.374 1372.78L416.053 1397.78L398.642 1439.74L427.214 1442.87L475.431 1416.97L464.716 1391.53Z" fill="#212121" stroke="#212121"/>
<path d="M357.569 1422.33L361.14 1486.62L296.405 1513.85V1467.42L326.764 1427.69L357.569 1422.33Z" fill="#212121" stroke="#212121"/>
<path d="M331.227 1299.11L292.833 1362.95L331.227 1366.52L358.014 1364.29L318.28 1357.15L331.227 1299.11Z" fill="#212121" stroke="#212121"/>
<path d="M301.762 1562.07L286.583 1565.2V1612.52L328.995 1596L357.568 1545.11L348.639 1526.8L301.762 1562.07Z" fill="#212121" stroke="#212121"/>
<path d="M292.832 1438.41L254.438 1470.1L263.813 1397.33L279.439 1400.01L281.671 1398.67L292.832 1405.37V1438.41Z" fill="#212121" stroke="#212121"/>
<path d="M401.768 1294.64V1321.43L377.66 1354.02L387.482 1365.63L391.946 1383.49L409.358 1331.7L412.037 1295.54L401.768 1294.64Z" fill="#212121" stroke="#212121"/>
<path d="M292.833 1394.2L337.478 1366.97L365.157 1364.29L374.979 1350.01L384.355 1361.17L388.373 1380.81L376.765 1375.9L374.979 1394.2L359.8 1419.65L330.335 1424.56L320.513 1434.83L303.101 1400.9L292.833 1394.2Z" fill="#212121" stroke="#212121"/>
<path d="M376.318 1401.79L361.585 1426.35L365.157 1489.75L385.247 1469.21L416.498 1450.46L387.032 1447.78L374.978 1415.63L376.318 1401.79Z" fill="#212121" stroke="#212121"/>
<path d="M308.012 1545.1L304.44 1551.8L349.532 1516.98L358.907 1536.62L398.194 1547.33L409.802 1554.92L398.194 1532.6L358.907 1491.97L316.048 1510.28L308.012 1545.1Z" fill="#212121" stroke="#212121"/>
<path d="M266.94 1517.87L261.136 1505.37L269.172 1494.65L258.457 1471.44L297.298 1437.96V1406.26L313.816 1439.29L292.387 1467.87V1493.32L266.94 1517.87Z" fill="#212121" stroke="#212121"/>
<path d="M1265.54 983.911L1264.32 1006.58L1274.44 993.222L1289.02 996.056L1303.59 993.222L1307.64 985.125L1315.33 953.549L1295.09 962.051V942.619L1271.61 965.694L1265.54 983.911Z" fill="#212121" stroke="#212121"/>
<path d="M1406.01 817.125L1395.49 824.817L1384.56 820.364L1382.53 849.511L1392.25 878.658L1408.44 841.009L1406.01 817.125Z" fill="#212121" stroke="#212121"/>
<path d="M1220.6 1013.46V974.602L1237.61 972.173L1251.78 953.146L1257.04 964.886L1250.56 984.723L1220.6 1013.46Z" fill="#212121" stroke="#212121"/>
<path d="M1350.96 1080.26L1283.35 1118.72L1277.28 1087.55L1291.04 1058.4L1352.58 1034.11L1350.96 1080.26Z" fill="#212121" stroke="#212121"/>
<path d="M1002.63 1015.24L1013.39 926.867L1024.53 999.873L1002.63 1015.24Z" fill="#212121" stroke="#212121"/>
<path d="M1068.1 904.078L1067.99 904.054L1067.89 904.075L1024.65 912.561L1006.1 910.334L1078.5 872.748L1101 885.377L1093.95 910.044L1068.1 904.078Z" fill="#212121" stroke="#212121"/>
<path d="M1040.46 1007.79L1028.72 930.878L1048.96 933.307L1072.44 928.854L1076.89 943.427L1059.89 988.362L1040.46 1007.79Z" fill="#212121" stroke="#212121"/>
<path d="M1044.51 1013.06L1016.57 1033.7L1108.06 1043.83L1089.44 1026.01L1063.94 1022.77L1044.51 1013.06Z" fill="#212121" stroke="#212121"/>
<path d="M1073.65 988.766L1059.48 1003.74L1078.92 1013.87L1104.42 1016.7L1109.28 1021.15L1118.18 1012.65L1116.97 989.576L1110.9 975.812L1084.58 959.619L1073.65 988.766Z" fill="#212121" stroke="#212121"/>
<path d="M1087.01 929.664L1082.56 914.281L1139.23 971.361L1114.13 975.005L1108.06 961.241L1081.34 944.643L1087.01 929.664Z" fill="#212121" stroke="#212121"/>
<path d="M1239.63 705.394L1213.32 664.507L1224.25 656.815L1276.06 648.719L1268.78 666.936L1239.63 705.394Z" fill="#212121" stroke="#212121"/>
<path d="M1489 924.804L1468.35 875.416L1464.71 916.303L1431.11 934.115L1462.69 969.335L1489 924.804Z" fill="#212121" stroke="#212121"/>
<path d="M1223.84 781.499L1161.5 836.555L1167.98 855.582L1208.87 866.917L1276.07 781.499L1261.9 766.926L1223.84 781.499Z" fill="#212121" stroke="#212121"/>
<path d="M1111.71 905.375L1093.49 909.018L1148.95 965.693L1160.28 963.265L1148.95 914.281L1111.71 905.375Z" fill="#212121" stroke="#212121"/>
<path d="M1159.07 1000.1L1122.64 1006.18L1124.26 1029.25L1114.54 1037.35L1128.3 1050.71L1173.24 1055.97L1159.07 1000.1Z" fill="#212121" stroke="#212121"/>
<path d="M1414.11 1045.04L1363.91 1028.44L1362.29 1075L1414.11 1045.04Z" fill="#212121" stroke="#212121"/>
<path d="M1392.65 898.895L1463.09 857.604L1460.66 898.895L1398.72 924.399L1374.44 918.732L1392.65 898.895Z" fill="#212121" stroke="#212121"/>
<path d="M1227.08 774.212L1209.27 680.293L1235.18 721.18L1255.82 694.057L1264.73 760.448L1227.08 774.212Z" fill="#212121" stroke="#212121"/>
<path d="M1354.19 647.908L1385.37 657.219L1370.39 678.27L1340.03 705.798L1319.38 684.747L1330.71 657.219L1354.19 647.908Z" fill="#212121" stroke="#212121"/>
<path d="M1121.02 849.511L1096.73 862.465L1118.99 875.014L1112.52 900.518L1138.43 891.207L1159.48 874.205L1165.95 852.749L1151.38 848.701L1144.9 829.27L1121.02 849.511Z" fill="#212121" stroke="#212121"/>
<path d="M1230.32 1089.17L1180.93 1059.61L1172.03 1021.96H1187.81L1230.32 1044.23L1246.51 1084.31L1230.32 1089.17Z" fill="#212121" stroke="#212121"/>
<path d="M1279.3 622L1244.89 643.86L1296.31 636.169L1312.09 669.364L1318.17 651.552L1341.65 642.241L1279.3 622Z" fill="#212121" stroke="#212121"/>
<path d="M1422.21 1001.32L1371.2 1020.75L1422.21 1037.35L1457.43 975.412L1436.78 953.146H1432.33L1422.21 1001.32Z" fill="#212121" stroke="#212121"/>
<path d="M1194.7 863.275L1188.62 884.731L1166.76 902.543L1141.26 911.449L1151.78 914.688L1156.24 933.31H1189.84L1221.01 871.372L1194.7 863.275Z" fill="#212121" stroke="#212121"/>
<path d="M1414.11 721.182L1396.3 677.057L1380.91 698.107L1391.84 706.204L1403.99 721.182H1414.11Z" fill="#212121" stroke="#212121"/>
<path d="M1187 963.67H1153.4L1165.55 1012.65H1181.34L1198.74 1021.56L1214.94 1017.51V951.525L1187 963.67Z" fill="#212121" stroke="#212121"/>
<path d="M1253.39 834.936L1220.6 876.632L1206.03 905.779L1210.89 915.09L1245.7 900.517L1253.39 834.936Z" fill="#212121" stroke="#212121"/>
<path d="M1282.95 666.936L1274.85 679.08L1282.95 745.471L1296.71 760.045L1322.62 713.895L1301.97 691.63L1305.21 681.914L1290.64 648.719L1282.95 666.936Z" fill="#212121" stroke="#212121"/>
<path d="M1275.26 1114.26L1237.61 1092.4L1254.21 1087.14L1237.61 1046.25L1268.78 1008.2L1283.35 1010.63V1054.75L1268.78 1083.09L1275.26 1114.26Z" fill="#212121" stroke="#212121"/>
<path d="M1433.54 774.617L1416.54 733.73L1414.11 766.926L1397.92 814.695L1420.18 798.502L1433.54 774.617Z" fill="#212121" stroke="#212121"/>
<path d="M1406.42 962.861L1371.2 926.427L1395.08 932.095L1451.76 908.615L1423.42 923.594L1433.95 936.548H1429.49L1418.56 985.531L1406.42 962.861Z" fill="#212121" stroke="#212121"/>
<path d="M1366.74 977.434L1341.24 1022.77L1414.51 995.246L1401.96 987.149L1366.74 977.434Z" fill="#212121" stroke="#212121"/>
<path d="M1276.87 804.172L1254.61 831.7L1268.37 833.319L1310.88 806.601L1276.87 804.172Z" fill="#212121" stroke="#212121"/>
<path d="M1331.12 726.443L1362.29 699.725L1370.79 705.797L1384.96 721.99V746.279L1355 787.976L1319.38 781.499L1331.12 726.443Z" fill="#212121" stroke="#212121"/>
<path d="M1206.44 919.949L1189.84 952.334L1217.77 940.19V965.694L1234.37 963.67L1255.42 934.927L1246.11 914.281L1210.89 929.26L1206.44 919.949Z" fill="#212121" stroke="#212121"/>
<path d="M1229.92 1020.75L1214.13 1024.8L1238.01 1037.35L1258.25 1012.65L1259.87 991.197L1229.92 1020.75Z" fill="#212121" stroke="#212121"/>
<path d="M1463.5 827.648L1442.04 778.26L1429.49 802.144L1416.94 810.646L1419.37 833.316L1403.58 871.369L1429.49 874.203L1473.21 850.723L1463.5 827.648Z" fill="#212121" stroke="#212121"/>
<path d="M1354.6 859.227L1357.84 917.521L1299.14 942.215V900.114L1326.67 864.084L1354.6 859.227Z" fill="#212121" stroke="#212121"/>
<path d="M1319.38 739.396L1284.57 797.286L1319.38 800.525L1343.67 798.5L1307.64 792.023L1319.38 739.396Z" fill="#212121" stroke="#212121"/>
<path d="M1299.95 1007.8L1286.19 1010.63V1053.54L1324.64 1038.56L1350.55 992.412L1342.46 975.814L1299.95 1007.8Z" fill="#212121" stroke="#212121"/>
<path d="M1284.56 873.8L1249.75 902.543L1258.25 836.557L1272.42 838.986L1274.44 837.771L1284.56 843.843V873.8Z" fill="#212121" stroke="#212121"/>
<path d="M1398.73 733.73V758.02L1376.87 787.572L1385.77 798.097L1389.82 814.29L1405.61 767.331L1408.04 734.54L1398.73 733.73Z" fill="#212121" stroke="#212121"/>
<path d="M1294.28 827.245L1334.76 802.551L1359.86 800.122L1368.77 787.168L1377.27 797.289L1380.91 815.101L1370.39 810.648L1368.77 827.245L1355 850.32L1328.29 854.773L1319.38 864.084L1303.59 833.318L1294.28 827.245Z" fill="#212121" stroke="#212121"/>
<path d="M1372.41 838.982L1359.05 861.248L1362.29 918.732L1380.51 900.111L1408.85 883.108L1382.13 880.679L1371.2 851.532L1372.41 838.982Z" fill="#212121" stroke="#212121"/>
<path d="M1316.95 977.027L1313.71 983.1L1354.6 951.524L1363.1 969.336L1398.73 979.051L1409.25 985.933L1398.73 965.692L1363.1 928.854L1324.24 945.451L1316.95 977.027Z" fill="#212121" stroke="#212121"/>
<path d="M1266.75 948.286L1261.49 936.951L1268.78 927.235L1259.06 906.184L1294.28 875.822V847.08L1309.26 877.037L1289.83 902.945V926.02L1266.75 948.286Z" fill="#212121" stroke="#212121"/>
<path d="M775.443 981.772L774.331 1002.53L783.599 990.299L796.945 992.894L810.291 990.299L813.998 982.884L821.042 953.968L802.506 961.753V943.959L781.004 965.09L775.443 981.772Z" fill="#212121" stroke="#212121"/>
<path d="M904.082 807.533L894.443 814.577L884.434 810.499L882.58 837.191L891.477 863.882L906.306 829.406L904.082 807.533Z" fill="#212121" stroke="#212121"/>
<path d="M733.553 1024.41V988.816L749.123 986.592L762.098 969.168L766.917 979.919L760.986 998.084L733.553 1024.41Z" fill="#212121" stroke="#212121"/>
<path d="M873.685 1095.21L811.775 1130.43L806.214 1101.88L818.818 1075.19L875.168 1052.95L873.685 1095.21Z" fill="#212121" stroke="#212121"/>
<path d="M500.632 990.355L510.436 909.824L520.59 976.35L500.632 990.355Z" fill="#212121" stroke="#212121"/>
<path d="M585.007 864.877L584.903 864.853L584.798 864.874L545.209 872.644L528.361 870.622L594.524 836.275L615.075 847.813L608.641 870.331L585.007 864.877Z" fill="#212121" stroke="#212121"/>
<path d="M538.183 965.831L527.433 895.395L545.969 897.619L567.47 893.541L571.548 906.887L555.978 948.037L538.183 965.831Z" fill="#212121" stroke="#212121"/>
<path d="M530.769 1008.46L505.189 1027.37L588.972 1036.64L571.919 1020.33L548.564 1017.36L530.769 1008.46Z" fill="#212121" stroke="#212121"/>
<path d="M557.461 979.545L544.486 993.262L562.281 1002.53L585.636 1005.12L590.085 1009.2L598.241 1001.42L597.128 980.287L591.568 967.682L567.471 952.854L557.461 979.545Z" fill="#212121" stroke="#212121"/>
<path d="M594.164 935.062L590.086 920.975L641.986 973.246L619.002 976.582L613.441 963.978L588.974 948.779L594.164 935.062Z" fill="#212121" stroke="#212121"/>
<path d="M712.422 684.457L688.325 647.015L698.335 639.971L745.787 632.557L739.114 649.239L712.422 684.457Z" fill="#212121" stroke="#212121"/>
<path d="M994.91 903.179L976.004 857.951L972.667 895.394L941.897 911.705L970.814 943.958L994.91 903.179Z" fill="#212121" stroke="#212121"/>
<path d="M728.363 759.34L671.272 809.758L677.204 827.182L714.647 837.562L776.186 759.34L763.211 745.994L728.363 759.34Z" fill="#212121" stroke="#212121"/>
<path d="M647.917 932.096L631.234 935.432L682.023 987.333L692.403 985.108L682.023 940.252L647.917 932.096Z" fill="#212121" stroke="#212121"/>
<path d="M649.029 1009.21L615.664 1014.77L617.147 1035.9L608.25 1043.31L620.854 1055.55L662.004 1060.37L649.029 1009.21Z" fill="#212121" stroke="#212121"/>
<path d="M965.623 1035.53L919.654 1020.33L918.171 1062.96L965.623 1035.53Z" fill="#212121" stroke="#212121"/>
<path d="M906.678 874.261L971.183 836.447L968.959 874.261L912.239 897.616L889.996 892.426L906.678 874.261Z" fill="#212121" stroke="#212121"/>
<path d="M718.667 753.547L689.521 671.002L718.643 704.42L733.57 677.006L750.838 735.867L718.667 753.547Z" fill="#212121" stroke="#212121"/>
<path d="M856.632 645.9L885.177 654.427L871.461 673.704L843.657 698.913L824.75 679.636L835.13 654.427L856.632 645.9Z" fill="#212121" stroke="#212121"/>
<path d="M643.097 837.192L620.854 849.055L641.243 860.547L635.312 883.903L659.038 875.376L678.315 859.806L684.246 840.158L670.901 836.451L664.969 818.656L643.097 837.192Z" fill="#212121" stroke="#212121"/>
<path d="M720.948 1110.04L675.72 1082.98L667.564 1048.5H682.022L720.948 1068.89L735.777 1105.59L720.948 1110.04Z" fill="#212121" stroke="#212121"/>
<path d="M790.273 594L758.762 614.019L805.843 606.975L820.301 637.374L825.862 621.062L847.363 612.536L790.273 594Z" fill="#212121" stroke="#212121"/>
<path d="M936.707 983.627L889.996 1001.42L936.707 1016.62L968.959 959.901L950.053 939.512H945.975L936.707 983.627Z" fill="#212121" stroke="#212121"/>
<path d="M680.169 861.656L674.608 881.304L654.59 897.616L631.234 905.772L640.873 908.738L644.951 925.791H675.721L704.266 869.071L680.169 861.656Z" fill="#212121" stroke="#212121"/>
<path d="M927.069 713L910.757 672.592L896.67 691.869L906.679 699.284L917.801 713H927.069Z" fill="#212121" stroke="#212121"/>
<path d="M700.559 1001.79H669.789L680.911 1046.65H695.369L711.31 1054.8L726.138 1051.1V990.668L700.559 1001.79Z" fill="#212121" stroke="#212121"/>
<path d="M742.821 842.383L712.793 880.567L699.447 907.259L703.896 915.785L735.778 902.439L742.821 842.383Z" fill="#212121" stroke="#212121"/>
<path d="M781.745 632.184L774.331 643.306L781.745 704.104L794.35 717.45L818.076 675.188L799.169 654.798L802.135 645.901L788.789 615.502L781.745 632.184Z" fill="#212121" stroke="#212121"/>
<path d="M779.893 1145.63L745.416 1125.61L760.615 1120.79L745.416 1083.35L773.961 1048.5L787.307 1050.72V1091.13L773.961 1117.08L779.893 1145.63Z" fill="#212121" stroke="#212121"/>
<path d="M941.898 755.261L926.327 717.818L924.103 748.217L909.274 791.962L929.664 777.133L941.898 755.261Z" fill="#212121" stroke="#212121"/>
<path d="M914.833 940.252L882.58 906.888L904.452 912.078L956.353 890.576L930.403 904.293L940.041 916.156H935.964L925.954 961.013L914.833 940.252Z" fill="#212121" stroke="#212121"/>
<path d="M862.933 996.602L839.578 1038.12L906.678 1012.91L895.186 1005.5L862.933 996.602Z" fill="#212121" stroke="#212121"/>
<path d="M767.288 788.256L746.898 813.465L759.503 814.948L798.428 790.48L767.288 788.256Z" fill="#212121" stroke="#212121"/>
<path d="M843.656 711.887L872.201 687.42L879.987 692.981L892.962 707.809V730.053L865.529 768.237L832.905 762.305L843.656 711.887Z" fill="#212121" stroke="#212121"/>
<path d="M716.129 923.94L700.93 953.598L726.509 942.476V965.831L741.709 963.978L760.986 937.657L752.46 918.75L720.207 932.467L716.129 923.94Z" fill="#212121" stroke="#212121"/>
<path d="M740.597 1037.75L726.139 1041.46L748.011 1052.95L766.547 1030.34L768.03 1010.69L740.597 1037.75Z" fill="#212121" stroke="#212121"/>
<path d="M970.813 803.087L951.165 757.859L939.672 779.732L928.18 787.517L930.404 808.277L915.946 843.125L939.672 845.72L979.71 824.218L970.813 803.087Z" fill="#212121" stroke="#212121"/>
<path d="M852.554 860.174L855.52 913.557L801.766 936.171V897.616L826.974 864.622L852.554 860.174Z" fill="#212121" stroke="#212121"/>
<path d="M818.817 711.889L786.936 764.901L818.817 767.867L841.06 766.014L808.067 760.082L818.817 711.889Z" fill="#212121" stroke="#212121"/>
<path d="M802.508 1011.8L789.903 1014.39V1053.69L825.122 1039.97L848.848 997.711L841.433 982.512L802.508 1011.8Z" fill="#212121" stroke="#212121"/>
<path d="M781.746 854.989L749.864 881.31L757.649 820.883L770.625 823.107L772.478 821.995L781.746 827.556V854.989Z" fill="#212121" stroke="#212121"/>
<path d="M904.084 719.301V741.544L884.065 768.606L892.221 778.245L895.928 793.074L910.386 750.07L912.611 720.042L904.084 719.301Z" fill="#212121" stroke="#212121"/>
<path d="M789.903 804.937L826.975 782.324L849.96 780.099L858.116 768.236L865.901 777.504L869.237 793.816L859.598 789.738L858.116 804.937L845.511 826.068L821.044 830.146L812.888 838.673L798.43 810.498L789.903 804.937Z" fill="#212121" stroke="#212121"/>
<path d="M873.314 827.553L861.08 847.942L864.046 900.584L880.728 883.531L906.678 867.961L882.211 865.737L872.202 839.045L873.314 827.553Z" fill="#212121" stroke="#212121"/>
<path d="M833.647 973.987L830.682 979.547L868.124 950.631L875.909 966.943L908.533 975.84L918.171 982.142L908.533 963.606L875.909 929.871L840.32 945.071L833.647 973.987Z" fill="#212121" stroke="#212121"/>
<path d="M770.995 926.162L766.175 915.782L772.848 906.885L763.951 887.607L796.204 859.803V833.482L809.92 860.916L792.126 884.642V905.773L770.995 926.162Z" fill="#212121" stroke="#212121"/>
<path d="M274 972.839L272.944 992.55L281.744 980.935L294.415 983.399L307.086 980.935L310.606 973.895L317.294 946.441L299.695 953.833V936.938L279.28 957L274 972.839Z" fill="#212121" stroke="#212121"/>
<path d="M413.738 792.631L404.587 799.318L395.083 795.447L393.323 820.789L401.771 846.132L415.85 813.398L413.738 792.631Z" fill="#212121" stroke="#212121"/>
<path d="M234.229 1013.32V979.528L249.012 977.416L261.331 960.873L265.907 971.08L260.275 988.327L234.229 1013.32Z" fill="#212121" stroke="#212121"/>
<path d="M374.316 1090.4L315.536 1123.84L310.256 1096.74L322.223 1071.4L375.724 1050.28L374.316 1090.4Z" fill="#212121" stroke="#212121"/>
<path d="M13.1125 980.936L22.3917 904.714L32.0022 967.68L13.1125 980.936Z" fill="#212121" stroke="#212121"/>
<path d="M76.301 847.755L76.197 847.731L76.0923 847.752L38.5079 855.128L22.5971 853.219L85.3307 820.652L104.814 831.59L98.7169 852.928L76.301 847.755Z" fill="#212121" stroke="#212121"/>
<path d="M42.3988 940.111L32.1914 873.235L49.7904 875.346L70.2052 871.475L74.077 884.146L59.2938 923.216L42.3988 940.111Z" fill="#212121" stroke="#212121"/>
<path d="M24.7993 998.889L0.512695 1016.84L80.0601 1025.64L63.869 1010.15L41.6943 1007.34L24.7993 998.889Z" fill="#212121" stroke="#212121"/>
<path d="M65.6289 979.177L53.3096 992.2L70.2046 1001L92.3793 1003.46L96.6031 1007.33L104.347 999.943L103.291 979.88L98.011 967.913L75.1323 953.834L65.6289 979.177Z" fill="#212121" stroke="#212121"/>
<path d="M84.9863 910.188L81.1145 896.812L130.392 946.442L108.569 949.609L103.289 937.642L80.0586 923.211L84.9863 910.188Z" fill="#212121" stroke="#212121"/>
<path d="M204.308 669.435L181.43 633.885L190.933 627.198L235.987 620.158L229.651 635.997L204.308 669.435Z" fill="#212121" stroke="#212121"/>
<path d="M497.859 898.926L479.908 855.984L476.741 891.534L447.526 907.021L474.981 937.644L497.859 898.926Z" fill="#212121" stroke="#212121"/>
<path d="M221.556 761.652L167.352 809.521L172.983 826.064L208.533 835.919L266.962 761.652L254.643 748.98L221.556 761.652Z" fill="#212121" stroke="#212121"/>
<path d="M139.543 931.311L123.704 934.478L171.925 983.756L181.781 981.644L171.925 939.054L139.543 931.311Z" fill="#212121" stroke="#212121"/>
<path d="M144.12 1011.56L112.442 1016.84L113.85 1036.9L105.402 1043.94L117.37 1055.56L156.439 1060.13L144.12 1011.56Z" fill="#212121" stroke="#212121"/>
<path d="M454.567 1023.88L410.922 1009.45L409.514 1049.92L454.567 1023.88Z" fill="#212121" stroke="#212121"/>
<path d="M406.345 870.769L467.589 834.867L465.478 870.769L411.625 892.944L390.506 888.016L406.345 870.769Z" fill="#212121" stroke="#212121"/>
<path d="M203.471 755.109L175.798 676.736L203.448 708.465L217.621 682.436L234.016 738.323L203.471 755.109Z" fill="#212121" stroke="#212121"/>
<path d="M340.526 638.461L367.629 646.556L354.605 664.859L328.207 688.794L310.256 670.491L320.111 646.556L340.526 638.461Z" fill="#212121" stroke="#212121"/>
<path d="M131.45 827.122L110.331 838.386L129.69 849.297L124.058 871.472L146.585 863.376L164.888 848.593L170.52 829.938L157.848 826.418L152.217 809.523L131.45 827.122Z" fill="#212121" stroke="#212121"/>
<path d="M217.332 1114.34L174.39 1088.64L166.646 1055.91H180.374L217.332 1075.27L231.411 1110.12L217.332 1114.34Z" fill="#212121" stroke="#212121"/>
<path d="M288.784 592L258.866 611.007L303.568 604.319L317.295 633.182L322.575 617.695L342.989 609.599L288.784 592Z" fill="#212121" stroke="#212121"/>
<path d="M448.23 977.417L403.881 994.312L448.23 1008.74L478.853 954.89L460.902 935.531H457.03L448.23 977.417Z" fill="#212121" stroke="#212121"/>
<path d="M156.792 855.279L151.513 873.934L132.506 889.421L110.331 897.165L119.483 899.981L123.354 916.172H152.569L179.671 862.319L156.792 855.279Z" fill="#212121" stroke="#212121"/>
<path d="M422.186 702.172L406.698 663.807L393.323 682.11L402.827 689.149L413.386 702.172H422.186Z" fill="#212121" stroke="#212121"/>
<path d="M190.934 991.848H161.72L172.279 1034.44H186.006L201.141 1042.18L215.221 1038.66V981.289L190.934 991.848Z" fill="#212121" stroke="#212121"/>
<path d="M231.059 840.498L202.548 876.752L189.877 902.094L194.101 910.19L224.371 897.519L231.059 840.498Z" fill="#212121" stroke="#212121"/>
<path d="M256.753 640.921L249.714 651.481L256.753 709.205L268.721 721.876L291.247 681.751L273.296 662.392L276.112 653.944L263.441 625.082L256.753 640.921Z" fill="#212121" stroke="#212121"/>
<path d="M277.519 1148.13L244.785 1129.12L259.216 1124.55L244.785 1089L271.888 1055.91L284.559 1058.02V1096.39L271.888 1121.03L277.519 1148.13Z" fill="#212121" stroke="#212121"/>
<path d="M441.191 749.333L426.408 713.783L424.296 742.646L410.217 784.179L429.576 770.1L441.191 749.333Z" fill="#212121" stroke="#212121"/>
<path d="M406.346 940.46L375.724 908.782L396.49 913.71L445.768 893.295L421.129 906.318L430.28 917.582H426.409L416.905 960.171L406.346 940.46Z" fill="#212121" stroke="#212121"/>
<path d="M364.811 996.775L342.637 1036.2L406.345 1012.26L395.434 1005.22L364.811 996.775Z" fill="#212121" stroke="#212121"/>
<path d="M269.073 777.846L249.714 801.78L261.681 803.188L298.639 779.958L269.073 777.846Z" fill="#212121" stroke="#212121"/>
<path d="M338.061 696.889L365.163 673.658L372.555 678.938L384.874 693.017V714.136L358.828 750.39L327.854 744.758L338.061 696.889Z" fill="#212121" stroke="#212121"/>
<path d="M217.685 917.934L203.254 946.092L227.54 935.533V957.707L241.972 955.947L260.275 930.957L252.179 913.006L221.557 926.029L217.685 917.934Z" fill="#212121" stroke="#212121"/>
<path d="M240.916 1025.99L227.188 1029.51L247.955 1040.42L265.554 1018.95L266.962 1000.29L240.916 1025.99Z" fill="#212121" stroke="#212121"/>
<path d="M481.318 790.518L462.663 747.576L451.751 768.343L440.84 775.735L442.952 795.445L429.225 828.531L451.751 830.995L489.765 810.581L481.318 790.518Z" fill="#212121" stroke="#212121"/>
<path d="M353.547 858.799L356.363 909.484L305.326 930.955V894.349L329.261 863.023L353.547 858.799Z" fill="#212121" stroke="#212121"/>
<path d="M305.328 698.299L275.058 748.632L305.328 751.448L326.447 749.688L295.12 744.056L305.328 698.299Z" fill="#212121" stroke="#212121"/>
<path d="M299.697 1018.95L287.729 1021.42V1058.73L321.168 1045.7L343.694 1005.58L336.655 991.146L299.697 1018.95Z" fill="#212121" stroke="#212121"/>
<path d="M279.984 852.466L249.714 877.457L257.105 820.084L269.425 822.196L271.185 821.14L279.984 826.42V852.466Z" fill="#212121" stroke="#212121"/>
<path d="M396.138 712.377V733.496L377.131 759.19L384.874 768.342L388.394 782.421L402.121 741.591L404.233 713.081L396.138 712.377Z" fill="#212121" stroke="#212121"/>
<path d="M293.359 795.797L328.557 774.326L350.38 772.215L358.124 760.951L365.515 769.751L368.683 785.238L359.532 781.366L358.124 795.797L346.156 815.86L322.926 819.732L315.182 827.827L301.455 801.077L293.359 795.797Z" fill="#212121" stroke="#212121"/>
<path d="M376.074 811.637L364.459 830.996L367.275 880.977L383.114 864.786L407.752 850.002L384.522 847.891L375.018 822.548L376.074 811.637Z" fill="#212121" stroke="#212121"/>
<path d="M329.262 975.307L326.446 980.587L361.996 953.133L369.388 968.62L400.362 977.067L409.513 983.051L400.362 965.452L369.388 933.422L335.598 947.853L329.262 975.307Z" fill="#212121" stroke="#212121"/>
<path d="M274.001 919.341L269.425 909.485L275.761 901.038L267.313 882.735L297.936 856.336V831.346L310.959 857.392L294.064 879.919V899.982L274.001 919.341Z" fill="#212121" stroke="#212121"/>
<path d="M1260.1 395.852L1259.08 414.985L1267.62 403.71L1279.92 406.102L1292.22 403.71L1295.63 396.877L1302.13 370.227L1285.04 377.402V361.002L1265.23 380.477L1260.1 395.852Z" fill="#212121" stroke="#212121"/>
<path d="M1412.83 207.25L1403.94 213.742L1394.72 209.983L1393.01 234.583L1401.21 259.183L1414.88 227.408L1412.83 207.25Z" fill="#212121" stroke="#212121"/>
<path d="M1221.49 435.141V402.341L1235.84 400.291L1247.8 384.232L1252.24 394.141L1246.78 410.882L1221.49 435.141Z" fill="#212121" stroke="#212121"/>
<path d="M1360.89 524.999L1303.83 557.457L1298.71 531.149L1310.33 506.549L1362.26 486.049L1360.89 524.999Z" fill="#212121" stroke="#212121"/>
<path d="M1002.77 425.543L1011.77 351.693L1021.08 412.699L1002.77 425.543Z" fill="#212121" stroke="#212121"/>
<path d="M1048.38 210.18L1048.28 210.156L1048.17 210.177L1011.69 217.336L996.295 215.489L1057.14 183.902L1076.04 194.51L1070.13 215.198L1048.38 210.18Z" fill="#212121" stroke="#212121"/>
<path d="M1022.3 349.043L1012.39 284.126L1029.48 286.176L1049.29 282.418L1053.05 294.718L1038.7 332.643L1022.3 349.043Z" fill="#212121" stroke="#212121"/>
<path d="M1023.67 451.201L1000.09 468.626L1077.31 477.168L1061.59 462.134L1040.07 459.401L1023.67 451.201Z" fill="#212121" stroke="#212121"/>
<path d="M1052.37 403.368L1040.41 416.009L1056.81 424.551L1078.34 426.943L1082.44 430.701L1089.95 423.526L1088.93 404.051L1083.8 392.434L1061.59 378.768L1052.37 403.368Z" fill="#212121" stroke="#212121"/>
<path d="M1065.01 335.032L1061.25 322.049L1109.08 370.224L1087.9 373.299L1082.77 361.682L1060.22 347.674L1065.01 335.032Z" fill="#212121" stroke="#212121"/>
<path d="M1178.1 86.9856L1155.89 52.4773L1165.12 45.9857L1208.85 39.1523L1202.7 54.5273L1178.1 86.9856Z" fill="#212121" stroke="#212121"/>
<path d="M1477.4 324.101L1459.98 282.418L1456.9 316.926L1428.54 331.96L1455.19 361.685L1477.4 324.101Z" fill="#212121" stroke="#212121"/>
<path d="M1195.52 164.202L1142.91 210.669L1148.37 226.727L1182.88 236.294L1239.6 164.202L1227.64 151.902L1195.52 164.202Z" fill="#212121" stroke="#212121"/>
<path d="M1129.58 378.768L1114.21 381.843L1161.02 429.676L1170.58 427.626L1161.02 386.284L1129.58 378.768Z" fill="#212121" stroke="#212121"/>
<path d="M1127.19 451.201L1096.44 456.326L1097.81 475.801L1089.61 482.634L1101.23 493.909L1139.15 498.351L1127.19 451.201Z" fill="#212121" stroke="#212121"/>
<path d="M1440.16 486.391L1397.79 472.383L1396.43 511.674L1440.16 486.391Z" fill="#212121" stroke="#212121"/>
<path d="M1388.57 296.766L1448.02 261.916L1445.97 296.766L1393.69 318.291L1373.19 313.508L1388.57 296.766Z" fill="#212121" stroke="#212121"/>
<path d="M1134.24 163.996L1107.38 87.9199L1134.21 118.719L1147.97 93.453L1163.89 147.702L1134.24 163.996Z" fill="#212121" stroke="#212121"/>
<path d="M1341.08 56.2363L1367.38 64.0946L1354.74 81.8613L1329.12 105.095L1311.69 87.3279L1321.26 64.0946L1341.08 56.2363Z" fill="#212121" stroke="#212121"/>
<path d="M1105.33 230.484L1084.83 241.417L1103.62 252.009L1098.15 273.534L1120.02 265.675L1137.78 251.325L1143.25 233.217L1130.95 229.8L1125.48 213.4L1105.33 230.484Z" fill="#212121" stroke="#212121"/>
<path d="M1205.09 565.998L1163.41 541.056L1155.89 509.281H1169.22L1205.09 528.073L1218.76 561.898L1205.09 565.998Z" fill="#212121" stroke="#212121"/>
<path d="M1265.57 4.30078L1236.53 22.7508L1279.92 16.2591L1293.24 44.2757L1298.37 29.2424L1318.18 21.3841L1265.57 4.30078Z" fill="#212121" stroke="#212121"/>
<path d="M1444.94 417.373L1401.89 433.773L1444.94 447.781L1474.67 395.506L1457.24 376.715H1453.48L1444.94 417.373Z" fill="#212121" stroke="#212121"/>
<path d="M1134.03 267.383L1128.9 285.491L1110.45 300.524L1088.93 308.041L1097.81 310.774L1101.57 326.491H1129.93L1156.23 274.216L1134.03 267.383Z" fill="#212121" stroke="#212121"/>
<path d="M1419.66 120.81L1404.63 83.5684L1391.64 101.335L1400.87 108.168L1411.12 120.81H1419.66Z" fill="#212121" stroke="#212121"/>
<path d="M1179.47 440.951H1151.11L1161.36 482.293H1174.69L1189.38 489.809L1203.04 486.393V430.701L1179.47 440.951Z" fill="#212121" stroke="#212121"/>
<path d="M1193.82 279.682L1166.14 314.873L1153.84 339.473L1157.94 347.332L1187.33 335.032L1193.82 279.682Z" fill="#212121" stroke="#212121"/>
<path d="M1228.33 55.2109L1221.49 65.4609L1228.33 121.494L1239.94 133.794L1261.81 94.8442L1244.38 76.0526L1247.12 67.8526L1234.82 39.8359L1228.33 55.2109Z" fill="#212121" stroke="#212121"/>
<path d="M1263.52 565.999L1231.74 547.549L1245.75 543.107L1231.74 508.599L1258.05 476.482L1270.35 478.532V515.774L1258.05 539.691L1263.52 565.999Z" fill="#212121" stroke="#212121"/>
<path d="M1433.33 163.178L1418.98 128.67L1416.93 156.687L1403.26 197.003L1422.05 183.337L1433.33 163.178Z" fill="#212121" stroke="#212121"/>
<path d="M1388.57 364.418L1358.84 333.668L1379 338.451L1426.83 318.635L1402.92 331.276L1411.8 342.21H1408.04L1398.82 383.551L1388.57 364.418Z" fill="#212121" stroke="#212121"/>
<path d="M1353.03 440.949L1331.51 479.216L1393.35 455.983L1382.76 449.149L1353.03 440.949Z" fill="#212121" stroke="#212121"/>
<path d="M1255.32 206.568L1236.53 229.802L1248.14 231.168L1284.02 208.618L1255.32 206.568Z" fill="#212121" stroke="#212121"/>
<path d="M1312.72 123.884L1339.03 101.334L1346.2 106.459L1358.16 120.126V140.626L1332.88 175.817L1302.81 170.351L1312.72 123.884Z" fill="#212121" stroke="#212121"/>
<path d="M1205.43 342.551L1191.42 369.884L1215 359.634V381.159L1229.01 379.451L1246.77 355.193L1238.92 337.768L1209.19 350.409L1205.43 342.551Z" fill="#212121" stroke="#212121"/>
<path d="M1227.98 447.442L1214.66 450.858L1234.82 461.45L1251.9 440.608L1253.27 422.5L1227.98 447.442Z" fill="#212121" stroke="#212121"/>
<path d="M1483.21 218.869L1465.1 177.186L1454.51 197.344L1443.92 204.519L1445.97 223.652L1432.64 255.769L1454.51 258.16L1491.41 238.344L1483.21 218.869Z" fill="#212121" stroke="#212121"/>
<path d="M1337.32 285.15L1340.05 334.35L1290.51 355.192V319.659L1313.74 289.25L1337.32 285.15Z" fill="#212121" stroke="#212121"/>
<path d="M1283.68 104.752L1254.29 153.61L1283.68 156.344L1304.18 154.635L1273.77 149.169L1283.68 104.752Z" fill="#212121" stroke="#212121"/>
<path d="M1285.04 440.611L1273.42 443.002V479.219L1305.88 466.577L1327.75 427.627L1320.92 413.619L1285.04 440.611Z" fill="#212121" stroke="#212121"/>
<path d="M1265.91 279.002L1236.53 303.26L1243.7 247.568L1255.66 249.618L1257.37 248.593L1265.91 253.718V279.002Z" fill="#212121" stroke="#212121"/>
<path d="M1378.66 143.016V163.516L1360.21 188.457L1367.73 197.341L1371.14 211.007L1384.47 171.374L1386.52 143.699L1378.66 143.016Z" fill="#212121" stroke="#212121"/>
<path d="M1278.89 223.991L1313.06 203.149L1334.24 201.099L1341.76 190.166L1348.93 198.708L1352.01 213.741L1343.13 209.983L1341.76 223.991L1330.14 243.466L1307.59 247.224L1300.08 255.083L1286.75 229.116L1278.89 223.991Z" fill="#212121" stroke="#212121"/>
<path d="M1359.18 239.367L1347.91 258.159L1350.64 306.675L1366.02 290.959L1389.93 276.609L1367.38 274.559L1358.16 249.959L1359.18 239.367Z" fill="#212121" stroke="#212121"/>
<path d="M1318.53 404.393L1315.79 409.518L1350.3 382.868L1357.48 397.901L1387.54 406.101L1396.43 411.909L1387.54 394.826L1357.48 363.734L1324.68 377.743L1318.53 404.393Z" fill="#212121" stroke="#212121"/>
<path d="M1260.1 343.917L1255.66 334.35L1261.81 326.15L1253.61 308.383L1283.33 282.758V258.5L1295.98 283.783L1279.58 305.65V325.125L1260.1 343.917Z" fill="#212121" stroke="#212121"/>
<path d="M772.687 378.983L771.671 397.953L780.139 386.774L792.334 389.146L804.529 386.774L807.916 380L814.352 353.578L797.415 360.691V344.432L777.768 363.74L772.687 378.983Z" fill="#212121" stroke="#212121"/>
<path d="M928.169 210.969L919.362 217.405L910.216 213.679L908.522 238.068L916.652 262.457L930.202 230.955L928.169 210.969Z" fill="#212121" stroke="#212121"/>
<path d="M720.86 425.39V392.871L735.088 390.839L746.943 374.918L751.347 384.741L745.927 401.34L720.86 425.39Z" fill="#212121" stroke="#212121"/>
<path d="M899.714 534.124L843.145 566.305L838.063 540.222L849.581 515.832L901.069 495.508L899.714 534.124Z" fill="#212121" stroke="#212121"/>
<path d="M521.634 386.737L530.543 313.56L539.769 374.011L521.634 386.737Z" fill="#212121" stroke="#212121"/>
<path d="M553.295 175.929L553.191 175.905L553.086 175.925L516.918 183.023L501.669 181.194L561.98 149.885L580.709 160.399L574.85 180.903L553.295 175.929Z" fill="#212121" stroke="#212121"/>
<path d="M538.279 314.959L528.455 250.598L545.392 252.63L565.039 248.904L568.765 261.099L554.538 298.699L538.279 314.959Z" fill="#212121" stroke="#212121"/>
<path d="M530.149 444.02L506.775 461.295L583.331 469.764L567.749 454.859L546.408 452.149L530.149 444.02Z" fill="#212121" stroke="#212121"/>
<path d="M556.569 397.95L544.713 410.483L560.972 418.952L582.313 421.323L586.378 425.049L593.83 417.936L592.814 398.627L587.733 387.11L565.715 373.561L556.569 397.95Z" fill="#212121" stroke="#212121"/>
<path d="M582.654 336.298L578.927 323.426L626.351 371.188L605.349 374.237L600.268 362.72L577.911 348.831L582.654 336.298Z" fill="#212121" stroke="#212121"/>
<path d="M677.163 53.1133L655.145 18.9004L664.291 12.4643L707.649 5.68945L701.552 20.9328L677.163 53.1133Z" fill="#212121" stroke="#212121"/>
<path d="M994.223 307.17L976.947 265.844L973.899 300.057L945.783 314.961L972.205 344.432L994.223 307.17Z" fill="#212121" stroke="#212121"/>
<path d="M682.514 131.646L622.244 166.449L624.398 183.129L656.049 199.213L725.343 140.315L716.142 126.011L682.514 131.646Z" fill="#212121" stroke="#212121"/>
<path d="M656.16 345.785L640.917 348.834L687.325 396.258L696.809 394.225L687.325 353.237L656.16 345.785Z" fill="#212121" stroke="#212121"/>
<path d="M634.141 467.055L603.655 472.136L605.01 491.444L596.88 498.219L608.397 509.397L645.997 513.801L634.141 467.055Z" fill="#212121" stroke="#212121"/>
<path d="M973.56 461.299L931.556 447.41L930.201 486.365L973.56 461.299Z" fill="#212121" stroke="#212121"/>
<path d="M895.311 287.522L954.252 252.971L952.219 287.522L900.392 308.863L880.067 304.121L895.311 287.522Z" fill="#212121" stroke="#212121"/>
<path d="M624.191 122.017L597.559 46.5918L624.169 77.1274L637.809 52.0775L653.587 105.862L624.191 122.017Z" fill="#212121" stroke="#212121"/>
<path d="M866.52 48.3711L892.604 56.1622L880.07 73.7767L854.664 96.8111L837.389 79.1966L846.873 56.1622L866.52 48.3711Z" fill="#212121" stroke="#212121"/>
<path d="M598.236 212.998L577.911 223.837L596.542 234.338L591.122 255.679L612.802 247.888L630.416 233.661L635.836 215.708L623.641 212.32L618.221 196.061L598.236 212.998Z" fill="#212121" stroke="#212121"/>
<path d="M717.472 542.934L676.146 518.206L668.693 486.703H681.904L717.472 505.334L731.022 538.869L717.472 542.934Z" fill="#212121" stroke="#212121"/>
<path d="M786.237 24.6582L757.444 42.9503L800.465 36.5142L813.675 64.291L818.757 49.3863L838.404 41.5953L786.237 24.6582Z" fill="#212121" stroke="#212121"/>
<path d="M947.139 392.871L904.458 409.13L947.139 423.019L976.61 371.191L959.334 352.561H955.608L947.139 392.871Z" fill="#212121" stroke="#212121"/>
<path d="M651.756 242.809L646.675 260.762L628.383 275.667L607.042 283.119L615.849 285.829L619.575 301.411H647.691L673.774 249.583L651.756 242.809Z" fill="#212121" stroke="#212121"/>
<path d="M949.172 71.7471L934.268 34.8242L921.396 52.4388L930.542 59.2136L940.704 71.7471H949.172Z" fill="#212121" stroke="#212121"/>
<path d="M639.902 404.053H611.786L621.948 445.041H635.159L649.725 452.493L663.275 449.106V393.891L639.902 404.053Z" fill="#212121" stroke="#212121"/>
<path d="M722.554 204.869L695.116 239.76L682.921 264.149L686.986 271.94L716.118 259.745L722.554 204.869Z" fill="#212121" stroke="#212121"/>
<path d="M778.446 59.5481L771.671 69.7103L778.446 125.264L789.963 137.459L811.642 98.8421L794.367 80.2113L797.077 72.0815L784.882 44.3047L778.446 59.5481Z" fill="#212121" stroke="#212121"/>
<path d="M778.107 568L746.604 549.708L760.493 545.305L746.604 511.092L772.688 479.25L784.882 481.282V518.205L772.688 541.917L778.107 568Z" fill="#212121" stroke="#212121"/>
<path d="M952.56 141.527L938.333 107.314L936.301 135.091L922.751 175.063L941.382 161.513L952.56 141.527Z" fill="#212121" stroke="#212121"/>
<path d="M912.248 348.497L882.777 318.01L902.763 322.752L950.187 303.105L926.475 315.639L935.282 326.479H931.556L922.41 367.466L912.248 348.497Z" fill="#212121" stroke="#212121"/>
<path d="M853.309 433.859L831.968 471.798L893.28 448.764L882.779 441.989L853.309 433.859Z" fill="#212121" stroke="#212121"/>
<path d="M735.425 160.154L716.794 183.189L728.311 184.544L763.879 162.187L735.425 160.154Z" fill="#212121" stroke="#212121"/>
<path d="M841.791 113.414L867.874 91.0566L874.988 96.1378L886.844 109.687V130.012L861.777 164.902L831.968 159.482L841.791 113.414Z" fill="#212121" stroke="#212121"/>
<path d="M706.971 305.137L693.083 332.236L716.456 322.074V343.415L730.345 341.721L747.959 317.67L740.168 300.395L710.698 312.928L706.971 305.137Z" fill="#212121" stroke="#212121"/>
<path d="M734.747 449.781L721.536 453.168L741.522 463.669L758.459 443.006L759.814 425.053L734.747 449.781Z" fill="#212121" stroke="#212121"/>
<path d="M985.078 206.225L967.125 164.898L956.624 184.884L946.123 191.998L948.155 210.967L934.944 242.809L956.624 245.18L993.208 225.533L985.078 206.225Z" fill="#212121" stroke="#212121"/>
<path d="M843.144 267.877L845.854 316.656L796.736 337.319V302.09L819.771 271.942L843.144 267.877Z" fill="#212121" stroke="#212121"/>
<path d="M812.319 132.377L783.188 180.817L812.319 183.527L832.644 181.833L802.496 176.413L812.319 132.377Z" fill="#212121" stroke="#212121"/>
<path d="M805.545 417.261L794.027 419.632V455.538L826.208 443.005L847.887 404.388L841.112 390.5L805.545 417.261Z" fill="#212121" stroke="#212121"/>
<path d="M772.35 219.778L743.218 243.828L750.331 188.613L762.187 190.646L763.881 189.63L772.35 194.711V219.778Z" fill="#212121" stroke="#212121"/>
<path d="M913.265 84.957V105.282L894.973 130.01L902.425 138.817L905.812 152.367L919.023 113.073L921.056 85.6345L913.265 84.957Z" fill="#212121" stroke="#212121"/>
<path d="M815.03 199.114L848.904 178.45L869.906 176.418L877.359 165.578L884.472 174.047L887.521 188.951L878.714 185.225L877.359 199.114L865.842 218.422L843.485 222.148L836.032 229.939L822.821 204.195L815.03 199.114Z" fill="#212121" stroke="#212121"/>
<path d="M870.245 214.355L859.066 232.986L861.776 281.088L877.02 265.505L900.732 251.278L878.375 249.246L869.229 224.856L870.245 214.355Z" fill="#212121" stroke="#212121"/>
<path d="M825.87 371.871L823.16 376.952L857.373 350.53L864.487 365.435L894.296 373.565L903.103 379.323L894.296 362.386L864.487 331.561L831.967 345.449L825.87 371.871Z" fill="#212121" stroke="#212121"/>
<path d="M774.721 313.947L770.318 304.462L776.415 296.333L768.285 278.718L797.756 253.312V229.262L810.289 254.329L794.03 276.008V295.316L774.721 313.947Z" fill="#212121" stroke="#212121"/>
<path d="M253.707 383.062L252.674 402.339L261.28 390.979L273.673 393.389L286.065 390.979L289.508 384.095L296.048 357.244L278.836 364.473V347.949L258.87 367.571L253.707 383.062Z" fill="#212121" stroke="#212121"/>
<path d="M433.056 215.766L424.106 222.306L414.811 218.52L413.09 243.305L421.352 268.09L435.121 236.076L433.056 215.766Z" fill="#212121" stroke="#212121"/>
<path d="M196.905 436.421V403.374L211.363 401.308L223.412 385.129L227.887 395.112L222.379 411.98L196.905 436.421Z" fill="#212121" stroke="#212121"/>
<path d="M404.139 544.171L346.651 576.874L341.487 550.368L353.192 525.582L405.516 504.928L404.139 544.171Z" fill="#212121" stroke="#212121"/>
<path d="M19.9094 394.404L28.9719 319.962L38.358 381.458L19.9094 394.404Z" fill="#212121" stroke="#212121"/>
<path d="M54.1583 141.613L54.0543 141.589L53.9496 141.609L17.1932 148.823L1.66938 146.96L62.9869 115.129L82.0286 125.819L76.0713 146.669L54.1583 141.613Z" fill="#212121" stroke="#212121"/>
<path d="M29.2603 271.873L19.2773 206.467L36.4894 208.533L56.4554 204.746L60.2421 217.139L45.7839 255.35L29.2603 271.873Z" fill="#212121" stroke="#212121"/>
<path d="M25.1296 514.564L1.37695 532.121L79.1755 540.727L63.3404 525.58L41.6532 522.826L25.1296 514.564Z" fill="#212121" stroke="#212121"/>
<path d="M55.4234 450.537L43.375 463.274L59.8986 471.88L81.5858 474.29L85.7167 478.077L93.29 470.848L92.2573 451.226L87.0936 439.522L64.718 425.752L55.4234 450.537Z" fill="#212121" stroke="#212121"/>
<path d="M64.0303 329.364L60.2437 316.283L108.437 364.821L87.0945 367.919L81.9309 356.215L59.2109 342.101L64.0303 329.364Z" fill="#212121" stroke="#212121"/>
<path d="M138.73 51.9047L116.354 17.1363L125.649 10.5958L169.712 3.71094L163.516 19.2018L138.73 51.9047Z" fill="#212121" stroke="#212121"/>
<path d="M493.986 351.392L476.43 309.395L473.332 344.163L444.76 359.31L471.611 389.259L493.986 351.392Z" fill="#212121" stroke="#212121"/>
<path d="M174.461 47.7226L113.213 83.0911L115.401 100.042L147.566 116.387L217.985 56.5328L208.635 41.9961L174.461 47.7226Z" fill="#212121" stroke="#212121"/>
<path d="M136.663 336.248L121.172 339.346L168.333 387.54L177.972 385.475L168.333 343.821L136.663 336.248Z" fill="#212121" stroke="#212121"/>
<path d="M131.5 520.76L100.519 525.923L101.896 545.545L93.6338 552.43L105.338 563.79L143.549 568.265L131.5 520.76Z" fill="#212121" stroke="#212121"/>
<path d="M481.938 534.874L439.252 520.76L437.875 560.348L481.938 534.874Z" fill="#212121" stroke="#212121"/>
<path d="M399.665 293.56L459.563 258.447L457.497 293.56L404.828 315.247L384.174 310.428L399.665 293.56Z" fill="#212121" stroke="#212121"/>
<path d="M45.654 93.6964L18.5889 17.0469L45.631 48.0783L59.4924 22.6216L75.527 77.2795L45.654 93.6964Z" fill="#212121" stroke="#212121"/>
<path d="M378.666 27.1172L405.173 35.0347L392.436 52.9353L366.618 76.3437L349.062 58.4431L358.7 35.0347L378.666 27.1172Z" fill="#212121" stroke="#212121"/>
<path d="M97.7639 162.751L77.1094 173.767L96.0426 184.438L90.5348 206.126L112.566 198.208L130.467 183.75L135.975 165.505L123.582 162.063L118.074 145.539L97.7639 162.751Z" fill="#212121" stroke="#212121"/>
<path d="M218.938 553.123L176.94 527.993L169.367 495.979H182.793L218.938 514.912L232.708 548.992L218.938 553.123Z" fill="#212121" stroke="#212121"/>
<path d="M296.393 9.90625L267.133 28.4953L310.851 21.9547L324.277 50.1825L329.44 35.0359L349.406 27.1183L296.393 9.90625Z" fill="#212121" stroke="#212121"/>
<path d="M461.973 465.338L418.599 481.861L461.973 495.975L491.922 443.306L474.366 424.373H470.579L461.973 465.338Z" fill="#212121" stroke="#212121"/>
<path d="M142.516 212.318L137.352 230.563L118.763 245.71L97.0762 253.283L106.026 256.037L109.813 271.872H138.385L164.892 219.203L142.516 212.318Z" fill="#212121" stroke="#212121"/>
<path d="M470.922 55.0008L455.776 17.4785L442.694 35.3791L451.989 42.2639L462.316 55.0008H470.922Z" fill="#212121" stroke="#212121"/>
<path d="M140.795 438.831H112.223L122.55 480.484H135.975L150.778 488.058L164.547 484.615V428.504L140.795 438.831Z" fill="#212121" stroke="#212121"/>
<path d="M224.1 147.602L196.217 183.058L183.824 207.844L187.955 215.761L217.56 203.369L224.1 147.602Z" fill="#212121" stroke="#212121"/>
<path d="M239.592 22.6452L232.707 32.9724L239.592 89.428L251.296 101.821L273.327 62.5771L255.771 43.6439L258.525 35.3821L246.132 7.1543L239.592 22.6452Z" fill="#212121" stroke="#212121"/>
<path d="M280.556 578.594L248.542 560.005L262.656 555.529L248.542 520.761L275.049 488.402L287.441 490.468V527.99L275.049 552.087L280.556 578.594Z" fill="#212121" stroke="#212121"/>
<path d="M477.806 111.46L463.348 76.6914L461.282 104.919L447.513 145.54L466.446 131.77L477.806 111.46Z" fill="#212121" stroke="#212121"/>
<path d="M409.303 355.523L379.354 324.541L399.664 329.361L447.858 309.395L423.761 322.131L432.711 333.147H428.924L419.63 374.8L409.303 355.523Z" fill="#212121" stroke="#212121"/>
<path d="M351.469 469.812L329.782 508.368L392.09 484.959L381.418 478.074L351.469 469.812Z" fill="#212121" stroke="#212121"/>
<path d="M213.084 114.561L194.15 137.969L205.855 139.346L242 116.626L213.084 114.561Z" fill="#212121" stroke="#212121"/>
<path d="M328.751 106.296L355.257 83.5762L362.486 88.7398L374.535 102.509V123.164L349.061 158.621L318.768 153.113L328.751 106.296Z" fill="#212121" stroke="#212121"/>
<path d="M204.823 307.331L190.709 334.87L214.462 324.543V346.23L228.576 344.509L246.476 320.068L238.559 302.512L208.61 315.249L204.823 307.331Z" fill="#212121" stroke="#212121"/>
<path d="M236.494 458.452L223.068 461.894L243.379 472.566L260.591 451.567L261.968 433.322L236.494 458.452Z" fill="#212121" stroke="#212121"/>
<path d="M490.888 201.992L472.643 159.994L461.972 180.304L451.3 187.533L453.366 206.811L439.94 239.17L461.972 241.579L499.15 221.613L490.888 201.992Z" fill="#212121" stroke="#212121"/>
<path d="M363.864 293.561L366.618 343.131L316.703 364.13V328.329L340.112 297.691L363.864 293.561Z" fill="#212121" stroke="#212121"/>
<path d="M271.95 100.789L242.346 150.016L271.95 152.769L292.605 151.048L261.967 145.54L271.95 100.789Z" fill="#212121" stroke="#212121"/>
<path d="M308.441 425.408L296.736 427.818V464.307L329.439 451.57L351.471 412.327L344.586 398.213L308.441 425.408Z" fill="#212121" stroke="#212121"/>
<path d="M218.939 261.891L189.334 286.332L196.563 230.221L208.611 232.286L210.333 231.253L218.939 236.417V261.891Z" fill="#212121" stroke="#212121"/>
<path d="M411.024 50.5293V71.1838L392.435 96.3134L400.008 105.264L403.45 119.033L416.876 79.1013L418.941 51.2178L411.024 50.5293Z" fill="#212121" stroke="#212121"/>
<path d="M346.308 180.996L380.732 159.997L402.075 157.932L409.648 146.916L416.877 155.522L419.975 170.669L411.025 166.882L409.648 180.996L397.944 200.618L375.224 204.404L367.651 212.322L354.225 186.16L346.308 180.996Z" fill="#212121" stroke="#212121"/>
<path d="M336.324 204.746L324.964 223.679L327.718 272.562L343.209 256.727L367.306 242.268L344.586 240.203L335.291 215.418L336.324 204.746Z" fill="#212121" stroke="#212121"/>
<path d="M375.911 428.848L373.157 434.011L407.926 407.16L415.155 422.307L445.448 430.569L454.398 436.421L445.448 419.209L415.155 387.883L382.107 401.997L375.911 428.848Z" fill="#212121" stroke="#212121"/>
<path d="M260.591 281.168L256.116 271.529L262.313 263.267L254.051 245.367L284 219.549V195.107L296.737 220.581L280.213 242.613V262.234L260.591 281.168Z" fill="#212121" stroke="#212121"/>
</g>
<defs>
<clipPath id="clip0_282_106">
<rect width="1494" height="1740" fill="white"/>
</clipPath>
</defs>
</svg>
