<svg width="3005" height="615" viewBox="0 0 3005 615" fill="none" xmlns="http://www.w3.org/2000/svg">
<path d="M258.461 360.081L242.951 357.812L239.784 358.29L238.661 362.567L241.082 370.276L244.506 377.549L250.589 381.709L261.849 380.074L265.599 372.043L262.272 364.627L258.461 360.081Z" fill="#FFF9E1"/>
<path d="M277.702 233.574L272.56 232.822L271.511 232.98L271.139 234.398L271.941 236.953L273.076 239.364L275.092 240.743L278.824 240.201L280.067 237.539L278.964 235.081L277.702 233.574Z" fill="#FFF9E1"/>
<path d="M278.023 229.984L277.976 227.364L277.811 226.855L277.076 226.786L275.87 227.394L274.763 228.156L274.242 229.272L274.817 231.084L276.243 231.485L277.376 230.735L278.023 229.984Z" fill="#FFF9E1"/>
<path d="M238.208 266.484L238.162 263.864L237.997 263.355L237.261 263.286L236.055 263.894L234.949 264.656L234.428 265.772L235.003 267.584L236.429 267.985L237.561 267.235L238.208 266.484Z" fill="#FFF9E1"/>
<path d="M221.863 314.969L216.012 314.113L214.817 314.294L214.394 315.907L215.307 318.815L216.599 321.558L218.893 323.128L223.141 322.511L224.555 319.481L223.3 316.684L221.863 314.969Z" fill="#FFF9E1"/>
<path d="M231.063 289.711L227.417 289.178L226.672 289.29L226.408 290.296L226.977 292.108L227.782 293.818L229.212 294.796L231.859 294.411L232.74 292.523L231.958 290.78L231.063 289.711Z" fill="#FFF9E1"/>
<path d="M222.342 299.547L231.443 298.216L233.301 298.496L233.96 301.006L232.54 305.529L230.53 309.796L226.961 312.237L220.355 311.278L218.155 306.566L220.107 302.215L222.342 299.547Z" fill="#FFF9E1"/>
<path d="M249.101 241.574L258.201 240.243L260.06 240.524L260.718 243.033L259.298 247.556L257.289 251.823L253.72 254.264L247.113 253.305L244.913 248.593L246.865 244.242L249.101 241.574Z" fill="#FFF9E1"/>
<path d="M244.821 254.942L246.514 257.818L246.674 258.481L245.92 259.046L244.206 259.188L242.497 259.096L241.188 258.231L240.606 255.879L241.889 254.495L243.618 254.556L244.821 254.942Z" fill="#FFF9E1"/>
<path d="M243.041 344.939L239.894 348.118L242.974 353.136L248.953 354.457L252.914 355.866L256.152 352.836L256.099 349.587L243.041 344.939Z" fill="#FFF9E1"/>
<path d="M236.574 346.206L232.642 344.074L228.685 348.435L229.09 354.545L228.845 358.742L232.66 361.003L235.765 360.043L236.574 346.206Z" fill="#FFF9E1"/>
<path d="M232.89 281.076L232.218 278.056L228.145 277.969L225.139 280.955L222.836 282.732L223.388 285.75L225.299 286.936L232.89 281.076Z" fill="#FFF9E1"/>
<path d="M270.598 236.68L270.15 234.666L267.434 234.608L265.43 236.599L263.894 237.784L264.262 239.796L265.536 240.587L270.598 236.68Z" fill="#FFF9E1"/>
<path d="M242.233 264.769L243.279 264.426L243.167 262.981L242.005 262.021L241.296 261.268L240.247 261.569L239.894 262.287L242.233 264.769Z" fill="#FFF9E1"/>
<path d="M234.707 263.116L234.395 261.716L232.506 261.675L231.112 263.06L230.044 263.885L230.3 265.284L231.186 265.834L234.707 263.116Z" fill="#FFF9E1"/>
<path d="M267.322 243.556L266.117 241.882L263.598 242.9L262.541 245.519L261.597 247.214L262.729 248.918L264.211 249.142L267.322 243.556Z" fill="#FFF9E1"/>
<path d="M221.863 314.969L216.012 314.113L214.817 314.294L214.394 315.907L215.307 318.815L216.599 321.558L218.893 323.128L223.141 322.511L224.555 319.481L223.3 316.684L221.863 314.969Z" fill="#FFF9E1"/>
<path d="M227.536 324.721H224.19L222.215 327.136L218.007 335.039L225.866 343.943L237.238 338.041L237.829 335.039L227.536 324.721Z" fill="#FFF9E1"/>
<path d="M221.337 287.479H219.817L218.919 288.661L217.006 292.53L220.579 296.889L225.748 294L226.016 292.53L221.337 287.479Z" fill="#FFF9E1"/>
<path d="M327.08 234.778L328.652 229.078L329.299 228.057L330.946 228.319L333.24 230.326L335.231 232.613L335.743 235.345L333.469 238.985L330.126 239.059L328.071 236.784L327.08 234.778Z" fill="#FFF9E1"/>
<path d="M300.262 233.024L301.242 229.472L301.645 228.836L302.671 228.999L304.101 230.249L305.342 231.675L305.661 233.377L304.243 235.645L302.16 235.692L300.88 234.274L300.262 233.024Z" fill="#FFF9E1"/>
<path d="M312.771 229.006L307.888 236.801L307.396 238.615L309.428 240.228L314.14 240.749L318.855 240.628L322.526 238.344L324.309 231.91L320.881 227.999L316.113 228.034L312.771 229.006Z" fill="#FFF9E1"/>
<path d="M327.08 234.778L328.652 229.078L329.299 228.057L330.946 228.319L333.24 230.326L335.231 232.613L335.743 235.345L333.469 238.985L330.126 239.059L328.071 236.784L327.08 234.778Z" fill="#FFF9E1"/>
<path d="M333.867 243.888L335.19 240.879L338.159 240.064L346.978 239.426L351.929 250.041L342.086 257.92L339.135 257.257L333.867 243.888Z" fill="#FFF9E1"/>
<path d="M302.276 223.028L302.898 221.614L304.291 221.23L308.43 220.928L310.75 225.913L306.129 229.617L304.744 229.306L302.276 223.028Z" fill="#FFF9E1"/>
<path d="M231.34 267.654H229.752L228.814 268.912L226.817 273.028L230.548 277.666L235.947 274.592L236.227 273.028L231.34 267.654Z" fill="#FFF9E1"/>
<path d="M374.174 327.036L374.22 324.417L374.385 323.908L375.12 323.839L376.326 324.447L377.433 325.209L377.954 326.324L377.379 328.137L375.953 328.538L374.82 327.788L374.174 327.036Z" fill="#FFF9E1"/>
<path d="M340.637 375.5L344.65 379.843L345.176 380.93L344.084 382.192L341.17 383.082L338.176 383.567L335.585 382.561L333.693 378.709L335.392 375.83L338.409 375.284L340.637 375.5Z" fill="#FFF9E1"/>
<path d="M356.28 353.642L358.781 356.348L359.109 357.026L358.429 357.812L356.612 358.367L354.747 358.669L353.132 358.042L351.953 355.641L353.012 353.847L354.892 353.507L356.28 353.642Z" fill="#FFF9E1"/>
<path d="M353.09 366.387L349.044 358.127L347.763 356.753L345.32 357.628L342.392 361.356L340.007 365.426L340.011 369.749L344.537 374.657L349.667 373.809L352.153 369.739L353.09 366.387Z" fill="#FFF9E1"/>
<path d="M362.371 347.257L365.243 346.104L367.616 349.415L366.852 353.582L366.688 356.487L363.886 357.738L361.828 356.831L362.371 347.257Z" fill="#FFF9E1"/>
<path d="M340.637 375.5L344.65 379.843L345.176 380.93L344.084 382.192L341.17 383.082L338.176 383.567L335.585 382.561L333.693 378.709L335.392 375.83L338.409 375.284L340.637 375.5Z" fill="#FFF9E1"/>
<path d="M363.708 360.626L364.581 361.9L364.172 363.286L362.245 366.962L356.786 366.303L356.077 360.424L357.071 359.411L363.708 360.626Z" fill="#FFF9E1"/>
<path d="M373.286 340.974L374.159 342.248L373.75 343.634L371.824 347.31L366.365 346.651L365.655 340.771L366.65 339.759L373.286 340.974Z" fill="#FFF9E1"/>
<path d="M284.209 242.916L284.965 242.48L285.094 241.673L285.007 239.329L282.064 238.33L280.27 241.154L280.531 241.913L284.209 242.916Z" fill="#FFF9E1"/>
<path d="M238.679 260.99L239.434 260.554L239.563 259.748L239.477 257.403L236.533 256.404L234.74 259.228L235 259.987L238.679 260.99Z" fill="#FFF9E1"/>
<path d="M376.498 271.424L362.69 266.453L357.011 268.406L355.765 269.979L359.617 274.776L365.107 280.163L371.48 282.446L374.506 283.824L377.687 283.002L376.498 271.424Z" fill="#FFF9E1"/>
<path d="M296.465 381.03L282.657 376.058L276.978 378.011L275.732 379.585L279.584 384.381L285.074 389.769L291.447 392.052L294.473 393.429L297.654 392.608L296.465 381.03Z" fill="#FFF9E1"/>
<path d="M373.969 335.834L371.421 327.735L368.532 325.804L367.371 325.781L366.512 329.235L365.954 333.65L367.136 337.385L367.562 339.261L369.054 340.438L373.969 335.834Z" fill="#FFF9E1"/>
<path d="M274.459 383.948L271.911 375.848L269.022 373.917L267.861 373.894L267.002 377.349L266.444 381.764L267.626 385.498L268.051 387.374L269.544 388.551L274.459 383.948Z" fill="#FFF9E1"/>
<path d="M290.037 223.205H286.963L285.147 225.394L281.279 232.556L288.503 240.625L298.956 235.277L299.499 232.556L290.037 223.205Z" fill="#FFF9E1"/>
<path d="M314.553 383.549L309.412 382.797L308.362 382.955L307.99 384.373L308.793 386.928L309.928 389.338L311.944 390.717L315.676 390.175L316.919 387.514L315.816 385.056L314.553 383.549Z" fill="#FFF9E1"/>
<path d="M314.877 379.956L314.831 377.337L314.666 376.828L313.93 376.758L312.724 377.367L311.618 378.129L311.097 379.244L311.672 381.057L313.098 381.458L314.23 380.708L314.877 379.956Z" fill="#FFF9E1"/>
<path d="M307.443 386.654L306.995 384.64L304.279 384.583L302.275 386.573L300.739 387.759L301.107 389.771L302.381 390.561L307.443 386.654Z" fill="#FFF9E1"/>
<path d="M321.061 392.891L321.817 392.455L321.946 391.648L321.859 389.303L318.916 388.305L317.122 391.128L317.383 391.888L321.061 392.891Z" fill="#FFF9E1"/>
<path d="M327.377 373.176H324.268L322.432 375.415L318.522 382.742L325.825 390.996L336.393 385.525L336.943 382.742L327.377 373.176Z" fill="#FFF9E1"/>
<path d="M378.493 300.395L379.501 295.298L379.396 294.242L377.999 293.799L375.406 294.472L372.942 295.485L371.464 297.429L371.818 301.184L374.414 302.559L376.924 301.581L378.493 300.395Z" fill="#FFF9E1"/>
<path d="M382.058 300.895L384.677 300.98L385.194 300.841L385.3 300.109L384.753 298.875L384.047 297.731L382.959 297.155L381.12 297.638L380.648 299.042L381.34 300.211L382.058 300.895Z" fill="#FFF9E1"/>
<path d="M375.744 293.142L377.778 292.796L377.972 290.086L376.084 287.984L374.978 286.391L372.949 286.658L372.096 287.891L375.744 293.142Z" fill="#FFF9E1"/>
<path d="M368.835 306.427L369.232 307.204L370.031 307.373L372.377 307.404L373.523 304.515L370.792 302.582L370.021 302.804L368.835 306.427Z" fill="#FFF9E1"/>
<path d="M388.43 313.484L388.585 310.399L386.438 308.464L379.309 304.215L370.693 311.05L375.636 321.814L378.391 322.499L388.43 313.484Z" fill="#FFF9E1"/>
<path d="M357.284 255.441H355.696L354.758 256.649L352.76 260.601L356.492 265.052L361.89 262.102L362.171 260.601L357.284 255.441Z" fill="#FFF9E1"/>
<path d="M357.314 246.565L356.182 245.293L354.588 245.364L350.136 246.455L349.381 252.479L355.49 254.796L356.84 253.998L357.314 246.565Z" fill="#FFF9E1"/>
<path d="M859.461 360.081L843.951 357.812L840.784 358.29L839.661 362.567L842.082 370.276L845.506 377.549L851.589 381.709L862.849 380.074L866.599 372.043L863.272 364.627L859.461 360.081Z" fill="#FFF9E1"/>
<path d="M878.702 233.574L873.56 232.822L872.511 232.98L872.139 234.398L872.941 236.953L874.076 239.364L876.092 240.743L879.824 240.201L881.067 237.539L879.964 235.081L878.702 233.574Z" fill="#FFF9E1"/>
<path d="M879.023 229.984L878.976 227.364L878.811 226.855L878.076 226.786L876.87 227.394L875.763 228.156L875.242 229.272L875.817 231.084L877.243 231.485L878.376 230.735L879.023 229.984Z" fill="#FFF9E1"/>
<path d="M839.208 266.484L839.162 263.864L838.997 263.355L838.261 263.286L837.055 263.894L835.949 264.656L835.428 265.772L836.003 267.584L837.429 267.985L838.561 267.235L839.208 266.484Z" fill="#FFF9E1"/>
<path d="M822.863 314.969L817.012 314.113L815.817 314.294L815.394 315.907L816.307 318.815L817.599 321.558L819.893 323.128L824.141 322.511L825.555 319.481L824.3 316.684L822.863 314.969Z" fill="#FFF9E1"/>
<path d="M832.063 289.711L828.417 289.178L827.672 289.29L827.408 290.296L827.977 292.108L828.782 293.818L830.212 294.796L832.859 294.411L833.74 292.523L832.958 290.78L832.063 289.711Z" fill="#FFF9E1"/>
<path d="M823.342 299.547L832.443 298.216L834.301 298.496L834.96 301.006L833.54 305.529L831.53 309.796L827.961 312.237L821.355 311.278L819.155 306.566L821.107 302.215L823.342 299.547Z" fill="#FFF9E1"/>
<path d="M850.101 241.574L859.201 240.243L861.06 240.524L861.718 243.033L860.298 247.556L858.289 251.823L854.72 254.264L848.113 253.305L845.913 248.593L847.865 244.242L850.101 241.574Z" fill="#FFF9E1"/>
<path d="M845.821 254.942L847.514 257.818L847.674 258.481L846.92 259.046L845.206 259.188L843.497 259.096L842.188 258.231L841.606 255.879L842.889 254.495L844.619 254.556L845.821 254.942Z" fill="#FFF9E1"/>
<path d="M844.041 344.939L840.894 348.118L843.974 353.136L849.953 354.457L853.914 355.866L857.152 352.836L857.099 349.587L844.041 344.939Z" fill="#FFF9E1"/>
<path d="M837.574 346.206L833.642 344.074L829.685 348.435L830.09 354.545L829.845 358.742L833.66 361.003L836.765 360.043L837.574 346.206Z" fill="#FFF9E1"/>
<path d="M833.89 281.076L833.218 278.056L829.145 277.969L826.139 280.955L823.836 282.732L824.388 285.75L826.299 286.936L833.89 281.076Z" fill="#FFF9E1"/>
<path d="M871.598 236.68L871.15 234.666L868.434 234.608L866.43 236.599L864.894 237.784L865.262 239.796L866.536 240.587L871.598 236.68Z" fill="#FFF9E1"/>
<path d="M843.233 264.769L844.279 264.426L844.167 262.981L843.005 262.021L842.296 261.268L841.247 261.569L840.894 262.287L843.233 264.769Z" fill="#FFF9E1"/>
<path d="M835.707 263.116L835.395 261.716L833.506 261.675L832.112 263.06L831.044 263.885L831.3 265.284L832.186 265.834L835.707 263.116Z" fill="#FFF9E1"/>
<path d="M868.322 243.556L867.117 241.882L864.598 242.9L863.541 245.519L862.597 247.214L863.729 248.918L865.211 249.142L868.322 243.556Z" fill="#FFF9E1"/>
<path d="M822.863 314.969L817.012 314.113L815.817 314.294L815.394 315.907L816.307 318.815L817.599 321.558L819.893 323.128L824.141 322.511L825.555 319.481L824.3 316.684L822.863 314.969Z" fill="#FFF9E1"/>
<path d="M828.536 324.721H825.19L823.215 327.136L819.007 335.039L826.866 343.943L838.238 338.041L838.829 335.039L828.536 324.721Z" fill="#FFF9E1"/>
<path d="M822.337 287.479H820.817L819.919 288.661L818.006 292.53L821.579 296.889L826.748 294L827.016 292.53L822.337 287.479Z" fill="#FFF9E1"/>
<path d="M928.08 234.778L929.652 229.078L930.299 228.057L931.946 228.319L934.24 230.326L936.231 232.613L936.743 235.345L934.469 238.985L931.126 239.059L929.071 236.784L928.08 234.778Z" fill="#FFF9E1"/>
<path d="M901.262 233.024L902.242 229.472L902.645 228.836L903.671 228.999L905.101 230.249L906.342 231.675L906.661 233.377L905.243 235.645L903.16 235.692L901.88 234.274L901.262 233.024Z" fill="#FFF9E1"/>
<path d="M913.771 229.006L908.888 236.801L908.396 238.615L910.428 240.228L915.14 240.749L919.855 240.628L923.526 238.344L925.309 231.91L921.881 227.999L917.113 228.034L913.771 229.006Z" fill="#FFF9E1"/>
<path d="M928.08 234.778L929.652 229.078L930.299 228.057L931.946 228.319L934.24 230.326L936.231 232.613L936.743 235.345L934.469 238.985L931.126 239.059L929.071 236.784L928.08 234.778Z" fill="#FFF9E1"/>
<path d="M934.867 243.888L936.19 240.879L939.159 240.064L947.978 239.426L952.929 250.041L943.086 257.92L940.135 257.257L934.867 243.888Z" fill="#FFF9E1"/>
<path d="M903.276 223.028L903.898 221.614L905.291 221.23L909.43 220.928L911.75 225.913L907.129 229.617L905.744 229.306L903.276 223.028Z" fill="#FFF9E1"/>
<path d="M832.34 267.654H830.752L829.814 268.912L827.817 273.028L831.548 277.666L836.947 274.592L837.227 273.028L832.34 267.654Z" fill="#FFF9E1"/>
<path d="M975.174 327.036L975.22 324.417L975.385 323.908L976.121 323.839L977.326 324.447L978.433 325.209L978.954 326.324L978.379 328.137L976.953 328.538L975.82 327.788L975.174 327.036Z" fill="#FFF9E1"/>
<path d="M941.637 375.5L945.65 379.843L946.176 380.93L945.084 382.192L942.17 383.082L939.176 383.567L936.585 382.561L934.693 378.709L936.392 375.83L939.409 375.284L941.637 375.5Z" fill="#FFF9E1"/>
<path d="M957.28 353.642L959.781 356.348L960.109 357.026L959.429 357.812L957.612 358.367L955.747 358.669L954.132 358.042L952.953 355.641L954.012 353.847L955.892 353.507L957.28 353.642Z" fill="#FFF9E1"/>
<path d="M954.09 366.387L950.044 358.127L948.762 356.753L946.32 357.628L943.392 361.356L941.007 365.426L941.011 369.749L945.537 374.657L950.667 373.809L953.153 369.739L954.09 366.387Z" fill="#FFF9E1"/>
<path d="M963.371 347.257L966.243 346.104L968.616 349.415L967.852 353.582L967.688 356.487L964.886 357.738L962.828 356.831L963.371 347.257Z" fill="#FFF9E1"/>
<path d="M941.637 375.5L945.65 379.843L946.176 380.93L945.084 382.192L942.17 383.082L939.176 383.567L936.585 382.561L934.693 378.709L936.392 375.83L939.409 375.284L941.637 375.5Z" fill="#FFF9E1"/>
<path d="M964.708 360.626L965.581 361.9L965.172 363.286L963.245 366.962L957.786 366.303L957.077 360.424L958.071 359.411L964.708 360.626Z" fill="#FFF9E1"/>
<path d="M974.286 340.974L975.159 342.248L974.75 343.634L972.824 347.31L967.365 346.651L966.655 340.771L967.65 339.759L974.286 340.974Z" fill="#FFF9E1"/>
<path d="M885.209 242.916L885.965 242.48L886.094 241.673L886.007 239.329L883.064 238.33L881.27 241.154L881.531 241.913L885.209 242.916Z" fill="#FFF9E1"/>
<path d="M839.679 260.99L840.434 260.554L840.563 259.748L840.477 257.403L837.534 256.404L835.74 259.228L836 259.987L839.679 260.99Z" fill="#FFF9E1"/>
<path d="M977.498 271.424L963.69 266.453L958.011 268.406L956.765 269.979L960.617 274.776L966.107 280.163L972.48 282.446L975.506 283.824L978.687 283.002L977.498 271.424Z" fill="#FFF9E1"/>
<path d="M897.465 381.03L883.657 376.058L877.978 378.011L876.732 379.585L880.584 384.381L886.074 389.769L892.447 392.052L895.473 393.429L898.654 392.608L897.465 381.03Z" fill="#FFF9E1"/>
<path d="M974.969 335.834L972.421 327.735L969.532 325.804L968.371 325.781L967.512 329.235L966.954 333.65L968.136 337.385L968.562 339.261L970.054 340.438L974.969 335.834Z" fill="#FFF9E1"/>
<path d="M875.459 383.948L872.911 375.848L870.022 373.917L868.861 373.894L868.002 377.349L867.444 381.764L868.626 385.498L869.051 387.374L870.544 388.551L875.459 383.948Z" fill="#FFF9E1"/>
<path d="M891.037 223.205H887.963L886.147 225.394L882.279 232.556L889.503 240.625L899.956 235.277L900.499 232.556L891.037 223.205Z" fill="#FFF9E1"/>
<path d="M915.553 383.549L910.412 382.797L909.362 382.955L908.99 384.373L909.793 386.928L910.928 389.338L912.944 390.717L916.676 390.175L917.919 387.514L916.816 385.056L915.553 383.549Z" fill="#FFF9E1"/>
<path d="M915.877 379.956L915.831 377.337L915.666 376.828L914.93 376.758L913.724 377.367L912.618 378.129L912.097 379.244L912.672 381.057L914.098 381.458L915.23 380.708L915.877 379.956Z" fill="#FFF9E1"/>
<path d="M908.443 386.654L907.995 384.64L905.279 384.583L903.275 386.573L901.739 387.759L902.107 389.771L903.381 390.561L908.443 386.654Z" fill="#FFF9E1"/>
<path d="M922.061 392.891L922.817 392.455L922.946 391.648L922.859 389.303L919.916 388.305L918.122 391.128L918.383 391.888L922.061 392.891Z" fill="#FFF9E1"/>
<path d="M928.377 373.176H925.268L923.432 375.415L919.522 382.742L926.825 390.996L937.393 385.525L937.943 382.742L928.377 373.176Z" fill="#FFF9E1"/>
<path d="M979.493 300.395L980.501 295.298L980.396 294.242L978.999 293.799L976.406 294.472L973.942 295.485L972.464 297.429L972.818 301.184L975.414 302.559L977.924 301.581L979.493 300.395Z" fill="#FFF9E1"/>
<path d="M983.058 300.895L985.677 300.98L986.194 300.841L986.3 300.109L985.753 298.875L985.047 297.731L983.959 297.155L982.12 297.638L981.648 299.042L982.34 300.211L983.058 300.895Z" fill="#FFF9E1"/>
<path d="M976.744 293.142L978.778 292.796L978.972 290.086L977.084 287.984L975.978 286.391L973.949 286.658L973.096 287.891L976.744 293.142Z" fill="#FFF9E1"/>
<path d="M969.835 306.427L970.232 307.204L971.031 307.373L973.378 307.404L974.523 304.515L971.792 302.582L971.021 302.804L969.835 306.427Z" fill="#FFF9E1"/>
<path d="M989.431 313.484L989.585 310.399L987.438 308.464L980.309 304.215L971.693 311.05L976.636 321.814L979.391 322.499L989.431 313.484Z" fill="#FFF9E1"/>
<path d="M958.284 255.441H956.696L955.758 256.649L953.76 260.601L957.492 265.052L962.89 262.102L963.171 260.601L958.284 255.441Z" fill="#FFF9E1"/>
<path d="M958.314 246.565L957.182 245.293L955.588 245.364L951.136 246.455L950.381 252.479L956.49 254.796L957.84 253.998L958.314 246.565Z" fill="#FFF9E1"/>
<path d="M834.147 392.148L809.394 388.527L804.339 389.29L802.548 396.116L806.411 408.419L811.876 420.025L821.583 426.664L839.553 424.055L845.537 411.239L840.227 399.404L834.147 392.148Z" fill="#FFF9E1"/>
<path d="M864.852 190.259L856.647 189.059L854.972 189.312L854.378 191.574L855.659 195.652L857.47 199.499L860.688 201.7L866.644 200.835L868.627 196.587L866.867 192.664L864.852 190.259Z" fill="#FFF9E1"/>
<path d="M865.364 184.528L865.29 180.348L865.027 179.535L863.853 179.425L861.929 180.396L860.163 181.612L859.331 183.392L860.249 186.285L862.525 186.924L864.332 185.728L865.364 184.528Z" fill="#FFF9E1"/>
<path d="M801.825 242.778L801.751 238.598L801.488 237.785L800.314 237.675L798.39 238.646L796.624 239.862L795.792 241.642L796.709 244.535L798.985 245.174L800.793 243.978L801.825 242.778Z" fill="#FFF9E1"/>
<path d="M775.74 320.155L766.403 318.789L764.496 319.077L763.821 321.652L765.278 326.293L767.339 330.671L771.001 333.175L777.779 332.191L780.037 327.357L778.034 322.892L775.74 320.155Z" fill="#FFF9E1"/>
<path d="M790.422 279.846L784.603 278.995L783.415 279.175L782.994 280.779L783.902 283.671L785.187 286.4L787.468 287.96L791.693 287.347L793.099 284.334L791.851 281.552L790.422 279.846Z" fill="#FFF9E1"/>
<path d="M776.505 295.543L791.029 293.419L793.994 293.867L795.045 297.871L792.779 305.09L789.572 311.9L783.877 315.795L773.333 314.264L769.822 306.745L772.937 299.801L776.505 295.543Z" fill="#FFF9E1"/>
<path d="M819.208 203.026L833.732 200.901L836.698 201.349L837.748 205.354L835.482 212.572L832.275 219.382L826.58 223.277L816.036 221.747L812.525 214.227L815.641 207.283L819.208 203.026Z" fill="#FFF9E1"/>
<path d="M812.378 224.359L815.08 228.949L815.335 230.007L814.133 230.908L811.397 231.134L808.669 230.988L806.581 229.607L805.653 225.854L807.699 223.645L810.459 223.742L812.378 224.359Z" fill="#FFF9E1"/>
<path d="M809.538 367.985L804.516 373.057L809.431 381.066L818.973 383.173L825.294 385.423L830.461 380.587L830.377 375.401L809.538 367.985Z" fill="#FFF9E1"/>
<path d="M799.217 370.005L792.942 366.603L786.627 373.562L787.274 383.313L786.882 390.011L792.971 393.619L797.926 392.087L799.217 370.005Z" fill="#FFF9E1"/>
<path d="M793.338 266.066L792.266 261.246L785.766 261.108L780.968 265.872L777.294 268.709L778.174 273.526L781.223 275.418L793.338 266.066Z" fill="#FFF9E1"/>
<path d="M853.516 195.215L852.801 192.001L848.466 191.91L845.268 195.086L842.817 196.978L843.404 200.189L845.438 201.451L853.516 195.215Z" fill="#FFF9E1"/>
<path d="M808.248 240.043L809.917 239.495L809.739 237.19L807.885 235.658L806.753 234.456L805.078 234.936L804.515 236.081L808.248 240.043Z" fill="#FFF9E1"/>
<path d="M796.237 237.405L795.74 235.169L792.725 235.105L790.5 237.315L788.796 238.63L789.204 240.865L790.618 241.742L796.237 237.405Z" fill="#FFF9E1"/>
<path d="M848.288 206.188L846.364 203.516L842.344 205.141L840.657 209.321L839.151 212.025L840.957 214.745L843.323 215.103L848.288 206.188Z" fill="#FFF9E1"/>
<path d="M775.74 320.155L766.403 318.789L764.496 319.077L763.821 321.652L765.278 326.293L767.339 330.671L771.001 333.175L777.779 332.191L780.037 327.357L778.034 322.892L775.74 320.155Z" fill="#FFF9E1"/>
<path d="M784.793 335.717H779.454L776.302 339.572L769.586 352.184L782.129 366.393L800.277 356.975L801.221 352.184L784.793 335.717Z" fill="#FFF9E1"/>
<path d="M774.901 276.283H772.475L771.042 278.171L767.989 284.345L773.69 291.302L781.94 286.691L782.368 284.345L774.901 276.283Z" fill="#FFF9E1"/>
<path d="M943.654 192.181L946.163 183.084L947.194 181.455L949.823 181.873L953.484 185.075L956.662 188.725L957.48 193.085L953.85 198.894L948.515 199.013L945.236 195.382L943.654 192.181Z" fill="#FFF9E1"/>
<path d="M900.856 189.381L902.419 183.712L903.062 182.697L904.7 182.958L906.982 184.953L908.962 187.228L909.472 189.945L907.209 193.565L903.885 193.639L901.841 191.377L900.856 189.381Z" fill="#FFF9E1"/>
<path d="M920.818 182.969L913.025 195.407L912.241 198.302L915.484 200.877L923.004 201.709L930.528 201.515L936.387 197.871L939.231 187.603L933.762 181.362L926.151 181.417L920.818 182.969Z" fill="#FFF9E1"/>
<path d="M943.654 192.181L946.163 183.084L947.194 181.455L949.823 181.873L953.484 185.075L956.662 188.725L957.48 193.085L953.85 198.894L948.515 199.013L945.236 195.382L943.654 192.181Z" fill="#FFF9E1"/>
<path d="M954.485 206.718L956.597 201.916L961.335 200.615L975.409 199.597L983.309 216.538L967.603 229.112L962.892 228.053L954.485 206.718Z" fill="#FFF9E1"/>
<path d="M904.07 173.427L905.063 171.171L907.286 170.559L913.891 170.076L917.593 178.033L910.219 183.944L908.009 183.447L904.07 173.427Z" fill="#FFF9E1"/>
<path d="M790.865 244.646H788.331L786.834 246.654L783.646 253.223L789.6 260.623L798.216 255.719L798.664 253.223L790.865 244.646Z" fill="#FFF9E1"/>
<path d="M1018.81 339.413L1018.88 335.233L1019.15 334.42L1020.32 334.31L1022.25 335.28L1024.01 336.496L1024.84 338.277L1023.93 341.17L1021.65 341.809L1019.84 340.613L1018.81 339.413Z" fill="#FFF9E1"/>
<path d="M965.289 416.756L971.693 423.687L972.533 425.422L970.791 427.435L966.139 428.856L961.362 429.63L957.227 428.025L954.207 421.877L956.919 417.282L961.734 416.411L965.289 416.756Z" fill="#FFF9E1"/>
<path d="M990.254 381.872L994.245 386.191L994.769 387.272L993.683 388.527L990.784 389.412L987.807 389.895L985.23 388.894L983.348 385.063L985.039 382.2L988.039 381.657L990.254 381.872Z" fill="#FFF9E1"/>
<path d="M985.163 402.212L978.706 389.031L976.661 386.837L972.763 388.234L968.089 394.184L964.284 400.678L964.29 407.578L971.513 415.411L979.7 414.057L983.668 407.562L985.163 402.212Z" fill="#FFF9E1"/>
<path d="M999.974 371.683L1004.56 369.843L1008.34 375.127L1007.13 381.778L1006.86 386.413L1002.39 388.409L999.108 386.963L999.974 371.683Z" fill="#FFF9E1"/>
<path d="M965.289 416.756L971.693 423.687L972.533 425.422L970.791 427.435L966.139 428.856L961.362 429.63L957.227 428.025L954.207 421.877L956.919 417.282L961.734 416.411L965.289 416.756Z" fill="#FFF9E1"/>
<path d="M1002.11 393.018L1003.5 395.052L1002.85 397.264L999.773 403.129L991.061 402.078L989.929 392.695L991.517 391.079L1002.11 393.018Z" fill="#FFF9E1"/>
<path d="M1017.39 361.657L1018.79 363.69L1018.13 365.902L1015.06 371.768L1006.35 370.716L1005.22 361.334L1006.8 359.718L1017.39 361.657Z" fill="#FFF9E1"/>
<path d="M875.237 205.168L876.443 204.472L876.649 203.185L876.511 199.443L871.814 197.849L868.951 202.356L869.367 203.568L875.237 205.168Z" fill="#FFF9E1"/>
<path d="M802.576 234.012L803.782 233.316L803.988 232.029L803.849 228.287L799.153 226.693L796.29 231.199L796.706 232.411L802.576 234.012Z" fill="#FFF9E1"/>
<path d="M1022.52 250.663L1000.48 242.729L991.42 245.846L989.432 248.357L995.579 256.012L1004.34 264.609L1014.51 268.252L1019.34 270.451L1024.42 269.14L1022.52 250.663Z" fill="#FFF9E1"/>
<path d="M894.796 425.581L872.76 417.647L863.697 420.764L861.708 423.275L867.856 430.93L876.617 439.527L886.788 443.17L891.618 445.369L896.693 444.058L894.796 425.581Z" fill="#FFF9E1"/>
<path d="M1018.48 353.454L1014.42 340.528L1009.81 337.446L1007.95 337.41L1006.58 342.923L1005.69 349.969L1007.58 355.929L1008.26 358.923L1010.64 360.8L1018.48 353.454Z" fill="#FFF9E1"/>
<path d="M859.677 430.237L855.61 417.311L851 414.23L849.147 414.194L847.776 419.706L846.886 426.752L848.772 432.712L849.451 435.706L851.833 437.584L859.677 430.237Z" fill="#FFF9E1"/>
<path d="M884.538 173.711H879.631L876.733 177.205L870.56 188.634L882.09 201.511L898.771 192.976L899.639 188.634L884.538 173.711Z" fill="#FFF9E1"/>
<path d="M923.663 429.599L915.458 428.399L913.783 428.652L913.189 430.914L914.469 434.992L916.281 438.839L919.498 441.039L925.454 440.175L927.438 435.927L925.678 432.004L923.663 429.599Z" fill="#FFF9E1"/>
<path d="M924.179 423.866L924.105 419.686L923.842 418.873L922.668 418.763L920.744 419.733L918.978 420.949L918.146 422.73L919.064 425.623L921.34 426.262L923.147 425.066L924.179 423.866Z" fill="#FFF9E1"/>
<path d="M912.316 434.557L911.601 431.343L907.267 431.251L904.068 434.428L901.618 436.319L902.205 439.531L904.238 440.793L912.316 434.557Z" fill="#FFF9E1"/>
<path d="M934.049 444.51L935.254 443.814L935.461 442.527L935.322 438.785L930.625 437.191L927.763 441.697L928.178 442.909L934.049 444.51Z" fill="#FFF9E1"/>
<path d="M944.127 413.047H939.166L936.236 416.621L929.996 428.313L941.652 441.486L958.517 432.755L959.394 428.313L944.127 413.047Z" fill="#FFF9E1"/>
<path d="M1025.7 296.896L1027.31 288.762L1027.14 287.076L1024.91 286.37L1020.78 287.444L1016.84 289.06L1014.49 292.163L1015.05 298.155L1019.19 300.349L1023.2 298.788L1025.7 296.896Z" fill="#FFF9E1"/>
<path d="M1031.39 297.693L1035.57 297.829L1036.4 297.607L1036.57 296.44L1035.69 294.47L1034.57 292.645L1032.83 291.725L1029.9 292.496L1029.14 294.737L1030.25 296.603L1031.39 297.693Z" fill="#FFF9E1"/>
<path d="M1021.32 285.323L1024.56 284.77L1024.87 280.446L1021.86 277.092L1020.09 274.55L1016.86 274.975L1015.49 276.942L1021.32 285.323Z" fill="#FFF9E1"/>
<path d="M1010.29 306.524L1010.92 307.763L1012.2 308.033L1015.94 308.082L1017.77 303.471L1013.41 300.386L1012.18 300.741L1010.29 306.524Z" fill="#FFF9E1"/>
<path d="M1041.56 317.786L1041.81 312.862L1038.38 309.774L1027 302.993L1013.26 313.901L1021.14 331.079L1025.54 332.172L1041.56 317.786Z" fill="#FFF9E1"/>
<path d="M991.856 225.156H989.322L987.825 227.084L984.637 233.39L990.591 240.494L999.207 235.785L999.655 233.39L991.856 225.156Z" fill="#FFF9E1"/>
<path d="M991.903 210.992L990.098 208.96L987.554 209.074L980.448 210.815L979.244 220.429L988.992 224.126L991.148 222.853L991.903 210.992Z" fill="#FFF9E1"/>
<path d="M1460.46 360.081L1444.95 357.812L1441.78 358.29L1440.66 362.567L1443.08 370.276L1446.51 377.549L1452.59 381.709L1463.85 380.074L1467.6 372.043L1464.27 364.627L1460.46 360.081Z" fill="#FFF9E1"/>
<path d="M1479.7 233.574L1474.56 232.822L1473.51 232.98L1473.14 234.398L1473.94 236.953L1475.08 239.364L1477.09 240.743L1480.82 240.201L1482.07 237.539L1480.96 235.081L1479.7 233.574Z" fill="#FFF9E1"/>
<path d="M1480.02 229.984L1479.98 227.364L1479.81 226.855L1479.08 226.786L1477.87 227.394L1476.76 228.156L1476.24 229.272L1476.82 231.084L1478.24 231.485L1479.38 230.735L1480.02 229.984Z" fill="#FFF9E1"/>
<path d="M1440.21 266.484L1440.16 263.864L1440 263.355L1439.26 263.286L1438.06 263.894L1436.95 264.656L1436.43 265.772L1437 267.584L1438.43 267.985L1439.56 267.235L1440.21 266.484Z" fill="#FFF9E1"/>
<path d="M1423.86 314.969L1418.01 314.113L1416.82 314.294L1416.39 315.907L1417.31 318.815L1418.6 321.558L1420.89 323.128L1425.14 322.511L1426.56 319.481L1425.3 316.684L1423.86 314.969Z" fill="#FFF9E1"/>
<path d="M1433.06 289.711L1429.42 289.178L1428.67 289.29L1428.41 290.296L1428.98 292.108L1429.78 293.818L1431.21 294.796L1433.86 294.411L1434.74 292.523L1433.96 290.78L1433.06 289.711Z" fill="#FFF9E1"/>
<path d="M1424.34 299.547L1433.44 298.216L1435.3 298.496L1435.96 301.006L1434.54 305.529L1432.53 309.796L1428.96 312.237L1422.35 311.278L1420.15 306.566L1422.11 302.215L1424.34 299.547Z" fill="#FFF9E1"/>
<path d="M1451.1 241.574L1460.2 240.243L1462.06 240.524L1462.72 243.033L1461.3 247.556L1459.29 251.823L1455.72 254.264L1449.11 253.305L1446.91 248.593L1448.87 244.242L1451.1 241.574Z" fill="#FFF9E1"/>
<path d="M1446.82 254.942L1448.51 257.818L1448.67 258.481L1447.92 259.046L1446.21 259.188L1444.5 259.096L1443.19 258.231L1442.61 255.879L1443.89 254.495L1445.62 254.556L1446.82 254.942Z" fill="#FFF9E1"/>
<path d="M1445.04 344.939L1441.89 348.118L1444.97 353.136L1450.95 354.457L1454.91 355.866L1458.15 352.836L1458.1 349.587L1445.04 344.939Z" fill="#FFF9E1"/>
<path d="M1438.57 346.206L1434.64 344.074L1430.69 348.435L1431.09 354.545L1430.84 358.742L1434.66 361.003L1437.76 360.043L1438.57 346.206Z" fill="#FFF9E1"/>
<path d="M1434.89 281.076L1434.22 278.056L1430.15 277.969L1427.14 280.955L1424.84 282.732L1425.39 285.75L1427.3 286.936L1434.89 281.076Z" fill="#FFF9E1"/>
<path d="M1472.6 236.68L1472.15 234.666L1469.43 234.608L1467.43 236.599L1465.89 237.784L1466.26 239.796L1467.54 240.587L1472.6 236.68Z" fill="#FFF9E1"/>
<path d="M1444.23 264.769L1445.28 264.426L1445.17 262.981L1444.01 262.021L1443.3 261.268L1442.25 261.569L1441.89 262.287L1444.23 264.769Z" fill="#FFF9E1"/>
<path d="M1436.71 263.116L1436.4 261.716L1434.51 261.675L1433.11 263.06L1432.04 263.885L1432.3 265.284L1433.19 265.834L1436.71 263.116Z" fill="#FFF9E1"/>
<path d="M1469.32 243.556L1468.12 241.882L1465.6 242.9L1464.54 245.519L1463.6 247.214L1464.73 248.918L1466.21 249.142L1469.32 243.556Z" fill="#FFF9E1"/>
<path d="M1423.86 314.969L1418.01 314.113L1416.82 314.294L1416.39 315.907L1417.31 318.815L1418.6 321.558L1420.89 323.128L1425.14 322.511L1426.56 319.481L1425.3 316.684L1423.86 314.969Z" fill="#FFF9E1"/>
<path d="M1429.54 324.721H1426.19L1424.21 327.136L1420.01 335.039L1427.87 343.943L1439.24 338.041L1439.83 335.039L1429.54 324.721Z" fill="#FFF9E1"/>
<path d="M1423.34 287.479H1421.82L1420.92 288.661L1419.01 292.53L1422.58 296.889L1427.75 294L1428.02 292.53L1423.34 287.479Z" fill="#FFF9E1"/>
<path d="M1529.08 234.778L1530.65 229.078L1531.3 228.057L1532.95 228.319L1535.24 230.326L1537.23 232.613L1537.74 235.345L1535.47 238.985L1532.13 239.059L1530.07 236.784L1529.08 234.778Z" fill="#FFF9E1"/>
<path d="M1502.26 233.024L1503.24 229.472L1503.64 228.836L1504.67 228.999L1506.1 230.249L1507.34 231.675L1507.66 233.377L1506.24 235.645L1504.16 235.692L1502.88 234.274L1502.26 233.024Z" fill="#FFF9E1"/>
<path d="M1514.77 229.006L1509.89 236.801L1509.4 238.615L1511.43 240.228L1516.14 240.749L1520.86 240.628L1524.53 238.344L1526.31 231.91L1522.88 227.999L1518.11 228.034L1514.77 229.006Z" fill="#FFF9E1"/>
<path d="M1529.08 234.778L1530.65 229.078L1531.3 228.057L1532.95 228.319L1535.24 230.326L1537.23 232.613L1537.74 235.345L1535.47 238.985L1532.13 239.059L1530.07 236.784L1529.08 234.778Z" fill="#FFF9E1"/>
<path d="M1535.87 243.888L1537.19 240.879L1540.16 240.064L1548.98 239.426L1553.93 250.041L1544.09 257.92L1541.13 257.257L1535.87 243.888Z" fill="#FFF9E1"/>
<path d="M1504.28 223.028L1504.9 221.614L1506.29 221.23L1510.43 220.928L1512.75 225.913L1508.13 229.617L1506.74 229.306L1504.28 223.028Z" fill="#FFF9E1"/>
<path d="M1433.34 267.654H1431.75L1430.81 268.912L1428.82 273.028L1432.55 277.666L1437.95 274.592L1438.23 273.028L1433.34 267.654Z" fill="#FFF9E1"/>
<path d="M1576.17 327.036L1576.22 324.417L1576.38 323.908L1577.12 323.839L1578.33 324.447L1579.43 325.209L1579.95 326.324L1579.38 328.137L1577.95 328.538L1576.82 327.788L1576.17 327.036Z" fill="#FFF9E1"/>
<path d="M1542.64 375.5L1546.65 379.843L1547.18 380.93L1546.08 382.192L1543.17 383.082L1540.18 383.567L1537.58 382.561L1535.69 378.709L1537.39 375.83L1540.41 375.284L1542.64 375.5Z" fill="#FFF9E1"/>
<path d="M1558.28 353.642L1560.78 356.348L1561.11 357.026L1560.43 357.812L1558.61 358.367L1556.75 358.669L1555.13 358.042L1553.95 355.641L1555.01 353.847L1556.89 353.507L1558.28 353.642Z" fill="#FFF9E1"/>
<path d="M1555.09 366.387L1551.04 358.127L1549.76 356.753L1547.32 357.628L1544.39 361.356L1542.01 365.426L1542.01 369.749L1546.54 374.657L1551.67 373.809L1554.15 369.739L1555.09 366.387Z" fill="#FFF9E1"/>
<path d="M1564.37 347.257L1567.24 346.104L1569.62 349.415L1568.85 353.582L1568.69 356.487L1565.89 357.738L1563.83 356.831L1564.37 347.257Z" fill="#FFF9E1"/>
<path d="M1542.64 375.5L1546.65 379.843L1547.18 380.93L1546.08 382.192L1543.17 383.082L1540.18 383.567L1537.58 382.561L1535.69 378.709L1537.39 375.83L1540.41 375.284L1542.64 375.5Z" fill="#FFF9E1"/>
<path d="M1565.71 360.626L1566.58 361.9L1566.17 363.286L1564.25 366.962L1558.79 366.303L1558.08 360.424L1559.07 359.411L1565.71 360.626Z" fill="#FFF9E1"/>
<path d="M1575.29 340.974L1576.16 342.248L1575.75 343.634L1573.82 347.31L1568.36 346.651L1567.66 340.771L1568.65 339.759L1575.29 340.974Z" fill="#FFF9E1"/>
<path d="M1486.21 242.916L1486.96 242.48L1487.09 241.673L1487.01 239.329L1484.06 238.33L1482.27 241.154L1482.53 241.913L1486.21 242.916Z" fill="#FFF9E1"/>
<path d="M1440.68 260.99L1441.43 260.554L1441.56 259.748L1441.48 257.403L1438.53 256.404L1436.74 259.228L1437 259.987L1440.68 260.99Z" fill="#FFF9E1"/>
<path d="M1578.5 271.424L1564.69 266.453L1559.01 268.406L1557.76 269.979L1561.62 274.776L1567.11 280.163L1573.48 282.446L1576.51 283.824L1579.69 283.002L1578.5 271.424Z" fill="#FFF9E1"/>
<path d="M1498.47 381.03L1484.66 376.058L1478.98 378.011L1477.73 379.585L1481.58 384.381L1487.07 389.769L1493.45 392.052L1496.47 393.429L1499.65 392.608L1498.47 381.03Z" fill="#FFF9E1"/>
<path d="M1575.97 335.834L1573.42 327.735L1570.53 325.804L1569.37 325.781L1568.51 329.235L1567.95 333.65L1569.14 337.385L1569.56 339.261L1571.05 340.438L1575.97 335.834Z" fill="#FFF9E1"/>
<path d="M1476.46 383.948L1473.91 375.848L1471.02 373.917L1469.86 373.894L1469 377.349L1468.44 381.764L1469.63 385.498L1470.05 387.374L1471.54 388.551L1476.46 383.948Z" fill="#FFF9E1"/>
<path d="M1492.04 223.205H1488.96L1487.15 225.394L1483.28 232.556L1490.5 240.625L1500.96 235.277L1501.5 232.556L1492.04 223.205Z" fill="#FFF9E1"/>
<path d="M1516.55 383.549L1511.41 382.797L1510.36 382.955L1509.99 384.373L1510.79 386.928L1511.93 389.338L1513.94 390.717L1517.68 390.175L1518.92 387.514L1517.82 385.056L1516.55 383.549Z" fill="#FFF9E1"/>
<path d="M1516.88 379.956L1516.83 377.337L1516.67 376.828L1515.93 376.758L1514.72 377.367L1513.62 378.129L1513.1 379.244L1513.67 381.057L1515.1 381.458L1516.23 380.708L1516.88 379.956Z" fill="#FFF9E1"/>
<path d="M1509.44 386.654L1509 384.64L1506.28 384.583L1504.27 386.573L1502.74 387.759L1503.11 389.771L1504.38 390.561L1509.44 386.654Z" fill="#FFF9E1"/>
<path d="M1523.06 392.891L1523.82 392.455L1523.95 391.648L1523.86 389.303L1520.92 388.305L1519.12 391.128L1519.38 391.888L1523.06 392.891Z" fill="#FFF9E1"/>
<path d="M1529.38 373.176H1526.27L1524.43 375.415L1520.52 382.742L1527.83 390.996L1538.39 385.525L1538.94 382.742L1529.38 373.176Z" fill="#FFF9E1"/>
<path d="M1580.49 300.395L1581.5 295.298L1581.4 294.242L1580 293.799L1577.41 294.472L1574.94 295.485L1573.46 297.429L1573.82 301.184L1576.41 302.559L1578.92 301.581L1580.49 300.395Z" fill="#FFF9E1"/>
<path d="M1584.06 300.895L1586.68 300.98L1587.19 300.841L1587.3 300.109L1586.75 298.875L1586.05 297.731L1584.96 297.155L1583.12 297.638L1582.65 299.042L1583.34 300.211L1584.06 300.895Z" fill="#FFF9E1"/>
<path d="M1577.74 293.142L1579.78 292.796L1579.97 290.086L1578.08 287.984L1576.98 286.391L1574.95 286.658L1574.1 287.891L1577.74 293.142Z" fill="#FFF9E1"/>
<path d="M1570.83 306.427L1571.23 307.204L1572.03 307.373L1574.38 307.404L1575.52 304.515L1572.79 302.582L1572.02 302.804L1570.83 306.427Z" fill="#FFF9E1"/>
<path d="M1590.43 313.484L1590.59 310.399L1588.44 308.464L1581.31 304.215L1572.69 311.05L1577.64 321.814L1580.39 322.499L1590.43 313.484Z" fill="#FFF9E1"/>
<path d="M1559.28 255.441H1557.7L1556.76 256.649L1554.76 260.601L1558.49 265.052L1563.89 262.102L1564.17 260.601L1559.28 255.441Z" fill="#FFF9E1"/>
<path d="M1559.31 246.565L1558.18 245.293L1556.59 245.364L1552.14 246.455L1551.38 252.479L1557.49 254.796L1558.84 253.998L1559.31 246.565Z" fill="#FFF9E1"/>
<path d="M1435.15 392.148L1410.39 388.527L1405.34 389.29L1403.55 396.116L1407.41 408.419L1412.88 420.025L1422.58 426.664L1440.55 424.055L1446.54 411.239L1441.23 399.404L1435.15 392.148Z" fill="#FFF9E1"/>
<path d="M1465.85 190.259L1457.65 189.059L1455.97 189.312L1455.38 191.574L1456.66 195.652L1458.47 199.499L1461.69 201.7L1467.64 200.835L1469.63 196.587L1467.87 192.664L1465.85 190.259Z" fill="#FFF9E1"/>
<path d="M1466.36 184.528L1466.29 180.348L1466.03 179.535L1464.85 179.425L1462.93 180.396L1461.16 181.612L1460.33 183.392L1461.25 186.285L1463.52 186.924L1465.33 185.728L1466.36 184.528Z" fill="#FFF9E1"/>
<path d="M1402.82 242.778L1402.75 238.598L1402.49 237.785L1401.31 237.675L1399.39 238.646L1397.62 239.862L1396.79 241.642L1397.71 244.535L1399.99 245.174L1401.79 243.978L1402.82 242.778Z" fill="#FFF9E1"/>
<path d="M1376.74 320.155L1367.4 318.789L1365.5 319.077L1364.82 321.652L1366.28 326.293L1368.34 330.671L1372 333.175L1378.78 332.191L1381.04 327.357L1379.03 322.892L1376.74 320.155Z" fill="#FFF9E1"/>
<path d="M1391.42 279.846L1385.6 278.995L1384.41 279.175L1383.99 280.779L1384.9 283.671L1386.19 286.4L1388.47 287.96L1392.69 287.347L1394.1 284.334L1392.85 281.552L1391.42 279.846Z" fill="#FFF9E1"/>
<path d="M1377.51 295.543L1392.03 293.419L1394.99 293.867L1396.04 297.871L1393.78 305.09L1390.57 311.9L1384.88 315.795L1374.33 314.264L1370.82 306.745L1373.94 299.801L1377.51 295.543Z" fill="#FFF9E1"/>
<path d="M1420.21 203.026L1434.73 200.901L1437.7 201.349L1438.75 205.354L1436.48 212.572L1433.28 219.382L1427.58 223.277L1417.04 221.747L1413.53 214.227L1416.64 207.283L1420.21 203.026Z" fill="#FFF9E1"/>
<path d="M1413.38 224.359L1416.08 228.949L1416.34 230.007L1415.13 230.908L1412.4 231.134L1409.67 230.988L1407.58 229.607L1406.65 225.854L1408.7 223.645L1411.46 223.742L1413.38 224.359Z" fill="#FFF9E1"/>
<path d="M1410.54 367.985L1405.52 373.057L1410.43 381.066L1419.97 383.173L1426.29 385.423L1431.46 380.587L1431.38 375.401L1410.54 367.985Z" fill="#FFF9E1"/>
<path d="M1400.22 370.005L1393.94 366.603L1387.63 373.562L1388.27 383.313L1387.88 390.011L1393.97 393.619L1398.93 392.087L1400.22 370.005Z" fill="#FFF9E1"/>
<path d="M1394.34 266.066L1393.27 261.246L1386.77 261.108L1381.97 265.872L1378.29 268.709L1379.17 273.526L1382.22 275.418L1394.34 266.066Z" fill="#FFF9E1"/>
<path d="M1454.52 195.215L1453.8 192.001L1449.47 191.91L1446.27 195.086L1443.82 196.978L1444.4 200.189L1446.44 201.451L1454.52 195.215Z" fill="#FFF9E1"/>
<path d="M1409.25 240.043L1410.92 239.495L1410.74 237.19L1408.88 235.658L1407.75 234.456L1406.08 234.936L1405.51 236.081L1409.25 240.043Z" fill="#FFF9E1"/>
<path d="M1397.24 237.405L1396.74 235.169L1393.73 235.105L1391.5 237.315L1389.8 238.63L1390.2 240.865L1391.62 241.742L1397.24 237.405Z" fill="#FFF9E1"/>
<path d="M1449.29 206.188L1447.36 203.516L1443.34 205.141L1441.66 209.321L1440.15 212.025L1441.96 214.745L1444.32 215.103L1449.29 206.188Z" fill="#FFF9E1"/>
<path d="M1376.74 320.155L1367.4 318.789L1365.5 319.077L1364.82 321.652L1366.28 326.293L1368.34 330.671L1372 333.175L1378.78 332.191L1381.04 327.357L1379.03 322.892L1376.74 320.155Z" fill="#FFF9E1"/>
<path d="M1385.79 335.717H1380.45L1377.3 339.572L1370.59 352.184L1383.13 366.393L1401.28 356.975L1402.22 352.184L1385.79 335.717Z" fill="#FFF9E1"/>
<path d="M1375.9 276.283H1373.47L1372.04 278.171L1368.99 284.345L1374.69 291.302L1382.94 286.691L1383.37 284.345L1375.9 276.283Z" fill="#FFF9E1"/>
<path d="M1544.65 192.181L1547.16 183.084L1548.19 181.455L1550.82 181.873L1554.48 185.075L1557.66 188.725L1558.48 193.085L1554.85 198.894L1549.52 199.013L1546.24 195.382L1544.65 192.181Z" fill="#FFF9E1"/>
<path d="M1501.86 189.381L1503.42 183.712L1504.06 182.697L1505.7 182.958L1507.98 184.953L1509.96 187.228L1510.47 189.945L1508.21 193.565L1504.89 193.639L1502.84 191.377L1501.86 189.381Z" fill="#FFF9E1"/>
<path d="M1521.82 182.969L1514.03 195.407L1513.24 198.302L1516.48 200.877L1524 201.709L1531.53 201.515L1537.39 197.871L1540.23 187.603L1534.76 181.362L1527.15 181.417L1521.82 182.969Z" fill="#FFF9E1"/>
<path d="M1544.65 192.181L1547.16 183.084L1548.19 181.455L1550.82 181.873L1554.48 185.075L1557.66 188.725L1558.48 193.085L1554.85 198.894L1549.52 199.013L1546.24 195.382L1544.65 192.181Z" fill="#FFF9E1"/>
<path d="M1555.48 206.718L1557.6 201.916L1562.33 200.615L1576.41 199.597L1584.31 216.538L1568.6 229.112L1563.89 228.053L1555.48 206.718Z" fill="#FFF9E1"/>
<path d="M1505.07 173.427L1506.06 171.171L1508.29 170.559L1514.89 170.076L1518.59 178.033L1511.22 183.944L1509.01 183.447L1505.07 173.427Z" fill="#FFF9E1"/>
<path d="M1391.87 244.646H1389.33L1387.83 246.654L1384.65 253.223L1390.6 260.623L1399.22 255.719L1399.66 253.223L1391.87 244.646Z" fill="#FFF9E1"/>
<path d="M1619.81 339.413L1619.88 335.233L1620.15 334.42L1621.32 334.31L1623.25 335.28L1625.01 336.496L1625.84 338.277L1624.93 341.17L1622.65 341.809L1620.84 340.613L1619.81 339.413Z" fill="#FFF9E1"/>
<path d="M1566.29 416.756L1572.69 423.687L1573.53 425.422L1571.79 427.435L1567.14 428.856L1562.36 429.63L1558.23 428.025L1555.21 421.877L1557.92 417.282L1562.73 416.411L1566.29 416.756Z" fill="#FFF9E1"/>
<path d="M1591.25 381.872L1595.25 386.191L1595.77 387.272L1594.68 388.527L1591.78 389.412L1588.81 389.895L1586.23 388.894L1584.35 385.063L1586.04 382.2L1589.04 381.657L1591.25 381.872Z" fill="#FFF9E1"/>
<path d="M1586.16 402.212L1579.71 389.031L1577.66 386.837L1573.76 388.234L1569.09 394.184L1565.28 400.678L1565.29 407.578L1572.51 415.411L1580.7 414.057L1584.67 407.562L1586.16 402.212Z" fill="#FFF9E1"/>
<path d="M1600.97 371.683L1605.56 369.843L1609.34 375.127L1608.13 381.778L1607.86 386.413L1603.39 388.409L1600.11 386.963L1600.97 371.683Z" fill="#FFF9E1"/>
<path d="M1566.29 416.756L1572.69 423.687L1573.53 425.422L1571.79 427.435L1567.14 428.856L1562.36 429.63L1558.23 428.025L1555.21 421.877L1557.92 417.282L1562.73 416.411L1566.29 416.756Z" fill="#FFF9E1"/>
<path d="M1603.11 393.018L1604.5 395.052L1603.85 397.264L1600.77 403.129L1592.06 402.078L1590.93 392.695L1592.52 391.079L1603.11 393.018Z" fill="#FFF9E1"/>
<path d="M1618.39 361.657L1619.79 363.69L1619.13 365.902L1616.06 371.768L1607.35 370.716L1606.22 361.334L1607.8 359.718L1618.39 361.657Z" fill="#FFF9E1"/>
<path d="M1476.24 205.168L1477.44 204.472L1477.65 203.185L1477.51 199.443L1472.81 197.849L1469.95 202.356L1470.37 203.568L1476.24 205.168Z" fill="#FFF9E1"/>
<path d="M1403.58 234.012L1404.78 233.316L1404.99 232.029L1404.85 228.287L1400.15 226.693L1397.29 231.199L1397.71 232.411L1403.58 234.012Z" fill="#FFF9E1"/>
<path d="M1623.52 250.663L1601.48 242.729L1592.42 245.846L1590.43 248.357L1596.58 256.012L1605.34 264.609L1615.51 268.252L1620.34 270.451L1625.42 269.14L1623.52 250.663Z" fill="#FFF9E1"/>
<path d="M1495.8 425.581L1473.76 417.647L1464.7 420.764L1462.71 423.275L1468.86 430.93L1477.62 439.527L1487.79 443.17L1492.62 445.369L1497.69 444.058L1495.8 425.581Z" fill="#FFF9E1"/>
<path d="M1619.48 353.454L1615.42 340.528L1610.81 337.446L1608.95 337.41L1607.58 342.923L1606.69 349.969L1608.58 355.929L1609.26 358.923L1611.64 360.8L1619.48 353.454Z" fill="#FFF9E1"/>
<path d="M1460.68 430.237L1456.61 417.311L1452 414.23L1450.15 414.194L1448.78 419.706L1447.89 426.752L1449.77 432.712L1450.45 435.706L1452.83 437.584L1460.68 430.237Z" fill="#FFF9E1"/>
<path d="M1485.54 173.711H1480.63L1477.73 177.205L1471.56 188.634L1483.09 201.511L1499.77 192.976L1500.64 188.634L1485.54 173.711Z" fill="#FFF9E1"/>
<path d="M1524.66 429.599L1516.46 428.399L1514.78 428.652L1514.19 430.914L1515.47 434.992L1517.28 438.839L1520.5 441.039L1526.45 440.175L1528.44 435.927L1526.68 432.004L1524.66 429.599Z" fill="#FFF9E1"/>
<path d="M1525.18 423.866L1525.11 419.686L1524.84 418.873L1523.67 418.763L1521.74 419.733L1519.98 420.949L1519.15 422.73L1520.06 425.623L1522.34 426.262L1524.15 425.066L1525.18 423.866Z" fill="#FFF9E1"/>
<path d="M1513.32 434.557L1512.6 431.343L1508.27 431.251L1505.07 434.428L1502.62 436.319L1503.2 439.531L1505.24 440.793L1513.32 434.557Z" fill="#FFF9E1"/>
<path d="M1535.05 444.51L1536.25 443.814L1536.46 442.527L1536.32 438.785L1531.63 437.191L1528.76 441.697L1529.18 442.909L1535.05 444.51Z" fill="#FFF9E1"/>
<path d="M1545.13 413.047H1540.17L1537.24 416.621L1531 428.313L1542.65 441.486L1559.52 432.755L1560.39 428.313L1545.13 413.047Z" fill="#FFF9E1"/>
<path d="M1626.7 296.896L1628.31 288.762L1628.14 287.076L1625.91 286.37L1621.78 287.444L1617.84 289.06L1615.49 292.163L1616.05 298.155L1620.19 300.349L1624.2 298.788L1626.7 296.896Z" fill="#FFF9E1"/>
<path d="M1632.39 297.693L1636.57 297.829L1637.4 297.607L1637.57 296.44L1636.69 294.47L1635.57 292.645L1633.83 291.725L1630.9 292.496L1630.14 294.737L1631.25 296.603L1632.39 297.693Z" fill="#FFF9E1"/>
<path d="M1622.32 285.323L1625.56 284.77L1625.87 280.446L1622.86 277.092L1621.09 274.55L1617.86 274.975L1616.49 276.942L1622.32 285.323Z" fill="#FFF9E1"/>
<path d="M1611.29 306.524L1611.92 307.763L1613.2 308.033L1616.94 308.082L1618.77 303.471L1614.41 300.386L1613.18 300.741L1611.29 306.524Z" fill="#FFF9E1"/>
<path d="M1642.56 317.786L1642.81 312.862L1639.38 309.774L1628 302.993L1614.26 313.901L1622.14 331.079L1626.54 332.172L1642.56 317.786Z" fill="#FFF9E1"/>
<path d="M1592.86 225.156H1590.32L1588.82 227.084L1585.64 233.39L1591.59 240.494L1600.21 235.785L1600.66 233.39L1592.86 225.156Z" fill="#FFF9E1"/>
<path d="M1592.9 210.992L1591.1 208.96L1588.55 209.074L1581.45 210.815L1580.24 220.429L1589.99 224.126L1592.15 222.853L1592.9 210.992Z" fill="#FFF9E1"/>
<path d="M1406.65 428.843L1371.05 423.635L1363.78 424.732L1361.2 434.55L1366.76 452.246L1374.62 468.94L1388.58 478.489L1414.43 474.736L1423.03 456.302L1415.4 439.28L1406.65 428.843Z" fill="#FFF9E1"/>
<path d="M1450.81 138.454L1439.01 136.728L1436.6 137.092L1435.75 140.346L1437.59 146.211L1440.2 151.745L1444.82 154.91L1453.39 153.666L1456.24 147.556L1453.71 141.914L1450.81 138.454Z" fill="#FFF9E1"/>
<path d="M1451.55 130.212L1451.44 124.199L1451.07 123.03L1449.38 122.871L1446.61 124.267L1444.07 126.017L1442.87 128.578L1444.19 132.739L1447.47 133.658L1450.07 131.937L1451.55 130.212Z" fill="#FFF9E1"/>
<path d="M1360.16 213.993L1360.05 207.981L1359.67 206.811L1357.99 206.653L1355.22 208.049L1352.68 209.798L1351.48 212.359L1352.8 216.52L1356.07 217.44L1358.67 215.719L1360.16 213.993Z" fill="#FFF9E1"/>
<path d="M1322.64 325.292L1309.21 323.327L1306.47 323.741L1305.5 327.445L1307.59 334.12L1310.56 340.417L1315.82 344.019L1325.57 342.604L1328.82 335.65L1325.94 329.229L1322.64 325.292Z" fill="#FFF9E1"/>
<path d="M1343.76 267.313L1335.39 266.089L1333.68 266.347L1333.07 268.655L1334.38 272.814L1336.23 276.739L1339.51 278.984L1345.59 278.101L1347.61 273.768L1345.81 269.766L1343.76 267.313Z" fill="#FFF9E1"/>
<path d="M1323.74 289.893L1344.63 286.837L1348.9 287.481L1350.41 293.242L1347.15 303.624L1342.53 313.419L1334.34 319.022L1319.18 316.82L1314.13 306.004L1318.61 296.016L1323.74 289.893Z" fill="#FFF9E1"/>
<path d="M1385.16 156.819L1406.05 153.763L1410.32 154.407L1411.83 160.167L1408.57 170.55L1403.96 180.345L1395.77 185.948L1380.6 183.746L1375.55 172.93L1380.03 162.942L1385.16 156.819Z" fill="#FFF9E1"/>
<path d="M1375.34 187.501L1379.22 194.104L1379.59 195.626L1377.86 196.922L1373.93 197.247L1370 197.037L1367 195.051L1365.66 189.653L1368.61 186.475L1372.58 186.615L1375.34 187.501Z" fill="#FFF9E1"/>
<path d="M1371.25 394.086L1364.03 401.382L1371.1 412.902L1384.82 415.933L1393.92 419.169L1401.35 412.213L1401.23 404.754L1371.25 394.086Z" fill="#FFF9E1"/>
<path d="M1356.41 396.993L1347.38 392.1L1338.3 402.11L1339.23 416.134L1338.67 425.769L1347.42 430.958L1354.55 428.755L1356.41 396.993Z" fill="#FFF9E1"/>
<path d="M1347.95 247.491L1346.41 240.558L1337.06 240.36L1330.16 247.212L1324.87 251.292L1326.14 258.221L1330.53 260.942L1347.95 247.491Z" fill="#FFF9E1"/>
<path d="M1434.51 145.584L1433.48 140.961L1427.25 140.829L1422.64 145.398L1419.12 148.119L1419.96 152.738L1422.89 154.553L1434.51 145.584Z" fill="#FFF9E1"/>
<path d="M1369.4 210.059L1371.8 209.271L1371.54 205.955L1368.88 203.751L1367.25 202.023L1364.84 202.713L1364.03 204.36L1369.4 210.059Z" fill="#FFF9E1"/>
<path d="M1352.12 206.265L1351.41 203.049L1347.07 202.957L1343.87 206.136L1341.42 208.028L1342.01 211.241L1344.04 212.503L1352.12 206.265Z" fill="#FFF9E1"/>
<path d="M1426.99 161.366L1424.22 157.523L1418.44 159.859L1416.01 165.872L1413.85 169.762L1416.44 173.674L1419.85 174.189L1426.99 161.366Z" fill="#FFF9E1"/>
<path d="M1322.64 325.292L1309.21 323.327L1306.47 323.741L1305.5 327.445L1307.59 334.12L1310.56 340.417L1315.82 344.019L1325.57 342.604L1328.82 335.65L1325.94 329.229L1322.64 325.292Z" fill="#FFF9E1"/>
<path d="M1335.66 347.676H1327.98L1323.45 353.221L1313.79 371.361L1331.83 391.798L1357.93 378.253L1359.29 371.361L1335.66 347.676Z" fill="#FFF9E1"/>
<path d="M1321.43 262.188H1317.94L1315.88 264.902L1311.49 273.783L1319.69 283.789L1331.56 277.157L1332.17 273.783L1321.43 262.188Z" fill="#FFF9E1"/>
<path d="M1564.16 141.219L1567.77 128.134L1569.25 125.791L1573.03 126.393L1578.3 130.999L1582.87 136.249L1584.05 142.52L1578.82 150.874L1571.15 151.046L1566.43 145.824L1564.16 141.219Z" fill="#FFF9E1"/>
<path d="M1502.6 137.193L1504.85 129.039L1505.77 127.578L1508.13 127.953L1511.41 130.824L1514.26 134.096L1514.99 138.004L1511.74 143.21L1506.96 143.317L1504.02 140.063L1502.6 137.193Z" fill="#FFF9E1"/>
<path d="M1531.31 127.969L1520.1 145.861L1518.98 150.024L1523.64 153.727L1534.46 154.924L1545.28 154.646L1553.71 149.404L1557.8 134.636L1549.93 125.658L1538.98 125.738L1531.31 127.969Z" fill="#FFF9E1"/>
<path d="M1564.16 141.219L1567.77 128.134L1569.25 125.791L1573.03 126.393L1578.3 130.999L1582.87 136.249L1584.05 142.52L1578.82 150.874L1571.15 151.046L1566.43 145.824L1564.16 141.219Z" fill="#FFF9E1"/>
<path d="M1579.74 162.128L1582.78 155.221L1589.59 153.35L1609.83 151.885L1621.2 176.253L1598.61 194.339L1591.83 192.816L1579.74 162.128Z" fill="#FFF9E1"/>
<path d="M1507.22 114.245L1508.65 110.999L1511.85 110.119L1521.35 109.425L1526.68 120.869L1516.07 129.371L1512.89 128.657L1507.22 114.245Z" fill="#FFF9E1"/>
<path d="M1344.39 216.684H1340.75L1338.6 219.572L1334.01 229.02L1342.58 239.664L1354.97 232.609L1355.61 229.02L1344.39 216.684Z" fill="#FFF9E1"/>
<path d="M1672.26 352.991L1672.37 346.979L1672.74 345.809L1674.43 345.651L1677.2 347.047L1679.74 348.796L1680.94 351.357L1679.62 355.518L1676.34 356.438L1673.74 354.717L1672.26 352.991Z" fill="#FFF9E1"/>
<path d="M1595.28 464.238L1604.49 474.207L1605.7 476.703L1603.19 479.598L1596.5 481.642L1589.63 482.756L1583.68 480.447L1579.34 471.604L1583.24 464.995L1590.17 463.742L1595.28 464.238Z" fill="#FFF9E1"/>
<path d="M1631.19 414.06L1636.93 420.273L1637.68 421.828L1636.12 423.632L1631.95 424.906L1627.67 425.6L1623.96 424.161L1621.25 418.65L1623.69 414.532L1628 413.751L1631.19 414.06Z" fill="#FFF9E1"/>
<path d="M1623.86 443.318L1614.58 424.358L1611.63 421.204L1606.03 423.213L1599.31 431.77L1593.83 441.112L1593.84 451.036L1604.23 462.303L1616.01 460.355L1621.71 451.013L1623.86 443.318Z" fill="#FFF9E1"/>
<path d="M1645.17 399.405L1651.76 396.759L1657.21 404.359L1655.45 413.925L1655.08 420.592L1648.65 423.463L1643.92 421.383L1645.17 399.405Z" fill="#FFF9E1"/>
<path d="M1595.28 464.238L1604.49 474.207L1605.7 476.703L1603.19 479.598L1596.5 481.642L1589.63 482.756L1583.68 480.447L1579.34 471.604L1583.24 464.995L1590.17 463.742L1595.28 464.238Z" fill="#FFF9E1"/>
<path d="M1648.24 430.094L1650.24 433.019L1649.3 436.201L1644.88 444.637L1632.35 443.125L1630.72 429.629L1633 427.305L1648.24 430.094Z" fill="#FFF9E1"/>
<path d="M1670.22 384.985L1672.23 387.91L1671.29 391.091L1666.87 399.528L1654.33 398.016L1652.71 384.52L1654.99 382.196L1670.22 384.985Z" fill="#FFF9E1"/>
<path d="M1465.75 159.899L1467.49 158.897L1467.78 157.046L1467.58 151.664L1460.83 149.371L1456.71 155.853L1457.31 157.596L1465.75 159.899Z" fill="#FFF9E1"/>
<path d="M1361.24 201.387L1362.97 200.386L1363.27 198.534L1363.07 193.152L1356.32 190.86L1352.2 197.341L1352.8 199.085L1361.24 201.387Z" fill="#FFF9E1"/>
<path d="M1677.6 225.337L1645.9 213.926L1632.86 218.409L1630 222.02L1638.85 233.031L1651.45 245.397L1666.08 250.637L1673.02 253.8L1680.32 251.914L1677.6 225.337Z" fill="#FFF9E1"/>
<path d="M1493.88 476.931L1462.19 465.52L1449.15 470.003L1446.29 473.614L1455.14 484.625L1467.74 496.991L1482.37 502.231L1489.31 505.394L1496.61 503.508L1493.88 476.931Z" fill="#FFF9E1"/>
<path d="M1671.79 373.187L1665.94 354.595L1659.31 350.163L1656.65 350.111L1654.67 358.04L1653.39 368.174L1656.11 376.747L1657.08 381.053L1660.51 383.754L1671.79 373.187Z" fill="#FFF9E1"/>
<path d="M1443.37 483.629L1437.52 465.037L1430.89 460.604L1428.23 460.552L1426.25 468.481L1424.97 478.616L1427.69 487.188L1428.66 491.494L1432.09 494.195L1443.37 483.629Z" fill="#FFF9E1"/>
<path d="M1479.13 114.654H1472.07L1467.9 119.679L1459.03 136.119L1475.61 154.64L1499.6 142.365L1500.85 136.119L1479.13 114.654Z" fill="#FFF9E1"/>
<path d="M1535.4 482.71L1523.6 480.984L1521.19 481.348L1520.34 484.602L1522.18 490.467L1524.79 496.001L1529.41 499.166L1537.98 497.922L1540.83 491.812L1538.3 486.17L1535.4 482.71Z" fill="#FFF9E1"/>
<path d="M1536.15 474.466L1536.04 468.453L1535.66 467.284L1533.97 467.125L1531.21 468.521L1528.67 470.27L1527.47 472.832L1528.79 476.993L1532.06 477.912L1534.66 476.191L1536.15 474.466Z" fill="#FFF9E1"/>
<path d="M1519.08 489.842L1518.06 485.219L1511.82 485.087L1507.22 489.656L1503.7 492.376L1504.54 496.996L1507.46 498.81L1519.08 489.842Z" fill="#FFF9E1"/>
<path d="M1550.34 504.158L1552.08 503.157L1552.37 501.306L1552.18 495.924L1545.42 493.631L1541.3 500.113L1541.9 501.856L1550.34 504.158Z" fill="#FFF9E1"/>
<path d="M1564.84 458.9H1557.7L1553.49 464.041L1544.51 480.859L1561.28 499.806L1585.54 487.248L1586.8 480.859L1564.84 458.9Z" fill="#FFF9E1"/>
<path d="M1682.17 291.834L1684.49 280.135L1684.25 277.71L1681.04 276.694L1675.09 278.239L1669.43 280.564L1666.04 285.027L1666.85 293.646L1672.81 296.801L1678.57 294.556L1682.17 291.834Z" fill="#FFF9E1"/>
<path d="M1690.36 292.982L1696.37 293.177L1697.56 292.858L1697.8 291.179L1696.54 288.345L1694.92 285.72L1692.43 284.397L1688.2 285.507L1687.12 288.73L1688.71 291.413L1690.36 292.982Z" fill="#FFF9E1"/>
<path d="M1675.87 275.191L1680.53 274.395L1680.98 268.176L1676.65 263.351L1674.11 259.695L1669.45 260.307L1667.49 263.136L1675.87 275.191Z" fill="#FFF9E1"/>
<path d="M1660 305.684L1660.92 307.466L1662.75 307.855L1668.14 307.926L1670.77 301.293L1664.5 296.856L1662.73 297.366L1660 305.684Z" fill="#FFF9E1"/>
<path d="M1704.99 321.882L1705.34 314.799L1700.41 310.358L1684.05 300.605L1664.27 316.294L1675.62 341.001L1681.94 342.574L1704.99 321.882Z" fill="#FFF9E1"/>
<path d="M1633.49 188.648H1629.85L1627.69 191.421L1623.11 200.491L1631.67 210.71L1644.06 203.937L1644.71 200.491L1633.49 188.648Z" fill="#FFF9E1"/>
<path d="M1633.56 168.276L1630.96 165.354L1627.3 165.518L1617.08 168.022L1615.35 181.85L1629.37 187.169L1632.47 185.337L1633.56 168.276Z" fill="#FFF9E1"/>
<path d="M2061.46 360.081L2045.95 357.812L2042.78 358.29L2041.66 362.567L2044.08 370.276L2047.51 377.549L2053.59 381.709L2064.85 380.074L2068.6 372.043L2065.27 364.627L2061.46 360.081Z" fill="#FFF9E1"/>
<path d="M2080.7 233.574L2075.56 232.822L2074.51 232.98L2074.14 234.398L2074.94 236.953L2076.08 239.364L2078.09 240.743L2081.82 240.201L2083.07 237.539L2081.96 235.081L2080.7 233.574Z" fill="#FFF9E1"/>
<path d="M2081.02 229.984L2080.98 227.364L2080.81 226.855L2080.08 226.786L2078.87 227.394L2077.76 228.156L2077.24 229.272L2077.82 231.084L2079.24 231.485L2080.38 230.735L2081.02 229.984Z" fill="#FFF9E1"/>
<path d="M2041.21 266.484L2041.16 263.864L2041 263.355L2040.26 263.286L2039.06 263.894L2037.95 264.656L2037.43 265.772L2038 267.584L2039.43 267.985L2040.56 267.235L2041.21 266.484Z" fill="#FFF9E1"/>
<path d="M2024.86 314.969L2019.01 314.113L2017.82 314.294L2017.39 315.907L2018.31 318.815L2019.6 321.558L2021.89 323.128L2026.14 322.511L2027.56 319.481L2026.3 316.684L2024.86 314.969Z" fill="#FFF9E1"/>
<path d="M2034.06 289.711L2030.42 289.178L2029.67 289.29L2029.41 290.296L2029.98 292.108L2030.78 293.818L2032.21 294.796L2034.86 294.411L2035.74 292.523L2034.96 290.78L2034.06 289.711Z" fill="#FFF9E1"/>
<path d="M2025.34 299.547L2034.44 298.216L2036.3 298.496L2036.96 301.006L2035.54 305.529L2033.53 309.796L2029.96 312.237L2023.35 311.278L2021.15 306.566L2023.11 302.215L2025.34 299.547Z" fill="#FFF9E1"/>
<path d="M2052.1 241.574L2061.2 240.243L2063.06 240.524L2063.72 243.033L2062.3 247.556L2060.29 251.823L2056.72 254.264L2050.11 253.305L2047.91 248.593L2049.87 244.242L2052.1 241.574Z" fill="#FFF9E1"/>
<path d="M2047.82 254.942L2049.51 257.818L2049.67 258.481L2048.92 259.046L2047.21 259.188L2045.5 259.096L2044.19 258.231L2043.61 255.879L2044.89 254.495L2046.62 254.556L2047.82 254.942Z" fill="#FFF9E1"/>
<path d="M2046.04 344.939L2042.89 348.118L2045.97 353.136L2051.95 354.457L2055.91 355.866L2059.15 352.836L2059.1 349.587L2046.04 344.939Z" fill="#FFF9E1"/>
<path d="M2039.57 346.206L2035.64 344.074L2031.69 348.435L2032.09 354.545L2031.84 358.742L2035.66 361.003L2038.76 360.043L2039.57 346.206Z" fill="#FFF9E1"/>
<path d="M2035.89 281.076L2035.22 278.056L2031.15 277.969L2028.14 280.955L2025.84 282.732L2026.39 285.75L2028.3 286.936L2035.89 281.076Z" fill="#FFF9E1"/>
<path d="M2073.6 236.68L2073.15 234.666L2070.43 234.608L2068.43 236.599L2066.89 237.784L2067.26 239.796L2068.54 240.587L2073.6 236.68Z" fill="#FFF9E1"/>
<path d="M2045.23 264.769L2046.28 264.426L2046.17 262.981L2045.01 262.021L2044.3 261.268L2043.25 261.569L2042.89 262.287L2045.23 264.769Z" fill="#FFF9E1"/>
<path d="M2037.71 263.116L2037.4 261.716L2035.51 261.675L2034.11 263.06L2033.04 263.885L2033.3 265.284L2034.19 265.834L2037.71 263.116Z" fill="#FFF9E1"/>
<path d="M2070.32 243.556L2069.12 241.882L2066.6 242.9L2065.54 245.519L2064.6 247.214L2065.73 248.918L2067.21 249.142L2070.32 243.556Z" fill="#FFF9E1"/>
<path d="M2024.86 314.969L2019.01 314.113L2017.82 314.294L2017.39 315.907L2018.31 318.815L2019.6 321.558L2021.89 323.128L2026.14 322.511L2027.56 319.481L2026.3 316.684L2024.86 314.969Z" fill="#FFF9E1"/>
<path d="M2030.54 324.721H2027.19L2025.21 327.136L2021.01 335.039L2028.87 343.943L2040.24 338.041L2040.83 335.039L2030.54 324.721Z" fill="#FFF9E1"/>
<path d="M2024.34 287.479H2022.82L2021.92 288.661L2020.01 292.53L2023.58 296.889L2028.75 294L2029.02 292.53L2024.34 287.479Z" fill="#FFF9E1"/>
<path d="M2130.08 234.778L2131.65 229.078L2132.3 228.057L2133.95 228.319L2136.24 230.326L2138.23 232.613L2138.74 235.345L2136.47 238.985L2133.13 239.059L2131.07 236.784L2130.08 234.778Z" fill="#FFF9E1"/>
<path d="M2103.26 233.024L2104.24 229.472L2104.64 228.836L2105.67 228.999L2107.1 230.249L2108.34 231.675L2108.66 233.377L2107.24 235.645L2105.16 235.692L2103.88 234.274L2103.26 233.024Z" fill="#FFF9E1"/>
<path d="M2115.77 229.006L2110.89 236.801L2110.4 238.615L2112.43 240.228L2117.14 240.749L2121.86 240.628L2125.53 238.344L2127.31 231.91L2123.88 227.999L2119.11 228.034L2115.77 229.006Z" fill="#FFF9E1"/>
<path d="M2130.08 234.778L2131.65 229.078L2132.3 228.057L2133.95 228.319L2136.24 230.326L2138.23 232.613L2138.74 235.345L2136.47 238.985L2133.13 239.059L2131.07 236.784L2130.08 234.778Z" fill="#FFF9E1"/>
<path d="M2136.87 243.888L2138.19 240.879L2141.16 240.064L2149.98 239.426L2154.93 250.041L2145.09 257.92L2142.13 257.257L2136.87 243.888Z" fill="#FFF9E1"/>
<path d="M2105.28 223.028L2105.9 221.614L2107.29 221.23L2111.43 220.928L2113.75 225.913L2109.13 229.617L2107.74 229.306L2105.28 223.028Z" fill="#FFF9E1"/>
<path d="M2034.34 267.654H2032.75L2031.81 268.912L2029.82 273.028L2033.55 277.666L2038.95 274.592L2039.23 273.028L2034.34 267.654Z" fill="#FFF9E1"/>
<path d="M2177.17 327.036L2177.22 324.417L2177.38 323.908L2178.12 323.839L2179.33 324.447L2180.43 325.209L2180.95 326.324L2180.38 328.137L2178.95 328.538L2177.82 327.788L2177.17 327.036Z" fill="#FFF9E1"/>
<path d="M2143.64 375.5L2147.65 379.843L2148.18 380.93L2147.08 382.192L2144.17 383.082L2141.18 383.567L2138.59 382.561L2136.69 378.709L2138.39 375.83L2141.41 375.284L2143.64 375.5Z" fill="#FFF9E1"/>
<path d="M2159.28 353.642L2161.78 356.348L2162.11 357.026L2161.43 357.812L2159.61 358.367L2157.75 358.669L2156.13 358.042L2154.95 355.641L2156.01 353.847L2157.89 353.507L2159.28 353.642Z" fill="#FFF9E1"/>
<path d="M2156.09 366.387L2152.04 358.127L2150.76 356.753L2148.32 357.628L2145.39 361.356L2143.01 365.426L2143.01 369.749L2147.54 374.657L2152.67 373.809L2155.15 369.739L2156.09 366.387Z" fill="#FFF9E1"/>
<path d="M2165.37 347.257L2168.24 346.104L2170.62 349.415L2169.85 353.582L2169.69 356.487L2166.89 357.738L2164.83 356.831L2165.37 347.257Z" fill="#FFF9E1"/>
<path d="M2143.64 375.5L2147.65 379.843L2148.18 380.93L2147.08 382.192L2144.17 383.082L2141.18 383.567L2138.59 382.561L2136.69 378.709L2138.39 375.83L2141.41 375.284L2143.64 375.5Z" fill="#FFF9E1"/>
<path d="M2166.71 360.626L2167.58 361.9L2167.17 363.286L2165.25 366.962L2159.79 366.303L2159.08 360.424L2160.07 359.411L2166.71 360.626Z" fill="#FFF9E1"/>
<path d="M2176.29 340.974L2177.16 342.248L2176.75 343.634L2174.82 347.31L2169.36 346.651L2168.66 340.771L2169.65 339.759L2176.29 340.974Z" fill="#FFF9E1"/>
<path d="M2087.21 242.916L2087.96 242.48L2088.09 241.673L2088.01 239.329L2085.06 238.33L2083.27 241.154L2083.53 241.913L2087.21 242.916Z" fill="#FFF9E1"/>
<path d="M2041.68 260.99L2042.43 260.554L2042.56 259.748L2042.48 257.403L2039.53 256.404L2037.74 259.228L2038 259.987L2041.68 260.99Z" fill="#FFF9E1"/>
<path d="M2179.5 271.424L2165.69 266.453L2160.01 268.406L2158.76 269.979L2162.62 274.776L2168.11 280.163L2174.48 282.446L2177.51 283.824L2180.69 283.002L2179.5 271.424Z" fill="#FFF9E1"/>
<path d="M2099.47 381.03L2085.66 376.058L2079.98 378.011L2078.73 379.585L2082.58 384.381L2088.07 389.769L2094.45 392.052L2097.47 393.429L2100.65 392.608L2099.47 381.03Z" fill="#FFF9E1"/>
<path d="M2176.97 335.834L2174.42 327.735L2171.53 325.804L2170.37 325.781L2169.51 329.235L2168.95 333.65L2170.14 337.385L2170.56 339.261L2172.05 340.438L2176.97 335.834Z" fill="#FFF9E1"/>
<path d="M2077.46 383.948L2074.91 375.848L2072.02 373.917L2070.86 373.894L2070 377.349L2069.44 381.764L2070.63 385.498L2071.05 387.374L2072.54 388.551L2077.46 383.948Z" fill="#FFF9E1"/>
<path d="M2093.04 223.205H2089.96L2088.15 225.394L2084.28 232.556L2091.5 240.625L2101.96 235.277L2102.5 232.556L2093.04 223.205Z" fill="#FFF9E1"/>
<path d="M2117.55 383.549L2112.41 382.797L2111.36 382.955L2110.99 384.373L2111.79 386.928L2112.93 389.338L2114.94 390.717L2118.68 390.175L2119.92 387.514L2118.82 385.056L2117.55 383.549Z" fill="#FFF9E1"/>
<path d="M2117.88 379.956L2117.83 377.337L2117.67 376.828L2116.93 376.758L2115.72 377.367L2114.62 378.129L2114.1 379.244L2114.67 381.057L2116.1 381.458L2117.23 380.708L2117.88 379.956Z" fill="#FFF9E1"/>
<path d="M2110.44 386.654L2110 384.64L2107.28 384.583L2105.27 386.573L2103.74 387.759L2104.11 389.771L2105.38 390.561L2110.44 386.654Z" fill="#FFF9E1"/>
<path d="M2124.06 392.891L2124.82 392.455L2124.95 391.648L2124.86 389.303L2121.92 388.305L2120.12 391.128L2120.38 391.888L2124.06 392.891Z" fill="#FFF9E1"/>
<path d="M2130.38 373.176H2127.27L2125.43 375.415L2121.52 382.742L2128.83 390.996L2139.39 385.525L2139.94 382.742L2130.38 373.176Z" fill="#FFF9E1"/>
<path d="M2181.49 300.395L2182.5 295.298L2182.4 294.242L2181 293.799L2178.41 294.472L2175.94 295.485L2174.46 297.429L2174.82 301.184L2177.41 302.559L2179.92 301.581L2181.49 300.395Z" fill="#FFF9E1"/>
<path d="M2185.06 300.895L2187.68 300.98L2188.19 300.841L2188.3 300.109L2187.75 298.875L2187.05 297.731L2185.96 297.155L2184.12 297.638L2183.65 299.042L2184.34 300.211L2185.06 300.895Z" fill="#FFF9E1"/>
<path d="M2178.74 293.142L2180.78 292.796L2180.97 290.086L2179.08 287.984L2177.98 286.391L2175.95 286.658L2175.1 287.891L2178.74 293.142Z" fill="#FFF9E1"/>
<path d="M2171.83 306.427L2172.23 307.204L2173.03 307.373L2175.38 307.404L2176.52 304.515L2173.79 302.582L2173.02 302.804L2171.83 306.427Z" fill="#FFF9E1"/>
<path d="M2191.43 313.484L2191.59 310.399L2189.44 308.464L2182.31 304.215L2173.69 311.05L2178.64 321.814L2181.39 322.499L2191.43 313.484Z" fill="#FFF9E1"/>
<path d="M2160.28 255.441H2158.7L2157.76 256.649L2155.76 260.601L2159.49 265.052L2164.89 262.102L2165.17 260.601L2160.28 255.441Z" fill="#FFF9E1"/>
<path d="M2160.31 246.565L2159.18 245.293L2157.59 245.364L2153.14 246.455L2152.38 252.479L2158.49 254.796L2159.84 253.998L2160.31 246.565Z" fill="#FFF9E1"/>
<path d="M2036.15 392.148L2011.39 388.527L2006.34 389.29L2004.55 396.116L2008.41 408.419L2013.88 420.025L2023.58 426.664L2041.55 424.055L2047.54 411.239L2042.23 399.404L2036.15 392.148Z" fill="#FFF9E1"/>
<path d="M2066.85 190.259L2058.65 189.059L2056.97 189.312L2056.38 191.574L2057.66 195.652L2059.47 199.499L2062.69 201.7L2068.64 200.835L2070.63 196.587L2068.87 192.664L2066.85 190.259Z" fill="#FFF9E1"/>
<path d="M2067.36 184.528L2067.29 180.348L2067.03 179.535L2065.85 179.425L2063.93 180.396L2062.16 181.612L2061.33 183.392L2062.25 186.285L2064.52 186.924L2066.33 185.728L2067.36 184.528Z" fill="#FFF9E1"/>
<path d="M2003.82 242.778L2003.75 238.598L2003.49 237.785L2002.31 237.675L2000.39 238.646L1998.62 239.862L1997.79 241.642L1998.71 244.535L2000.99 245.174L2002.79 243.978L2003.82 242.778Z" fill="#FFF9E1"/>
<path d="M1977.74 320.155L1968.4 318.789L1966.5 319.077L1965.82 321.652L1967.28 326.293L1969.34 330.671L1973 333.175L1979.78 332.191L1982.04 327.357L1980.03 322.892L1977.74 320.155Z" fill="#FFF9E1"/>
<path d="M1992.42 279.846L1986.6 278.995L1985.41 279.175L1984.99 280.779L1985.9 283.671L1987.19 286.4L1989.47 287.96L1993.69 287.347L1995.1 284.334L1993.85 281.552L1992.42 279.846Z" fill="#FFF9E1"/>
<path d="M1978.51 295.543L1993.03 293.419L1995.99 293.867L1997.04 297.871L1994.78 305.09L1991.57 311.9L1985.88 315.795L1975.33 314.264L1971.82 306.745L1974.94 299.801L1978.51 295.543Z" fill="#FFF9E1"/>
<path d="M2021.21 203.026L2035.73 200.901L2038.7 201.349L2039.75 205.354L2037.48 212.572L2034.28 219.382L2028.58 223.277L2018.04 221.747L2014.53 214.227L2017.64 207.283L2021.21 203.026Z" fill="#FFF9E1"/>
<path d="M2014.38 224.359L2017.08 228.949L2017.34 230.007L2016.13 230.908L2013.4 231.134L2010.67 230.988L2008.58 229.607L2007.65 225.854L2009.7 223.645L2012.46 223.742L2014.38 224.359Z" fill="#FFF9E1"/>
<path d="M2011.54 367.985L2006.52 373.057L2011.43 381.066L2020.97 383.173L2027.29 385.423L2032.46 380.587L2032.38 375.401L2011.54 367.985Z" fill="#FFF9E1"/>
<path d="M2001.22 370.005L1994.94 366.603L1988.63 373.562L1989.27 383.313L1988.88 390.011L1994.97 393.619L1999.93 392.087L2001.22 370.005Z" fill="#FFF9E1"/>
<path d="M1995.34 266.066L1994.27 261.246L1987.77 261.108L1982.97 265.872L1979.29 268.709L1980.17 273.526L1983.22 275.418L1995.34 266.066Z" fill="#FFF9E1"/>
<path d="M2055.52 195.215L2054.8 192.001L2050.47 191.91L2047.27 195.086L2044.82 196.978L2045.4 200.189L2047.44 201.451L2055.52 195.215Z" fill="#FFF9E1"/>
<path d="M2010.25 240.043L2011.92 239.495L2011.74 237.19L2009.89 235.658L2008.75 234.456L2007.08 234.936L2006.52 236.081L2010.25 240.043Z" fill="#FFF9E1"/>
<path d="M1998.24 237.405L1997.74 235.169L1994.73 235.105L1992.5 237.315L1990.8 238.63L1991.2 240.865L1992.62 241.742L1998.24 237.405Z" fill="#FFF9E1"/>
<path d="M2050.29 206.188L2048.36 203.516L2044.34 205.141L2042.66 209.321L2041.15 212.025L2042.96 214.745L2045.32 215.103L2050.29 206.188Z" fill="#FFF9E1"/>
<path d="M1977.74 320.155L1968.4 318.789L1966.5 319.077L1965.82 321.652L1967.28 326.293L1969.34 330.671L1973 333.175L1979.78 332.191L1982.04 327.357L1980.03 322.892L1977.74 320.155Z" fill="#FFF9E1"/>
<path d="M1986.79 335.717H1981.45L1978.3 339.572L1971.59 352.184L1984.13 366.393L2002.28 356.975L2003.22 352.184L1986.79 335.717Z" fill="#FFF9E1"/>
<path d="M1976.9 276.283H1974.47L1973.04 278.171L1969.99 284.345L1975.69 291.302L1983.94 286.691L1984.37 284.345L1976.9 276.283Z" fill="#FFF9E1"/>
<path d="M2145.65 192.181L2148.16 183.084L2149.19 181.455L2151.82 181.873L2155.48 185.075L2158.66 188.725L2159.48 193.085L2155.85 198.894L2150.52 199.013L2147.24 195.382L2145.65 192.181Z" fill="#FFF9E1"/>
<path d="M2102.86 189.381L2104.42 183.712L2105.06 182.697L2106.7 182.958L2108.98 184.953L2110.96 187.228L2111.47 189.945L2109.21 193.565L2105.89 193.639L2103.84 191.377L2102.86 189.381Z" fill="#FFF9E1"/>
<path d="M2122.82 182.969L2115.03 195.407L2114.24 198.302L2117.48 200.877L2125 201.709L2132.53 201.515L2138.39 197.871L2141.23 187.603L2135.76 181.362L2128.15 181.417L2122.82 182.969Z" fill="#FFF9E1"/>
<path d="M2145.65 192.181L2148.16 183.084L2149.19 181.455L2151.82 181.873L2155.48 185.075L2158.66 188.725L2159.48 193.085L2155.85 198.894L2150.52 199.013L2147.24 195.382L2145.65 192.181Z" fill="#FFF9E1"/>
<path d="M2156.48 206.718L2158.6 201.916L2163.33 200.615L2177.41 199.597L2185.31 216.538L2169.6 229.112L2164.89 228.053L2156.48 206.718Z" fill="#FFF9E1"/>
<path d="M2106.07 173.427L2107.06 171.171L2109.29 170.559L2115.89 170.076L2119.59 178.033L2112.22 183.944L2110.01 183.447L2106.07 173.427Z" fill="#FFF9E1"/>
<path d="M1992.87 244.646H1990.33L1988.83 246.654L1985.65 253.223L1991.6 260.623L2000.22 255.719L2000.66 253.223L1992.87 244.646Z" fill="#FFF9E1"/>
<path d="M2220.81 339.413L2220.88 335.233L2221.15 334.42L2222.32 334.31L2224.25 335.28L2226.01 336.496L2226.84 338.277L2225.93 341.17L2223.65 341.809L2221.84 340.613L2220.81 339.413Z" fill="#FFF9E1"/>
<path d="M2167.29 416.756L2173.69 423.687L2174.53 425.422L2172.79 427.435L2168.14 428.856L2163.36 429.63L2159.23 428.025L2156.21 421.877L2158.92 417.282L2163.73 416.411L2167.29 416.756Z" fill="#FFF9E1"/>
<path d="M2192.25 381.872L2196.25 386.191L2196.77 387.272L2195.68 388.527L2192.78 389.412L2189.81 389.895L2187.23 388.894L2185.35 385.063L2187.04 382.2L2190.04 381.657L2192.25 381.872Z" fill="#FFF9E1"/>
<path d="M2187.16 402.212L2180.71 389.031L2178.66 386.837L2174.76 388.234L2170.09 394.184L2166.28 400.678L2166.29 407.578L2173.51 415.411L2181.7 414.057L2185.67 407.562L2187.16 402.212Z" fill="#FFF9E1"/>
<path d="M2201.97 371.683L2206.56 369.843L2210.34 375.127L2209.13 381.778L2208.86 386.413L2204.39 388.409L2201.11 386.963L2201.97 371.683Z" fill="#FFF9E1"/>
<path d="M2167.29 416.756L2173.69 423.687L2174.53 425.422L2172.79 427.435L2168.14 428.856L2163.36 429.63L2159.23 428.025L2156.21 421.877L2158.92 417.282L2163.73 416.411L2167.29 416.756Z" fill="#FFF9E1"/>
<path d="M2204.11 393.018L2205.5 395.052L2204.85 397.264L2201.77 403.129L2193.06 402.078L2191.93 392.695L2193.52 391.079L2204.11 393.018Z" fill="#FFF9E1"/>
<path d="M2219.39 361.657L2220.79 363.69L2220.13 365.902L2217.06 371.768L2208.35 370.716L2207.22 361.334L2208.8 359.718L2219.39 361.657Z" fill="#FFF9E1"/>
<path d="M2077.24 205.168L2078.44 204.472L2078.65 203.185L2078.51 199.443L2073.81 197.849L2070.95 202.356L2071.37 203.568L2077.24 205.168Z" fill="#FFF9E1"/>
<path d="M2004.58 234.012L2005.78 233.316L2005.99 232.029L2005.85 228.287L2001.15 226.693L1998.29 231.199L1998.71 232.411L2004.58 234.012Z" fill="#FFF9E1"/>
<path d="M2224.52 250.663L2202.48 242.729L2193.42 245.846L2191.43 248.357L2197.58 256.012L2206.34 264.609L2216.51 268.252L2221.34 270.451L2226.42 269.14L2224.52 250.663Z" fill="#FFF9E1"/>
<path d="M2096.8 425.581L2074.76 417.647L2065.7 420.764L2063.71 423.275L2069.86 430.93L2078.62 439.527L2088.79 443.17L2093.62 445.369L2098.69 444.058L2096.8 425.581Z" fill="#FFF9E1"/>
<path d="M2220.48 353.454L2216.42 340.528L2211.81 337.446L2209.95 337.41L2208.58 342.923L2207.69 349.969L2209.58 355.929L2210.26 358.923L2212.64 360.8L2220.48 353.454Z" fill="#FFF9E1"/>
<path d="M2061.68 430.237L2057.61 417.311L2053 414.23L2051.15 414.194L2049.78 419.706L2048.89 426.752L2050.77 432.712L2051.45 435.706L2053.83 437.584L2061.68 430.237Z" fill="#FFF9E1"/>
<path d="M2086.54 173.711H2081.63L2078.73 177.205L2072.56 188.634L2084.09 201.511L2100.77 192.976L2101.64 188.634L2086.54 173.711Z" fill="#FFF9E1"/>
<path d="M2125.66 429.599L2117.46 428.399L2115.78 428.652L2115.19 430.914L2116.47 434.992L2118.28 438.839L2121.5 441.039L2127.45 440.175L2129.44 435.927L2127.68 432.004L2125.66 429.599Z" fill="#FFF9E1"/>
<path d="M2126.18 423.866L2126.11 419.686L2125.84 418.873L2124.67 418.763L2122.74 419.733L2120.98 420.949L2120.15 422.73L2121.06 425.623L2123.34 426.262L2125.15 425.066L2126.18 423.866Z" fill="#FFF9E1"/>
<path d="M2114.32 434.557L2113.6 431.343L2109.27 431.251L2106.07 434.428L2103.62 436.319L2104.2 439.531L2106.24 440.793L2114.32 434.557Z" fill="#FFF9E1"/>
<path d="M2136.05 444.51L2137.25 443.814L2137.46 442.527L2137.32 438.785L2132.63 437.191L2129.76 441.697L2130.18 442.909L2136.05 444.51Z" fill="#FFF9E1"/>
<path d="M2146.13 413.047H2141.17L2138.24 416.621L2132 428.313L2143.65 441.486L2160.52 432.755L2161.39 428.313L2146.13 413.047Z" fill="#FFF9E1"/>
<path d="M2227.7 296.896L2229.31 288.762L2229.14 287.076L2226.91 286.37L2222.78 287.444L2218.84 289.06L2216.49 292.163L2217.05 298.155L2221.19 300.349L2225.2 298.788L2227.7 296.896Z" fill="#FFF9E1"/>
<path d="M2233.39 297.693L2237.57 297.829L2238.4 297.607L2238.57 296.44L2237.69 294.47L2236.57 292.645L2234.83 291.725L2231.9 292.496L2231.14 294.737L2232.25 296.603L2233.39 297.693Z" fill="#FFF9E1"/>
<path d="M2223.32 285.323L2226.56 284.77L2226.87 280.446L2223.86 277.092L2222.09 274.55L2218.86 274.975L2217.49 276.942L2223.32 285.323Z" fill="#FFF9E1"/>
<path d="M2212.29 306.524L2212.92 307.763L2214.2 308.033L2217.94 308.082L2219.77 303.471L2215.41 300.386L2214.18 300.741L2212.29 306.524Z" fill="#FFF9E1"/>
<path d="M2243.56 317.786L2243.81 312.862L2240.38 309.774L2229 302.993L2215.26 313.901L2223.14 331.079L2227.54 332.172L2243.56 317.786Z" fill="#FFF9E1"/>
<path d="M2193.86 225.156H2191.32L2189.82 227.084L2186.64 233.39L2192.59 240.494L2201.21 235.785L2201.66 233.39L2193.86 225.156Z" fill="#FFF9E1"/>
<path d="M2193.9 210.992L2192.1 208.96L2189.55 209.074L2182.45 210.815L2181.24 220.429L2190.99 224.126L2193.15 222.853L2193.9 210.992Z" fill="#FFF9E1"/>
<path d="M2007.65 428.843L1972.05 423.635L1964.78 424.732L1962.2 434.55L1967.76 452.246L1975.62 468.94L1989.58 478.489L2015.43 474.736L2024.03 456.302L2016.4 439.28L2007.65 428.843Z" fill="#FFF9E1"/>
<path d="M2051.81 138.454L2040.01 136.728L2037.6 137.092L2036.75 140.346L2038.59 146.211L2041.2 151.745L2045.82 154.91L2054.39 153.666L2057.24 147.556L2054.71 141.914L2051.81 138.454Z" fill="#FFF9E1"/>
<path d="M2052.55 130.212L2052.44 124.199L2052.07 123.03L2050.38 122.871L2047.61 124.267L2045.07 126.017L2043.87 128.578L2045.19 132.739L2048.47 133.658L2051.07 131.937L2052.55 130.212Z" fill="#FFF9E1"/>
<path d="M1961.16 213.993L1961.05 207.981L1960.67 206.811L1958.99 206.653L1956.22 208.049L1953.68 209.798L1952.48 212.359L1953.8 216.52L1957.07 217.44L1959.67 215.719L1961.16 213.993Z" fill="#FFF9E1"/>
<path d="M1923.64 325.292L1910.21 323.327L1907.47 323.741L1906.5 327.445L1908.59 334.12L1911.56 340.417L1916.82 344.019L1926.57 342.604L1929.82 335.65L1926.94 329.229L1923.64 325.292Z" fill="#FFF9E1"/>
<path d="M1944.76 267.313L1936.39 266.089L1934.68 266.347L1934.07 268.655L1935.38 272.814L1937.23 276.739L1940.51 278.984L1946.59 278.101L1948.61 273.768L1946.81 269.766L1944.76 267.313Z" fill="#FFF9E1"/>
<path d="M1924.74 289.893L1945.63 286.837L1949.9 287.481L1951.41 293.242L1948.15 303.624L1943.53 313.419L1935.34 319.022L1920.18 316.82L1915.13 306.004L1919.61 296.016L1924.74 289.893Z" fill="#FFF9E1"/>
<path d="M1986.16 156.819L2007.05 153.763L2011.32 154.407L2012.83 160.167L2009.57 170.55L2004.96 180.345L1996.77 185.948L1981.6 183.746L1976.55 172.93L1981.03 162.942L1986.16 156.819Z" fill="#FFF9E1"/>
<path d="M1976.34 187.501L1980.22 194.104L1980.59 195.626L1978.86 196.922L1974.93 197.247L1971 197.037L1968 195.051L1966.66 189.653L1969.61 186.475L1973.58 186.615L1976.34 187.501Z" fill="#FFF9E1"/>
<path d="M1972.25 394.086L1965.03 401.382L1972.1 412.902L1985.82 415.933L1994.92 419.169L2002.35 412.213L2002.23 404.754L1972.25 394.086Z" fill="#FFF9E1"/>
<path d="M1957.41 396.993L1948.38 392.1L1939.3 402.11L1940.23 416.134L1939.67 425.769L1948.42 430.958L1955.55 428.755L1957.41 396.993Z" fill="#FFF9E1"/>
<path d="M1948.95 247.491L1947.41 240.558L1938.06 240.36L1931.16 247.212L1925.87 251.292L1927.14 258.221L1931.53 260.942L1948.95 247.491Z" fill="#FFF9E1"/>
<path d="M2035.51 145.584L2034.48 140.961L2028.25 140.829L2023.64 145.398L2020.12 148.119L2020.96 152.738L2023.89 154.553L2035.51 145.584Z" fill="#FFF9E1"/>
<path d="M1970.4 210.059L1972.8 209.271L1972.54 205.955L1969.88 203.751L1968.25 202.023L1965.84 202.713L1965.03 204.36L1970.4 210.059Z" fill="#FFF9E1"/>
<path d="M1953.12 206.265L1952.41 203.049L1948.07 202.957L1944.87 206.136L1942.42 208.028L1943.01 211.241L1945.04 212.503L1953.12 206.265Z" fill="#FFF9E1"/>
<path d="M2027.99 161.366L2025.22 157.523L2019.44 159.859L2017.01 165.872L2014.85 169.762L2017.44 173.674L2020.85 174.189L2027.99 161.366Z" fill="#FFF9E1"/>
<path d="M1923.64 325.292L1910.21 323.327L1907.47 323.741L1906.5 327.445L1908.59 334.12L1911.56 340.417L1916.82 344.019L1926.57 342.604L1929.82 335.65L1926.94 329.229L1923.64 325.292Z" fill="#FFF9E1"/>
<path d="M1936.66 347.676H1928.98L1924.45 353.221L1914.79 371.361L1932.83 391.798L1958.93 378.253L1960.29 371.361L1936.66 347.676Z" fill="#FFF9E1"/>
<path d="M1922.43 262.188H1918.94L1916.88 264.902L1912.49 273.783L1920.69 283.789L1932.56 277.157L1933.17 273.783L1922.43 262.188Z" fill="#FFF9E1"/>
<path d="M2165.16 141.219L2168.77 128.134L2170.25 125.791L2174.03 126.393L2179.3 130.999L2183.87 136.249L2185.05 142.52L2179.82 150.874L2172.15 151.046L2167.43 145.824L2165.16 141.219Z" fill="#FFF9E1"/>
<path d="M2103.6 137.193L2105.85 129.039L2106.77 127.578L2109.13 127.953L2112.41 130.824L2115.26 134.096L2115.99 138.004L2112.74 143.21L2107.96 143.317L2105.02 140.063L2103.6 137.193Z" fill="#FFF9E1"/>
<path d="M2132.31 127.969L2121.1 145.861L2119.98 150.024L2124.64 153.727L2135.46 154.924L2146.28 154.646L2154.71 149.404L2158.8 134.636L2150.93 125.658L2139.98 125.738L2132.31 127.969Z" fill="#FFF9E1"/>
<path d="M2165.16 141.219L2168.77 128.134L2170.25 125.791L2174.03 126.393L2179.3 130.999L2183.87 136.249L2185.05 142.52L2179.82 150.874L2172.15 151.046L2167.43 145.824L2165.16 141.219Z" fill="#FFF9E1"/>
<path d="M2180.74 162.128L2183.78 155.221L2190.59 153.35L2210.83 151.885L2222.2 176.253L2199.61 194.339L2192.83 192.816L2180.74 162.128Z" fill="#FFF9E1"/>
<path d="M2108.22 114.245L2109.65 110.999L2112.85 110.119L2122.35 109.425L2127.67 120.869L2117.07 129.371L2113.89 128.657L2108.22 114.245Z" fill="#FFF9E1"/>
<path d="M1945.39 216.684H1941.75L1939.6 219.572L1935.01 229.02L1943.58 239.664L1955.97 232.609L1956.61 229.02L1945.39 216.684Z" fill="#FFF9E1"/>
<path d="M2273.26 352.991L2273.37 346.979L2273.74 345.809L2275.43 345.651L2278.2 347.047L2280.74 348.796L2281.94 351.357L2280.62 355.518L2277.34 356.438L2274.74 354.717L2273.26 352.991Z" fill="#FFF9E1"/>
<path d="M2196.28 464.238L2205.49 474.207L2206.7 476.703L2204.19 479.598L2197.5 481.642L2190.63 482.756L2184.68 480.447L2180.34 471.604L2184.24 464.995L2191.17 463.742L2196.28 464.238Z" fill="#FFF9E1"/>
<path d="M2232.19 414.06L2237.93 420.273L2238.68 421.828L2237.12 423.632L2232.95 424.906L2228.67 425.6L2224.96 424.161L2222.25 418.65L2224.69 414.532L2229 413.751L2232.19 414.06Z" fill="#FFF9E1"/>
<path d="M2224.86 443.318L2215.58 424.358L2212.63 421.204L2207.03 423.213L2200.31 431.77L2194.83 441.112L2194.84 451.036L2205.23 462.303L2217.01 460.355L2222.71 451.013L2224.86 443.318Z" fill="#FFF9E1"/>
<path d="M2246.17 399.405L2252.76 396.759L2258.21 404.359L2256.45 413.925L2256.08 420.592L2249.65 423.463L2244.92 421.383L2246.17 399.405Z" fill="#FFF9E1"/>
<path d="M2196.28 464.238L2205.49 474.207L2206.7 476.703L2204.19 479.598L2197.5 481.642L2190.63 482.756L2184.68 480.447L2180.34 471.604L2184.24 464.995L2191.17 463.742L2196.28 464.238Z" fill="#FFF9E1"/>
<path d="M2249.24 430.094L2251.24 433.019L2250.3 436.201L2245.88 444.637L2233.35 443.125L2231.72 429.629L2234 427.305L2249.24 430.094Z" fill="#FFF9E1"/>
<path d="M2271.22 384.985L2273.23 387.91L2272.29 391.091L2267.87 399.528L2255.33 398.016L2253.71 384.52L2255.99 382.196L2271.22 384.985Z" fill="#FFF9E1"/>
<path d="M2066.75 159.899L2068.49 158.897L2068.78 157.046L2068.58 151.664L2061.83 149.371L2057.71 155.853L2058.31 157.596L2066.75 159.899Z" fill="#FFF9E1"/>
<path d="M1962.24 201.387L1963.97 200.386L1964.27 198.534L1964.07 193.152L1957.32 190.86L1953.2 197.341L1953.8 199.085L1962.24 201.387Z" fill="#FFF9E1"/>
<path d="M2278.6 225.337L2246.9 213.926L2233.86 218.409L2231 222.02L2239.85 233.031L2252.45 245.397L2267.08 250.637L2274.02 253.8L2281.32 251.914L2278.6 225.337Z" fill="#FFF9E1"/>
<path d="M2094.88 476.931L2063.19 465.52L2050.15 470.003L2047.29 473.614L2056.14 484.625L2068.74 496.991L2083.37 502.231L2090.31 505.394L2097.61 503.508L2094.88 476.931Z" fill="#FFF9E1"/>
<path d="M2272.79 373.187L2266.94 354.595L2260.31 350.163L2257.65 350.111L2255.67 358.04L2254.39 368.174L2257.11 376.747L2258.08 381.053L2261.51 383.754L2272.79 373.187Z" fill="#FFF9E1"/>
<path d="M2044.37 483.629L2038.52 465.037L2031.89 460.604L2029.23 460.552L2027.25 468.481L2025.97 478.616L2028.69 487.188L2029.66 491.494L2033.09 494.195L2044.37 483.629Z" fill="#FFF9E1"/>
<path d="M2080.13 114.654H2073.07L2068.9 119.679L2060.02 136.119L2076.61 154.64L2100.6 142.365L2101.85 136.119L2080.13 114.654Z" fill="#FFF9E1"/>
<path d="M2136.4 482.71L2124.6 480.984L2122.19 481.348L2121.34 484.602L2123.18 490.467L2125.79 496.001L2130.41 499.166L2138.98 497.922L2141.83 491.812L2139.3 486.17L2136.4 482.71Z" fill="#FFF9E1"/>
<path d="M2137.15 474.466L2137.04 468.453L2136.66 467.284L2134.97 467.125L2132.21 468.521L2129.67 470.27L2128.47 472.832L2129.79 476.993L2133.06 477.912L2135.66 476.191L2137.15 474.466Z" fill="#FFF9E1"/>
<path d="M2120.08 489.842L2119.06 485.219L2112.82 485.087L2108.22 489.656L2104.7 492.376L2105.54 496.996L2108.46 498.81L2120.08 489.842Z" fill="#FFF9E1"/>
<path d="M2151.34 504.158L2153.08 503.157L2153.37 501.306L2153.18 495.924L2146.42 493.631L2142.3 500.113L2142.9 501.856L2151.34 504.158Z" fill="#FFF9E1"/>
<path d="M2165.84 458.9H2158.7L2154.49 464.041L2145.51 480.859L2162.28 499.806L2186.54 487.248L2187.8 480.859L2165.84 458.9Z" fill="#FFF9E1"/>
<path d="M2283.17 291.834L2285.49 280.135L2285.25 277.71L2282.04 276.694L2276.09 278.239L2270.43 280.564L2267.04 285.027L2267.85 293.646L2273.81 296.801L2279.57 294.556L2283.17 291.834Z" fill="#FFF9E1"/>
<path d="M2291.36 292.982L2297.37 293.177L2298.56 292.858L2298.8 291.179L2297.54 288.345L2295.92 285.72L2293.43 284.397L2289.2 285.507L2288.12 288.73L2289.71 291.413L2291.36 292.982Z" fill="#FFF9E1"/>
<path d="M2276.87 275.191L2281.53 274.395L2281.98 268.176L2277.65 263.351L2275.11 259.695L2270.45 260.307L2268.49 263.136L2276.87 275.191Z" fill="#FFF9E1"/>
<path d="M2261 305.684L2261.92 307.466L2263.75 307.855L2269.14 307.926L2271.77 301.293L2265.5 296.856L2263.73 297.366L2261 305.684Z" fill="#FFF9E1"/>
<path d="M2305.99 321.882L2306.34 314.799L2301.41 310.358L2285.05 300.605L2265.27 316.294L2276.62 341.001L2282.94 342.574L2305.99 321.882Z" fill="#FFF9E1"/>
<path d="M2234.49 188.648H2230.85L2228.69 191.421L2224.11 200.491L2232.67 210.71L2245.06 203.937L2245.71 200.491L2234.49 188.648Z" fill="#FFF9E1"/>
<path d="M2234.56 168.276L2231.96 165.354L2228.3 165.518L2218.08 168.022L2216.35 181.85L2230.37 187.169L2233.47 185.337L2234.56 168.276Z" fill="#FFF9E1"/>
<path d="M1969.36 477.494L1919.83 470.25L1909.72 471.777L1906.13 485.434L1913.86 510.05L1924.8 533.274L1944.22 546.557L1980.18 541.337L1992.15 515.693L1981.53 492.013L1969.36 477.494Z" fill="#FFF9E1"/>
<path d="M2030.8 73.5382L2014.38 71.137L2011.03 71.643L2009.84 76.1698L2012.4 84.3288L2016.03 92.0263L2022.46 96.4291L2034.38 94.6989L2038.35 86.1992L2034.83 78.3504L2030.8 73.5382Z" fill="#FFF9E1"/>
<path d="M2031.82 62.0722L2031.67 53.7079L2031.15 52.0814L2028.8 51.8608L2024.95 53.8027L2021.41 56.2358L2019.75 59.7988L2021.59 65.587L2026.14 66.8663L2029.76 64.4723L2031.82 62.0722Z" fill="#FFF9E1"/>
<path d="M1904.69 178.621L1904.54 170.257L1904.01 168.63L1901.66 168.41L1897.81 170.351L1894.28 172.785L1892.62 176.348L1894.45 182.136L1899 183.415L1902.62 181.021L1904.69 178.621Z" fill="#FFF9E1"/>
<path d="M1852.49 333.444L1833.81 330.711L1830 331.287L1828.64 336.439L1831.56 345.725L1835.69 354.485L1843.01 359.496L1856.57 357.526L1861.09 347.853L1857.08 338.921L1852.49 333.444Z" fill="#FFF9E1"/>
<path d="M1881.87 252.792L1870.23 251.089L1867.85 251.447L1867.01 254.658L1868.82 260.445L1871.4 265.904L1875.96 269.026L1884.41 267.799L1887.23 261.771L1884.73 256.204L1881.87 252.792Z" fill="#FFF9E1"/>
<path d="M1854.02 284.204L1883.08 279.953L1889.02 280.849L1891.12 288.862L1886.59 303.305L1880.17 316.931L1868.77 324.725L1847.68 321.662L1840.65 306.616L1846.89 292.722L1854.02 284.204Z" fill="#FFF9E1"/>
<path d="M1939.47 99.0844L1968.53 94.8338L1974.46 95.7295L1976.56 103.743L1972.03 118.186L1965.61 131.812L1954.22 139.606L1933.12 136.543L1926.1 121.497L1932.33 107.603L1939.47 99.0844Z" fill="#FFF9E1"/>
<path d="M1925.8 141.767L1931.21 150.952L1931.72 153.069L1929.31 154.872L1923.84 155.325L1918.38 155.033L1914.2 152.27L1912.34 144.76L1916.44 140.34L1921.96 140.534L1925.8 141.767Z" fill="#FFF9E1"/>
<path d="M1920.12 429.144L1910.07 439.293L1919.9 455.319L1939 459.535L1951.65 464.036L1961.98 454.36L1961.82 443.984L1920.12 429.144Z" fill="#FFF9E1"/>
<path d="M1899.47 433.189L1886.91 426.382L1874.28 440.306L1875.57 459.816L1874.79 473.218L1886.97 480.437L1896.89 477.373L1899.47 433.189Z" fill="#FFF9E1"/>
<path d="M1887.71 225.217L1885.56 215.573L1872.55 215.297L1862.96 224.83L1855.6 230.505L1857.36 240.143L1863.47 243.929L1887.71 225.217Z" fill="#FFF9E1"/>
<path d="M2008.11 83.4571L2006.68 77.0262L1998.01 76.8424L1991.61 83.1987L1986.71 86.983L1987.88 93.4092L1991.95 95.9331L2008.11 83.4571Z" fill="#FFF9E1"/>
<path d="M1917.54 173.146L1920.88 172.05L1920.52 167.437L1916.81 164.371L1914.55 161.967L1911.2 162.927L1910.07 165.219L1917.54 173.146Z" fill="#FFF9E1"/>
<path d="M1893.51 167.869L1892.51 163.395L1886.48 163.267L1882.03 167.689L1878.62 170.321L1879.43 174.791L1882.26 176.547L1893.51 167.869Z" fill="#FFF9E1"/>
<path d="M1997.65 105.41L1993.8 100.064L1985.76 103.315L1982.39 111.679L1979.37 117.09L1982.99 122.533L1987.72 123.248L1997.65 105.41Z" fill="#FFF9E1"/>
<path d="M1852.49 333.444L1833.81 330.711L1830 331.287L1828.64 336.439L1831.56 345.725L1835.69 354.485L1843.01 359.496L1856.57 357.526L1861.09 347.853L1857.08 338.921L1852.49 333.444Z" fill="#FFF9E1"/>
<path d="M1870.61 364.584H1859.93L1853.62 372.298L1840.18 397.532L1865.28 425.963L1901.59 407.119L1903.48 397.532L1870.61 364.584Z" fill="#FFF9E1"/>
<path d="M1850.82 245.662H1845.96L1843.09 249.439L1836.99 261.793L1848.39 275.712L1864.9 266.487L1865.76 261.793L1850.82 245.662Z" fill="#FFF9E1"/>
<path d="M2188.47 77.3835L2193.49 59.1819L2195.55 55.9219L2200.81 56.759L2208.14 63.1665L2214.5 70.4699L2216.13 79.1933L2208.87 90.8156L2198.2 91.0546L2191.63 83.7897L2188.47 77.3835Z" fill="#FFF9E1"/>
<path d="M2102.83 71.7818L2105.96 60.4388L2107.25 58.4072L2110.53 58.9289L2115.09 62.9219L2119.06 67.4733L2120.07 72.9097L2115.55 80.1525L2108.9 80.3015L2104.81 75.7741L2102.83 71.7818Z" fill="#FFF9E1"/>
<path d="M2142.78 58.9536L2127.18 83.842L2125.62 89.6341L2132.1 94.7851L2147.15 96.4501L2162.21 96.0635L2173.93 88.7712L2179.62 68.2268L2168.68 55.7381L2153.45 55.8493L2142.78 58.9536Z" fill="#FFF9E1"/>
<path d="M2188.47 77.3835L2193.49 59.1819L2195.55 55.9219L2200.81 56.759L2208.14 63.1665L2214.5 70.4699L2216.13 79.1933L2208.87 90.8156L2198.2 91.0546L2191.63 83.7897L2188.47 77.3835Z" fill="#FFF9E1"/>
<path d="M2210.14 106.47L2214.37 96.8611L2223.85 94.2582L2252.01 92.2208L2267.81 126.118L2236.39 151.278L2226.96 149.158L2210.14 106.47Z" fill="#FFF9E1"/>
<path d="M2109.27 39.8606L2111.25 35.3458L2115.7 34.1204L2128.92 33.1556L2136.33 49.0748L2121.57 60.9026L2117.15 59.9094L2109.27 39.8606Z" fill="#FFF9E1"/>
<path d="M1882.76 182.361H1877.69L1874.69 186.379L1868.31 199.522L1880.23 214.329L1897.47 204.515L1898.36 199.522L1882.76 182.361Z" fill="#FFF9E1"/>
<path d="M2338.85 371.978L2339 363.614L2339.52 361.988L2341.87 361.767L2345.72 363.709L2349.25 366.142L2350.92 369.705L2349.08 375.493L2344.53 376.773L2340.91 374.379L2338.85 371.978Z" fill="#FFF9E1"/>
<path d="M2231.76 526.733L2244.57 540.601L2246.25 544.073L2242.77 548.1L2233.46 550.944L2223.9 552.492L2215.63 549.281L2209.59 536.979L2215.01 527.786L2224.65 526.043L2231.76 526.733Z" fill="#FFF9E1"/>
<path d="M2281.71 456.931L2289.7 465.573L2290.74 467.737L2288.57 470.247L2282.77 472.019L2276.82 472.984L2271.66 470.983L2267.89 463.316L2271.28 457.587L2277.28 456.501L2281.71 456.931Z" fill="#FFF9E1"/>
<path d="M2271.52 497.631L2258.6 471.256L2254.51 466.868L2246.71 469.663L2237.36 481.567L2229.75 494.562L2229.76 508.368L2244.21 524.04L2260.59 521.331L2268.53 508.335L2271.52 497.631Z" fill="#FFF9E1"/>
<path d="M2301.16 436.546L2310.33 432.864L2317.91 443.437L2315.47 456.744L2314.94 466.018L2306 470.012L2299.43 467.119L2301.16 436.546Z" fill="#FFF9E1"/>
<path d="M2231.76 526.733L2244.57 540.601L2246.25 544.073L2242.77 548.1L2233.46 550.944L2223.9 552.492L2215.63 549.281L2209.59 536.979L2215.01 527.786L2224.65 526.043L2231.76 526.733Z" fill="#FFF9E1"/>
<path d="M2305.43 479.236L2308.22 483.305L2306.91 487.731L2300.76 499.467L2283.33 497.363L2281.06 478.589L2284.24 475.356L2305.43 479.236Z" fill="#FFF9E1"/>
<path d="M2336.01 416.484L2338.8 420.553L2337.5 424.979L2331.34 436.715L2313.91 434.611L2311.65 415.838L2314.82 412.604L2336.01 416.484Z" fill="#FFF9E1"/>
<path d="M2051.58 103.369L2053.99 101.977L2054.4 99.4011L2054.12 91.9142L2044.73 88.7249L2039 97.7418L2039.83 100.167L2051.58 103.369Z" fill="#FFF9E1"/>
<path d="M1906.19 161.082L1908.6 159.69L1909.01 157.114L1908.74 149.627L1899.34 146.438L1893.61 155.455L1894.44 157.88L1906.19 161.082Z" fill="#FFF9E1"/>
<path d="M2346.27 194.399L2302.18 178.525L2284.04 184.761L2280.06 189.785L2292.37 205.102L2309.89 222.305L2330.25 229.594L2339.91 233.993L2350.06 231.37L2346.27 194.399Z" fill="#FFF9E1"/>
<path d="M2090.71 544.389L2046.62 528.516L2028.48 534.752L2024.51 539.775L2036.81 555.092L2054.34 572.295L2074.69 579.584L2084.35 583.984L2094.51 581.361L2090.71 544.389Z" fill="#FFF9E1"/>
<path d="M2338.19 400.072L2330.06 374.209L2320.83 368.042L2317.13 367.971L2314.38 379.001L2312.6 393.099L2316.37 405.023L2317.73 411.014L2322.5 414.771L2338.19 400.072Z" fill="#FFF9E1"/>
<path d="M2020.44 553.707L2012.3 527.844L2003.08 521.677L1999.37 521.605L1996.63 532.635L1994.85 546.733L1998.62 558.658L1999.98 564.649L2004.75 568.406L2020.44 553.707Z" fill="#FFF9E1"/>
<path d="M2070.19 40.4297H2060.37L2054.57 47.4202L2042.22 70.2891L2065.29 96.0541L2098.66 78.9773L2100.4 70.2891L2070.19 40.4297Z" fill="#FFF9E1"/>
<path d="M2148.47 552.429L2132.05 550.028L2128.7 550.534L2127.51 555.06L2130.07 563.219L2133.7 570.917L2140.14 575.32L2152.05 573.59L2156.02 565.09L2152.5 557.241L2148.47 552.429Z" fill="#FFF9E1"/>
<path d="M2149.5 540.961L2149.35 532.597L2148.83 530.97L2146.48 530.749L2142.63 532.691L2139.1 535.124L2137.43 538.687L2139.27 544.476L2143.82 545.755L2147.44 543.361L2149.5 540.961Z" fill="#FFF9E1"/>
<path d="M2125.77 562.35L2124.33 555.919L2115.66 555.735L2109.26 562.091L2104.36 565.876L2105.53 572.302L2109.6 574.826L2125.77 562.35Z" fill="#FFF9E1"/>
<path d="M2169.25 582.264L2171.66 580.871L2172.08 578.296L2171.8 570.809L2162.4 567.619L2156.67 576.636L2157.5 579.061L2169.25 582.264Z" fill="#FFF9E1"/>
<path d="M2189.42 519.309H2179.49L2173.63 526.46L2161.14 549.854L2184.46 576.212L2218.21 558.742L2219.96 549.854L2189.42 519.309Z" fill="#FFF9E1"/>
<path d="M2352.64 286.903L2355.86 270.628L2355.52 267.255L2351.06 265.842L2342.78 267.991L2334.91 271.225L2330.19 277.434L2331.32 289.423L2339.61 293.813L2347.63 290.69L2352.64 286.903Z" fill="#FFF9E1"/>
<path d="M2364.02 288.5L2372.39 288.772L2374.04 288.328L2374.38 285.992L2372.63 282.05L2370.38 278.399L2366.9 276.558L2361.03 278.101L2359.52 282.585L2361.73 286.318L2364.02 288.5Z" fill="#FFF9E1"/>
<path d="M2343.86 263.752L2350.36 262.645L2350.98 253.993L2344.95 247.282L2341.41 242.196L2334.94 243.047L2332.21 246.983L2343.86 263.752Z" fill="#FFF9E1"/>
<path d="M2321.8 306.169L2323.07 308.648L2325.62 309.189L2333.11 309.288L2336.77 300.062L2328.05 293.889L2325.59 294.598L2321.8 306.169Z" fill="#FFF9E1"/>
<path d="M2384.37 328.701L2384.87 318.849L2378.01 312.671L2355.24 299.103L2327.73 320.929L2343.52 355.298L2352.31 357.486L2384.37 328.701Z" fill="#FFF9E1"/>
<path d="M2284.92 143.363H2279.84L2276.85 147.22L2270.47 159.837L2282.39 174.053L2299.62 164.631L2300.52 159.837L2284.92 143.363Z" fill="#FFF9E1"/>
<path d="M2285.01 115.024L2281.4 110.959L2276.31 111.186L2262.09 114.67L2259.68 133.906L2279.19 141.305L2283.5 138.757L2285.01 115.024Z" fill="#FFF9E1"/>
</svg>
