<svg width="695" height="667" viewBox="0 0 695 667" fill="none" xmlns="http://www.w3.org/2000/svg">
<path d="M287.052 409.605L264.667 406.331L260.096 407.021L258.477 413.193L261.97 424.319L266.912 434.815L275.69 440.818L291.941 438.459L297.352 426.869L292.55 416.167L287.052 409.605Z" fill="#FFF9E1"/>
<path d="M314.819 227.032L307.4 225.947L305.885 226.175L305.348 228.221L306.506 231.909L308.144 235.388L311.053 237.378L316.44 236.596L318.233 232.754L316.642 229.207L314.819 227.032Z" fill="#FFF9E1"/>
<path d="M315.282 221.852L315.215 218.071L314.978 217.336L313.916 217.237L312.176 218.114L310.579 219.214L309.827 220.824L310.656 223.44L312.714 224.018L314.349 222.937L315.282 221.852Z" fill="#FFF9E1"/>
<path d="M257.823 274.528L257.756 270.747L257.518 270.012L256.456 269.912L254.716 270.79L253.119 271.89L252.367 273.5L253.197 276.116L255.255 276.694L256.89 275.612L257.823 274.528Z" fill="#FFF9E1"/>
<path d="M234.234 344.502L225.79 343.267L224.066 343.527L223.455 345.855L224.773 350.052L226.637 354.011L229.948 356.276L236.078 355.386L238.12 351.014L236.308 346.977L234.234 344.502Z" fill="#FFF9E1"/>
<path d="M247.511 308.051L242.249 307.281L241.174 307.443L240.794 308.894L241.615 311.509L242.776 313.977L244.84 315.388L248.66 314.833L249.932 312.109L248.803 309.593L247.511 308.051Z" fill="#FFF9E1"/>
<path d="M234.926 322.242L248.06 320.321L250.742 320.725L251.692 324.347L249.643 330.875L246.743 337.033L241.592 340.556L232.057 339.171L228.882 332.371L231.7 326.092L234.926 322.242Z" fill="#FFF9E1"/>
<path d="M273.543 238.58L286.677 236.658L289.358 237.063L290.309 240.685L288.259 247.213L285.359 253.371L280.209 256.894L270.674 255.509L267.499 248.709L270.316 242.43L273.543 238.58Z" fill="#FFF9E1"/>
<path d="M267.366 257.87L269.809 262.021L270.04 262.978L268.953 263.793L266.479 263.997L264.012 263.865L262.123 262.617L261.284 259.223L263.135 257.225L265.631 257.313L267.366 257.87Z" fill="#FFF9E1"/>
<path d="M264.797 387.753L260.256 392.339L264.701 399.583L273.33 401.488L279.046 403.523L283.719 399.149L283.643 394.46L264.797 387.753Z" fill="#FFF9E1"/>
<path d="M255.464 389.583L249.79 386.507L244.079 392.8L244.664 401.617L244.31 407.674L249.816 410.937L254.297 409.552L255.464 389.583Z" fill="#FFF9E1"/>
<path d="M250.148 295.588L249.178 291.229L243.3 291.105L238.962 295.413L235.639 297.978L236.435 302.334L239.192 304.045L250.148 295.588Z" fill="#FFF9E1"/>
<path d="M304.567 231.517L303.921 228.61L300.001 228.527L297.108 231.4L294.893 233.11L295.424 236.014L297.262 237.155L304.567 231.517Z" fill="#FFF9E1"/>
<path d="M263.631 272.054L265.141 271.559L264.979 269.474L263.303 268.088L262.279 267.001L260.765 267.435L260.255 268.471L263.631 272.054Z" fill="#FFF9E1"/>
<path d="M252.77 269.668L252.32 267.646L249.594 267.589L247.581 269.587L246.04 270.777L246.409 272.797L247.688 273.59L252.77 269.668Z" fill="#FFF9E1"/>
<path d="M299.84 241.438L298.1 239.022L294.465 240.491L292.939 244.272L291.577 246.717L293.21 249.177L295.35 249.5L299.84 241.438Z" fill="#FFF9E1"/>
<path d="M234.234 344.502L225.79 343.267L224.066 343.527L223.455 345.855L224.773 350.052L226.637 354.011L229.948 356.276L236.078 355.386L238.12 351.014L236.308 346.977L234.234 344.502Z" fill="#FFF9E1"/>
<path d="M242.42 358.572H237.592L234.741 362.059L228.668 373.464L240.011 386.313L256.423 377.796L257.276 373.464L242.42 358.572Z" fill="#FFF9E1"/>
<path d="M233.475 304.824H231.281L229.985 306.531L227.225 312.115L232.38 318.406L239.84 314.236L240.228 312.115L233.475 304.824Z" fill="#FFF9E1"/>
<path d="M386.081 228.772L388.35 220.546L389.283 219.072L391.66 219.451L394.971 222.347L397.844 225.647L398.584 229.59L395.301 234.843L390.477 234.951L387.511 231.667L386.081 228.772Z" fill="#FFF9E1"/>
<path d="M347.378 226.237L348.792 221.111L349.373 220.193L350.855 220.428L352.918 222.233L354.709 224.29L355.17 226.747L353.124 230.021L350.118 230.088L348.269 228.042L347.378 226.237Z" fill="#FFF9E1"/>
<path d="M365.43 220.441L358.383 231.69L357.673 234.308L360.606 236.636L367.406 237.388L374.211 237.214L379.509 233.918L382.081 224.633L377.135 218.988L370.253 219.038L365.43 220.441Z" fill="#FFF9E1"/>
<path d="M386.081 228.772L388.35 220.546L389.283 219.072L391.66 219.451L394.971 222.347L397.844 225.647L398.584 229.59L395.301 234.843L390.477 234.951L387.511 231.667L386.081 228.772Z" fill="#FFF9E1"/>
<path d="M395.875 241.917L397.786 237.574L402.07 236.398L414.798 235.477L421.942 250.797L407.738 262.169L403.478 261.211L395.875 241.917Z" fill="#FFF9E1"/>
<path d="M350.284 211.812L351.182 209.772L353.193 209.218L359.166 208.782L362.514 215.977L355.845 221.323L353.847 220.874L350.284 211.812Z" fill="#FFF9E1"/>
<path d="M247.911 276.219H245.619L244.266 278.035L241.383 283.975L246.768 290.667L254.559 286.231L254.964 283.975L247.911 276.219Z" fill="#FFF9E1"/>
<path d="M454.045 361.916L454.112 358.136L454.35 357.401L455.412 357.301L457.152 358.179L458.749 359.278L459.501 360.889L458.671 363.505L456.613 364.083L454.978 363.001L454.045 361.916Z" fill="#FFF9E1"/>
<path d="M405.645 431.86L411.437 438.128L412.197 439.697L410.621 441.517L406.415 442.802L402.095 443.502L398.355 442.051L395.624 436.491L398.077 432.336L402.431 431.548L405.645 431.86Z" fill="#FFF9E1"/>
<path d="M428.222 400.314L431.831 404.219L432.305 405.198L431.323 406.332L428.701 407.133L426.009 407.569L423.679 406.664L421.977 403.199L423.505 400.61L426.219 400.119L428.222 400.314Z" fill="#FFF9E1"/>
<path d="M423.618 418.707L417.779 406.787L415.929 404.803L412.405 406.067L408.178 411.447L404.737 417.32L404.742 423.56L411.274 430.643L418.678 429.418L422.266 423.545L423.618 418.707Z" fill="#FFF9E1"/>
<path d="M437.012 391.098L441.156 389.434L444.582 394.213L443.48 400.227L443.242 404.418L439.199 406.223L436.229 404.916L437.012 391.098Z" fill="#FFF9E1"/>
<path d="M405.645 431.86L411.437 438.128L412.197 439.697L410.621 441.517L406.415 442.802L402.095 443.502L398.355 442.051L395.624 436.491L398.077 432.336L402.431 431.548L405.645 431.86Z" fill="#FFF9E1"/>
<path d="M438.941 410.391L440.201 412.23L439.611 414.23L436.831 419.534L428.952 418.583L427.928 410.098L429.364 408.637L438.941 410.391Z" fill="#FFF9E1"/>
<path d="M452.765 382.031L454.025 383.87L453.435 385.871L450.654 391.175L442.776 390.224L441.752 381.739L443.188 380.278L452.765 382.031Z" fill="#FFF9E1"/>
<path d="M324.21 240.518L325.301 239.888L325.487 238.724L325.362 235.34L321.115 233.899L318.526 237.974L318.902 239.07L324.21 240.518Z" fill="#FFF9E1"/>
<path d="M258.502 266.598L259.592 265.968L259.779 264.804L259.653 261.42L255.406 259.979L252.817 264.054L253.193 265.15L258.502 266.598Z" fill="#FFF9E1"/>
<path d="M457.4 281.657L437.473 274.483L429.276 277.302L427.478 279.572L433.038 286.495L440.96 294.27L450.158 297.564L454.526 299.552L459.115 298.367L457.4 281.657Z" fill="#FFF9E1"/>
<path d="M341.898 439.837L321.971 432.663L313.774 435.481L311.976 437.752L317.536 444.674L325.458 452.449L334.656 455.744L339.024 457.732L343.613 456.547L341.898 439.837Z" fill="#FFF9E1"/>
<path d="M453.75 374.613L450.073 362.924L445.904 360.137L444.228 360.104L442.988 365.089L442.183 371.461L443.889 376.85L444.503 379.558L446.657 381.256L453.75 374.613Z" fill="#FFF9E1"/>
<path d="M310.139 444.048L306.461 432.359L302.292 429.572L300.617 429.54L299.377 434.525L298.572 440.896L300.277 446.286L300.892 448.994L303.046 450.692L310.139 444.048Z" fill="#FFF9E1"/>
<path d="M332.622 212.068H328.184L325.564 215.228L319.981 225.564L330.407 237.208L345.493 229.49L346.277 225.564L332.622 212.068Z" fill="#FFF9E1"/>
<path d="M368.003 443.471L360.583 442.386L359.068 442.615L358.531 444.661L359.689 448.348L361.327 451.827L364.237 453.817L369.623 453.035L371.417 449.194L369.825 445.646L368.003 443.471Z" fill="#FFF9E1"/>
<path d="M368.469 438.289L368.402 434.509L368.165 433.774L367.103 433.674L365.363 434.552L363.766 435.651L363.014 437.262L363.843 439.878L365.901 440.456L367.536 439.374L368.469 438.289Z" fill="#FFF9E1"/>
<path d="M357.742 447.954L357.095 445.048L353.175 444.965L350.283 447.837L348.067 449.548L348.598 452.452L350.436 453.593L357.742 447.954Z" fill="#FFF9E1"/>
<path d="M377.395 456.955L378.485 456.326L378.671 455.162L378.546 451.778L374.299 450.336L371.71 454.412L372.086 455.508L377.395 456.955Z" fill="#FFF9E1"/>
<path d="M386.509 428.502H382.023L379.373 431.734L373.729 442.307L384.27 454.22L399.521 446.324L400.314 442.307L386.509 428.502Z" fill="#FFF9E1"/>
<path d="M460.279 323.468L461.735 316.113L461.582 314.588L459.566 313.949L455.825 314.921L452.268 316.382L450.135 319.188L450.646 324.607L454.392 326.591L458.015 325.18L460.279 323.468Z" fill="#FFF9E1"/>
<path d="M465.425 324.188L469.204 324.311L469.95 324.111L470.103 323.055L469.313 321.273L468.295 319.623L466.725 318.791L464.07 319.489L463.39 321.515L464.388 323.202L465.425 324.188Z" fill="#FFF9E1"/>
<path d="M456.312 312.999L459.248 312.499L459.527 308.589L456.803 305.555L455.206 303.257L452.279 303.641L451.047 305.42L456.312 312.999Z" fill="#FFF9E1"/>
<path d="M446.341 332.172L446.915 333.292L448.068 333.537L451.454 333.582L453.106 329.412L449.166 326.622L448.052 326.942L446.341 332.172Z" fill="#FFF9E1"/>
<path d="M474.621 342.356L474.845 337.903L471.746 335.111L461.457 328.979L449.023 338.843L456.156 354.377L460.132 355.365L474.621 342.356Z" fill="#FFF9E1"/>
<path d="M429.714 245.78L428.081 243.943L425.78 244.046L419.355 245.62L418.266 254.314L427.081 257.658L429.03 256.506L429.714 245.78Z" fill="#FFF9E1"/>
<path d="M429.187 259.186H426.895L425.542 260.929L422.659 266.631L428.044 273.056L435.835 268.798L436.24 266.631L429.187 259.186Z" fill="#FFF9E1"/>
</svg>
