<svg width="695" height="667" viewBox="0 0 695 667" fill="none" xmlns="http://www.w3.org/2000/svg">
<path d="M215.241 501.064L166.42 493.923L156.451 495.428L152.919 508.89L160.537 533.155L171.316 556.047L190.461 569.141L225.904 563.995L237.706 538.717L227.234 515.375L215.241 501.064Z" fill="#FFF9E1"/>
<path d="M275.801 102.873L259.619 100.506L256.315 101.005L255.144 105.467L257.669 113.509L261.242 121.097L267.588 125.437L279.335 123.731L283.247 115.353L279.776 107.616L275.801 102.873Z" fill="#FFF9E1"/>
<path d="M276.811 91.5731L276.665 83.3281L276.147 81.7249L273.831 81.5074L270.036 83.4216L266.553 85.82L264.913 89.3321L266.722 95.0377L271.211 96.2987L274.776 93.9389L276.811 91.5731Z" fill="#FFF9E1"/>
<path d="M151.491 206.458L151.345 198.213L150.827 196.61L148.511 196.392L144.716 198.306L141.233 200.705L139.593 204.217L141.402 209.922L145.891 211.183L149.456 208.824L151.491 206.458Z" fill="#FFF9E1"/>
<path d="M100.044 359.073L81.6284 356.379L77.868 356.947L76.5356 362.025L79.4093 371.178L83.4756 379.813L90.697 384.752L104.067 382.811L108.519 373.276L104.568 364.471L100.044 359.073Z" fill="#FFF9E1"/>
<path d="M129.001 279.572L117.524 277.893L115.181 278.247L114.351 281.412L116.141 287.116L118.675 292.497L123.176 295.575L131.508 294.366L134.282 288.423L131.82 282.936L129.001 279.572Z" fill="#FFF9E1"/>
<path d="M101.553 310.523L130.198 306.333L136.047 307.216L138.12 315.115L133.65 329.352L127.325 342.783L116.092 350.466L95.2966 347.447L88.372 332.615L94.5164 318.92L101.553 310.523Z" fill="#FFF9E1"/>
<path d="M185.777 128.055L214.422 123.865L220.271 124.748L222.344 132.647L217.874 146.884L211.549 160.316L200.317 167.998L179.521 164.979L172.596 150.148L178.74 136.452L185.777 128.055Z" fill="#FFF9E1"/>
<path d="M172.306 170.128L177.634 179.182L178.138 181.268L175.767 183.046L170.37 183.492L164.991 183.204L160.872 180.48L159.041 173.078L163.078 168.721L168.521 168.912L172.306 170.128Z" fill="#FFF9E1"/>
<path d="M166.704 453.404L156.8 463.408L166.493 479.205L185.313 483.361L197.78 487.798L207.971 478.26L207.805 468.032L166.704 453.404Z" fill="#FFF9E1"/>
<path d="M146.347 457.396L133.973 450.686L121.517 464.411L122.792 483.642L122.02 496.853L134.028 503.969L143.802 500.948L146.347 457.396Z" fill="#FFF9E1"/>
<path d="M134.753 252.392L132.638 242.885L119.818 242.613L110.356 252.01L103.108 257.604L104.844 267.105L110.858 270.836L134.753 252.392Z" fill="#FFF9E1"/>
<path d="M253.442 112.65L252.032 106.311L243.483 106.13L237.174 112.396L232.342 116.126L233.5 122.461L237.51 124.948L253.442 112.65Z" fill="#FFF9E1"/>
<path d="M164.16 201.066L167.452 199.986L167.101 195.438L163.444 192.417L161.211 190.046L157.908 190.992L156.798 193.252L164.16 201.066Z" fill="#FFF9E1"/>
<path d="M140.471 195.859L139.49 191.45L133.544 191.324L129.155 195.682L125.794 198.277L126.599 202.683L129.389 204.414L140.471 195.859Z" fill="#FFF9E1"/>
<path d="M243.132 134.292L239.337 129.023L231.409 132.227L228.082 140.472L225.111 145.805L228.673 151.17L233.339 151.876L243.132 134.292Z" fill="#FFF9E1"/>
<path d="M100.044 359.073L81.6284 356.379L77.868 356.947L76.5356 362.025L79.4093 371.178L83.4756 379.813L90.697 384.752L104.067 382.811L108.519 373.276L104.568 364.471L100.044 359.073Z" fill="#FFF9E1"/>
<path d="M117.899 389.764H107.37L101.151 397.367L87.9065 422.242L112.645 450.266L148.439 431.692L150.3 422.242L117.899 389.764Z" fill="#FFF9E1"/>
<path d="M98.3898 272.539H93.6038L90.7772 276.262L84.7568 288.44L96.0015 302.16L112.272 293.066L113.117 288.44L98.3898 272.539Z" fill="#FFF9E1"/>
<path d="M431.224 106.666L436.173 88.7247L438.207 85.5112L443.392 86.3364L450.613 92.6523L456.88 99.8515L458.493 108.45L451.333 119.907L440.812 120.142L434.343 112.981L431.224 106.666Z" fill="#FFF9E1"/>
<path d="M346.812 101.138L349.896 89.957L351.164 87.9544L354.395 88.4687L358.895 92.4047L362.8 96.8911L363.806 102.25L359.344 109.389L352.787 109.536L348.756 105.073L346.812 101.138Z" fill="#FFF9E1"/>
<path d="M386.184 88.4942L370.814 113.027L369.267 118.737L375.663 123.814L390.495 125.456L405.336 125.074L416.891 117.886L422.501 97.6351L411.714 85.3247L396.703 85.4342L386.184 88.4942Z" fill="#FFF9E1"/>
<path d="M431.224 106.666L436.173 88.7247L438.207 85.5112L443.392 86.3364L450.613 92.6523L456.88 99.8515L458.493 108.45L451.333 119.907L440.812 120.142L434.343 112.981L431.224 106.666Z" fill="#FFF9E1"/>
<path d="M452.585 135.333L456.752 125.861L466.096 123.296L493.856 121.287L509.437 154.701L478.458 179.502L469.166 177.412L452.585 135.333Z" fill="#FFF9E1"/>
<path d="M353.151 69.677L355.109 65.2266L359.495 64.0188L372.522 63.0678L379.824 78.7597L365.28 90.4187L360.921 89.4397L353.151 69.677Z" fill="#FFF9E1"/>
<path d="M129.875 210.146H124.876L121.924 214.107L115.636 227.062L127.381 241.658L144.374 231.984L145.257 227.062L129.875 210.146Z" fill="#FFF9E1"/>
<path d="M579.455 397.054L579.601 388.809L580.119 387.205L582.435 386.988L586.23 388.902L589.713 391.3L591.353 394.813L589.544 400.518L585.055 401.779L581.49 399.419L579.455 397.054Z" fill="#FFF9E1"/>
<path d="M473.894 549.601L486.526 563.271L488.183 566.694L484.747 570.663L475.572 573.466L466.15 574.993L457.994 571.827L452.038 559.701L457.387 550.639L466.884 548.921L473.894 549.601Z" fill="#FFF9E1"/>
<path d="M523.134 480.798L531.005 489.316L532.038 491.449L529.897 493.923L524.179 495.67L518.308 496.621L513.225 494.648L509.513 487.092L512.847 481.444L518.765 480.373L523.134 480.798Z" fill="#FFF9E1"/>
<path d="M513.093 520.916L500.358 494.917L496.324 490.591L488.636 493.346L479.418 505.081L471.913 517.89L471.925 531.499L486.17 546.947L502.319 544.277L510.143 531.467L513.093 520.916Z" fill="#FFF9E1"/>
<path d="M542.305 460.701L551.344 457.071L558.814 467.494L556.411 480.611L555.893 489.752L547.074 493.689L540.597 490.837L542.305 460.701Z" fill="#FFF9E1"/>
<path d="M473.894 549.601L486.526 563.271L488.183 566.694L484.747 570.663L475.572 573.466L466.15 574.993L457.994 571.827L452.038 559.701L457.387 550.639L466.884 548.921L473.894 549.601Z" fill="#FFF9E1"/>
<path d="M546.512 502.779L549.26 506.79L547.973 511.153L541.909 522.722L524.726 520.648L522.493 502.142L525.624 498.955L546.512 502.779Z" fill="#FFF9E1"/>
<path d="M576.662 440.925L579.41 444.936L578.123 449.298L572.059 460.867L554.875 458.794L552.643 440.288L555.774 437.1L576.662 440.925Z" fill="#FFF9E1"/>
<path d="M296.284 132.282L298.662 130.909L299.068 128.37L298.796 120.99L289.532 117.846L283.886 126.734L284.706 129.125L296.284 132.282Z" fill="#FFF9E1"/>
<path d="M152.973 189.165L155.351 187.793L155.757 185.254L155.484 177.874L146.221 174.73L140.575 183.618L141.394 186.008L152.973 189.165Z" fill="#FFF9E1"/>
<path d="M586.772 222.011L543.31 206.364L525.433 212.511L521.512 217.463L533.637 232.561L550.916 249.518L570.977 256.704L580.503 261.04L590.513 258.454L586.772 222.011Z" fill="#FFF9E1"/>
<path d="M334.861 567.002L291.399 551.355L273.522 557.502L269.601 562.454L281.726 577.552L299.005 594.51L319.066 601.695L328.591 606.031L338.602 603.446L334.861 567.002Z" fill="#FFF9E1"/>
<path d="M578.811 424.746L570.791 399.252L561.698 393.174L558.044 393.103L555.339 403.975L553.584 417.872L557.303 429.627L558.643 435.532L563.341 439.235L578.811 424.746Z" fill="#FFF9E1"/>
<path d="M265.594 576.187L257.574 550.693L248.48 544.614L244.827 544.543L242.122 555.416L240.367 569.313L244.086 581.067L245.426 586.972L250.123 590.676L265.594 576.187Z" fill="#FFF9E1"/>
<path d="M314.629 70.2344H304.951L299.235 77.1251L287.06 99.6676L309.799 125.065L342.701 108.232L344.411 99.6676L314.629 70.2344Z" fill="#FFF9E1"/>
<path d="M391.795 574.928L375.613 572.561L372.309 573.06L371.138 577.522L373.663 585.565L377.236 593.153L383.581 597.493L395.329 595.787L399.241 587.409L395.77 579.672L391.795 574.928Z" fill="#FFF9E1"/>
<path d="M392.813 563.625L392.667 555.38L392.149 553.777L389.833 553.559L386.038 555.473L382.555 557.872L380.915 561.384L382.724 567.089L387.213 568.35L390.778 565.991L392.813 563.625Z" fill="#FFF9E1"/>
<path d="M369.415 584.703L368.004 578.364L359.456 578.183L353.147 584.448L348.314 588.179L349.472 594.513L353.482 597.001L369.415 584.703Z" fill="#FFF9E1"/>
<path d="M412.279 604.334L414.657 602.961L415.064 600.423L414.791 593.043L405.527 589.899L399.881 598.787L400.701 601.177L412.279 604.334Z" fill="#FFF9E1"/>
<path d="M432.157 542.28H422.373L416.594 549.329L404.286 572.39L427.275 598.371L460.538 581.151L462.267 572.39L432.157 542.28Z" fill="#FFF9E1"/>
<path d="M593.049 313.201L596.225 297.158L595.892 293.833L591.494 292.44L583.335 294.559L575.578 297.746L570.925 303.866L572.04 315.685L580.211 320.012L588.112 316.933L593.049 313.201Z" fill="#FFF9E1"/>
<path d="M604.273 314.771L612.515 315.039L614.143 314.602L614.476 312.3L612.754 308.413L610.534 304.814L607.108 303L601.319 304.521L599.835 308.941L602.013 312.62L604.273 314.771Z" fill="#FFF9E1"/>
<path d="M584.399 290.367L590.8 289.276L591.41 280.747L585.469 274.132L581.986 269.119L575.601 269.957L572.915 273.838L584.399 290.367Z" fill="#FFF9E1"/>
<path d="M562.65 332.182L563.902 334.626L566.418 335.159L573.802 335.257L577.406 326.162L568.812 320.078L566.384 320.776L562.65 332.182Z" fill="#FFF9E1"/>
<path d="M624.33 354.393L624.817 344.682L618.058 338.592L595.618 325.218L568.5 346.732L584.057 380.611L592.729 382.767L624.33 354.393Z" fill="#FFF9E1"/>
<path d="M526.387 143.763L522.826 139.756L517.808 139.98L503.794 143.414L501.419 162.376L520.645 169.669L524.897 167.157L526.387 143.763Z" fill="#FFF9E1"/>
<path d="M525.239 173H520.24L517.288 176.802L511 189.239L522.744 203.251L539.738 193.964L540.621 189.239L525.239 173Z" fill="#FFF9E1"/>
</svg>
