<svg width="695" height="667" viewBox="0 0 695 667" fill="none" xmlns="http://www.w3.org/2000/svg">
<path d="M255.162 450.217L221.056 445.228L214.092 446.279L211.624 455.684L216.946 472.635L224.477 488.627L237.851 497.774L262.611 494.179L270.855 476.521L263.54 460.214L255.162 450.217Z" fill="#FFF9E1"/>
<path d="M297.468 172.045L286.164 170.392L283.856 170.74L283.038 173.857L284.802 179.476L287.298 184.776L291.731 187.808L299.937 186.617L302.67 180.764L300.245 175.359L297.468 172.045Z" fill="#FFF9E1"/>
<path d="M298.174 164.152L298.072 158.393L297.71 157.273L296.092 157.121L293.441 158.458L291.008 160.133L289.862 162.587L291.126 166.573L294.262 167.454L296.753 165.805L298.174 164.152Z" fill="#FFF9E1"/>
<path d="M210.627 244.409L210.525 238.65L210.163 237.53L208.545 237.378L205.894 238.715L203.461 240.39L202.315 242.844L203.579 246.83L206.715 247.711L209.206 246.062L210.627 244.409Z" fill="#FFF9E1"/>
<path d="M174.687 351.024L161.822 349.143L159.195 349.539L158.264 353.087L160.272 359.481L163.112 365.513L168.157 368.964L177.497 367.608L180.607 360.947L177.848 354.796L174.687 351.024Z" fill="#FFF9E1"/>
<path d="M194.916 295.486L186.899 294.313L185.262 294.561L184.682 296.771L185.933 300.756L187.703 304.515L190.847 306.666L196.667 305.821L198.605 301.67L196.886 297.836L194.916 295.486Z" fill="#FFF9E1"/>
<path d="M175.741 317.108L195.752 314.181L199.838 314.797L201.286 320.315L198.163 330.261L193.745 339.644L185.898 345.011L171.37 342.902L166.533 332.541L170.825 322.974L175.741 317.108Z" fill="#FFF9E1"/>
<path d="M234.579 189.638L254.59 186.711L258.676 187.328L260.123 192.846L257.001 202.791L252.582 212.174L244.736 217.541L230.208 215.432L225.37 205.071L229.663 195.504L234.579 189.638Z" fill="#FFF9E1"/>
<path d="M225.168 219.029L228.89 225.354L229.242 226.812L227.586 228.054L223.816 228.365L220.058 228.164L217.18 226.261L215.901 221.09L218.721 218.047L222.524 218.18L225.168 219.029Z" fill="#FFF9E1"/>
<path d="M221.255 416.922L214.336 423.911L221.107 434.947L234.255 437.85L242.964 440.949L250.084 434.286L249.968 427.141L221.255 416.922Z" fill="#FFF9E1"/>
<path d="M207.034 419.711L198.389 415.023L189.688 424.612L190.579 438.046L190.039 447.275L198.428 452.246L205.255 450.136L207.034 419.711Z" fill="#FFF9E1"/>
<path d="M198.935 276.498L197.457 269.857L188.501 269.667L181.891 276.232L176.828 280.14L178.041 286.777L182.242 289.383L198.935 276.498Z" fill="#FFF9E1"/>
<path d="M281.848 178.877L280.863 174.449L274.891 174.322L270.484 178.699L267.108 181.305L267.917 185.73L270.718 187.468L281.848 178.877Z" fill="#FFF9E1"/>
<path d="M219.478 240.643L221.777 239.888L221.532 236.711L218.978 234.6L217.418 232.944L215.111 233.605L214.334 235.184L219.478 240.643Z" fill="#FFF9E1"/>
<path d="M202.929 237.005L202.243 233.925L198.089 233.837L195.024 236.881L192.675 238.694L193.238 241.772L195.186 242.981L202.929 237.005Z" fill="#FFF9E1"/>
<path d="M274.646 193.996L271.995 190.315L266.457 192.553L264.132 198.313L262.057 202.039L264.545 205.787L267.805 206.279L274.646 193.996Z" fill="#FFF9E1"/>
<path d="M174.687 351.024L161.822 349.143L159.195 349.539L158.264 353.087L160.272 359.481L163.112 365.513L168.157 368.964L177.497 367.608L180.607 360.947L177.848 354.796L174.687 351.024Z" fill="#FFF9E1"/>
<path d="M187.16 372.464H179.805L175.46 377.776L166.208 395.153L183.49 414.73L208.495 401.754L209.795 395.153L187.16 372.464Z" fill="#FFF9E1"/>
<path d="M173.531 290.572H170.188L168.213 293.173L164.008 301.68L171.863 311.265L183.229 304.912L183.82 301.68L173.531 290.572Z" fill="#FFF9E1"/>
<path d="M406.044 174.696L409.502 162.162L410.923 159.917L414.545 160.494L419.589 164.906L423.967 169.935L425.094 175.942L420.092 183.945L412.743 184.11L408.224 179.107L406.044 174.696Z" fill="#FFF9E1"/>
<path d="M347.076 170.834L349.23 163.023L350.116 161.624L352.373 161.983L355.517 164.733L358.245 167.867L358.947 171.611L355.83 176.598L351.25 176.701L348.434 173.583L347.076 170.834Z" fill="#FFF9E1"/>
<path d="M374.58 162.002L363.843 179.141L362.762 183.129L367.23 186.676L377.592 187.823L387.96 187.557L396.032 182.535L399.951 168.388L392.415 159.788L381.929 159.865L374.58 162.002Z" fill="#FFF9E1"/>
<path d="M406.044 174.696L409.502 162.162L410.923 159.917L414.545 160.494L419.589 164.906L423.967 169.935L425.094 175.942L420.092 183.945L412.743 184.11L408.224 179.107L406.044 174.696Z" fill="#FFF9E1"/>
<path d="M420.968 194.723L423.878 188.107L430.406 186.314L449.799 184.911L460.684 208.254L439.042 225.579L432.551 224.12L420.968 194.723Z" fill="#FFF9E1"/>
<path d="M351.504 148.856L352.872 145.747L355.935 144.903L365.036 144.239L370.137 155.201L359.977 163.346L356.932 162.662L351.504 148.856Z" fill="#FFF9E1"/>
<path d="M195.526 246.986H192.034L189.972 249.753L185.579 258.803L193.784 269L205.655 262.242L206.272 258.803L195.526 246.986Z" fill="#FFF9E1"/>
<path d="M509.597 377.557L509.699 371.797L510.061 370.677L511.679 370.525L514.33 371.862L516.764 373.538L517.909 375.991L516.645 379.977L513.51 380.858L511.019 379.21L509.597 377.557Z" fill="#FFF9E1"/>
<path d="M435.853 484.125L444.678 493.674L445.835 496.065L443.435 498.838L437.026 500.796L430.444 501.863L424.746 499.652L420.585 491.18L424.322 484.85L430.956 483.649L435.853 484.125Z" fill="#FFF9E1"/>
<path d="M470.252 436.06L475.751 442.011L476.472 443.501L474.977 445.229L470.982 446.449L466.88 447.114L463.33 445.736L460.737 440.456L463.066 436.511L467.2 435.763L470.252 436.06Z" fill="#FFF9E1"/>
<path d="M463.238 464.085L454.341 445.923L451.523 442.9L446.152 444.825L439.713 453.023L434.47 461.971L434.478 471.478L444.429 482.27L455.711 480.404L461.177 471.456L463.238 464.085Z" fill="#FFF9E1"/>
<path d="M483.645 422.02L489.959 419.485L495.178 426.766L493.499 435.929L493.137 442.315L486.976 445.065L482.451 443.073L483.645 422.02Z" fill="#FFF9E1"/>
<path d="M435.853 484.125L444.678 493.674L445.835 496.065L443.435 498.838L437.026 500.796L430.444 501.863L424.746 499.652L420.585 491.18L424.322 484.85L430.956 483.649L435.853 484.125Z" fill="#FFF9E1"/>
<path d="M486.584 451.415L488.503 454.217L487.604 457.265L483.368 465.347L471.364 463.898L469.804 450.97L471.992 448.744L486.584 451.415Z" fill="#FFF9E1"/>
<path d="M507.646 408.205L509.565 411.007L508.666 414.055L504.43 422.137L492.426 420.688L490.866 407.76L493.054 405.534L507.646 408.205Z" fill="#FFF9E1"/>
<path d="M311.778 192.591L313.439 191.632L313.723 189.859L313.532 184.703L307.061 182.507L303.116 188.716L303.689 190.386L311.778 192.591Z" fill="#FFF9E1"/>
<path d="M211.662 232.328L213.324 231.369L213.608 229.596L213.417 224.44L206.945 222.244L203.001 228.453L203.574 230.123L211.662 232.328Z" fill="#FFF9E1"/>
<path d="M514.708 255.275L484.347 244.344L471.858 248.638L469.119 252.097L477.589 262.645L489.66 274.491L503.675 279.511L510.329 282.54L517.322 280.734L514.708 255.275Z" fill="#FFF9E1"/>
<path d="M338.727 496.281L308.365 485.35L295.876 489.644L293.137 493.103L301.608 503.651L313.679 515.497L327.693 520.516L334.347 523.546L341.34 521.74L338.727 496.281Z" fill="#FFF9E1"/>
<path d="M509.147 396.903L503.544 379.093L497.192 374.847L494.639 374.797L492.75 382.393L491.524 392.101L494.122 400.312L495.058 404.438L498.339 407.025L509.147 396.903Z" fill="#FFF9E1"/>
<path d="M290.338 502.697L284.735 484.887L278.383 480.641L275.83 480.591L273.941 488.187L272.715 497.895L275.313 506.106L276.249 510.232L279.53 512.819L290.338 502.697Z" fill="#FFF9E1"/>
<path d="M324.593 149.245H317.832L313.839 154.059L305.334 169.807L321.219 187.549L344.204 175.79L345.399 169.807L324.593 149.245Z" fill="#FFF9E1"/>
<path d="M378.5 501.818L367.196 500.164L364.887 500.513L364.069 503.63L365.833 509.248L368.329 514.549L372.762 517.581L380.969 516.389L383.702 510.536L381.277 505.131L378.5 501.818Z" fill="#FFF9E1"/>
<path d="M379.211 493.922L379.109 488.162L378.747 487.042L377.129 486.89L374.478 488.227L372.045 489.903L370.899 492.357L372.163 496.342L375.299 497.223L377.79 495.575L379.211 493.922Z" fill="#FFF9E1"/>
<path d="M362.866 508.647L361.881 504.218L355.909 504.092L351.502 508.469L348.126 511.075L348.934 515.5L351.736 517.238L362.866 508.647Z" fill="#FFF9E1"/>
<path d="M392.81 522.361L394.471 521.402L394.755 519.628L394.564 514.472L388.093 512.276L384.149 518.485L384.721 520.155L392.81 522.361Z" fill="#FFF9E1"/>
<path d="M406.697 479.01H399.862L395.825 483.934L387.226 500.044L403.286 518.194L426.523 506.164L427.731 500.044L406.697 479.01Z" fill="#FFF9E1"/>
<path d="M519.094 318.978L521.312 307.771L521.08 305.448L518.008 304.475L512.308 305.955L506.889 308.182L503.639 312.457L504.417 320.713L510.126 323.736L515.645 321.586L519.094 318.978Z" fill="#FFF9E1"/>
<path d="M526.935 320.076L532.692 320.263L533.829 319.957L534.062 318.349L532.859 315.634L531.308 313.12L528.915 311.852L524.871 312.915L523.834 316.003L525.355 318.573L526.935 320.076Z" fill="#FFF9E1"/>
<path d="M513.05 303.027L517.523 302.265L517.949 296.307L513.798 291.686L511.365 288.183L506.905 288.769L505.028 291.48L513.05 303.027Z" fill="#FFF9E1"/>
<path d="M497.858 332.239L498.732 333.946L500.489 334.319L505.648 334.387L508.166 328.034L502.162 323.783L500.466 324.271L497.858 332.239Z" fill="#FFF9E1"/>
<path d="M540.946 347.755L541.287 340.971L536.565 336.717L520.889 327.374L501.944 342.403L512.812 366.071L518.87 367.577L540.946 347.755Z" fill="#FFF9E1"/>
<path d="M472.524 200.611L470.036 197.812L466.531 197.968L456.741 200.367L455.082 213.614L468.513 218.708L471.483 216.954L472.524 200.611Z" fill="#FFF9E1"/>
<path d="M471.722 221.036H468.23L466.168 223.692L461.775 232.38L469.98 242.169L481.851 235.681L482.468 232.38L471.722 221.036Z" fill="#FFF9E1"/>
</svg>
