<svg width="90" height="90" viewBox="0 0 90 90" fill="none" xmlns="http://www.w3.org/2000/svg">
<rect width="90" height="90" rx="45" fill="#212121"/>
<path d="M26.7987 67.12L20.189 66.1532L18.8394 66.3569L18.3612 68.1795L19.3926 71.4646L20.852 74.5638L23.4438 76.3365L28.2423 75.6399L29.8401 72.2177L28.4224 69.0575L26.7987 67.12Z" fill="#FFF9E1"/>
<path d="M34.9977 13.2103L32.8069 12.8899L32.3596 12.9574L32.2011 13.5615L32.5429 14.6503L33.0267 15.6776L33.8857 16.2651L35.4762 16.0342L36.0058 14.8999L35.5359 13.8525L34.9977 13.2103Z" fill="#FFF9E1"/>
<path d="M35.1343 11.6811L35.1145 10.5649L35.0444 10.3479L34.7308 10.3184L34.217 10.5776L33.7455 10.9023L33.5234 11.3778L33.7684 12.1502L34.3761 12.3209L34.8588 12.0014L35.1343 11.6811Z" fill="#FFF9E1"/>
<path d="M18.168 27.2339L18.1482 26.1176L18.078 25.9006L17.7645 25.8711L17.2507 26.1303L16.7792 26.455L16.5571 26.9305L16.8021 27.7029L17.4098 27.8737L17.8925 27.5542L18.168 27.2339Z" fill="#FFF9E1"/>
<path d="M11.2031 47.8951L8.70979 47.5304L8.20069 47.6072L8.02031 48.2947L8.40936 49.5339L8.95988 50.703L9.93755 51.3717L11.7476 51.1089L12.3503 49.818L11.8155 48.6259L11.2031 47.8951Z" fill="#FFF9E1"/>
<path d="M15.123 37.1341L13.5692 36.9068L13.2519 36.9547L13.1395 37.3832L13.382 38.1554L13.725 38.884L14.3343 39.3007L15.4623 39.1369L15.8379 38.3324L15.5046 37.5896L15.123 37.1341Z" fill="#FFF9E1"/>
<path d="M11.4076 41.3227L15.2857 40.7554L16.0776 40.875L16.3582 41.9444L15.753 43.8718L14.8967 45.6903L13.376 46.7304L10.5606 46.3216L9.62307 44.3137L10.4549 42.4595L11.4076 41.3227Z" fill="#FFF9E1"/>
<path d="M22.8099 16.6196L26.688 16.0523L27.4799 16.1718L27.7605 17.2412L27.1554 19.1687L26.2991 20.9871L24.7783 22.0272L21.9629 21.6185L21.0254 19.6106L21.8573 17.7564L22.8099 16.6196Z" fill="#FFF9E1"/>
<path d="M20.9863 22.3166L21.7076 23.5423L21.7758 23.8248L21.4548 24.0654L20.7242 24.1258L19.9958 24.0869L19.4382 23.7181L19.1903 22.7159L19.7368 22.1261L20.4738 22.1519L20.9863 22.3166Z" fill="#FFF9E1"/>
<path d="M20.2276 60.6678L18.8868 62.0221L20.199 64.1609L22.747 64.7235L24.4349 65.3242L25.8146 64.0329L25.7921 62.6482L20.2276 60.6678Z" fill="#FFF9E1"/>
<path d="M17.4718 61.2081L15.7965 60.2997L14.1102 62.1579L14.2828 64.7615L14.1783 66.55L15.804 67.5134L17.1272 67.1045L17.4718 61.2081Z" fill="#FFF9E1"/>
<path d="M15.9021 33.4534L15.6157 32.1663L13.88 32.1295L12.599 33.4017L11.6178 34.1591L11.8529 35.4453L12.6671 35.9504L15.9021 33.4534Z" fill="#FFF9E1"/>
<path d="M31.9711 14.5328L31.7802 13.6745L30.6229 13.65L29.7687 14.4983L29.1145 15.0033L29.2712 15.8609L29.8141 16.1977L31.9711 14.5328Z" fill="#FFF9E1"/>
<path d="M19.8835 26.5035L20.3291 26.3572L20.2815 25.7415L19.7865 25.3325L19.4841 25.0116L19.0371 25.1397L18.8867 25.4455L19.8835 26.5035Z" fill="#FFF9E1"/>
<path d="M16.6763 25.7993L16.5435 25.2023L15.7384 25.1852L15.1443 25.7753L14.6892 26.1266L14.7982 26.7231L15.1759 26.9574L16.6763 25.7993Z" fill="#FFF9E1"/>
<path d="M30.5747 17.4628L30.0609 16.7494L28.9877 17.1831L28.5371 18.2994L28.135 19.0215L28.6171 19.7478L29.2489 19.8433L30.5747 17.4628Z" fill="#FFF9E1"/>
<path d="M11.2031 47.8951L8.70979 47.5304L8.20069 47.6072L8.02031 48.2947L8.40936 49.5339L8.95988 50.703L9.93755 51.3717L11.7476 51.1089L12.3503 49.818L11.8155 48.6259L11.2031 47.8951Z" fill="#FFF9E1"/>
<path d="M13.6201 52.0508H12.1946L11.3527 53.0802L9.55957 56.4478L12.9088 60.2419L17.7547 57.7272L18.0067 56.4478L13.6201 52.0508Z" fill="#FFF9E1"/>
<path d="M10.979 36.1797H10.331L9.94837 36.6837L9.1333 38.3324L10.6557 40.1899L12.8584 38.9588L12.9729 38.3324L10.979 36.1797Z" fill="#FFF9E1"/>
<path d="M56.0397 13.7223L56.7098 11.2933L56.9851 10.8582L57.6871 10.9699L58.6647 11.825L59.5131 12.7997L59.7315 13.9639L58.7622 15.5149L57.3378 15.5468L56.462 14.5773L56.0397 13.7223Z" fill="#FFF9E1"/>
<path d="M44.6115 12.9748L45.0292 11.4611L45.2007 11.19L45.6382 11.2596L46.2474 11.7925L46.7762 12.3998L46.9123 13.1253L46.3082 14.0919L45.4206 14.1118L44.8748 13.5076L44.6115 12.9748Z" fill="#FFF9E1"/>
<path d="M49.9422 11.264L47.8614 14.5854L47.652 15.3584L48.5179 16.0458L50.5258 16.268L52.5351 16.2164L54.0995 15.2432L54.859 12.5015L53.3986 10.8349L51.3664 10.8497L49.9422 11.264Z" fill="#FFF9E1"/>
<path d="M56.0397 13.7223L56.7098 11.2933L56.9851 10.8582L57.6871 10.9699L58.6647 11.825L59.5131 12.7997L59.7315 13.9639L58.7622 15.5149L57.3378 15.5468L56.462 14.5773L56.0397 13.7223Z" fill="#FFF9E1"/>
<path d="M58.9318 17.6057L59.4959 16.3234L60.7609 15.9761L64.5192 15.7042L66.6286 20.2279L62.4346 23.5855L61.1766 23.3026L58.9318 17.6057Z" fill="#FFF9E1"/>
<path d="M45.4701 8.71628L45.7352 8.11376L46.3289 7.95024L48.0925 7.82148L49.0812 9.94594L47.1122 11.5244L46.5219 11.3918L45.4701 8.71628Z" fill="#FFF9E1"/>
<path d="M15.2417 27.7344H14.5649L14.1653 28.2705L13.314 30.0245L14.904 32.0006L17.2046 30.6909L17.3242 30.0245L15.2417 27.7344Z" fill="#FFF9E1"/>
<path d="M76.1079 53.0366L76.1276 51.9204L76.1978 51.7033L76.5114 51.6739L77.0252 51.933L77.4967 52.2577L77.7188 52.7332L77.4738 53.5057L76.8661 53.6764L76.3834 53.3569L76.1079 53.0366Z" fill="#FFF9E1"/>
<path d="M61.817 73.6911L63.5272 75.5417L63.7515 76.0051L63.2863 76.5425L62.0442 76.922L60.7686 77.1287L59.6644 76.7001L58.858 75.0584L59.5823 73.8316L60.8679 73.5989L61.817 73.6911Z" fill="#FFF9E1"/>
<path d="M68.483 64.3753L69.5487 65.5286L69.6885 65.8174L69.3986 66.1523L68.6245 66.3888L67.8296 66.5176L67.1414 66.2505L66.6389 65.2274L67.0903 64.4629L67.8915 64.3179L68.483 64.3753Z" fill="#FFF9E1"/>
<path d="M67.1236 69.8066L65.3995 66.2868L64.8533 65.7011L63.8125 66.0741L62.5645 67.6628L61.5485 69.397L61.55 71.2394L63.4786 73.3309L65.6649 72.9693L66.7243 71.2351L67.1236 69.8066Z" fill="#FFF9E1"/>
<path d="M71.0782 61.6546L72.3018 61.1633L73.3132 62.5744L72.9878 64.3502L72.9177 65.5878L71.7238 66.1208L70.8468 65.7347L71.0782 61.6546Z" fill="#FFF9E1"/>
<path d="M61.817 73.6911L63.5272 75.5417L63.7515 76.0051L63.2863 76.5425L62.0442 76.922L60.7686 77.1287L59.6644 76.7001L58.858 75.0584L59.5823 73.8316L60.8679 73.5989L61.817 73.6911Z" fill="#FFF9E1"/>
<path d="M71.6482 67.3517L72.0203 67.8947L71.846 68.4854L71.025 70.0516L68.6987 69.7708L68.3964 67.2654L68.8203 66.8339L71.6482 67.3517Z" fill="#FFF9E1"/>
<path d="M75.7297 58.9786L76.1018 59.5216L75.9275 60.1123L75.1066 61.6785L72.7802 61.3978L72.4779 58.8924L72.9019 58.4609L75.7297 58.9786Z" fill="#FFF9E1"/>
<path d="M37.771 17.1915L38.0929 17.0057L38.148 16.6619L38.111 15.6628L36.8569 15.2372L36.0925 16.4405L36.2035 16.7641L37.771 17.1915Z" fill="#FFF9E1"/>
<path d="M18.3687 24.8946L18.6906 24.7088L18.7456 24.3651L18.7087 23.3659L17.4545 22.9403L16.6901 24.1436L16.8011 24.4673L18.3687 24.8946Z" fill="#FFF9E1"/>
<path d="M77.0989 29.3399L71.2148 27.2215L68.7945 28.0537L68.2637 28.7241L69.9053 30.7682L72.2446 33.064L74.9605 34.0367L76.2501 34.6238L77.6053 34.2738L77.0989 29.3399Z" fill="#FFF9E1"/>
<path d="M42.9939 76.0469L37.1098 73.9285L34.6896 74.7607L34.1587 75.4311L35.8003 77.4752L38.1396 79.771L40.8556 80.7438L42.1451 81.3309L43.5003 80.9808L42.9939 76.0469Z" fill="#FFF9E1"/>
<path d="M76.0207 56.7864L74.9349 53.3349L73.7038 52.512L73.2091 52.5024L72.843 53.9744L72.6053 55.8558L73.1089 57.4472L73.2903 58.2467L73.9262 58.7481L76.0207 56.7864Z" fill="#FFF9E1"/>
<path d="M33.6164 77.2903L32.5306 73.8388L31.2995 73.0159L30.8048 73.0063L30.4387 74.4783L30.201 76.3597L30.7046 77.9511L30.886 78.7506L31.5219 79.252L33.6164 77.2903Z" fill="#FFF9E1"/>
<path d="M40.2544 8.79297H38.9441L38.1702 9.72587L36.522 12.7778L39.6005 16.2162L44.0549 13.9372L44.2865 12.7778L40.2544 8.79297Z" fill="#FFF9E1"/>
<path d="M50.7013 77.1205L48.5105 76.8L48.0632 76.8675L47.9047 77.4716L48.2466 78.5605L48.7303 79.5877L49.5894 80.1753L51.1798 79.9444L51.7094 78.8101L51.2395 77.7627L50.7013 77.1205Z" fill="#FFF9E1"/>
<path d="M50.8394 75.5893L50.8196 74.4731L50.7494 74.2561L50.4359 74.2266L49.9221 74.4858L49.4506 74.8105L49.2285 75.286L49.4735 76.0584L50.0812 76.2291L50.5639 75.9096L50.8394 75.5893Z" fill="#FFF9E1"/>
<path d="M47.6718 78.4429L47.4809 77.5847L46.3236 77.5602L45.4694 78.4084L44.8152 78.9135L44.9719 79.7711L45.5148 80.1079L47.6718 78.4429Z" fill="#FFF9E1"/>
<path d="M53.4751 81.1017L53.797 80.9158L53.8521 80.5721L53.8151 79.573L52.561 79.1473L51.7966 80.3507L51.9076 80.6743L53.4751 81.1017Z" fill="#FFF9E1"/>
<path d="M56.1665 72.7012H54.8418L54.0594 73.6555L52.3931 76.7776L55.5055 80.295L60.0088 77.9637L60.2429 76.7776L56.1665 72.7012Z" fill="#FFF9E1"/>
<path d="M77.9487 41.685L78.3786 39.513L78.3336 39.0629L77.7382 38.8743L76.6336 39.1611L75.5834 39.5927L74.9535 40.4212L75.1043 42.0213L76.2107 42.6071L77.2803 42.1903L77.9487 41.685Z" fill="#FFF9E1"/>
<path d="M79.4681 41.8977L80.5839 41.9339L80.8042 41.8747L80.8493 41.563L80.6163 41.0369L80.3156 40.5497L79.8519 40.304L79.0681 40.51L78.8671 41.1083L79.162 41.6065L79.4681 41.8977Z" fill="#FFF9E1"/>
<path d="M76.7773 38.5938L77.644 38.4462L77.7265 37.2916L76.9221 36.396L76.4506 35.7172L75.5862 35.8307L75.2226 36.3561L76.7773 38.5938Z" fill="#FFF9E1"/>
<path d="M73.8327 44.2549L74.0021 44.5857L74.3427 44.6579L75.3424 44.6712L75.8304 43.4399L74.6669 42.6161L74.3381 42.7108L73.8327 44.2549Z" fill="#FFF9E1"/>
<path d="M82.1835 47.2629L82.2495 45.948L81.3345 45.1236L78.2964 43.313L74.625 46.2256L76.7311 50.8123L77.9052 51.1042L82.1835 47.2629Z" fill="#FFF9E1"/>
<path d="M68.9111 22.5293H68.2344L67.8347 23.044L66.9834 24.7278L68.5734 26.6249L70.874 25.3675L70.9936 24.7278L68.9111 22.5293Z" fill="#FFF9E1"/>
<path d="M68.9237 18.7483L68.4415 18.2059L67.7622 18.2362L65.8649 18.7011L65.5434 21.2682L68.1463 22.2556L68.7219 21.9155L68.9237 18.7483Z" fill="#FFF9E1"/>
</svg>
