<svg width="26" height="27" viewBox="0 0 26 27" fill="none" xmlns="http://www.w3.org/2000/svg">
<path d="M7.2894 5.36645L12.4475 12.9313L13.6651 4.21397L13.4821 12.99L21.1769 10.3448L14.4972 14.0701L20.2899 17.513L13.8809 15.5015L15.0717 23.0191L12.0253 16.5364L6.72194 20.7675L10.8496 15.4486L2.36222 12.9506L10.5919 13.9662L7.2894 5.36645Z" fill="#FFF9E1"/>
<path d="M10.5902 6.99196L12.3609 13.4463L15.2716 7.70836L13.0623 13.7324L19.01 13.7299L13.5077 14.7201L16.6955 18.4752L12.7419 15.5634L11.781 21.0434L11.2134 15.8385L6.54263 17.505L10.6587 14.8074L5.3837 11.066L10.8324 13.7214L10.5902 6.99196Z" fill="#FFF9E1"/>
</svg>
