<svg width="12" height="11" viewBox="0 0 12 11" fill="none" xmlns="http://www.w3.org/2000/svg">
<path d="M8.2966 2.05681L6.13205 5.2313L5.62113 1.57319L5.69791 5.25592L2.4689 4.14592L5.27193 5.70918L2.84112 7.15393L5.53054 6.30985L5.03087 9.4645L6.30925 6.74414L8.53472 8.51964L6.80262 6.28763L10.3642 5.23939L6.91076 5.66559L8.2966 2.05681Z" fill="#FFF9E1"/>
<path d="M6.9115 2.73934L6.16842 5.44781L4.94698 3.03997L5.87412 5.56787L3.37824 5.56681L5.68718 5.98234L4.34949 7.55812L6.00854 6.33624L6.4118 8.63586L6.64998 6.45168L8.61 7.15102L6.88274 6.01897L9.09633 4.44895L6.80987 5.56324L6.9115 2.73934Z" fill="#FFF9E1"/>
</svg>
