<svg width="419" height="529" viewBox="0 0 419 529" fill="none" xmlns="http://www.w3.org/2000/svg">
<path d="M378.499 165L378.977 166.338L380.665 166L379.454 167L380.665 168L378.977 167.662L378.499 169L378.022 167.662L376.334 168L377.545 167L376.334 166L378.022 166.338L378.499 165Z" fill="#FFF9E1"/>
<path d="M341.999 174L342.381 175.673L343.732 175.25L342.763 176.5L343.732 177.75L342.381 177.327L341.999 179L341.618 177.327L340.267 177.75L341.236 176.5L340.267 175.25L341.618 175.673L341.999 174Z" fill="#FFF9E1"/>
<path d="M362.999 134L363.54 135.46L364.999 136L363.54 136.54L362.999 138L362.459 136.54L360.999 136L362.459 135.46L362.999 134Z" fill="#FFF9E1"/>
<path d="M215 242L215.54 243.46L217 244L215.54 244.54L215 246L214.459 244.54L213 244L214.459 243.46L215 242Z" fill="#FFF9E1"/>
<path d="M224.5 251L225.175 252.825L227 253.5L225.175 254.175L224.5 256L223.824 254.175L222 253.5L223.824 252.825L224.5 251Z" fill="#FFF9E1"/>
<path d="M116.999 281L117.81 283.19L119.999 284L117.81 284.81L116.999 287L116.189 284.81L113.999 284L116.189 283.19L116.999 281Z" fill="#FFF9E1"/>
<path d="M122.499 327L123.175 328.825L124.999 329.5L123.175 330.175L122.499 332L121.824 330.175L119.999 329.5L121.824 328.825L122.499 327Z" fill="#FFF9E1"/>
<path d="M103.499 372L104.175 373.46L105.999 374L104.175 374.54L103.499 376L102.824 374.54L100.999 374L102.824 373.46L103.499 372Z" fill="#FFF9E1"/>
<path d="M80.4995 393L81.1747 394.46L82.9995 395L81.1747 395.54L80.4995 397L79.8242 395.54L77.9995 395L79.8242 394.46L80.4995 393Z" fill="#FFF9E1"/>
<path d="M112.499 390L113.175 391.825L114.999 392.5L113.175 393.175L112.499 395L111.824 393.175L109.999 392.5L111.824 391.825L112.499 390Z" fill="#FFF9E1"/>
<path d="M93.4995 286L94.1747 287.825L95.9995 288.5L94.1747 289.175L93.4995 291L92.8242 289.175L90.9995 288.5L92.8242 287.825L93.4995 286Z" fill="#FFF9E1"/>
<path d="M230.5 227L231.175 229.19L233 230L231.175 230.81L230.5 233L229.824 230.81L228 230L229.824 229.19L230.5 227Z" fill="#FFF9E1"/>
<path d="M364.999 228L365.54 229.46L366.999 230L365.54 230.54L364.999 232L364.459 230.54L362.999 230L364.459 229.46L364.999 228Z" fill="#FFF9E1"/>
<path d="M341.999 228L342.54 229.825L343.999 230.5L342.54 231.175L341.999 233L341.459 231.175L339.999 230.5L341.459 229.825L341.999 228Z" fill="#FFF9E1"/>
<path d="M307.499 223L308.445 225.555L310.999 226.5L308.445 227.445L307.499 230L306.554 227.445L303.999 226.5L306.554 225.555L307.499 223Z" fill="#FFF9E1"/>
<path d="M316.499 206L317.175 208.19L318.999 209L317.175 209.81L316.499 212L315.824 209.81L313.999 209L315.824 208.19L316.499 206Z" fill="#FFF9E1"/>
<path d="M326.999 203L327.81 204.825L329.999 205.5L327.81 206.175L326.999 208L326.189 206.175L323.999 205.5L326.189 204.825L326.999 203Z" fill="#FFF9E1"/>
<path d="M343.999 213L344.81 215.19L346.999 216L344.81 216.81L343.999 219L343.189 216.81L340.999 216L343.189 215.19L343.999 213Z" fill="#FFF9E1"/>
<path d="M344.499 296L345.175 297.46L346.999 298L345.175 298.54L344.499 300L343.824 298.54L341.999 298L343.824 297.46L344.499 296Z" fill="#FFF9E1"/>
<path d="M125.018 150.016L126.101 161.846L133.106 152.739L127.255 162.566L137.821 164.431H127.731L132.193 171.993L126.101 165.664L122.642 174.934L123.297 165.664L114.467 167.107L122.642 163.688L114.467 155.495L123.297 161.846L125.018 150.016Z" fill="#FFF9E1"/>
<path d="M127.776 153.943L125.669 162.375L132.71 157.713L126.293 163.142L133.148 166.897L126.172 164.542L127.432 170.811L124.748 165.014L120.119 170.616L122.809 164.36L116.356 163.297L122.833 162.841L119.159 155.269L123.731 161.72L127.776 153.943Z" fill="#FFF9E1"/>
<path d="M191.066 166L191.483 170.748L194.182 167.093L191.928 171.037L196 171.785H192.111L193.83 174.82L191.483 172.28L190.15 176L190.402 172.28L187 172.859L190.15 171.487L187 168.199L190.402 170.748L191.066 166Z" fill="#FFF9E1"/>
<path d="M194.066 149L194.483 153.748L197.182 150.093L194.928 154.037L199 154.785H195.111L196.83 157.82L194.483 155.28L193.15 159L193.402 155.28L190 155.859L193.15 154.487L190 151.199L193.402 153.748L194.066 149Z" fill="#FFF9E1"/>
<path d="M218.258 140L218.49 142.374L219.99 140.546L218.737 142.518L221 142.893H218.839L219.794 144.41L218.49 143.14L217.75 145L217.89 143.14L216 143.429L217.75 142.744L216 141.1L217.89 142.374L218.258 140Z" fill="#FFF9E1"/>
<path d="M258.71 137L258.988 139.374L260.788 137.546L259.285 139.518L261.999 139.893H259.407L260.553 141.41L258.988 140.14L258.1 142L258.268 140.14L256 140.429L258.1 139.744L255.999 138.1L258.268 139.374L258.71 137Z" fill="#FFF9E1"/>
<path d="M319.162 104L319.486 107.323L321.586 104.765L319.832 107.526L322.999 108.05H319.975L321.312 110.174L319.486 108.396L318.45 111L318.646 108.396L316 108.801L318.45 107.841L315.999 105.539L318.646 107.323L319.162 104Z" fill="#FFF9E1"/>
<path d="M365.71 90L365.988 92.8486L367.788 90.6557L366.285 93.022L368.999 93.4712H366.407L367.553 95.2918L365.988 93.7679L365.1 96L365.268 93.7679L363 94.1153L365.1 93.2922L362.999 91.3194L365.268 92.8486L365.71 90Z" fill="#FFF9E1"/>
<path d="M349.71 101L349.988 103.849L351.788 101.656L350.285 104.022L352.999 104.471H350.407L351.553 106.292L349.988 104.768L349.1 107L349.268 104.768L347 105.115L349.1 104.292L346.999 102.319L349.268 103.849L349.71 101Z" fill="#FFF9E1"/>
<path d="M341.258 87L341.49 89.8486L342.99 87.6557L341.737 90.022L343.999 90.4712H341.839L342.794 92.2918L341.49 90.7679L340.75 93L340.89 90.7679L339 91.1153L340.75 90.2922L338.999 88.3194L340.89 89.8486L341.258 87Z" fill="#FFF9E1"/>
<path d="M241.258 125L241.49 128.323L242.99 125.765L241.737 128.526L243.999 129.05H241.839L242.794 131.174L241.49 129.396L240.75 132L240.89 129.396L239 129.801L240.75 128.841L238.999 126.539L240.89 128.323L241.258 125Z" fill="#FFF9E1"/>
<path d="M169.689 161.256L170.103 165.663L172.786 162.27L170.545 165.932L174.592 166.626H170.728L172.437 169.443L170.103 167.086L168.779 170.539L169.03 167.086L165.648 167.623L168.779 166.35L165.648 163.297L169.03 165.663L169.689 161.256Z" fill="#FFF9E1"/>
<path d="M171.519 161.445L170.195 165.675L173.99 163.542L170.5 166.089L173.973 168.247L170.399 166.8L170.889 170.044L169.644 166.99L167.082 169.688L168.652 166.588L165.317 165.819L168.705 165.814L166.992 161.819L169.203 165.273L171.519 161.445Z" fill="#FFF9E1"/>
<path d="M181.088 162.092L181.502 166.499L184.185 163.106L181.944 166.768L185.991 167.462H182.126L183.835 170.279L181.502 167.922L180.177 171.375L180.428 167.922L177.047 168.459L180.177 167.186L177.047 164.133L180.428 166.499L181.088 162.092Z" fill="#FFF9E1"/>
<path d="M182.918 162.281L181.594 166.511L185.389 164.378L181.899 166.925L185.372 169.083L181.798 167.636L182.287 170.88L181.043 167.826L178.481 170.524L180.05 167.424L176.715 166.655L180.103 166.65L178.391 162.655L180.601 166.109L182.918 162.281Z" fill="#FFF9E1"/>
<path d="M387.402 187.77L387.749 191.461L389.996 188.619L388.119 191.686L391.509 192.268H388.272L389.703 194.627L387.749 192.652L386.64 195.545L386.85 192.652L384.018 193.102L386.64 192.036L384.018 189.479L386.85 191.461L387.402 187.77Z" fill="#FFF9E1"/>
<path d="M388.935 187.927L387.826 191.471L391.004 189.684L388.082 191.817L390.99 193.624L387.997 192.412L388.407 195.13L387.365 192.572L385.219 194.831L386.533 192.236L383.74 191.591L386.578 191.587L385.143 188.241L386.995 191.134L388.935 187.927Z" fill="#FFF9E1"/>
<path d="M386.408 222.949L386.756 226.641L389.002 223.799L387.126 226.865L390.515 227.447H387.278L388.71 229.807L386.756 227.832L385.646 230.724L385.856 227.832L383.024 228.282L385.646 227.216L383.024 224.659L385.856 226.641L386.408 222.949Z" fill="#FFF9E1"/>
<path d="M387.941 223.107L386.833 226.65L390.011 224.864L387.088 226.997L389.996 228.804L387.004 227.592L387.413 230.31L386.371 227.752L384.225 230.011L385.54 227.415L382.746 226.771L385.584 226.767L384.15 223.421L386.001 226.314L387.941 223.107Z" fill="#FFF9E1"/>
<path d="M273.511 110.789L273.926 115.196L276.609 111.803L274.368 115.465L278.415 116.16H274.55L276.259 118.977L273.926 116.619L272.601 120.072L272.852 116.619L269.471 117.156L272.601 115.883L269.47 112.83L272.852 115.196L273.511 110.789Z" fill="#FFF9E1"/>
<path d="M275.341 110.98L274.018 115.21L277.812 113.078L274.323 115.624L277.795 117.782L274.222 116.335L274.711 119.579L273.467 116.526L270.905 119.223L272.474 116.124L269.139 115.354L272.527 115.349L270.814 111.354L273.025 114.808L275.341 110.98Z" fill="#FFF9E1"/>
<path d="M290.903 123.98L291.317 128.388L294 124.995L291.76 128.656L295.806 129.351H291.942L293.651 132.168L291.317 129.81L289.993 133.264L290.244 129.81L286.862 130.348L289.993 129.074L286.862 126.022L290.244 128.388L290.903 123.98Z" fill="#FFF9E1"/>
<path d="M292.733 124.169L291.409 128.4L295.204 126.267L291.714 128.813L295.187 130.971L291.614 129.524L292.103 132.769L290.859 129.715L288.296 132.412L289.866 129.313L286.531 128.544L289.919 128.538L288.206 124.544L290.417 127.998L292.733 124.169Z" fill="#FFF9E1"/>
<path d="M299.491 162.909L298.472 166.164L301.393 164.523L298.707 166.483L301.38 168.143L298.629 167.03L299.006 169.527L298.048 167.176L296.076 169.252L297.284 166.867L294.718 166.275L297.325 166.271L296.007 163.197L297.708 165.855L299.491 162.909Z" fill="#FFF9E1"/>
<path d="M311.276 110.787L311.691 115.195L314.373 111.802L312.133 115.463L316.179 116.158H312.315L314.024 118.975L311.691 116.617L310.366 120.07L310.617 116.617L307.235 117.154L310.366 115.881L307.235 112.828L310.617 115.195L311.276 110.787Z" fill="#FFF9E1"/>
<path d="M313.106 110.976L311.782 115.206L315.577 113.074L312.087 115.62L315.56 117.778L311.987 116.331L312.476 119.575L311.232 116.522L308.669 119.219L310.239 116.12L306.904 115.35L310.292 115.345L308.579 111.35L310.79 114.804L313.106 110.976Z" fill="#FFF9E1"/>
<path d="M385.314 94.666L385.729 99.0734L388.412 95.6804L386.171 99.3417L390.218 100.037H386.353L388.062 102.853L385.729 100.496L384.404 103.949L384.655 100.496L381.274 101.033L384.404 99.7598L381.273 96.7074L384.655 99.0734L385.314 94.666Z" fill="#FFF9E1"/>
<path d="M387.144 94.8549L385.821 99.0854L389.615 96.9526L386.126 99.499L389.598 101.657L386.025 100.21L386.514 103.454L385.27 100.401L382.708 103.098L384.277 99.9985L380.942 99.2293L384.33 99.224L382.617 95.2294L384.828 98.6834L387.144 94.8549Z" fill="#FFF9E1"/>
<path d="M370.904 52.6465L371.319 57.0539L374.001 53.6609L371.761 57.3222L375.808 58.0171H371.943L373.652 60.834L371.319 58.4762L369.994 61.9297L370.245 58.4762L366.863 59.0137L369.994 57.7402L366.863 54.6879L370.245 57.0539L370.904 52.6465Z" fill="#FFF9E1"/>
<path d="M372.734 52.8353L371.411 57.0658L375.205 54.933L371.715 57.4795L375.188 59.6373L371.615 58.1902L372.104 61.4347L370.86 58.381L368.297 61.0783L369.867 57.979L366.532 57.2098L369.92 57.2045L368.207 53.2098L370.418 56.6638L372.734 52.8353Z" fill="#FFF9E1"/>
<path d="M211.896 115.186L212.31 119.593L214.993 116.2L212.752 119.861L216.799 120.556H212.934L214.643 123.373L212.31 121.015L210.985 124.469L211.237 121.015L207.855 121.553L210.985 120.279L207.855 117.227L211.237 119.593L211.896 115.186Z" fill="#FFF9E1"/>
<path d="M213.726 115.374L212.402 119.605L216.197 117.472L212.707 120.019L216.18 122.176L212.606 120.729L213.096 123.974L211.851 120.92L209.289 123.617L210.858 120.518L207.523 119.749L210.911 119.744L209.199 115.749L211.409 119.203L213.726 115.374Z" fill="#FFF9E1"/>
<path d="M242.442 142.468L249.247 152.282L250.854 140.973L250.612 152.358L260.765 148.927L251.952 153.759L259.594 158.226L251.139 155.616L252.71 165.369L248.69 156.959L241.693 162.448L247.139 155.548L235.941 152.307L246.799 153.625L242.442 142.468Z" fill="#FFF9E1"/>
<path d="M246.797 144.579L249.133 152.952L252.973 145.508L250.058 153.323L257.905 153.32L250.646 154.604L254.852 159.476L249.636 155.698L248.368 162.808L247.619 156.055L241.456 158.217L246.887 154.718L239.927 149.864L247.116 153.309L246.797 144.579Z" fill="#FFF9E1"/>
<path d="M202.663 220.424L206.514 225.977L207.423 219.578L207.286 226.02L213.03 224.078L208.044 226.812L212.368 229.34L207.584 227.863L208.473 233.381L206.199 228.623L202.24 231.728L205.321 227.824L198.985 225.991L205.129 226.736L202.663 220.424Z" fill="#FFF9E1"/>
<path d="M205.127 221.617L206.449 226.354L208.622 222.143L206.973 226.564L211.413 226.563L207.305 227.289L209.685 230.046L206.734 227.908L206.016 231.931L205.593 228.11L202.106 229.333L205.179 227.353L201.241 224.607L205.308 226.556L205.127 221.617Z" fill="#FFF9E1"/>
<path d="M223.881 205.162L226.519 208.967L227.142 204.582L227.049 208.997L230.985 207.666L227.568 209.54L230.532 211.272L227.253 210.26L227.862 214.042L226.303 210.781L223.59 212.909L225.702 210.233L221.36 208.977L225.57 209.488L223.881 205.162Z" fill="#FFF9E1"/>
<path d="M225.569 205.979L226.475 209.226L227.964 206.34L226.834 209.37L229.877 209.369L227.062 209.867L228.693 211.756L226.67 210.291L226.178 213.048L225.888 210.429L223.498 211.268L225.604 209.911L222.905 208.029L225.693 209.364L225.569 205.979Z" fill="#FFF9E1"/>
<path d="M233.09 108.282L236.659 113.428L237.501 107.498L237.375 113.468L242.699 111.669L238.077 114.203L242.085 116.545L237.651 115.177L238.475 120.291L236.367 115.881L232.697 118.759L235.553 115.141L229.681 113.441L235.375 114.132L233.09 108.282Z" fill="#FFF9E1"/>
<path d="M235.374 109.387L236.599 113.778L238.613 109.875L237.084 113.973L241.199 113.971L237.392 114.645L239.598 117.2L236.863 115.219L236.198 118.947L235.805 115.406L232.573 116.54L235.421 114.704L231.771 112.159L235.541 113.966L235.374 109.387Z" fill="#FFF9E1"/>
<path d="M206.168 51.5912L212.974 61.4051L214.58 50.0961L214.339 61.4812L224.491 58.0497L215.678 62.8824L223.321 67.3489L214.865 64.7394L216.436 74.4919L212.417 66.082L205.42 71.5709L210.866 64.6707L199.668 61.4301L210.526 62.7477L206.168 51.5912Z" fill="#FFF9E1"/>
<path d="M210.523 53.7017L212.859 62.0749L216.7 54.6311L213.785 62.4461L221.632 62.4428L214.372 63.7274L218.578 68.5989L213.362 64.8215L212.094 71.9307L211.345 65.1783L205.183 67.3403L210.613 63.8406L203.654 58.9869L210.842 62.4318L210.523 53.7017Z" fill="#FFF9E1"/>
<path d="M143.301 278.599L148.815 286.551L150.117 277.387L149.921 286.612L158.148 283.832L151.007 287.748L157.2 291.367L150.348 289.253L151.621 297.155L148.364 290.34L142.694 294.788L147.107 289.197L138.033 286.571L146.832 287.639L143.301 278.599Z" fill="#FFF9E1"/>
<path d="M146.829 280.308L148.723 287.093L151.834 281.061L149.472 287.394L155.831 287.391L149.949 288.432L153.357 292.379L149.13 289.318L148.103 295.079L147.496 289.608L142.502 291.359L146.903 288.524L141.263 284.591L147.088 287.382L146.829 280.308Z" fill="#FFF9E1"/>
<path d="M63.4925 223.818L67.3146 229.33L68.2168 222.979L68.0812 229.373L73.7829 227.445L68.8334 230.16L73.1256 232.668L68.3767 231.202L69.259 236.68L67.0017 231.956L63.0721 235.039L66.1305 231.164L59.8416 229.344L65.9396 230.084L63.4925 223.818Z" fill="#FFF9E1"/>
<path d="M65.9381 225.003L67.2502 229.706L69.4069 225.525L67.7698 229.914L72.177 229.913L68.0999 230.634L70.462 233.37L67.5325 231.248L66.8204 235.241L66.3998 231.449L62.9389 232.663L65.9889 230.698L62.0802 227.972L66.1175 229.906L65.9381 225.003Z" fill="#FFF9E1"/>
<path d="M115.096 229.302L118.496 234.204L119.298 228.555L119.178 234.243L124.25 232.528L119.847 234.943L123.665 237.174L119.441 235.87L120.225 240.742L118.217 236.541L114.722 239.283L117.443 235.836L111.848 234.217L117.273 234.875L115.096 229.302Z" fill="#FFF9E1"/>
<path d="M117.271 230.356L118.439 234.539L120.357 230.821L118.901 234.725L122.821 234.723L119.194 235.365L121.296 237.799L118.69 235.912L118.056 239.463L117.682 236.09L114.604 237.17L117.317 235.422L113.84 232.997L117.431 234.718L117.271 230.356Z" fill="#FFF9E1"/>
<path d="M85.7782 205.848L89.1782 210.751L89.9807 205.102L89.8601 210.789L94.932 209.075L90.5292 211.489L94.3473 213.721L90.123 212.417L90.9078 217.289L88.8998 213.088L85.4042 215.83L88.1249 212.383L82.5305 210.764L87.955 211.422L85.7782 205.848Z" fill="#FFF9E1"/>
<path d="M87.9538 206.901L89.121 211.084L91.0395 207.366L89.5832 211.27L93.5036 211.268L89.8769 211.91L91.978 214.344L89.3721 212.456L88.7387 216.008L88.3646 212.635L85.2859 213.715L87.999 211.966L84.522 209.542L88.1134 211.263L87.9538 206.901Z" fill="#FFF9E1"/>
<path d="M30.6225 118.391L34.0224 123.294L34.8249 117.645L34.7043 123.332L39.7762 121.618L35.3734 124.032L39.1916 126.264L34.9672 124.96L35.7521 129.832L33.7441 125.631L30.2484 128.373L32.9691 124.926L27.3748 123.307L32.7993 123.965L30.6225 118.391Z" fill="#FFF9E1"/>
<path d="M32.798 119.446L33.9652 123.629L35.8838 119.91L34.4275 123.815L38.3479 123.813L34.7211 124.455L36.8223 126.889L34.2163 125.001L33.5829 128.553L33.2088 125.18L30.1301 126.26L32.8432 124.511L29.3662 122.087L32.9577 123.808L32.798 119.446Z" fill="#FFF9E1"/>
<path d="M38.5729 84.1903L41.9728 89.0931L42.7754 83.4433L42.6548 89.1312L47.7267 87.4168L43.3239 89.8312L47.142 92.0626L42.9177 90.7589L43.7025 95.6311L41.6945 91.4297L38.1989 94.1719L40.9196 90.7246L35.3252 89.1056L40.7497 89.7639L38.5729 84.1903Z" fill="#FFF9E1"/>
<path d="M40.7485 85.245L41.9156 89.4281L43.8342 85.7093L42.3779 89.6135L46.2983 89.6119L42.6716 90.2536L44.7727 92.6874L42.1668 90.8002L41.5334 94.3519L41.1592 90.9785L38.0806 92.0586L40.7936 90.3102L37.3167 87.8854L40.9081 89.6064L40.7485 85.245Z" fill="#FFF9E1"/>
<path d="M26.9789 73.9625L28.7891 76.5729L29.2164 73.5648L29.1522 76.5932L31.8526 75.6804L29.5084 76.9659L31.5413 78.1539L29.2922 77.4598L29.71 80.0539L28.6409 77.8169L26.7798 79.2769L28.2283 77.4415L25.2498 76.5796L28.1379 76.93L26.9789 73.9625Z" fill="#FFF9E1"/>
<path d="M28.1372 74.5236L28.7586 76.7508L29.7801 74.7708L29.0047 76.8495L31.092 76.8486L29.1611 77.1903L30.2798 78.4861L28.8923 77.4813L28.5551 79.3723L28.3559 77.5763L26.7167 78.1513L28.1612 77.2204L26.31 75.9294L28.2222 76.8457L28.1372 74.5236Z" fill="#FFF9E1"/>
<path d="M43.8737 102.789L45.6839 105.399L46.1112 102.391L46.047 105.419L48.7474 104.507L46.4032 105.792L48.4361 106.98L46.1869 106.286L46.6048 108.88L45.5357 106.643L43.6745 108.103L45.1231 106.268L42.1445 105.406L45.0327 105.756L43.8737 102.789Z" fill="#FFF9E1"/>
<path d="M45.0321 103.35L45.6535 105.577L46.675 103.597L45.8996 105.676L47.9869 105.675L46.056 106.016L47.1747 107.312L45.7872 106.308L45.45 108.199L45.2508 106.402L43.6116 106.978L45.0561 106.047L43.2049 104.756L45.1171 105.672L45.0321 103.35Z" fill="#FFF9E1"/>
<path d="M50.3309 66.8037L52.8732 70.4698L53.4733 66.2452L53.3831 70.4982L57.1756 69.2163L53.8834 71.0216L56.7384 72.6901L53.5797 71.7153L54.1665 75.3585L52.6651 72.2169L50.0513 74.2673L52.0856 71.6897L47.9025 70.4791L51.9586 70.9713L50.3309 66.8037Z" fill="#FFF9E1"/>
<path d="M51.9578 67.592L52.8305 70.7199L54.2651 67.9392L53.1762 70.8585L56.1076 70.8573L53.3958 71.3372L54.9669 73.157L53.0183 71.7459L52.5447 74.4016L52.2649 71.8792L49.9629 72.6868L51.9916 71.3795L49.3917 69.5663L52.0772 70.8532L51.9578 67.592Z" fill="#FFF9E1"/>
<path d="M103.845 218.656L106.275 222.161L106.849 218.122L106.763 222.188L110.388 220.963L107.241 222.689L109.97 224.284L106.951 223.352L107.512 226.835L106.076 223.831L103.577 225.791L105.522 223.327L101.523 222.17L105.401 222.64L103.845 218.656Z" fill="#FFF9E1"/>
<path d="M105.4 219.409L106.234 222.399L107.606 219.741L106.565 222.532L109.367 222.531L106.775 222.989L108.277 224.729L106.414 223.38L105.961 225.919L105.694 223.507L103.493 224.28L105.432 223.03L102.947 221.296L105.514 222.527L105.4 219.409Z" fill="#FFF9E1"/>
<path d="M139.125 200.578L141.555 204.083L142.129 200.044L142.043 204.11L145.668 202.885L142.521 204.61L145.25 206.206L142.231 205.274L142.792 208.756L141.356 205.753L138.857 207.713L140.802 205.249L136.803 204.092L140.681 204.562L139.125 200.578Z" fill="#FFF9E1"/>
<path d="M140.68 201.331L141.514 204.321L142.886 201.663L141.845 204.454L144.647 204.452L142.055 204.911L143.557 206.651L141.694 205.302L141.241 207.841L140.974 205.429L138.773 206.201L140.712 204.952L138.227 203.218L140.794 204.449L140.68 201.331Z" fill="#FFF9E1"/>
<path d="M78.7421 215.868L80.2481 218.04L80.6036 215.537L80.5501 218.057L82.7967 217.297L80.8465 218.367L82.5378 219.355L80.6666 218.778L81.0142 220.936L80.1248 219.075L78.5764 220.289L79.7815 218.762L77.3035 218.045L79.7063 218.337L78.7421 215.868Z" fill="#FFF9E1"/>
<path d="M79.7057 216.336L80.2227 218.188L81.0725 216.541L80.4275 218.271L82.164 218.27L80.5575 218.554L81.4882 219.632L80.3339 218.796L80.0534 220.369L79.8877 218.875L78.524 219.354L79.7257 218.579L78.1856 217.505L79.7764 218.267L79.7057 216.336Z" fill="#FFF9E1"/>
<path d="M67.275 310.847L72.7895 318.799L74.0911 309.635L73.8955 318.861L82.1218 316.08L74.9808 319.996L81.1736 323.615L74.3219 321.501L75.5949 329.403L72.338 322.589L66.6683 327.036L71.0811 321.445L62.0075 318.819L70.8056 319.887L67.275 310.847Z" fill="#FFF9E1"/>
<path d="M70.8035 312.556L72.6966 319.341L75.8084 313.309L73.4464 319.642L79.805 319.639L73.9226 320.68L77.3306 324.627L73.104 321.566L72.0766 327.327L71.4698 321.856L66.4764 323.607L70.8768 320.772L65.2374 316.839L71.0625 319.63L70.8035 312.556Z" fill="#FFF9E1"/>
<path d="M45.0508 305.534L48.4643 310.456L49.27 304.784L49.1489 310.494L54.2411 308.773L49.8207 311.197L53.6541 313.437L49.4128 312.129L50.2008 317.02L48.1848 312.802L44.6752 315.555L47.4068 312.094L41.7901 310.469L47.2362 311.13L45.0508 305.534Z" fill="#FFF9E1"/>
<path d="M47.2349 306.592L48.4068 310.792L50.333 307.058L48.8709 310.978L52.8069 310.976L49.1657 311.621L51.2752 314.064L48.6589 312.169L48.023 315.735L47.6473 312.348L44.5564 313.433L47.2803 311.677L43.7894 309.243L47.3952 310.971L47.2349 306.592Z" fill="#FFF9E1"/>
<path d="M91.8026 302.543L94.5962 306.445L95.1729 301.893L95.145 306.468L99.2026 305.03L95.6916 307.023L98.7889 308.772L95.3762 307.774L96.0665 311.682L94.4008 308.327L91.6232 310.574L93.7691 307.77L89.2508 306.534L93.6208 306.999L91.8026 302.543Z" fill="#FFF9E1"/>
<path d="M93.5648 303.365L94.5542 306.715L96.0518 303.702L94.9282 306.859L98.0807 306.811L95.1721 307.37L96.8913 309.302L94.7729 307.816L94.3067 310.679L93.9648 307.971L91.5023 308.875L93.6627 307.438L90.8373 305.529L93.7462 306.87L93.5648 303.365Z" fill="#FFF9E1"/>
<path d="M46.0876 360.685L48.8811 364.588L49.4578 360.035L49.4299 364.611L53.4875 363.172L49.9765 365.166L53.0739 366.915L49.6611 365.916L50.3514 369.825L48.6857 366.47L45.9081 368.716L48.054 365.912L43.5357 364.676L47.9057 365.142L46.0876 360.685Z" fill="#FFF9E1"/>
<path d="M47.8498 361.508L48.8392 364.858L50.3368 361.845L49.2132 365.001L52.3656 364.954L49.4571 365.513L51.1762 367.445L49.0578 365.958L48.5916 368.822L48.2498 366.113L45.7873 367.018L47.9477 365.58L45.1223 363.671L48.0312 365.013L47.8498 361.508Z" fill="#FFF9E1"/>
<path d="M242.861 286.42L245.654 290.322L246.231 285.77L246.203 290.345L250.261 288.907L246.75 290.9L249.847 292.649L246.434 291.651L247.125 295.559L245.459 292.204L242.681 294.451L244.827 291.647L240.309 290.41L244.679 290.876L242.861 286.42Z" fill="#FFF9E1"/>
<path d="M244.623 287.242L245.612 290.592L247.11 287.579L245.986 290.736L249.139 290.688L246.23 291.247L247.949 293.179L245.831 291.692L245.365 294.556L245.023 291.848L242.561 292.752L244.721 291.315L241.896 289.406L244.804 290.747L244.623 287.242Z" fill="#FFF9E1"/>
<path d="M229.941 350.912L232.735 354.814L233.312 350.262L233.284 354.837L237.341 353.399L233.83 355.392L236.928 357.142L233.515 356.143L234.205 360.052L232.539 356.697L229.762 358.943L231.908 356.139L227.39 354.903L231.759 355.368L229.941 350.912Z" fill="#FFF9E1"/>
<path d="M231.704 351.734L232.693 355.084L234.191 352.071L233.067 355.228L236.219 355.181L233.311 355.739L235.03 357.672L232.912 356.185L232.445 359.048L232.104 356.34L229.641 357.245L231.802 355.807L228.976 353.898L231.885 355.239L231.704 351.734Z" fill="#FFF9E1"/>
<path d="M185.717 307.428L188.511 311.33L189.087 306.778L189.06 311.353L193.117 309.915L189.606 311.908L192.704 313.657L189.291 312.659L189.981 316.567L188.315 313.212L185.538 315.458L187.684 312.654L183.165 311.418L187.535 311.884L185.717 307.428Z" fill="#FFF9E1"/>
<path d="M187.48 308.25L188.469 311.6L189.966 308.587L188.843 311.744L191.995 311.696L189.087 312.255L190.806 314.187L188.688 312.7L188.221 315.564L187.88 312.855L185.417 313.76L187.577 312.322L184.752 310.413L187.661 311.755L187.48 308.25Z" fill="#FFF9E1"/>
<path d="M94.2872 411.498L97.0808 415.4L97.6574 410.848L97.6296 415.423L101.687 413.985L98.1761 415.978L101.274 417.727L97.8607 416.729L98.5511 420.637L96.8853 417.283L94.1077 419.529L96.2536 416.725L91.7354 415.489L96.1053 415.954L94.2872 411.498Z" fill="#FFF9E1"/>
<path d="M96.0492 412.32L97.0385 415.67L98.5361 412.657L97.4125 415.814L100.565 415.766L97.6564 416.325L99.3756 418.257L97.2572 416.771L96.791 419.634L96.4491 416.926L93.9866 417.831L96.147 416.393L93.3217 414.484L96.2305 415.825L96.0492 412.32Z" fill="#FFF9E1"/>
<path d="M85.5397 419.16L89.239 424.328L90.0027 418.299L89.9658 424.358L95.3391 422.453L90.6896 425.093L94.7913 427.41L90.2719 426.087L91.1861 431.263L88.9803 426.82L85.302 429.795L88.1437 426.082L82.1605 424.445L87.9474 425.061L85.5397 419.16Z" fill="#FFF9E1"/>
<path d="M87.8731 420.25L89.1833 424.686L91.1665 420.696L89.6785 424.876L93.8532 424.814L90.0015 425.553L92.2781 428.112L89.4728 426.143L88.8555 429.935L88.4028 426.349L85.1418 427.547L88.0027 425.643L84.2612 423.115L88.1133 424.892L87.8731 420.25Z" fill="#FFF9E1"/>
<path d="M94.4841 429.422L98.1835 434.59L98.9471 428.561L98.9103 434.62L104.284 432.715L99.634 435.355L103.736 437.671L99.2164 436.349L100.131 441.525L97.9247 437.082L94.2465 440.056L97.0881 436.343L91.1049 434.706L96.8918 435.323L94.4841 429.422Z" fill="#FFF9E1"/>
<path d="M96.8176 430.512L98.1278 434.948L100.111 430.958L98.623 435.138L102.798 435.075L98.946 435.815L101.223 438.374L98.4173 436.405L97.7999 440.197L97.3473 436.611L94.0863 437.809L96.9472 435.905L93.2057 433.377L97.0577 435.153L96.8176 430.512Z" fill="#FFF9E1"/>
<path d="M111.875 419.16L115.575 424.328L116.338 418.299L116.301 424.358L121.675 422.453L117.025 425.093L121.127 427.41L116.608 426.087L117.522 431.263L115.316 426.82L111.638 429.795L114.479 426.082L108.496 424.445L114.283 425.061L111.875 419.16Z" fill="#FFF9E1"/>
<path d="M114.209 420.25L115.519 424.686L117.502 420.696L116.014 424.876L120.189 424.814L116.337 425.553L118.614 428.112L115.809 426.143L115.191 429.935L114.738 426.349L111.478 427.547L114.338 425.643L110.597 423.115L114.449 424.892L114.209 420.25Z" fill="#FFF9E1"/>
<path d="M191.38 419.648L195.079 424.816L195.843 418.787L195.806 424.846L201.18 422.942L196.53 425.581L200.632 427.898L196.112 426.575L197.027 431.751L194.821 427.309L191.142 430.283L193.984 426.57L188.001 424.933L193.788 425.549L191.38 419.648Z" fill="#FFF9E1"/>
<path d="M193.714 420.738L195.024 425.174L197.007 421.185L195.519 425.365L199.694 425.302L195.842 426.042L198.119 428.601L195.313 426.632L194.696 430.424L194.243 426.837L190.982 428.035L193.843 426.131L190.102 423.603L193.954 425.38L193.714 420.738Z" fill="#FFF9E1"/>
<path d="M375.666 436.166L378.183 439.681L378.702 435.58L378.677 439.701L382.332 438.406L379.169 440.201L381.959 441.777L378.885 440.877L379.507 444.398L378.007 441.376L375.505 443.399L377.438 440.874L373.368 439.76L377.304 440.18L375.666 436.166Z" fill="#FFF9E1"/>
<path d="M377.254 436.905L378.145 439.923L379.494 437.209L378.482 440.052L381.321 440.01L378.701 440.513L380.25 442.253L378.342 440.914L377.922 443.493L377.614 441.054L375.396 441.869L377.342 440.574L374.797 438.854L377.417 440.063L377.254 436.905Z" fill="#FFF9E1"/>
<path d="M68.1919 355.084L72.9163 361.897L74.0314 354.046L73.8638 361.949L80.9114 359.567L74.7936 362.922L80.099 366.023L74.2291 364.211L75.3197 370.981L72.5295 365.143L67.6722 368.954L71.4527 364.164L63.6791 361.914L71.2167 362.829L68.1919 355.084Z" fill="#FFF9E1"/>
<path d="M71.215 356.548L72.8368 362.361L75.5027 357.193L73.4791 362.618L78.9266 362.616L73.8871 363.508L76.8068 366.89L73.1858 364.267L72.3056 369.202L71.7857 364.515L67.5078 366.016L71.2777 363.586L66.4463 360.217L71.4368 362.608L71.215 356.548Z" fill="#FFF9E1"/>
<path d="M360.944 342.603L366.458 350.555L367.76 341.391L367.564 350.616L375.791 347.836L368.649 351.752L374.842 355.371L367.991 353.256L369.264 361.159L366.007 354.344L360.337 358.792L364.75 353.201L355.676 350.575L364.474 351.643L360.944 342.603Z" fill="#FFF9E1"/>
<path d="M364.472 344.316L366.365 351.101L369.477 345.069L367.115 351.401L373.474 351.399L367.591 352.44L370.999 356.387L366.773 353.326L365.745 359.087L365.138 353.615L360.145 355.367L364.546 352.531L358.906 348.598L364.731 351.39L364.472 344.316Z" fill="#FFF9E1"/>
<path d="M324.67 270.78L330.184 278.732L331.486 269.569L331.291 278.794L339.517 276.014L332.376 279.93L338.569 283.549L331.717 281.434L332.99 289.337L329.733 282.522L324.063 286.97L328.476 281.379L319.402 278.753L328.201 279.82L324.67 270.78Z" fill="#FFF9E1"/>
<path d="M328.199 272.49L330.092 279.274L333.203 273.243L330.841 279.575L337.2 279.573L331.318 280.613L334.726 284.561L330.499 281.5L329.472 287.261L328.865 281.789L323.871 283.541L328.272 280.705L322.632 276.772L328.457 279.564L328.199 272.49Z" fill="#FFF9E1"/>
<path d="M22.4995 352L22.022 353.338L20.3344 353L21.5445 354L20.3344 355L22.022 354.662L22.4995 356L22.9769 354.662L24.6645 355L23.4544 354L24.6645 353L22.9769 353.338L22.4995 352Z" fill="#FFF9E1"/>
<path d="M58.9995 361L58.6175 363.008L57.2674 362.5L58.2355 364L57.2674 365.5L58.6175 364.992L58.9995 367L59.3814 364.992L60.7315 365.5L59.7634 364L60.7315 362.5L59.3814 363.008L58.9995 361Z" fill="#FFF9E1"/>
<path d="M37.9995 321L37.4593 322.095L35.9995 322.5L37.4593 322.905L37.9995 324L38.5396 322.905L39.9995 322.5L38.5396 322.095L37.9995 321Z" fill="#FFF9E1"/>
<path d="M186 430L185.459 431.825L184 432.5L185.459 433.175L186 435L186.54 433.175L188 432.5L186.54 431.825L186 430Z" fill="#FFF9E1"/>
<path d="M176.5 439L175.824 440.095L174 440.5L175.824 440.905L176.5 442L177.175 440.905L179 440.5L177.175 440.095L176.5 439Z" fill="#FFF9E1"/>
<path d="M283.999 468L283.189 470.19L280.999 471L283.189 471.81L283.999 474L284.81 471.81L286.999 471L284.81 470.19L283.999 468Z" fill="#FFF9E1"/>
<path d="M278.499 514L277.824 516.19L275.999 517L277.824 517.81L278.499 520L279.175 517.81L280.999 517L279.175 516.19L278.499 514Z" fill="#FFF9E1"/>
<path d="M307.499 473L306.824 474.825L304.999 475.5L306.824 476.175L307.499 478L308.175 476.175L309.999 475.5L308.175 474.825L307.499 473Z" fill="#FFF9E1"/>
<path d="M170.5 415L169.824 416.825L168 417.5L169.824 418.175L170.5 420L171.175 418.175L173 417.5L171.175 416.825L170.5 415Z" fill="#FFF9E1"/>
<path d="M35.9995 415L35.4593 416.46L33.9995 417L35.4593 417.54L35.9995 419L36.5396 417.54L37.9995 417L36.5396 416.46L35.9995 415Z" fill="#FFF9E1"/>
<path d="M58.9995 416L58.4593 417.46L56.9995 418L58.4593 418.54L58.9995 420L59.5396 418.54L60.9995 418L59.5396 417.46L58.9995 416Z" fill="#FFF9E1"/>
<path d="M93.4995 410L92.5541 412.555L89.9995 413.5L92.5541 414.445L93.4995 417L94.4448 414.445L96.9995 413.5L94.4448 412.555L93.4995 410Z" fill="#FFF9E1"/>
<path d="M83.4995 394L82.5541 395.825L79.9995 396.5L82.5541 397.175L83.4995 399L84.4448 397.175L86.9995 396.5L84.4448 395.825L83.4995 394Z" fill="#FFF9E1"/>
<path d="M73.9995 389L73.1892 391.19L70.9995 392L73.1892 392.81L73.9995 395L74.8097 392.81L76.9995 392L74.8097 391.19L73.9995 389Z" fill="#FFF9E1"/>
<path d="M56.4995 400L55.8242 402.19L53.9995 403L55.8242 403.81L56.4995 406L57.1747 403.81L58.9995 403L57.1747 402.19L56.4995 400Z" fill="#FFF9E1"/>
<path d="M55.9995 484L55.4593 485.46L53.9995 486L55.4593 486.54L55.9995 488L56.5396 486.54L57.9995 486L56.5396 485.46L55.9995 484Z" fill="#FFF9E1"/>
<path d="M275.347 337.146L274.265 348.977L267.26 339.869L273.11 349.697L262.544 351.562H272.635L268.173 359.123L274.265 352.795L277.724 362.065L277.068 352.795L285.898 354.237L277.724 350.819L285.898 342.626L277.068 348.977L275.347 337.146Z" fill="#FFF9E1"/>
<path d="M272.589 341.074L274.696 349.505L267.655 344.843L274.072 350.273L267.217 354.028L274.193 351.673L272.933 357.942L275.618 352.145L280.247 357.747L277.556 351.491L284.009 350.427L277.532 349.972L281.206 342.4L276.634 348.851L272.589 341.074Z" fill="#FFF9E1"/>
<path d="M209.933 353L209.516 357.748L206.817 354.093L209.071 358.037L205 358.785H208.888L207.169 361.82L209.516 359.28L210.849 363L210.597 359.28L213.999 359.859L210.849 358.487L214 355.199L210.597 357.748L209.933 353Z" fill="#FFF9E1"/>
<path d="M206.933 336L206.516 340.748L203.817 337.093L206.071 341.037L202 341.785H205.888L204.169 344.82L206.516 342.28L207.849 346L207.597 342.28L210.999 342.859L207.849 341.487L211 338.199L207.597 340.748L206.933 336Z" fill="#FFF9E1"/>
<path d="M182.741 326L182.509 328.374L181.009 326.546L182.262 328.518L180 328.893H182.16L181.205 330.41L182.509 329.14L183.249 331L183.109 329.14L184.999 329.429L183.249 328.744L185 327.1L183.109 328.374L182.741 326Z" fill="#FFF9E1"/>
<path d="M141.741 323L141.509 325.849L140.009 323.656L141.262 326.022L139 326.471H141.16L140.205 328.292L141.509 326.768L142.249 329L142.109 326.768L143.999 327.115L142.249 326.292L144 324.319L142.109 325.849L141.741 323Z" fill="#FFF9E1"/>
<path d="M81.8369 291L81.5125 294.323L79.4129 291.765L81.1665 294.526L77.9995 295.05H81.024L79.6865 297.174L81.5125 295.396L82.5493 298L82.3528 295.396L84.9994 295.801L82.5493 294.841L84.9995 292.539L82.3528 294.323L81.8369 291Z" fill="#FFF9E1"/>
<path d="M34.7405 277L34.5088 279.849L33.0091 277.656L34.2616 280.022L31.9995 280.471H34.1598L33.2045 282.292L34.5088 280.768L35.2493 283L35.109 280.768L36.9994 281.115L35.2493 280.292L36.9995 278.319L35.109 279.849L34.7405 277Z" fill="#FFF9E1"/>
<path d="M51.2887 288L51.0107 290.849L49.211 288.656L50.7141 291.022L47.9995 291.471H50.5919L49.4455 293.292L51.0107 291.768L51.8993 294L51.7309 291.768L53.9994 292.115L51.8993 291.292L53.9995 289.319L51.7309 290.849L51.2887 288Z" fill="#FFF9E1"/>
<path d="M59.7405 274L59.5088 276.849L58.0091 274.656L59.2616 277.022L56.9995 277.471H59.1598L58.2045 279.292L59.5088 277.768L60.2493 280L60.109 277.768L61.9994 278.115L60.2493 277.292L61.9995 275.319L60.109 276.849L59.7405 274Z" fill="#FFF9E1"/>
<path d="M159.741 313L159.509 315.849L158.009 313.656L159.262 316.022L157 316.471H159.16L158.205 318.292L159.509 316.768L160.249 319L160.109 316.768L161.999 317.115L160.249 316.292L162 314.319L160.109 315.849L159.741 313Z" fill="#FFF9E1"/>
<path d="M230.677 348.383L230.262 352.79L227.579 349.397L229.82 353.059L225.773 353.753H229.638L227.929 356.57L230.262 354.213L231.587 357.666L231.336 354.213L234.717 354.75L231.587 353.477L234.717 350.424L231.336 352.79L230.677 348.383Z" fill="#FFF9E1"/>
<path d="M228.846 348.572L230.17 352.802L226.375 350.669L229.865 353.216L226.393 355.374L229.966 353.927L229.477 357.171L230.721 354.117L233.283 356.815L231.714 353.715L235.049 352.946L231.661 352.941L233.374 348.946L231.163 352.4L228.846 348.572Z" fill="#FFF9E1"/>
<path d="M219.278 349.219L218.863 353.626L216.18 350.233L218.421 353.894L214.374 354.589H218.239L216.53 357.406L218.863 355.048L220.188 358.502L219.937 355.048L223.319 355.586L220.188 354.313L223.319 351.26L219.937 353.626L219.278 349.219Z" fill="#FFF9E1"/>
<path d="M217.448 349.408L218.771 353.638L214.977 351.505L218.466 354.052L214.994 356.21L218.567 354.762L218.078 358.007L219.322 354.953L221.885 357.651L220.315 354.551L223.65 353.782L220.262 353.777L221.975 349.782L219.764 353.236L217.448 349.408Z" fill="#FFF9E1"/>
<path d="M12.9634 374.9L12.6163 378.592L10.3693 375.75L12.246 378.817L8.85663 379.399H12.0934L10.6621 381.758L12.6163 379.783L13.7258 382.676L13.5155 379.783L16.3478 380.233L13.7258 379.167L16.3479 376.61L13.5155 378.592L12.9634 374.9Z" fill="#FFF9E1"/>
<path d="M11.4306 375.058L12.5392 378.602L9.36096 376.815L12.2839 378.948L9.37528 380.755L12.3682 379.543L11.9584 382.261L13.0006 379.703L15.1467 381.962L13.832 379.366L16.6253 378.722L13.7878 378.718L15.2222 375.372L13.3707 378.265L11.4306 375.058Z" fill="#FFF9E1"/>
<path d="M13.9571 410.078L13.6099 413.77L11.363 410.928L13.2396 413.994L9.85028 414.576H13.0871L11.6557 416.936L13.6099 414.961L14.7194 417.853L14.5091 414.961L17.3415 415.411L14.7194 414.344L17.3416 411.788L14.5091 413.77L13.9571 410.078Z" fill="#FFF9E1"/>
<path d="M12.4242 410.236L13.5329 413.779L10.3546 411.993L13.2775 414.126L10.3689 415.933L13.3619 414.721L12.9521 417.438L13.9942 414.881L16.1404 417.14L14.8257 414.544L17.619 413.9L14.7814 413.895L16.2159 410.55L14.3643 413.443L12.4242 410.236Z" fill="#FFF9E1"/>
<path d="M126.854 297.92L126.439 302.327L123.757 298.934L125.997 302.596L121.951 303.291H125.815L124.106 306.107L126.439 303.75L127.764 307.203L127.513 303.75L130.895 304.287L127.764 303.014L130.895 299.961L127.513 302.327L126.854 297.92Z" fill="#FFF9E1"/>
<path d="M125.024 298.107L126.347 302.337L122.553 300.205L126.043 302.751L122.57 304.909L126.143 303.462L125.654 306.706L126.898 303.652L129.461 306.35L127.891 303.25L131.226 302.481L127.838 302.476L129.551 298.481L127.34 301.935L125.024 298.107Z" fill="#FFF9E1"/>
<path d="M109.462 311.111L109.048 315.519L106.365 312.126L108.606 315.787L104.559 316.482H108.424L106.715 319.299L109.048 316.941L110.372 320.395L110.121 316.941L113.503 317.479L110.372 316.205L113.503 313.153L110.121 315.519L109.462 311.111Z" fill="#FFF9E1"/>
<path d="M107.632 311.302L108.956 315.533L105.161 313.4L108.651 315.946L105.178 318.104L108.752 316.657L108.262 319.902L109.507 316.848L112.069 319.545L110.499 316.446L113.834 315.677L110.447 315.671L112.159 311.677L109.949 315.131L107.632 311.302Z" fill="#FFF9E1"/>
<path d="M100.874 350.037L101.893 353.293L98.9726 351.652L101.658 353.612L98.9857 355.272L101.736 354.159L101.359 356.655L102.317 354.305L104.289 356.381L103.081 353.996L105.647 353.404L103.04 353.4L104.358 350.326L102.657 352.984L100.874 350.037Z" fill="#FFF9E1"/>
<path d="M89.0892 297.922L88.6747 302.329L85.992 298.936L88.2326 302.598L84.1859 303.292H88.0505L86.3415 306.109L88.6747 303.752L89.9994 307.205L89.7483 303.752L93.13 304.289L89.9994 303.016L93.1301 299.963L89.7483 302.329L89.0892 297.922Z" fill="#FFF9E1"/>
<path d="M87.2591 298.111L88.5828 302.341L84.7881 300.208L88.2779 302.755L84.8052 304.913L88.3786 303.466L87.8894 306.71L89.1336 303.656L91.696 306.354L90.1264 303.254L93.4614 302.485L90.0735 302.48L91.7862 298.485L89.5755 301.939L87.2591 298.111Z" fill="#FFF9E1"/>
<path d="M15.0509 281.797L14.6364 286.204L11.9536 282.811L14.1943 286.473L10.1476 287.167H14.0121L12.3032 289.984L14.6364 287.627L15.9611 291.08L15.71 287.627L19.0917 288.164L15.9611 286.891L19.0918 283.838L15.71 286.204L15.0509 281.797Z" fill="#FFF9E1"/>
<path d="M13.2208 281.986L14.5445 286.216L10.7498 284.083L14.2396 286.63L10.7669 288.788L14.3403 287.341L13.851 290.585L15.0953 287.531L17.6577 290.229L16.088 287.129L19.4231 286.36L16.0352 286.355L17.7479 282.36L15.5372 285.814L13.2208 281.986Z" fill="#FFF9E1"/>
<path d="M29.461 239.777L29.0465 244.185L26.3638 240.792L28.6044 244.453L24.5577 245.148H28.4223L26.7133 247.965L29.0465 245.607L30.3713 249.061L30.1202 245.607L33.5019 246.145L30.3713 244.871L33.502 241.819L30.1202 244.185L29.461 239.777Z" fill="#FFF9E1"/>
<path d="M27.631 239.966L28.9546 244.197L25.1599 242.064L28.6497 244.61L25.177 246.768L28.7504 245.321L28.2612 248.566L29.5055 245.512L32.0679 248.209L30.4982 245.11L33.8333 244.341L30.4454 244.335L32.158 240.341L29.9474 243.795L27.631 239.966Z" fill="#FFF9E1"/>
<path d="M188.47 302.316L188.055 306.724L185.373 303.331L187.613 306.992L183.567 307.687H187.431L185.722 310.504L188.055 308.146L189.38 311.6L189.129 308.146L192.511 308.684L189.38 307.41L192.511 304.358L189.129 306.724L188.47 302.316Z" fill="#FFF9E1"/>
<path d="M186.64 302.505L187.963 306.736L184.169 304.603L187.659 307.149L184.186 309.307L187.759 307.86L187.27 311.105L188.514 308.051L191.077 310.748L189.507 307.649L192.842 306.88L189.454 306.874L191.167 302.88L188.956 306.334L186.64 302.505Z" fill="#FFF9E1"/>
<path d="M157.924 329.599L151.118 339.413L149.512 328.104L149.753 339.489L139.601 336.057L148.414 340.89L140.771 345.357L149.227 342.747L147.656 352.5L151.675 344.09L158.672 349.579L153.226 342.679L164.424 339.438L153.566 340.755L157.924 329.599Z" fill="#FFF9E1"/>
<path d="M153.569 331.71L151.233 340.083L147.392 332.639L150.307 340.454L142.46 340.451L149.72 341.735L145.514 346.607L150.73 342.829L151.998 349.938L152.747 343.186L158.909 345.348L153.478 341.848L160.438 336.995L153.249 340.44L153.569 331.71Z" fill="#FFF9E1"/>
<path d="M197.702 407.553L193.852 413.106L192.943 406.707L193.079 413.149L187.335 411.207L192.322 413.941L187.998 416.468L192.782 414.992L191.893 420.51L194.167 415.752L198.126 418.857L195.044 414.953L201.38 413.12L195.237 413.865L197.702 407.553Z" fill="#FFF9E1"/>
<path d="M195.238 408.746L193.916 413.483L191.744 409.272L193.393 413.693L188.953 413.691L193.06 414.418L190.681 417.174L193.632 415.037L194.349 419.059L194.773 415.239L198.26 416.462L195.187 414.482L199.125 411.736L195.057 413.685L195.238 408.746Z" fill="#FFF9E1"/>
<path d="M176.485 392.291L173.846 396.096L173.223 391.711L173.317 396.125L169.38 394.795L172.797 396.669L169.834 398.401L173.113 397.389L172.504 401.17L174.062 397.909L176.775 400.038L174.664 397.362L179.006 396.106L174.795 396.617L176.485 392.291Z" fill="#FFF9E1"/>
<path d="M174.796 393.108L173.891 396.355L172.401 393.468L173.532 396.499L170.489 396.497L173.304 396.996L171.673 398.885L173.696 397.42L174.187 400.177L174.478 397.558L176.867 398.397L174.761 397.04L177.46 395.157L174.673 396.493L174.796 393.108Z" fill="#FFF9E1"/>
<path d="M167.275 295.412L163.706 300.559L162.864 294.628L162.99 300.599L157.666 298.799L162.288 301.334L158.28 303.676L162.714 302.308L161.891 307.422L163.998 303.012L167.668 305.89L164.812 302.272L170.684 300.572L164.99 301.263L167.275 295.412Z" fill="#FFF9E1"/>
<path d="M164.992 296.518L163.766 300.909L161.752 297.006L163.281 301.104L159.166 301.102L162.973 301.776L160.767 304.331L163.503 302.35L164.168 306.078L164.56 302.537L167.792 303.671L164.944 301.835L168.594 299.29L164.824 301.096L164.992 296.518Z" fill="#FFF9E1"/>
<path d="M194.197 238.722L187.392 248.536L185.785 237.227L186.027 248.612L175.875 245.181L184.688 250.013L177.045 254.48L185.501 251.87L183.93 261.623L187.949 253.213L194.946 258.702L189.5 251.802L200.698 248.561L189.84 249.879L194.197 238.722Z" fill="#FFF9E1"/>
<path d="M189.843 240.833L187.507 249.206L183.666 241.762L186.581 249.577L178.734 249.574L185.993 250.858L181.788 255.73L187.004 251.952L188.272 259.062L189.021 252.309L195.183 254.471L189.752 250.971L196.712 246.118L189.523 249.563L189.843 240.833Z" fill="#FFF9E1"/>
<path d="M257.065 465.73L251.55 473.682L250.248 464.518L250.444 473.743L242.218 470.963L249.359 474.879L243.166 478.498L250.018 476.383L248.745 484.286L252.001 477.471L257.671 481.919L253.258 476.328L262.332 473.702L253.534 474.77L257.065 465.73Z" fill="#FFF9E1"/>
<path d="M253.536 467.439L251.643 474.224L248.531 468.192L250.893 474.524L244.535 474.522L250.417 475.563L247.009 479.51L251.236 476.449L252.263 482.21L252.87 476.738L257.863 478.49L253.463 475.654L259.102 471.722L253.277 474.513L253.536 467.439Z" fill="#FFF9E1"/>
<path d="M336.873 410.949L333.051 416.461L332.149 410.109L332.284 416.503L326.583 414.576L331.532 417.29L327.24 419.799L331.989 418.333L331.106 423.81L333.364 419.087L337.293 422.17L334.235 418.295L340.524 416.475L334.426 417.215L336.873 410.949Z" fill="#FFF9E1"/>
<path d="M334.427 412.134L333.115 416.837L330.958 412.656L332.595 417.045L328.188 417.043L332.265 417.765L329.903 420.501L332.833 418.379L333.545 422.372L333.965 418.58L337.426 419.794L334.376 417.828L338.285 415.103L334.248 417.037L334.427 412.134Z" fill="#FFF9E1"/>
<path d="M285.27 416.431L281.87 421.333L281.067 415.684L281.188 421.371L276.116 419.657L280.519 422.071L276.7 424.303L280.925 422.999L280.14 427.871L282.148 423.67L285.644 426.412L282.923 422.965L288.517 421.346L283.093 422.004L285.27 416.431Z" fill="#FFF9E1"/>
<path d="M283.094 417.485L281.927 421.668L280.009 417.95L281.465 421.854L277.544 421.852L281.171 422.494L279.07 424.928L281.676 423.04L282.309 426.592L282.683 423.219L285.762 424.299L283.049 422.55L286.526 420.126L282.935 421.847L283.094 417.485Z" fill="#FFF9E1"/>
<path d="M314.586 392.979L311.187 397.882L310.384 392.232L310.505 397.92L305.433 396.206L309.836 398.62L306.017 400.852L310.242 399.548L309.457 404.42L311.465 400.219L314.961 402.961L312.24 399.514L317.834 397.895L312.41 398.553L314.586 392.979Z" fill="#FFF9E1"/>
<path d="M312.411 394.034L311.244 398.217L309.326 394.498L310.782 398.403L306.862 398.401L310.488 399.043L308.387 401.476L310.993 399.589L311.626 403.141L312.001 399.768L315.079 400.848L312.366 399.099L315.843 396.674L312.252 398.395L312.411 394.034Z" fill="#FFF9E1"/>
<path d="M369.743 305.522L366.343 310.425L365.541 304.775L365.661 310.463L360.589 308.749L364.992 311.163L361.174 313.395L365.398 312.091L364.614 316.963L366.622 312.762L370.117 315.504L367.397 312.057L372.991 310.438L367.566 311.096L369.743 305.522Z" fill="#FFF9E1"/>
<path d="M367.568 306.577L366.4 310.76L364.482 307.041L365.938 310.946L362.018 310.944L365.645 311.586L363.543 314.019L366.149 312.132L366.783 315.684L367.157 312.311L370.235 313.391L367.522 311.642L370.999 309.217L367.408 310.938L367.568 306.577Z" fill="#FFF9E1"/>
<path d="M361.793 271.321L358.393 276.224L357.59 270.574L357.711 276.262L352.639 274.548L357.042 276.962L353.224 279.193L357.448 277.89L356.663 282.762L358.671 278.561L362.167 281.303L359.446 277.855L365.04 276.236L359.616 276.895L361.793 271.321Z" fill="#FFF9E1"/>
<path d="M359.617 272.376L358.45 276.559L356.531 272.84L357.988 276.744L354.067 276.743L357.694 277.385L355.593 279.818L358.199 277.931L358.832 281.483L359.206 278.109L362.285 279.189L359.572 277.441L363.049 275.016L359.458 276.737L359.617 272.376Z" fill="#FFF9E1"/>
<path d="M373.386 261.093L371.576 263.704L371.149 260.696L371.213 263.724L368.513 262.811L370.857 264.097L368.824 265.285L371.073 264.591L370.655 267.185L371.724 264.948L373.586 266.408L372.137 264.572L375.116 263.71L372.228 264.061L373.386 261.093Z" fill="#FFF9E1"/>
<path d="M372.228 261.654L371.607 263.882L370.585 261.902L371.361 263.98L369.273 263.979L371.204 264.321L370.086 265.617L371.473 264.612L371.81 266.503L372.009 264.707L373.649 265.282L372.204 264.351L374.055 263.06L372.143 263.977L372.228 261.654Z" fill="#FFF9E1"/>
<path d="M356.492 289.92L354.681 292.53L354.254 289.522L354.318 292.55L351.618 291.637L353.962 292.923L351.929 294.111L354.178 293.417L353.761 296.011L354.83 293.774L356.691 295.234L355.242 293.399L358.221 292.537L355.333 292.887L356.492 289.92Z" fill="#FFF9E1"/>
<path d="M355.333 290.481L354.712 292.708L353.691 290.728L354.466 292.807L352.379 292.806L354.31 293.147L353.191 294.443L354.578 293.438L354.916 295.329L355.115 293.533L356.754 294.108L355.309 293.177L357.161 291.886L355.248 292.803L355.333 290.481Z" fill="#FFF9E1"/>
<path d="M350.035 253.935L347.492 257.601L346.892 253.376L346.983 257.629L343.19 256.347L346.482 258.152L343.627 259.821L346.786 258.846L346.199 262.489L347.701 259.348L350.314 261.398L348.28 258.821L352.463 257.61L348.407 258.102L350.035 253.935Z" fill="#FFF9E1"/>
<path d="M348.408 254.723L347.535 257.851L346.101 255.07L347.189 257.989L344.258 257.988L346.97 258.468L345.399 260.288L347.347 258.877L347.821 261.532L348.101 259.01L350.403 259.818L348.374 258.51L350.974 256.697L348.289 257.984L348.408 254.723Z" fill="#FFF9E1"/>
<path d="M296.521 405.787L294.09 409.292L293.517 405.253L293.603 409.319L289.977 408.094L293.125 409.819L290.395 411.414L293.415 410.483L292.854 413.965L294.289 410.962L296.788 412.922L294.843 410.458L298.842 409.301L294.965 409.771L296.521 405.787Z" fill="#FFF9E1"/>
<path d="M294.965 406.54L294.131 409.53L292.76 406.872L293.801 409.663L290.998 409.661L293.591 410.12L292.089 411.86L293.952 410.511L294.404 413.05L294.672 410.638L296.873 411.41L294.933 410.161L297.419 408.427L294.851 409.657L294.965 406.54Z" fill="#FFF9E1"/>
<path d="M261.241 387.707L258.81 391.212L258.237 387.173L258.323 391.239L254.697 390.014L257.844 391.739L255.115 393.334L258.135 392.403L257.574 395.885L259.009 392.882L261.508 394.842L259.563 392.378L263.562 391.221L259.685 391.691L261.241 387.707Z" fill="#FFF9E1"/>
<path d="M259.685 388.46L258.851 391.45L257.48 388.792L258.521 391.583L255.718 391.581L258.311 392.04L256.809 393.78L258.672 392.431L259.124 394.97L259.392 392.558L261.592 393.33L259.653 392.081L262.139 390.347L259.571 391.577L259.685 388.46Z" fill="#FFF9E1"/>
<path d="M275.16 261.013L277.953 264.916L278.53 260.363L278.502 264.939L282.56 263.5L279.049 265.494L282.146 267.243L278.733 266.244L279.424 270.153L277.758 266.798L274.98 269.044L277.126 266.24L272.608 265.004L276.978 265.47L275.16 261.013Z" fill="#FFF9E1"/>
<path d="M276.922 261.836L277.911 265.186L279.409 262.173L278.285 265.329L281.438 265.282L278.529 265.841L280.248 267.773L278.13 266.286L277.664 269.15L277.322 266.441L274.859 267.346L277.02 265.908L274.194 263.999L277.103 265.341L276.922 261.836Z" fill="#FFF9E1"/>
<path d="M254.385 264L254.014 268.273L251.615 264.983L253.619 268.533L249.999 269.207H253.456L251.928 271.938L254.014 269.652L255.199 273L254.975 269.652L257.999 270.173L255.199 268.938L257.999 265.979L254.975 268.273L254.385 264Z" fill="#FFF9E1"/>
<path d="M251.385 246L251.014 251.222L248.615 247.202L250.619 251.54L246.999 252.364H250.456L248.928 255.702L251.014 252.908L252.199 257L251.975 252.908L254.999 253.545L252.199 252.036L254.999 248.419L251.975 251.222L251.385 246Z" fill="#FFF9E1"/>
<path d="M275.895 258.484L275.48 262.892L272.797 259.499L275.038 263.16L270.991 263.855H274.856L273.147 266.672L275.48 264.314L276.805 267.768L276.554 264.314L279.935 264.852L276.805 263.578L279.935 260.526L276.554 262.892L275.895 258.484Z" fill="#FFF9E1"/>
<path d="M274.064 258.673L275.388 262.904L271.593 260.771L275.083 263.317L271.611 265.475L275.184 264.028L274.695 267.273L275.939 264.219L278.501 266.916L276.932 263.817L280.267 263.048L276.879 263.042L278.592 259.048L276.381 262.502L274.064 258.673Z" fill="#FFF9E1"/>
<path d="M264.496 259.32L264.081 263.728L261.399 260.335L263.639 263.996L259.593 264.691H263.457L261.748 267.508L264.081 265.15L265.406 268.604L265.155 265.15L268.537 265.688L265.406 264.414L268.537 261.362L265.155 263.728L264.496 259.32Z" fill="#FFF9E1"/>
<path d="M262.666 259.509L263.989 263.74L260.195 261.607L263.685 264.153L260.212 266.311L263.785 264.864L263.296 268.109L264.54 265.055L267.103 267.752L265.533 264.653L268.868 263.884L265.48 263.878L267.193 259.884L264.982 263.338L262.666 259.509Z" fill="#FFF9E1"/>
<path d="M306.459 297.807L304.028 301.311L303.455 297.273L303.541 301.339L299.915 300.113L303.063 301.839L300.333 303.434L303.353 302.502L302.792 305.985L304.227 302.982L306.726 304.942L304.781 302.478L308.78 301.32L304.903 301.791L306.459 297.807Z" fill="#FFF9E1"/>
<path d="M304.903 298.559L304.069 301.55L302.698 298.891L303.739 301.682L300.936 301.681L303.529 302.14L302.027 303.879L303.89 302.53L304.342 305.069L304.61 302.658L306.811 303.43L304.871 302.18L307.357 300.447L304.789 301.677L304.903 298.559Z" fill="#FFF9E1"/>
<path d="M274.663 192.121L277.456 196.023L278.033 191.471L278.005 196.046L282.063 194.608L278.552 196.601L281.649 198.351L278.236 197.352L278.927 201.261L277.261 197.906L274.483 200.152L276.629 197.348L272.111 196.112L276.481 196.577L274.663 192.121Z" fill="#FFF9E1"/>
<path d="M276.425 192.943L277.414 196.293L278.912 193.28L277.788 196.437L280.941 196.39L278.032 196.948L279.751 198.881L277.633 197.394L277.167 200.257L276.825 197.549L274.362 198.454L276.523 197.016L273.697 195.107L276.606 196.448L276.425 192.943Z" fill="#FFF9E1"/>
<path d="M253.933 196L253.516 200.273L250.817 196.983L253.071 200.533L248.999 201.207H252.888L251.169 203.938L253.516 201.652L254.849 205L254.597 201.652L257.999 202.173L254.849 200.938L257.999 197.979L254.597 200.273L253.933 196Z" fill="#FFF9E1"/>
<path d="M250.933 178L250.516 182.273L247.817 178.983L250.071 182.533L245.999 183.207H249.888L248.169 185.938L250.516 183.652L251.849 187L251.597 183.652L254.999 184.173L251.849 182.938L254.999 179.979L251.597 182.273L250.933 178Z" fill="#FFF9E1"/>
<path d="M275.398 189.592L274.983 193.999L272.3 190.606L274.541 194.268L270.494 194.962H274.359L272.65 197.779L274.983 195.422L276.308 198.875L276.057 195.422L279.439 195.959L276.308 194.686L279.439 191.633L276.057 193.999L275.398 189.592Z" fill="#FFF9E1"/>
<path d="M273.568 189.781L274.891 194.011L271.097 191.878L274.586 194.425L271.114 196.583L274.687 195.136L274.198 198.38L275.442 195.326L278.005 198.024L276.435 194.924L279.77 194.155L276.382 194.15L278.095 190.155L275.884 193.609L273.568 189.781Z" fill="#FFF9E1"/>
<path d="M263.999 190.43L263.584 194.837L260.902 191.444L263.142 195.105L259.095 195.8H262.96L261.251 198.617L263.584 196.259L264.909 199.713L264.658 196.259L268.04 196.797L264.909 195.523L268.04 192.471L264.658 194.837L263.999 190.43Z" fill="#FFF9E1"/>
<path d="M262.169 190.619L263.492 194.849L259.698 192.716L263.188 195.263L259.715 197.42L263.288 195.973L262.799 199.218L264.043 196.164L266.606 198.861L265.036 195.762L268.371 194.993L264.983 194.988L266.696 190.993L264.485 194.447L262.169 190.619Z" fill="#FFF9E1"/>
<path d="M305.962 228.916L303.531 232.421L302.958 228.382L303.044 232.448L299.418 231.222L302.566 232.948L299.836 234.543L302.856 233.612L302.295 237.094L303.73 234.091L306.229 236.051L304.284 233.587L308.283 232.43L304.406 232.9L305.962 228.916Z" fill="#FFF9E1"/>
<path d="M304.407 229.669L303.572 232.659L302.201 230.001L303.242 232.792L300.439 232.79L303.032 233.249L301.53 234.989L303.393 233.64L303.846 236.179L304.113 233.767L306.314 234.539L304.374 233.29L306.86 231.556L304.292 232.786L304.407 229.669Z" fill="#FFF9E1"/>
<path d="M321.623 402.997L320.117 405.169L319.762 402.666L319.815 405.186L317.569 404.426L319.519 405.496L317.828 406.484L319.699 405.907L319.351 408.065L320.241 406.204L321.789 407.418L320.584 405.891L323.062 405.174L320.659 405.466L321.623 402.997Z" fill="#FFF9E1"/>
<path d="M320.66 403.464L320.143 405.317L319.293 403.67L319.938 405.4L318.201 405.399L319.808 405.683L318.877 406.761L320.031 405.925L320.312 407.498L320.478 406.004L321.841 406.483L320.64 405.708L322.18 404.634L320.589 405.396L320.66 403.464Z" fill="#FFF9E1"/>
<path d="M333.091 497.974L327.576 505.926L326.274 496.762L326.47 505.987L318.244 503.207L325.385 507.123L319.192 510.742L326.044 508.628L324.771 516.53L328.028 509.715L333.697 514.163L329.285 508.572L338.358 505.946L329.56 507.014L333.091 497.974Z" fill="#FFF9E1"/>
<path d="M329.562 499.683L327.669 506.468L324.557 500.436L326.919 506.769L320.561 506.766L326.443 507.807L323.035 511.754L327.262 508.693L328.289 514.454L328.896 508.983L333.889 510.734L329.489 507.899L335.128 503.966L329.303 506.757L329.562 499.683Z" fill="#FFF9E1"/>
<path d="M355.315 492.661L351.901 497.583L351.095 491.911L351.216 497.621L346.124 495.9L350.545 498.324L346.711 500.564L350.953 499.256L350.165 504.147L352.181 499.929L355.69 502.682L352.959 499.221L358.575 497.596L353.129 498.257L355.315 492.661Z" fill="#FFF9E1"/>
<path d="M353.13 493.719L351.959 497.919L350.032 494.185L351.494 498.105L347.558 498.103L351.2 498.748L349.09 501.191L351.706 499.296L352.342 502.862L352.718 499.475L355.809 500.56L353.085 498.804L356.576 496.37L352.97 498.098L353.13 493.719Z" fill="#FFF9E1"/>
<path d="M308.563 489.672L305.769 493.574L305.192 489.022L305.22 493.597L301.163 492.159L304.674 494.152L301.576 495.901L304.989 494.903L304.299 498.811L305.965 495.456L308.742 497.703L306.596 494.899L311.114 493.662L306.745 494.128L308.563 489.672Z" fill="#FFF9E1"/>
<path d="M306.801 490.494L305.811 493.844L304.314 490.831L305.437 493.988L302.285 493.94L305.193 494.499L303.474 496.431L305.593 494.944L306.059 497.808L306.401 495.1L308.863 496.004L306.703 494.567L309.528 492.658L306.619 493.999L306.801 490.494Z" fill="#FFF9E1"/>
<path d="M157.504 473.549L154.711 477.451L154.134 472.899L154.162 477.474L150.104 476.036L153.616 478.029L150.518 479.778L153.931 478.78L153.241 482.688L154.906 479.333L157.684 481.579L155.538 478.775L160.056 477.539L155.686 478.005L157.504 473.549Z" fill="#FFF9E1"/>
<path d="M155.742 474.371L154.753 477.721L153.255 474.708L154.379 477.865L151.226 477.817L154.135 478.376L152.416 480.308L154.534 478.821L155 481.685L155.342 478.977L157.805 479.881L155.644 478.443L158.47 476.534L155.561 477.876L155.742 474.371Z" fill="#FFF9E1"/>
<path d="M214.648 494.558L211.855 498.461L211.278 493.908L211.306 498.484L207.248 497.045L210.759 499.039L207.662 500.788L211.075 499.789L210.384 503.698L212.05 500.343L214.828 502.589L212.682 499.785L217.2 498.549L212.83 499.015L214.648 494.558Z" fill="#FFF9E1"/>
<path d="M212.886 495.381L211.897 498.731L210.399 495.718L211.523 498.874L208.37 498.827L211.279 499.386L209.56 501.318L211.678 499.831L212.144 502.695L212.486 499.986L214.948 500.891L212.788 499.453L215.613 497.544L212.705 498.886L212.886 495.381Z" fill="#FFF9E1"/>
<path d="M75.6951 457.911L70.1806 465.863L68.879 456.7L69.0746 465.925L60.8482 463.144L67.9893 467.06L61.7965 470.68L68.6482 468.565L67.3752 476.468L70.632 469.653L76.3017 474.101L71.889 468.509L80.9626 465.884L72.1645 466.951L75.6951 457.911Z" fill="#FFF9E1"/>
<path d="M72.1665 459.621L70.2735 466.405L67.1617 460.374L69.5237 466.706L63.1651 466.703L69.0474 467.744L65.6395 471.692L69.8661 468.631L70.8935 474.391L71.5003 468.92L76.4937 470.672L72.0933 467.836L77.7327 463.903L71.9076 466.695L72.1665 459.621Z" fill="#FFF9E1"/>
<path d="M105.499 31L106.175 32.8248L107.999 33.5L106.175 34.1752L105.499 36L104.824 34.1752L102.999 33.5L104.824 32.8248L105.499 31Z" fill="#FFF9E1"/>
<path d="M86.9995 76L87.5396 77.4598L88.9995 78L87.5396 78.5402L86.9995 80L86.4593 78.5402L84.9995 78L86.4593 77.4598L86.9995 76Z" fill="#FFF9E1"/>
<path d="M62.9995 96L63.5396 97.4598L64.9995 98L63.5396 98.5402L62.9995 100L62.4593 98.5402L60.9995 98L62.4593 97.4598L62.9995 96Z" fill="#FFF9E1"/>
<path d="M95.9995 94L96.5396 95.4598L97.9995 96L96.5396 96.5402L95.9995 98L95.4593 96.5402L93.9995 96L95.4593 95.4598L95.9995 94Z" fill="#FFF9E1"/>
<path d="M50.3202 14.251L55.8346 22.2032L57.1363 13.0395L56.9407 22.2648L65.167 19.4843L58.0259 23.4003L64.2187 27.0194L57.3671 24.9049L58.6401 32.8074L55.3832 25.9928L49.7135 30.4405L54.1263 24.8493L45.0526 22.2234L53.8508 23.2911L50.3202 14.251Z" fill="#FFF9E1"/>
<path d="M53.8487 15.9604L55.7418 22.7452L58.8536 16.7135L56.4916 23.0459L62.8502 23.0433L56.9678 24.0842L60.3758 28.0315L56.1491 24.9707L55.1218 30.7313L54.5149 25.2599L49.5215 27.0117L53.922 24.176L48.2826 20.243L54.1076 23.0344L53.8487 15.9604Z" fill="#FFF9E1"/>
<path d="M74.848 5.94904L77.6415 9.85161L78.2182 5.29903L78.1904 9.87418L82.248 8.43603L78.7369 10.4292L81.8343 12.1787L78.4215 11.18L79.1119 15.0886L77.4461 11.7337L74.6685 13.9799L76.8144 11.1759L72.2962 9.93977L76.6661 10.4053L74.848 5.94904Z" fill="#FFF9E1"/>
<path d="M76.6099 6.7713L77.5993 10.1213L79.0969 7.10841L77.9733 10.265L81.1258 10.2176L78.2172 10.7763L79.9364 12.7086L77.818 11.2218L77.3518 14.0852L77.0099 11.377L74.5474 12.2817L76.7078 10.8439L73.8824 8.93486L76.7913 10.2765L76.6099 6.7713Z" fill="#FFF9E1"/>
<path d="M168.763 10.8358L171.556 14.7383L172.133 10.1857L172.105 14.7609L176.163 13.3227L172.651 15.316L175.749 17.0654L172.336 16.0667L173.026 19.9754L171.361 16.6204L168.583 18.8666L170.729 16.0626L166.211 14.8265L170.581 15.2921L168.763 10.8358Z" fill="#FFF9E1"/>
<path d="M170.525 11.658L171.514 15.0081L173.012 11.9951L171.888 15.1517L175.041 15.1044L172.132 15.663L173.851 17.5954L171.733 16.1085L171.267 18.9719L170.925 16.2637L168.462 17.1684L170.623 15.7306L167.797 13.8216L170.706 15.1633L170.525 11.658Z" fill="#FFF9E1"/>
<path d="M77.3324 114.904L80.126 118.807L80.7026 114.254L80.6748 118.829L84.7324 117.391L81.2213 119.384L84.3187 121.134L80.906 120.135L81.5963 124.044L79.9306 120.689L77.153 122.935L79.2988 120.131L74.7806 118.895L79.1506 119.36L77.3324 114.904Z" fill="#FFF9E1"/>
<path d="M79.0947 115.726L80.0841 119.076L81.5816 116.063L80.4581 119.22L83.6105 119.173L80.7019 119.731L82.4211 121.664L80.3027 120.177L79.8365 123.04L79.4947 120.332L77.0322 121.237L79.1926 119.799L76.3672 117.89L79.2761 119.232L79.0947 115.726Z" fill="#FFF9E1"/>
<path d="M68.585 122.566L72.2843 127.734L73.048 121.705L73.0111 127.764L78.3844 125.86L73.7348 128.499L77.8366 130.816L73.3172 129.493L74.2314 134.669L72.0255 130.227L68.3473 133.201L71.189 129.488L65.2057 127.851L70.9926 128.467L68.585 122.566Z" fill="#FFF9E1"/>
<path d="M70.9184 123.656L72.2286 128.092L74.2117 124.103L72.7238 128.283L76.8985 128.22L73.0468 128.96L75.3234 131.519L72.5181 129.55L71.9008 133.341L71.4481 129.755L68.1871 130.953L71.048 129.049L67.3065 126.521L71.1586 128.298L70.9184 123.656Z" fill="#FFF9E1"/>
<path d="M77.5292 132.826L81.2285 137.994L81.9922 131.965L81.9553 138.024L87.3286 136.119L82.6791 138.759L86.7808 141.076L82.2614 139.753L83.1756 144.929L80.9698 140.486L77.2915 143.461L80.1332 139.748L74.15 138.111L79.9369 138.727L77.5292 132.826Z" fill="#FFF9E1"/>
<path d="M79.8628 133.916L81.173 138.352L83.1561 134.362L81.6682 138.542L85.8428 138.48L81.9912 139.219L84.2678 141.778L81.4625 139.809L80.8452 143.601L80.3925 140.015L77.1315 141.213L79.9924 139.309L76.2509 136.781L80.103 138.558L79.8628 133.916Z" fill="#FFF9E1"/>
<path d="M94.9209 122.566L98.6203 127.734L99.3839 121.705L99.347 127.764L104.72 125.86L100.071 128.499L104.173 130.816L99.6532 129.493L100.567 134.669L98.3615 130.227L94.6833 133.201L97.5249 129.488L91.5417 127.851L97.3286 128.467L94.9209 122.566Z" fill="#FFF9E1"/>
<path d="M97.2543 123.656L98.5645 128.092L100.548 124.103L99.0598 128.283L103.234 128.22L99.3827 128.96L101.659 131.519L98.854 129.55L98.2367 133.341L97.784 129.755L94.5231 130.953L97.384 129.049L93.6424 126.521L97.4945 128.298L97.2543 123.656Z" fill="#FFF9E1"/>
<path d="M174.425 123.055L178.125 128.222L178.888 122.194L178.851 128.252L184.225 126.348L179.575 128.987L183.677 131.304L179.157 129.982L180.072 135.158L177.866 130.715L174.188 133.689L177.029 129.976L171.046 128.339L176.833 128.956L174.425 123.055Z" fill="#FFF9E1"/>
<path d="M176.759 124.144L178.069 128.581L180.052 124.591L178.564 128.771L182.739 128.708L178.887 129.448L181.164 132.007L178.358 130.038L177.741 133.83L177.288 130.243L174.027 131.441L176.888 129.537L173.147 127.009L176.999 128.786L176.759 124.144Z" fill="#FFF9E1"/>
<path d="M51.2373 58.492L55.9617 65.3047L57.0768 57.4541L56.9092 65.3576L63.9569 62.9754L57.839 66.3303L63.1445 69.4309L57.2745 67.6194L58.3651 74.3895L55.5749 68.5514L50.7176 72.3618L54.4981 67.5717L46.7245 65.3221L54.2621 66.2368L51.2373 58.492Z" fill="#FFF9E1"/>
<path d="M54.2604 59.9562L55.8822 65.7688L58.5481 60.6014L56.5246 66.0265L61.9721 66.0242L56.9326 66.916L59.8522 70.2977L56.2312 67.6755L55.351 72.6107L54.8311 67.9232L50.5532 69.4241L54.3231 66.9946L49.4918 63.6252L54.4822 66.0166L54.2604 59.9562Z" fill="#FFF9E1"/>
<path d="M343.989 46.0147L349.504 53.9668L350.806 44.8032L350.61 54.0285L358.836 51.2479L351.695 55.1639L357.888 58.7831L351.036 56.6686L352.309 64.571L349.052 57.7565L343.383 62.2042L347.796 56.613L338.722 53.9871L347.52 55.0547L343.989 46.0147Z" fill="#FFF9E1"/>
<path d="M347.518 47.7241L349.411 54.5089L352.523 48.4772L350.161 54.8096L356.519 54.807L350.637 55.8479L354.045 59.7952L349.818 56.7344L348.791 62.495L348.184 57.0236L343.191 58.7754L347.591 55.9396L341.952 52.0067L347.777 54.798L347.518 47.7241Z" fill="#FFF9E1"/>
<path d="M169 134L168.459 135.46L167 136L168.459 136.54L169 138L169.54 136.54L171 136L169.54 135.46L169 134Z" fill="#FFF9E1"/>
<path d="M160 142L159.459 143.46L158 144L159.459 144.54L160 146L160.54 144.54L162 144L160.54 143.46L160 142Z" fill="#FFF9E1"/>
<path d="M154 118L153.189 119.825L151 120.5L153.189 121.175L154 123L154.81 121.175L157 120.5L154.81 119.825L154 118Z" fill="#FFF9E1"/>
<path d="M75.4995 114L74.5541 116.555L71.9995 117.5L74.5541 118.445L75.4995 121L76.4448 118.445L78.9995 117.5L76.4448 116.555L75.4995 114Z" fill="#FFF9E1"/>
<path d="M66.9995 97L66.1892 99.1897L63.9995 100L66.1892 100.81L66.9995 103L67.8097 100.81L69.9995 100L67.8097 99.1897L66.9995 97Z" fill="#FFF9E1"/>
<path d="M56.9995 93L56.1892 94.8248L53.9995 95.5L56.1892 96.1752L56.9995 98L57.8097 96.1752L59.9995 95.5L57.8097 94.8248L56.9995 93Z" fill="#FFF9E1"/>
<path d="M165.741 29L165.509 31.3739L164.009 29.5464L165.262 31.5184L163 31.8926H165.16L164.205 33.4098L165.509 32.1399L166.249 34L166.109 32.1399L167.999 32.4294L166.249 31.7435L168 30.0995L166.109 31.3739L165.741 29Z" fill="#FFF9E1"/>
<path d="M124.74 28L124.509 29.8991L123.009 28.4371L124.262 30.0147L121.999 30.3141H124.16L123.204 31.5279L124.509 30.5119L125.249 32L125.109 30.5119L126.999 30.7435L125.249 30.1948L126.999 28.8796L125.109 29.8991L124.74 28Z" fill="#FFF9E1"/>
<path d="M142.289 17L142.011 19.3739L140.211 17.5464L141.714 19.5184L139 19.8926H141.592L140.446 21.4098L142.011 20.1399L142.899 22L142.731 20.1399L144.999 20.4294L142.899 19.7435L145 18.0995L142.731 19.3739L142.289 17Z" fill="#FFF9E1"/>
<path d="M109.933 1L109.516 5.74772L106.817 2.09275L109.071 6.03675L104.999 6.78529H108.888L107.169 9.81967L109.516 7.27986L110.849 11L110.597 7.27986L113.999 7.85885L110.849 6.48708L113.999 3.199L110.597 5.74772L109.933 1Z" fill="#FFF9E1"/>
<path d="M108.069 1.51502L109.393 5.74554L105.598 3.61272L109.088 6.15917L105.615 8.31694L109.189 6.8699L108.699 10.1144L109.944 7.06069L112.506 9.75795L110.936 6.65869L114.271 5.88946L110.884 5.88417L112.596 1.88952L110.386 5.34354L108.069 1.51502Z" fill="#FFF9E1"/>
<path d="M92.9333 15L92.5163 19.2729L89.8168 15.9835L92.0714 19.5331L87.9995 20.2068H91.8881L90.1685 22.9377L92.5163 20.6519L93.8492 24L93.5966 20.6519L96.9994 21.173L93.8492 19.9384L96.9995 16.9791L93.5966 19.2729L92.9333 15Z" fill="#FFF9E1"/>
<path d="M90.6775 14.7064L92.0012 18.9369L88.2065 16.8041L91.6963 19.3506L88.2236 21.5083L91.797 20.0613L91.3077 23.3058L92.552 20.2521L95.1144 22.9494L93.5448 19.8501L96.8798 19.0809L93.4919 19.0756L95.2046 15.0809L92.9939 18.5349L90.6775 14.7064Z" fill="#FFF9E1"/>
<path d="M83.9196 53.4457L84.9383 56.7014L82.0179 55.06L84.7036 57.0197L82.0311 58.6803L84.7811 57.5667L84.4046 60.0636L85.3622 57.7135L87.3341 59.7893L86.1262 57.4042L88.6928 56.8122L86.0855 56.8081L87.4035 53.7339L85.7022 56.392L83.9196 53.4457Z" fill="#FFF9E1"/>
<path d="M72.1345 1.32422L71.7201 5.73162L69.0373 2.33864L71.278 5.99993L67.2312 6.69482H71.0958L69.3869 9.51169L71.7201 7.15394L73.0448 10.6074L72.7937 7.15394L76.1754 7.69142L73.0448 6.41798L76.1755 3.3656L72.7937 5.73162L72.1345 1.32422Z" fill="#FFF9E1"/>
<path d="M70.3045 1.51307L71.6282 5.74358L67.8335 3.61077L71.3233 6.15722L67.8506 8.31498L71.424 6.86795L70.9347 10.1125L72.179 7.05874L74.7414 9.756L73.1717 6.65674L76.5068 5.88751L73.1189 5.88221L74.8315 1.88757L72.6209 5.34158L70.3045 1.51307Z" fill="#FFF9E1"/>
<path d="M171.515 5.72266L171.101 10.1301L168.418 6.73708L170.658 10.3984L166.612 11.0933H170.476L168.767 13.9101L171.101 11.5524L172.425 15.0059L172.174 11.5524L175.556 12.0899L172.425 10.8164L175.556 7.76403L172.174 10.1301L171.515 5.72266Z" fill="#FFF9E1"/>
<path d="M169.685 5.9115L171.009 10.142L167.214 8.00921L170.704 10.5557L167.231 12.7134L170.804 11.2664L170.315 14.5109L171.559 11.4572L174.122 14.1544L172.552 11.0552L175.887 10.2859L172.499 10.2806L174.212 6.28601L172.001 9.74002L169.685 5.9115Z" fill="#FFF9E1"/>
<path d="M140.969 33.0053L134.163 42.8191L132.557 31.5102L132.798 42.8953L122.646 39.4637L131.459 44.2965L123.816 48.7629L132.272 46.1535L130.701 55.906L134.721 47.4961L141.718 52.985L136.272 46.0848L147.47 42.8442L136.612 44.1617L140.969 33.0053Z" fill="#FFF9E1"/>
<path d="M136.614 35.1158L134.278 43.489L130.438 36.0452L133.353 43.8601L125.505 43.8569L132.765 45.1414L128.559 50.0129L133.775 46.2355L135.043 53.3447L135.792 46.5924L141.954 48.7544L136.524 45.2547L143.484 40.401L136.295 43.8458L136.614 35.1158Z" fill="#FFF9E1"/>
<path d="M180.747 110.959L176.897 116.512L175.988 110.113L176.125 116.555L170.381 114.613L175.367 117.348L171.043 119.875L175.827 118.398L174.938 123.916L177.212 119.158L181.171 122.263L178.09 118.359L184.425 116.526L178.282 117.271L180.747 110.959Z" fill="#FFF9E1"/>
<path d="M178.283 112.152L176.961 116.89L174.789 112.678L176.438 117.1L171.998 117.098L176.105 117.824L173.726 120.581L176.677 118.443L177.394 122.466L177.818 118.645L181.305 119.869L178.232 117.889L182.17 115.142L178.103 117.091L178.283 112.152Z" fill="#FFF9E1"/>
<path d="M159.53 95.7007L156.891 99.5061L156.268 95.1209L156.362 99.5356L152.425 98.205L155.843 100.079L152.879 101.811L156.158 100.799L155.549 104.581L157.107 101.32L159.82 103.448L157.709 100.772L162.051 99.5158L157.841 100.027L159.53 95.7007Z" fill="#FFF9E1"/>
<path d="M157.842 96.5182L156.936 99.765L155.447 96.8786L156.577 99.9089L153.534 99.9077L156.349 100.406L154.718 102.295L156.741 100.83L157.232 103.587L157.523 100.968L159.912 101.807L157.807 100.45L160.505 98.5676L157.718 99.9034L157.842 96.5182Z" fill="#FFF9E1"/>
<path d="M140.55 176.955L137.756 180.857L137.18 176.305L137.207 180.88L133.15 179.442L136.661 181.435L133.564 183.185L136.976 182.186L136.286 186.095L137.952 182.74L140.729 184.986L138.583 182.182L143.102 180.946L138.732 181.411L140.55 176.955Z" fill="#FFF9E1"/>
<path d="M138.788 177.777L137.798 181.127L136.301 178.114L137.424 181.271L134.272 181.223L137.18 181.782L135.461 183.714L137.58 182.228L138.046 185.091L138.388 182.383L140.85 183.288L138.69 181.85L141.515 179.941L138.606 181.282L138.788 177.777Z" fill="#FFF9E1"/>
<path d="M315.219 245.619L310.494 252.432L309.379 244.581L309.547 252.485L302.499 250.102L308.617 253.457L303.312 256.558L309.181 254.746L308.091 261.516L310.881 255.678L315.738 259.489L311.958 254.699L319.731 252.449L312.194 253.364L315.219 245.619Z" fill="#FFF9E1"/>
<path d="M312.196 247.083L310.574 252.896L307.908 247.728L309.931 253.153L304.484 253.151L309.523 254.043L306.604 257.425L310.225 254.802L311.105 259.738L311.625 255.05L315.903 256.551L312.133 254.122L316.964 250.752L311.974 253.144L312.196 247.083Z" fill="#FFF9E1"/>
<path d="M22.4668 233.138L16.9523 241.09L15.6506 231.926L15.8463 241.152L7.61992 238.371L14.761 242.287L8.56819 245.906L15.4199 243.792L14.1469 251.694L17.4037 244.88L23.0734 249.327L18.6606 243.736L27.7343 241.11L18.9361 242.178L22.4668 233.138Z" fill="#FFF9E1"/>
<path d="M18.9382 234.849L17.0451 241.634L13.9333 235.602L16.2954 241.935L9.93677 241.932L15.8191 242.973L12.4112 246.92L16.6378 243.859L17.6652 249.62L18.272 244.149L23.2654 245.9L18.865 243.065L24.5044 239.132L18.6793 241.923L18.9382 234.849Z" fill="#FFF9E1"/>
<path d="M58.7405 161.315L53.226 169.268L51.9244 160.104L52.12 169.329L43.8937 166.549L51.0348 170.465L44.8419 174.084L51.6936 171.969L50.4206 179.872L53.6775 173.057L59.3472 177.505L54.9344 171.914L64.008 169.288L55.2099 170.356L58.7405 161.315Z" fill="#FFF9E1"/>
<path d="M55.212 163.025L53.3189 169.81L50.2071 163.778L52.5691 170.11L46.2105 170.108L52.0929 171.149L48.6849 175.096L52.9115 172.035L53.9389 177.796L54.5457 172.324L59.5391 174.076L55.1387 171.24L60.7781 167.307L54.953 170.099L55.212 163.025Z" fill="#FFF9E1"/>
</svg>
