<svg width="408" height="499" viewBox="0 0 408 499" fill="none" xmlns="http://www.w3.org/2000/svg">
<path d="M390.959 134.625L391.431 136.28L393.1 135.861L391.903 137.098L393.1 138.334L391.431 137.916L390.959 139.57L390.487 137.916L388.817 138.334L390.014 137.098L388.817 135.861L390.487 136.28L390.959 134.625Z" fill="#FFF9E1"/>
<path d="M350.297 145.064L350.769 146.719L352.438 146.301L351.241 147.537L352.438 148.773L350.769 148.355L350.297 150.01L349.825 148.355L348.156 148.773L349.352 147.537L348.156 146.301L349.825 146.719L350.297 145.064Z" fill="#FFF9E1"/>
<path d="M374.474 98.3594L375.142 100.164L376.947 100.832L375.142 101.5L374.474 103.305L373.806 101.5L372.002 100.832L373.806 100.164L374.474 98.3594Z" fill="#FFF9E1"/>
<path d="M210.178 221.443L210.846 223.248L212.651 223.916L210.846 224.584L210.178 226.389L209.51 224.584L207.706 223.916L209.51 223.248L210.178 221.443Z" fill="#FFF9E1"/>
<path d="M220.618 230.785L221.286 232.59L223.091 233.258L221.286 233.926L220.618 235.731L219.951 233.926L218.146 233.258L219.951 232.59L220.618 230.785Z" fill="#FFF9E1"/>
<path d="M101.93 265.402L102.746 267.608L104.952 268.425L102.746 269.241L101.93 271.447L101.113 269.241L98.9074 268.425L101.113 267.608L101.93 265.402Z" fill="#FFF9E1"/>
<path d="M107.974 317.055L108.79 319.261L110.996 320.077L108.79 320.893L107.974 323.099L107.158 320.893L104.952 320.077L107.158 319.261L107.974 317.055Z" fill="#FFF9E1"/>
<path d="M87.0935 366.508L87.7613 368.313L89.5662 368.98L87.7613 369.648L87.0935 371.453L86.4256 369.648L84.6208 368.98L86.4256 368.313L87.0935 366.508Z" fill="#FFF9E1"/>
<path d="M61.2677 390.686L61.9355 392.49L63.7404 393.158L61.9355 393.826L61.2677 395.631L60.5998 393.826L58.795 393.158L60.5998 392.49L61.2677 390.686Z" fill="#FFF9E1"/>
<path d="M96.9842 387.938L97.6521 389.742L99.4569 390.41L97.6521 391.078L96.9842 392.883L96.3164 391.078L94.5115 390.41L96.3164 389.742L96.9842 387.938Z" fill="#FFF9E1"/>
<path d="M75.5543 270.348L76.3705 272.554L78.5764 273.37L76.3705 274.186L75.5543 276.392L74.738 274.186L72.5321 273.37L74.738 272.554L75.5543 270.348Z" fill="#FFF9E1"/>
<path d="M227.212 204.959L228.029 207.165L230.234 207.981L228.029 208.797L227.212 211.003L226.396 208.797L224.19 207.981L226.396 207.165L227.212 204.959Z" fill="#FFF9E1"/>
<path d="M376.672 205.508L377.34 207.313L379.145 207.98L377.34 208.648L376.672 210.453L376.004 208.648L374.2 207.98L376.004 207.313L376.672 205.508Z" fill="#FFF9E1"/>
<path d="M350.846 206.059L351.514 207.863L353.319 208.531L351.514 209.199L350.846 211.004L350.179 209.199L348.374 208.531L350.179 207.863L350.846 206.059Z" fill="#FFF9E1"/>
<path d="M312.932 200.014L314.045 203.022L317.053 204.135L314.045 205.248L312.932 208.256L311.819 205.248L308.811 204.135L311.819 203.022L312.932 200.014Z" fill="#FFF9E1"/>
<path d="M323.097 181.332L323.988 183.738L326.394 184.629L323.988 185.519L323.097 187.926L322.207 185.519L319.801 184.629L322.207 183.738L323.097 181.332Z" fill="#FFF9E1"/>
<path d="M333.538 176.387L334.428 178.793L336.835 179.684L334.428 180.574L333.538 182.981L332.647 180.574L330.241 179.684L332.647 178.793L333.538 176.387Z" fill="#FFF9E1"/>
<path d="M353.319 189.023L354.21 191.43L356.616 192.32L354.21 193.211L353.319 195.617L352.429 193.211L350.022 192.32L352.429 191.43L353.319 189.023Z" fill="#FFF9E1"/>
<path d="M353.594 281.887L354.262 283.692L356.067 284.359L354.262 285.027L353.594 286.832L352.926 285.027L351.121 284.359L352.926 283.692L353.594 281.887Z" fill="#FFF9E1"/>
<path d="M111.125 117.59L112.322 130.895L120.068 120.652L113.598 131.705L125.283 133.802H114.124L119.059 142.306L112.322 135.188L108.497 145.614L109.222 135.188L99.4572 136.811L108.497 132.967L99.4569 123.752L109.222 130.895L111.125 117.59Z" fill="#FFF9E1"/>
<path d="M114.175 122.008L111.844 131.49L119.631 126.247L112.535 132.353L120.115 136.577L112.401 133.928L113.794 140.978L110.825 134.459L105.707 140.758L108.682 133.723L101.546 132.527L108.708 132.015L104.645 123.499L109.701 130.754L114.175 122.008Z" fill="#FFF9E1"/>
<path d="M184.15 136.273L184.609 141.23L187.575 137.414L185.098 141.532L189.572 142.313H185.299L187.189 145.481L184.609 142.83L183.144 146.714L183.421 142.83L179.682 143.434L183.144 142.002L179.682 138.569L183.421 141.23L184.15 136.273Z" fill="#FFF9E1"/>
<path d="M187.447 117.041L187.906 121.998L190.872 118.182L188.394 122.299L192.869 123.081H188.596L190.486 126.249L187.906 123.597L186.441 127.481L186.718 123.597L182.979 124.202L186.441 122.77L182.979 119.337L186.718 121.998L187.447 117.041Z" fill="#FFF9E1"/>
<path d="M214.034 104.953L214.289 107.823L215.937 105.614L214.561 107.998L217.047 108.45H214.673L215.722 110.284L214.289 108.749L213.475 110.997L213.629 108.749L211.552 109.099L213.475 108.27L211.552 106.282L213.629 107.823L214.034 104.953Z" fill="#FFF9E1"/>
<path d="M259.092 102.205L259.347 105.075L260.995 102.866L259.618 105.249L262.105 105.702H259.73L260.78 107.536L259.347 106.001L258.533 108.249L258.687 106.001L256.61 106.351L258.533 105.522L256.61 103.534L258.687 105.075L259.092 102.205Z" fill="#FFF9E1"/>
<path d="M325.527 66.4883L325.833 69.8797L327.81 67.2689L326.158 70.0862L329.142 70.6209H326.293L327.553 72.7884L325.833 70.9742L324.856 73.6316L325.041 70.9742L322.548 71.3878L324.856 70.4079L322.548 68.0591L325.041 69.8797L325.527 66.4883Z" fill="#FFF9E1"/>
<path d="M377.728 50.0039L378.034 53.3953L380.011 50.7845L378.36 53.6018L381.343 54.1365H378.494L379.754 56.3041L378.034 54.4898L377.057 57.1472L377.242 54.4898L374.749 54.9034L377.057 53.9235L374.749 51.5747L377.242 53.3953L377.728 50.0039Z" fill="#FFF9E1"/>
<path d="M359.046 62.6426L359.351 66.034L361.329 63.4232L359.677 66.2405L362.66 66.7752H359.811L361.071 68.9427L359.351 67.1285L358.375 69.7859L358.56 67.1285L356.067 67.5421L358.375 66.5622L356.067 64.2134L358.56 66.034L359.046 62.6426Z" fill="#FFF9E1"/>
<path d="M349.704 46.707L350.01 50.0985L351.988 47.4876L350.336 50.3049L353.319 50.8396H350.47L351.73 53.0072L350.01 51.1929L349.033 53.8503L349.218 51.1929L346.725 51.6065L349.033 50.6266L346.725 48.2778L349.218 50.0985L349.704 46.707Z" fill="#FFF9E1"/>
<path d="M239.86 90.1172L240.115 92.9869L241.763 90.7777L240.386 93.1616L242.873 93.614H240.498L241.548 95.4481L240.115 93.9129L239.301 96.1615L239.455 93.9129L237.378 94.2629L239.301 93.4338L237.378 91.4463L239.455 92.9869L239.86 90.1172Z" fill="#FFF9E1"/>
<path d="M160.522 130.23L160.981 135.187L163.947 131.371L161.47 135.489L165.945 136.27H161.671L163.561 139.438L160.981 136.787L159.516 140.671L159.794 136.787L156.054 137.391L159.516 135.959L156.054 132.526L159.794 135.187L160.522 130.23Z" fill="#FFF9E1"/>
<path d="M162.546 130.442L161.082 135.2L165.279 132.801L161.42 135.665L165.26 138.092L161.308 136.464L161.849 140.113L160.473 136.679L157.64 139.712L159.375 136.227L155.687 135.362L159.434 135.356L157.54 130.863L159.985 134.748L162.546 130.442Z" fill="#FFF9E1"/>
<path d="M173.127 131.17L173.586 136.127L176.552 132.311L174.075 136.428L178.55 137.21H174.276L176.166 140.378L173.586 137.726L172.121 141.61L172.399 137.726L168.659 138.331L172.121 136.899L168.659 133.466L172.399 136.127L173.127 131.17Z" fill="#FFF9E1"/>
<path d="M175.151 131.381L173.687 136.139L177.884 133.74L174.025 136.604L177.865 139.031L173.913 137.404L174.454 141.053L173.078 137.618L170.245 140.652L171.981 137.166L168.293 136.301L172.039 136.295L170.145 131.803L172.59 135.687L175.151 131.381Z" fill="#FFF9E1"/>
<path d="M401.275 160.051L401.658 164.202L404.143 161.006L402.068 164.455L405.816 165.11H402.237L403.819 167.763L401.658 165.542L400.432 168.795L400.664 165.542L397.532 166.048L400.432 164.849L397.532 161.974L400.664 164.202L401.275 160.051Z" fill="#FFF9E1"/>
<path d="M402.97 160.228L401.744 164.213L405.258 162.204L402.026 164.602L405.242 166.635L401.933 165.272L402.386 168.328L401.233 165.452L398.86 167.992L400.314 165.073L397.225 164.348L400.363 164.343L398.777 160.581L400.824 163.834L402.97 160.228Z" fill="#FFF9E1"/>
<path d="M400.176 199.613L400.559 203.765L403.044 200.569L400.969 204.018L404.717 204.672H401.138L402.72 207.325L400.559 205.105L399.333 208.358L399.565 205.105L396.433 205.611L399.333 204.411L396.433 201.536L399.565 203.765L400.176 199.613Z" fill="#FFF9E1"/>
<path d="M401.871 199.79L400.645 203.775L404.159 201.766L400.927 204.165L404.143 206.197L400.834 204.834L401.287 207.891L400.134 205.014L397.761 207.555L399.215 204.635L396.126 203.911L399.264 203.906L397.678 200.143L399.725 203.397L401.871 199.79Z" fill="#FFF9E1"/>
<path d="M275.332 73.4746L275.79 78.4313L278.757 74.6155L276.279 78.7331L280.754 79.5146H276.48L278.37 82.6825L275.79 80.0309L274.325 83.9148L274.603 80.0309L270.863 80.6354L274.325 79.2032L270.863 75.7704L274.603 78.4313L275.332 73.4746Z" fill="#FFF9E1"/>
<path d="M277.355 73.686L275.892 78.4438L280.088 76.0452L276.229 78.909L280.069 81.3357L276.117 79.7083L276.659 83.3572L275.283 79.9229L272.449 82.9563L274.185 79.4708L270.497 78.6057L274.243 78.5997L272.349 74.1072L274.794 77.9917L277.355 73.686Z" fill="#FFF9E1"/>
<path d="M294.564 88.3105L295.022 93.2673L297.989 89.4514L295.511 93.569L299.986 94.3505H295.712L297.602 97.5185L295.022 94.8669L293.557 98.7508L293.835 94.8669L290.095 95.4713L293.557 94.0392L290.095 90.6064L293.835 93.2673L294.564 88.3105Z" fill="#FFF9E1"/>
<path d="M296.587 88.522L295.124 93.2798L299.32 90.8811L295.461 93.7449L299.301 96.1716L295.349 94.5443L295.891 98.1932L294.515 94.7588L291.681 97.7923L293.417 94.3067L289.729 93.4416L293.475 93.4357L291.581 88.9431L294.026 92.8277L296.587 88.522Z" fill="#FFF9E1"/>
<path d="M304.061 132.089L302.934 135.75L306.163 133.904L303.194 136.108L306.149 137.976L303.108 136.724L303.524 139.532L302.465 136.889L300.285 139.223L301.62 136.541L298.782 135.875L301.665 135.87L300.208 132.413L302.089 135.402L304.061 132.089Z" fill="#FFF9E1"/>
<path d="M317.093 73.4746L317.551 78.4313L320.518 74.6155L318.04 78.7331L322.515 79.5146H318.241L320.131 82.6825L317.551 80.0309L316.086 83.9148L316.364 80.0309L312.624 80.6354L316.086 79.2032L312.624 75.7704L316.364 78.4313L317.093 73.4746Z" fill="#FFF9E1"/>
<path d="M319.116 73.686L317.653 78.4438L321.849 76.0452L317.99 78.909L321.83 81.3357L317.878 79.7083L318.419 83.3572L317.043 79.9229L314.21 82.9563L315.946 79.4708L312.258 78.6057L316.004 78.5997L314.11 74.1072L316.555 77.9917L319.116 73.686Z" fill="#FFF9E1"/>
<path d="M398.966 55.3418L399.424 60.2985L402.391 56.4827L399.913 60.6003L404.388 61.3818H400.115L402.004 64.5497L399.424 61.8981L397.959 65.782L398.237 61.8981L394.497 62.5026L397.959 61.0704L394.497 57.6376L398.237 60.2985L398.966 55.3418Z" fill="#FFF9E1"/>
<path d="M400.99 55.5532L399.526 60.311L403.722 57.9124L399.863 60.7762L403.703 63.2029L399.752 61.5755L400.293 65.2244L398.917 61.7901L396.083 64.8235L397.819 61.338L394.131 60.4729L397.877 60.4669L395.983 55.9744L398.428 59.8589L400.99 55.5532Z" fill="#FFF9E1"/>
<path d="M383.031 8.08594L383.489 13.0427L386.456 9.22679L383.978 13.3444L388.453 14.1259H384.179L386.069 17.2939L383.489 14.6422L382.024 18.5262L382.302 14.6422L378.562 15.2467L382.024 13.8146L378.562 10.3817L382.302 13.0427L383.031 8.08594Z" fill="#FFF9E1"/>
<path d="M385.055 8.29735L383.591 13.0551L387.787 10.6565L383.928 13.5203L387.768 15.947L383.817 14.3196L384.358 17.9686L382.982 14.5342L380.148 17.5676L381.884 14.0821L378.196 13.217L381.942 13.2111L380.048 8.71853L382.493 12.603L385.055 8.29735Z" fill="#FFF9E1"/>
<path d="M207.196 78.4199L207.654 83.3766L210.621 79.5608L208.143 83.6784L212.618 84.4599H208.344L210.234 87.6278L207.654 84.9762L206.189 88.8601L206.467 84.9762L202.727 85.5807L206.189 84.1486L202.727 80.7157L206.467 83.3766L207.196 78.4199Z" fill="#FFF9E1"/>
<path d="M209.219 78.6313L207.756 83.3891L211.952 80.9905L208.093 83.8543L211.933 86.281L207.981 84.6536L208.522 88.3025L207.146 84.8682L204.313 87.9016L206.049 84.4161L202.361 83.551L206.107 83.545L204.213 79.0525L206.658 82.937L209.219 78.6313Z" fill="#FFF9E1"/>
<path d="M240.974 109.102L248.5 120.139L250.276 107.421L250.009 120.225L261.236 116.365L251.49 121.801L259.942 126.824L250.591 123.889L252.328 134.857L247.884 125.399L240.146 131.572L246.168 123.812L233.786 120.167L245.792 121.649L240.974 109.102Z" fill="#FFF9E1"/>
<path d="M245.79 111.476L248.373 120.892L252.62 112.521L249.396 121.31L258.074 121.306L250.046 122.751L254.697 128.23L248.929 123.981L247.527 131.977L246.699 124.383L239.884 126.814L245.89 122.878L238.193 117.42L246.143 121.294L245.79 111.476Z" fill="#FFF9E1"/>
<path d="M196.986 196.773L201.244 203.017L202.249 195.822L202.098 203.066L208.45 200.882L202.936 203.957L207.718 206.799L202.428 205.139L203.41 211.345L200.896 205.993L196.518 209.486L199.925 205.095L192.919 203.033L199.713 203.872L196.986 196.773Z" fill="#FFF9E1"/>
<path d="M199.711 198.116L201.173 203.444L203.575 198.707L201.752 203.68L206.661 203.678L202.119 204.495L204.751 207.595L201.487 205.191L200.694 209.715L200.225 205.419L196.37 206.794L199.768 204.567L195.413 201.479L199.911 203.671L199.711 198.116Z" fill="#FFF9E1"/>
<path d="M220.449 179.609L223.367 183.889L224.056 178.957L223.952 183.922L228.305 182.425L224.526 184.533L227.803 186.481L224.178 185.343L224.851 189.596L223.128 185.928L220.128 188.322L222.463 185.313L217.661 183.899L222.317 184.474L220.449 179.609Z" fill="#FFF9E1"/>
<path d="M222.316 180.529L223.318 184.181L224.964 180.935L223.714 184.343L227.079 184.341L223.966 184.902L225.77 187.026L223.533 185.379L222.99 188.479L222.668 185.534L220.026 186.477L222.355 184.951L219.37 182.834L222.453 184.337L222.316 180.529Z" fill="#FFF9E1"/>
<path d="M230.633 70.6545L234.58 76.4424L235.511 69.7727L235.371 76.4873L241.258 74.4635L236.148 77.3137L240.58 79.9479L235.676 78.4089L236.587 84.1607L234.256 79.2007L230.199 82.4379L233.357 78.3684L226.863 76.4572L233.16 77.2342L230.633 70.6545Z" fill="#FFF9E1"/>
<path d="M233.158 71.8992L234.513 76.8375L236.74 72.4473L235.05 77.0564L239.6 77.0545L235.391 77.8121L237.829 80.6851L234.805 78.4573L234.069 82.6502L233.635 78.6678L230.061 79.9429L233.211 77.8789L229.175 75.0163L233.344 77.048L233.158 71.8992Z" fill="#FFF9E1"/>
<path d="M200.862 6.89692L208.387 17.934L210.164 5.21547L209.897 18.0196L221.123 14.1603L211.378 19.5955L219.829 24.6186L210.479 21.6839L212.216 32.6519L207.771 23.1938L200.034 29.3668L206.056 21.6066L193.673 17.9621L205.68 19.4439L200.862 6.89692Z" fill="#FFF9E1"/>
<path d="M205.677 9.27063L208.261 18.6874L212.507 10.3158L209.284 19.1048L217.962 19.1012L209.934 20.5459L214.585 26.0245L208.817 21.7763L207.415 29.7716L206.586 22.1777L199.772 24.6091L205.777 20.6732L198.081 15.2146L206.031 19.0888L205.677 9.27063Z" fill="#FFF9E1"/>
<path d="M131.342 262.198L137.44 271.141L138.879 260.835L138.663 271.21L147.76 268.083L139.863 272.487L146.711 276.557L139.135 274.179L140.542 283.067L136.941 275.403L130.671 280.405L135.551 274.117L125.517 271.164L135.246 272.364L131.342 262.198Z" fill="#FFF9E1"/>
<path d="M135.244 264.12L137.337 271.75L140.778 264.967L138.166 272.088L145.198 272.085L138.693 273.256L142.462 277.695L137.788 274.253L136.652 280.732L135.981 274.578L130.459 276.548L135.325 273.359L129.089 268.936L135.53 272.075L135.244 264.12Z" fill="#FFF9E1"/>
<path d="M43.0881 200.59L47.3146 206.788L48.3122 199.645L48.1623 206.836L54.4673 204.669L48.9941 207.721L53.7405 210.542L48.4891 208.894L49.4648 215.054L46.9686 209.742L42.6231 213.209L46.0052 208.851L39.0508 206.804L45.7941 207.636L43.0881 200.59Z" fill="#FFF9E1"/>
<path d="M45.7925 201.921L47.2435 207.21L49.6285 202.508L47.8181 207.444L52.6916 207.442L48.1832 208.253L50.7952 211.33L47.5557 208.945L46.7683 213.435L46.3032 209.17L42.476 210.535L45.8487 208.325L41.5264 205.259L45.991 207.435L45.7925 201.921Z" fill="#FFF9E1"/>
<path d="M100.152 206.756L103.912 212.27L104.799 205.916L104.666 212.313L110.274 210.385L105.406 213.1L109.628 215.61L104.956 214.144L105.824 219.623L103.604 214.898L99.7383 217.982L102.747 214.105L96.5605 212.284L102.559 213.025L100.152 206.756Z" fill="#FFF9E1"/>
<path d="M102.558 207.943L103.848 212.647L105.97 208.465L104.36 212.856L108.695 212.854L104.684 213.576L107.008 216.313L104.126 214.19L103.426 218.185L103.012 214.391L99.6075 215.605L102.608 213.639L98.7628 210.912L102.734 212.848L102.558 207.943Z" fill="#FFF9E1"/>
<path d="M67.7323 180.381L71.492 185.895L72.3795 179.541L72.2461 185.938L77.8547 184.01L72.986 186.725L77.2082 189.235L72.5368 187.769L73.4047 193.248L71.1842 188.523L67.3187 191.607L70.3273 187.73L64.1409 185.909L70.1394 186.65L67.7323 180.381Z" fill="#FFF9E1"/>
<path d="M70.1381 181.568L71.4288 186.272L73.5504 182.09L71.94 186.481L76.2752 186.479L72.2647 187.201L74.5882 189.938L71.7065 187.815L71.0061 191.81L70.5923 188.016L67.1879 189.23L70.1881 187.264L66.3432 184.537L70.3146 186.473L70.1381 181.568Z" fill="#FFF9E1"/>
<path d="M6.73941 82.0221L10.4991 87.536L11.3866 81.1821L11.2532 87.5788L16.8618 85.6508L11.9931 88.3661L16.2153 90.8756L11.5439 89.4094L12.4118 94.8889L10.1913 90.1638L6.32579 93.2477L9.33438 89.3709L3.14804 87.5501L9.14655 88.2904L6.73941 82.0221Z" fill="#FFF9E1"/>
<path d="M9.14523 83.2063L10.4359 87.9107L12.5575 83.7284L10.9471 88.1193L15.2823 88.1174L11.2718 88.8392L13.5953 91.5762L10.7136 89.4539L10.0132 93.4482L9.59947 89.6544L6.19501 90.8691L9.19518 88.9028L5.35028 86.1758L9.32176 88.1112L9.14523 83.2063Z" fill="#FFF9E1"/>
<path d="M15.5312 43.5592L19.2909 49.0732L20.1783 42.7192L20.045 49.1159L25.6536 47.1879L20.7849 49.9032L25.0071 52.4127L20.3357 50.9465L21.2036 56.426L18.9831 51.7009L15.1175 54.7849L18.1261 50.908L11.9398 49.0872L17.9383 49.8275L15.5312 43.5592Z" fill="#FFF9E1"/>
<path d="M17.937 44.7453L19.2277 49.4498L21.3493 45.2675L19.7389 49.6583L24.0741 49.6565L20.0636 50.3783L22.3871 53.1153L19.5054 50.993L18.8049 54.9873L18.3912 51.1935L14.9868 52.4082L17.9869 50.4419L14.142 47.7148L18.1135 49.6503L17.937 44.7453Z" fill="#FFF9E1"/>
<path d="M2.71056 32.0567L4.71232 34.9924L5.18483 31.6094L5.11381 35.0152L8.1 33.9887L5.50776 35.4344L7.75577 36.7705L5.2686 35.9899L5.73069 38.9073L4.54845 36.3915L2.49034 38.0335L4.09218 35.9693L0.798423 34.9999L3.99218 35.3941L2.71056 32.0567Z" fill="#FFF9E1"/>
<path d="M3.99144 32.688L4.67864 35.1928L5.80822 32.9661L4.95081 35.3038L7.25899 35.3029L5.12369 35.6871L6.36078 37.1444L4.8265 36.0144L4.45357 38.1411L4.23329 36.1212L2.42067 36.7679L4.01804 35.721L1.97092 34.2691L4.08543 35.2996L3.99144 32.688Z" fill="#FFF9E1"/>
<path d="M21.3931 64.4766L23.3948 67.4124L23.8673 64.0294L23.7963 67.4351L26.7825 66.4086L24.1903 67.8543L26.4383 69.1904L23.9511 68.4098L24.4132 71.3272L23.2309 68.8114L21.1728 70.4534L22.7747 68.3893L19.4809 67.4199L22.6747 67.814L21.3931 64.4766Z" fill="#FFF9E1"/>
<path d="M22.6739 65.108L23.3611 67.6127L24.4907 65.386L23.6333 67.7238L25.9415 67.7228L23.8062 68.1071L25.0433 69.5643L23.509 68.4344L23.1361 70.561L22.9158 68.5411L21.1032 69.1879L22.7005 68.1409L20.6534 66.689L22.7679 67.7195L22.6739 65.108Z" fill="#FFF9E1"/>
<path d="M28.5335 24.0059L31.3448 28.1289L32.0084 23.3778L31.9087 28.1609L36.1025 26.7192L32.4619 28.7496L35.6191 30.626L32.1261 29.5297L32.775 33.6269L31.1147 30.0938L28.2243 32.3998L30.4739 29.5009L25.8481 28.1394L30.3335 28.693L28.5335 24.0059Z" fill="#FFF9E1"/>
<path d="M30.3325 24.8927L31.2976 28.4105L32.884 25.2832L31.6799 28.5664L34.9215 28.565L31.9226 29.1047L33.66 31.1513L31.5053 29.5643L30.9815 32.5511L30.6722 29.7143L28.1265 30.6226L30.3699 29.1523L27.4949 27.1131L30.4645 28.5604L30.3325 24.8927Z" fill="#FFF9E1"/>
<path d="M87.7104 194.783L90.398 198.724L91.0323 194.182L90.937 198.755L94.9462 197.377L91.4659 199.318L94.4841 201.112L91.1448 200.064L91.7652 203.98L90.178 200.603L87.4148 202.807L89.5654 200.036L85.1432 198.735L89.4311 199.264L87.7104 194.783Z" fill="#FFF9E1"/>
<path d="M89.4301 195.63L90.3527 198.993L91.8693 196.004L90.7182 199.142L93.8171 199.141L90.9503 199.657L92.6112 201.614L90.5513 200.096L90.0506 202.952L89.7548 200.24L87.3212 201.108L89.4658 199.703L86.7174 197.753L89.5563 199.137L89.4301 195.63Z" fill="#FFF9E1"/>
<path d="M126.724 174.453L129.411 178.394L130.046 173.852L129.95 178.425L133.96 177.047L130.479 178.988L133.498 180.782L130.158 179.734L130.779 183.65L129.191 180.273L126.428 182.477L128.579 179.706L124.157 178.404L128.445 178.934L126.724 174.453Z" fill="#FFF9E1"/>
<path d="M128.444 175.3L129.366 178.663L130.883 175.674L129.732 178.812L132.831 178.811L129.964 179.327L131.625 181.283L129.565 179.766L129.064 182.622L128.768 179.91L126.335 180.778L128.479 179.372L125.731 177.423L128.57 178.807L128.444 175.3Z" fill="#FFF9E1"/>
<path d="M59.951 191.649L61.6164 194.091L62.0095 191.277L61.9504 194.11L64.4347 193.256L62.2781 194.459L64.1484 195.57L62.0792 194.921L62.4636 197.348L61.4801 195.255L59.7678 196.621L61.1005 194.904L58.3602 194.097L61.0173 194.425L59.951 191.649Z" fill="#FFF9E1"/>
<path d="M61.0166 192.174L61.5884 194.257L62.5281 192.405L61.8148 194.35L63.7351 194.349L61.9586 194.669L62.9878 195.881L61.7114 194.941L61.4011 196.71L61.2178 195.03L59.7098 195.568L61.0388 194.697L59.3357 193.489L61.0948 194.346L61.0166 192.174Z" fill="#FFF9E1"/>
<path d="M47.2707 298.463L53.3687 307.407L54.8081 297.101L54.5918 307.476L63.6886 304.349L55.7918 308.753L62.64 312.823L55.0633 310.445L56.471 319.332L52.8695 311.669L46.5998 316.671L51.4796 310.383L41.4457 307.429L51.1749 308.63L47.2707 298.463Z" fill="#FFF9E1"/>
<path d="M51.1726 300.385L53.266 308.016L56.7071 301.232L54.0951 308.354L61.1266 308.351L54.6218 309.522L58.3904 313.961L53.7164 310.519L52.5804 316.997L51.9093 310.844L46.3875 312.814L51.2536 309.625L45.0174 305.202L51.4589 308.341L51.1726 300.385Z" fill="#FFF9E1"/>
<path d="M22.6948 292.489L26.4695 298.025L27.3605 291.646L27.2266 298.068L32.8576 296.132L27.9695 298.859L32.2085 301.378L27.5185 299.906L28.3898 305.407L26.1605 300.663L22.2795 303.76L25.3001 299.867L19.0891 298.039L25.1115 298.783L22.6948 292.489Z" fill="#FFF9E1"/>
<path d="M25.1102 293.68L26.406 298.403L28.5361 294.204L26.9193 298.612L31.2718 298.611L27.2452 299.335L29.578 302.083L26.6848 299.952L25.9816 303.963L25.5662 300.154L22.1482 301.373L25.1603 299.399L21.3001 296.661L25.2874 298.604L25.1102 293.68Z" fill="#FFF9E1"/>
<path d="M74.3939 289.127L77.4831 293.516L78.1208 288.396L78.09 293.541L82.577 291.924L78.6944 294.165L82.1196 296.133L78.3456 295.01L79.109 299.406L77.267 295.632L74.1955 298.159L76.5684 295.005L71.5721 293.615L76.4045 294.138L74.3939 289.127Z" fill="#FFF9E1"/>
<path d="M76.3426 290.052L77.4367 293.82L79.0927 290.431L77.8503 293.981L81.3363 293.928L78.12 294.556L80.0211 296.729L77.6785 295.057L77.1629 298.277L76.7849 295.232L74.0618 296.249L76.4508 294.632L73.3265 292.485L76.5432 293.994L76.3426 290.052Z" fill="#FFF9E1"/>
<path d="M23.8413 354.515L26.9305 358.904L27.5682 353.784L27.5374 358.93L32.0244 357.312L28.1417 359.554L31.5669 361.522L27.793 360.398L28.5564 364.794L26.7144 361.021L23.6428 363.547L26.0158 360.394L21.0194 359.004L25.8518 359.527L23.8413 354.515Z" fill="#FFF9E1"/>
<path d="M25.7899 355.441L26.884 359.208L28.5401 355.82L27.2976 359.37L30.7836 359.317L27.5673 359.945L29.4684 362.118L27.1258 360.446L26.6103 363.666L26.2323 360.62L23.5092 361.638L25.8982 360.021L22.7738 357.874L25.9905 359.383L25.7899 355.441Z" fill="#FFF9E1"/>
<path d="M241.438 270.994L244.527 275.383L245.164 270.263L245.134 275.408L249.621 273.791L245.738 276.033L249.163 278L245.389 276.877L246.153 281.273L244.311 277.5L241.239 280.026L243.612 276.872L238.616 275.482L243.448 276.006L241.438 270.994Z" fill="#FFF9E1"/>
<path d="M243.386 271.919L244.48 275.687L246.136 272.298L244.894 275.848L248.38 275.795L245.164 276.423L247.065 278.597L244.722 276.924L244.207 280.145L243.829 277.099L241.105 278.116L243.494 276.499L240.37 274.352L243.587 275.861L243.386 271.919Z" fill="#FFF9E1"/>
<path d="M227.151 343.525L230.24 347.914L230.878 342.794L230.847 347.94L235.334 346.322L231.451 348.564L234.877 350.531L231.103 349.408L231.866 353.804L230.024 350.031L226.952 352.557L229.325 349.404L224.329 348.013L229.161 348.537L227.151 343.525Z" fill="#FFF9E1"/>
<path d="M229.1 344.45L230.194 348.218L231.85 344.83L230.607 348.38L234.093 348.326L230.877 348.955L232.778 351.128L230.435 349.456L229.92 352.676L229.542 349.63L226.819 350.648L229.208 349.031L226.083 346.884L229.3 348.393L229.1 344.45Z" fill="#FFF9E1"/>
<path d="M178.247 294.621L181.336 299.01L181.974 293.89L181.943 299.035L186.43 297.418L182.547 299.66L185.973 301.627L182.199 300.504L182.962 304.9L181.12 301.127L178.049 303.653L180.421 300.499L175.425 299.109L180.257 299.633L178.247 294.621Z" fill="#FFF9E1"/>
<path d="M180.195 295.546L181.289 299.314L182.946 295.925L181.703 299.475L185.189 299.422L181.973 300.05L183.874 302.223L181.531 300.551L181.016 303.772L180.638 300.726L177.915 301.743L180.304 300.126L177.179 297.979L180.396 299.488L180.195 295.546Z" fill="#FFF9E1"/>
<path d="M77.1414 411.662L80.2306 416.051L80.8683 410.931L80.8375 416.076L85.3245 414.459L81.4418 416.701L84.867 418.668L81.0931 417.545L81.8565 421.941L80.0145 418.168L76.943 420.694L79.3159 417.54L74.3196 416.15L79.1519 416.674L77.1414 411.662Z" fill="#FFF9E1"/>
<path d="M79.0901 412.587L80.1842 416.355L81.8402 412.966L80.5977 416.516L84.0838 416.463L80.8674 417.091L82.7685 419.265L80.4259 417.592L79.9104 420.813L79.5324 417.767L76.8093 418.784L79.1983 417.167L76.0739 415.02L79.2906 416.529L79.0901 412.587Z" fill="#FFF9E1"/>
<path d="M67.4685 420.277L71.5594 426.089L72.4038 419.309L72.363 426.123L78.3049 423.981L73.1634 426.949L77.6992 429.555L72.7016 428.067L73.7125 433.889L71.2732 428.892L67.2057 432.237L70.3481 428.061L63.7317 426.22L70.131 426.914L67.4685 420.277Z" fill="#FFF9E1"/>
<path d="M70.0489 421.501L71.4977 426.49L73.6908 422.003L72.0454 426.704L76.6618 426.634L72.4025 427.466L74.9201 430.344L71.8179 428.129L71.1352 432.394L70.6346 428.36L67.0286 429.708L70.1922 427.566L66.0548 424.723L70.3145 426.721L70.0489 421.501Z" fill="#FFF9E1"/>
<path d="M77.3593 431.816L81.4501 437.628L82.2945 430.848L82.2537 437.662L88.1957 435.52L83.0541 438.488L87.5899 441.094L82.5923 439.606L83.6032 445.428L81.1639 440.431L77.0965 443.776L80.2388 439.6L73.6224 437.759L80.0217 438.453L77.3593 431.816Z" fill="#FFF9E1"/>
<path d="M79.9396 433.04L81.3885 438.029L83.5815 433.542L81.9361 438.243L86.5525 438.173L82.2933 439.005L84.8108 441.883L81.7086 439.668L81.026 443.933L80.5254 439.899L76.9193 441.247L80.083 439.105L75.9455 436.262L80.2052 438.26L79.9396 433.04Z" fill="#FFF9E1"/>
<path d="M96.5912 420.277L100.682 426.089L101.527 419.309L101.486 426.123L107.428 423.981L102.286 426.949L106.822 429.555L101.824 428.067L102.835 433.889L100.396 428.892L96.3285 432.237L99.4708 428.061L92.8544 426.22L99.2537 426.914L96.5912 420.277Z" fill="#FFF9E1"/>
<path d="M99.1716 421.501L100.62 426.49L102.813 422.003L101.168 426.704L105.785 426.634L101.525 427.466L104.043 430.344L100.941 428.129L100.258 432.394L99.7574 428.36L96.1513 429.708L99.315 427.566L95.1775 424.723L99.4372 426.721L99.1716 421.501Z" fill="#FFF9E1"/>
<path d="M184.509 420.828L188.6 426.64L189.444 419.86L189.403 426.673L195.345 424.532L190.204 427.5L194.739 430.105L189.742 428.618L190.753 434.439L188.313 429.443L184.246 432.788L187.388 428.612L180.772 426.771L187.171 427.464L184.509 420.828Z" fill="#FFF9E1"/>
<path d="M187.089 422.052L188.538 427.041L190.731 422.554L189.086 427.255L193.702 427.184L189.443 428.017L191.96 430.894L188.858 428.68L188.176 432.944L187.675 428.911L184.069 430.258L187.233 428.117L183.095 425.274L187.355 427.272L187.089 422.052Z" fill="#FFF9E1"/>
<path d="M388.297 439.402L391.079 443.356L391.654 438.744L391.626 443.379L395.667 441.922L392.17 443.941L395.255 445.713L391.856 444.701L392.544 448.661L390.885 445.262L388.118 447.537L390.255 444.697L385.755 443.445L390.108 443.917L388.297 439.402Z" fill="#FFF9E1"/>
<path d="M390.052 440.234L391.037 443.628L392.529 440.576L391.41 443.773L394.55 443.725L391.653 444.291L393.365 446.249L391.255 444.743L390.791 447.643L390.45 444.9L387.998 445.816L390.149 444.36L387.335 442.426L390.233 443.785L390.052 440.234Z" fill="#FFF9E1"/>
<path d="M48.2849 348.217L53.5092 355.879L54.7423 347.05L54.557 355.938L62.3504 353.259L55.5851 357.032L61.4521 360.519L54.961 358.482L56.167 366.096L53.0815 359.53L47.7102 363.815L51.8907 358.428L43.2946 355.898L51.6297 356.927L48.2849 348.217Z" fill="#FFF9E1"/>
<path d="M51.6278 349.863L53.4213 356.401L56.3693 350.589L54.1316 356.69L60.1556 356.688L54.5828 357.691L57.8114 361.494L53.8072 358.545L52.8339 364.095L52.259 358.823L47.5284 360.511L51.6972 357.779L46.3546 353.99L51.8731 356.679L51.6278 349.863Z" fill="#FFF9E1"/>
<path d="M372.017 334.182L378.115 343.125L379.554 332.82L379.338 343.195L388.434 340.068L380.538 344.472L387.386 348.542L379.809 346.164L381.217 355.051L377.615 347.387L371.346 352.389L376.225 346.101L366.192 343.148L375.921 344.349L372.017 334.182Z" fill="#FFF9E1"/>
<path d="M375.918 336.104L378.012 343.734L381.453 336.951L378.841 344.073L385.872 344.07L379.368 345.24L383.136 349.68L378.462 346.237L377.326 352.716L376.655 346.563L371.133 348.533L375.999 345.344L369.763 340.92L376.205 344.06L375.918 336.104Z" fill="#FFF9E1"/>
<path d="M331.904 253.407L338.002 262.35L339.441 252.044L339.225 262.419L348.322 259.292L340.425 263.696L347.273 267.766L339.697 265.388L341.104 274.276L337.503 266.612L331.233 271.614L336.113 265.326L326.079 262.373L335.808 263.573L331.904 253.407Z" fill="#FFF9E1"/>
<path d="M335.806 255.329L337.899 262.959L341.341 256.176L338.729 263.297L345.76 263.294L339.255 264.465L343.024 268.904L338.35 265.462L337.214 271.941L336.543 265.787L331.021 267.757L335.887 264.568L329.651 260.145L336.092 263.284L335.806 255.329Z" fill="#FFF9E1"/>
</svg>
