<svg width="45" height="46" viewBox="0 0 45 46" fill="none" xmlns="http://www.w3.org/2000/svg">
<path d="M31.9481 9.29493L22.8313 22.6656L20.6793 7.25795L21.0027 22.7693L7.40245 18.0941L19.2085 24.6784L8.9702 30.7635L20.2978 27.2083L18.1932 40.4954L23.5776 29.0375L32.9511 36.5157L25.6556 27.1147L40.6568 22.6996L26.1111 24.4947L31.9481 9.29493Z" fill="#FFF9E1"/>
<path d="M26.1145 12.17L22.9847 23.5778L17.8401 13.4362L21.7452 24.0835L11.2328 24.079L20.9578 25.8292L15.3236 32.4662L22.3113 27.3198L24.0098 37.0055L25.013 27.806L33.2684 30.7515L25.9934 25.9835L35.3168 19.3707L25.6865 24.064L26.1145 12.17Z" fill="#FFF9E1"/>
</svg>
