<svg width="47" height="51" viewBox="0 0 47 51" fill="none" xmlns="http://www.w3.org/2000/svg">
<path d="M21.2342 0L23.4122 24.2133L37.5095 5.57303L25.7354 25.6874L47 29.505H26.6925L35.6727 44.9803L23.4122 32.0273L16.4511 51L17.7705 32.0273L0.000495167 34.9801L16.4511 27.9841L0 11.2149L17.7705 24.2133L21.2342 0Z" fill="#FFF9E1"/>
<path d="M26.7849 8.03967L22.5439 25.2969L36.7144 15.7554L23.8003 26.8674L37.5959 34.5536L23.5559 29.7339L26.0917 42.5644L20.6894 30.6992L11.3738 42.1642L16.789 29.3602L3.80251 27.1842L16.8363 26.2517L9.44254 10.7536L18.6435 23.9579L26.7849 8.03967Z" fill="#FFF9E1"/>
</svg>
