<svg width="2560" height="601" viewBox="0 0 2560 601" fill="none" xmlns="http://www.w3.org/2000/svg">
<path d="M11 1.5H10.5V2V599V599.5H11H149.977H150.272L150.414 599.242L403.026 142.134H405.218C404.708 146.261 403.967 154.447 402.996 166.679L402.995 166.688L402.995 166.698C402.486 178.957 401.723 193.447 400.705 210.167L400.704 210.175L400.704 210.182C400.195 226.905 399.686 244.465 399.177 262.86C398.667 280.701 398.413 297.15 398.413 312.206V599V599.5H398.913H502H502.5V599V2V1.5H502H363.787H363.493L363.35 1.75702L111.502 454.685H110.064C110.554 450.107 111.044 442.194 111.532 430.959L111.532 430.958C112.041 418.692 112.55 404.476 113.059 388.31L113.059 388.309C113.569 371.586 114.078 354.585 114.587 337.305C115.096 320.021 115.351 304.408 115.351 290.466V2V1.5H114.851H11Z" fill="#7D7D7D" stroke="#7D7D7D"/>
<path d="M1020 599.5H1020.5V599V2V1.5H1020H889.908H889.408V2V235.618H646.592V2V1.5H646.092H516H515.5V2V599V599.5H516H646.092H646.592V599V341.971H889.408V599V599.5H889.908H1020Z" fill="#7D7D7D" stroke="#7D7D7D"/>
<path d="M1343.67 599H1217.33V107.353H1055V2H1506V107.353H1343.67V599Z" fill="#7D7D7D"/>
<path d="M1963 598H1622V3H1963V106.333H1747.28V237.167H1948.07V340.5H1747.28V493.833H1963V598Z" fill="#7D7D7D"/>
<path d="M2321.08 4C2397.77 4 2453.63 20.6667 2488.64 54C2524.21 86.7778 2542 132.056 2542 189.833C2542 215.944 2538.11 240.944 2530.33 264.833C2522.55 288.167 2509.49 309.278 2491.15 328.167C2473.36 346.5 2449.74 360.944 2420.28 371.5C2390.83 382.056 2354.42 387.333 2311.07 387.333H2256.88V599H2131V4H2321.08ZM2314.41 107.333H2256.88V284H2298.57C2322.47 284 2343.03 280.944 2360.26 274.833C2377.49 268.722 2390.83 259 2400.28 245.667C2409.72 232.333 2414.45 215.111 2414.45 194C2414.45 164.556 2406.39 142.889 2390.27 129C2374.15 114.556 2348.87 107.333 2314.41 107.333Z" fill="#7D7D7D"/>
</svg>
